<?xml version="1.0" encoding="UTF-8"?>
<svg version="1.1" xmlns="http://www.w3.org/2000/svg" width="100" height="100">
<path d="M0 0 C2.875 -0.125 2.875 -0.125 6 0 C6.99 0.99 6.99 0.99 8 2 C10.21072977 2.24253813 10.21072977 2.24253813 12.625 2.125 C13.44226563 2.10695313 14.25953125 2.08890625 15.1015625 2.0703125 C15.72804688 2.04710937 16.35453125 2.02390625 17 2 C18.52448631 4.9826906 19.93940067 7.818202 21 11 C20.71125 11.70125 20.4225 12.4025 20.125 13.125 C18.92154354 16.20049985 18.63047427 19.02319925 18.29492188 22.28955078 C17.72753089 27.50409938 16.96016007 32.68757236 16.1875 37.875 C16.03474609 39.00164063 15.88199219 40.12828125 15.72460938 41.2890625 C15.56154297 42.36671875 15.39847656 43.444375 15.23046875 44.5546875 C15.09020264 45.52905762 14.94993652 46.50342773 14.80541992 47.50732422 C13.81492851 50.57277354 12.81838399 51.49459166 10 53 C6.5 52.75 6.5 52.75 4.42578125 52.39453125 C1.51866386 51.92171506 -1.37707609 51.67531548 -4.3125 51.4375 C-5.31925781 51.35371094 -6.32601562 51.26992187 -7.36328125 51.18359375 C-9.23864323 51.05301299 -11.12009737 51 -13 51 C-13.34804687 51.93585938 -13.34804687 51.93585938 -13.703125 52.890625 C-15.4219015 55.68622533 -16.59679849 55.92980308 -19.75 56.75 C-33.42323045 59.77563624 -49.82071465 59.53158879 -63.0625 54.9375 C-66.72201548 51.27798452 -66.86286204 46.10278212 -67.1875 41.125 C-67 39 -67 39 -66 36 C-66.99 35.67 -67.98 35.34 -69 35 C-69 33.68 -69 32.36 -69 31 C-68.01 31 -67.02 31 -66 31 C-66.33 30.34 -66.66 29.68 -67 29 C-67.42222151 25.28445073 -67.13020872 23.27126817 -65.5 19.875 C-60.16590241 13.74078777 -52.8795032 11.89694633 -45 11 C-38.24026666 10.65939328 -31.68430649 10.97164516 -25 12 C-25.20625 11.401875 -25.4125 10.80375 -25.625 10.1875 C-26 8 -26 8 -24 5 C-23.01 5 -22.02 5 -21 5 C-20.67 3.68 -20.34 2.36 -20 1 C-18.02 1 -16.04 1 -14 1 C-13.505 1.99 -13.505 1.99 -13 3 C-12.38125 2.835 -11.7625 2.67 -11.125 2.5 C-9 2 -9 2 -7 2 C-6.154375 1.814375 -5.30875 1.62875 -4.4375 1.4375 C-3.633125 1.293125 -2.82875 1.14875 -2 1 C-1.505 1.495 -1.505 1.495 -1 2 C-0.67 1.34 -0.34 0.68 0 0 Z " fill="#C22718" transform="translate(74,20)"/>
<path d="M0 0 C2.875 -0.125 2.875 -0.125 6 0 C6.99 0.99 6.99 0.99 8 2 C10.21072977 2.24253813 10.21072977 2.24253813 12.625 2.125 C13.44226563 2.10695313 14.25953125 2.08890625 15.1015625 2.0703125 C15.72804688 2.04710937 16.35453125 2.02390625 17 2 C18.52448631 4.9826906 19.93940067 7.818202 21 11 C20.71125 11.70125 20.4225 12.4025 20.125 13.125 C18.92154354 16.20049985 18.63047427 19.02319925 18.29492188 22.28955078 C17.72753089 27.50409938 16.96016007 32.68757236 16.1875 37.875 C16.03474609 39.00164063 15.88199219 40.12828125 15.72460938 41.2890625 C15.56154297 42.36671875 15.39847656 43.444375 15.23046875 44.5546875 C15.09020264 45.52905762 14.94993652 46.50342773 14.80541992 47.50732422 C13.81492851 50.57277354 12.81838399 51.49459166 10 53 C6.5 52.75 6.5 52.75 4.42578125 52.39453125 C1.51866386 51.92171506 -1.37707609 51.67531548 -4.3125 51.4375 C-5.31925781 51.35371094 -6.32601562 51.26992187 -7.36328125 51.18359375 C-9.23864323 51.05301299 -11.12009737 51 -13 51 C-13.34804687 51.93585938 -13.34804687 51.93585938 -13.703125 52.890625 C-15.4219015 55.68622533 -16.59679849 55.92980308 -19.75 56.75 C-30.49061489 59.15715364 -43.24845945 59.38683961 -54 57 C-54 56.67 -54 56.34 -54 56 C-53.19892822 55.98018066 -52.39785645 55.96036133 -51.57250977 55.93994141 C-47.90220652 55.84400309 -44.23241955 55.73460437 -40.5625 55.625 C-39.30244141 55.5940625 -38.04238281 55.563125 -36.74414062 55.53125 C-29.93587419 55.31793617 -23.51346598 55.08808113 -17 53 C-15.98977951 51.6743936 -14.98847668 50.34189851 -14 49 C-10.6015625 48.5390625 -10.6015625 48.5390625 -6.625 48.625 C-5.31789062 48.63789062 -4.01078125 48.65078125 -2.6640625 48.6640625 C0.70315321 48.97278377 2.9499483 49.64626328 6 51 C8.1182079 50.76230794 8.1182079 50.76230794 10 50 C10.99 49.67 11.98 49.34 13 49 C12.97679688 48.40719238 12.95359375 47.81438477 12.9296875 47.20361328 C12.78407182 40.52479411 13.64346715 34.40102289 15 27.875 C15.19078125 26.91851562 15.3815625 25.96203125 15.578125 24.9765625 C16.04360048 22.64918508 16.51763952 20.32392556 17 18 C14.69 18 12.38 18 10 18 C10 17.67 10 17.34 10 17 C10.928125 16.979375 11.85625 16.95875 12.8125 16.9375 C16.00696214 16.37155641 16.00696214 16.37155641 17.06640625 14.375 C17.79974771 12.61781467 18.40775925 10.80962451 19 9 C17.68 9.33 16.36 9.66 15 10 C15.33 7.69 15.66 5.38 16 3 C12.7014861 3.72268235 12.7014861 3.72268235 11.3125 7.0625 C10.879375 8.031875 10.44625 9.00125 10 10 C9.67 10 9.34 10 9 10 C9 8.35 9 6.7 9 5 C8.01 5 7.02 5 6 5 C6 4.01 6 3.02 6 2 C4.35 2 2.7 2 1 2 C0.67 3.98 0.34 5.96 0 8 C-0.99 8 -1.98 8 -3 8 C-3 13.28 -3 18.56 -3 24 C-3.66 24.33 -4.32 24.66 -5 25 C-5.02903577 21.89585298 -5.0468107 18.79174091 -5.0625 15.6875 C-5.07087891 14.80642578 -5.07925781 13.92535156 -5.08789062 13.01757812 C-5.09111328 12.17001953 -5.09433594 11.32246094 -5.09765625 10.44921875 C-5.10289307 9.66893311 -5.10812988 8.88864746 -5.11352539 8.0847168 C-5 6 -5 6 -4 3 C-4.66 3 -5.32 3 -6 3 C-6.33 6.96 -6.66 10.92 -7 15 C-7.495 13.02 -7.495 13.02 -8 11 C-9.175625 11.0928125 -9.175625 11.0928125 -10.375 11.1875 C-11.674375 11.0946875 -11.674375 11.0946875 -13 11 C-15 8 -15 8 -15.5 5.375 C-15.7475 4.199375 -15.7475 4.199375 -16 3 C-16.66 2.67 -17.32 2.34 -18 2 C-18.33 3.65 -18.66 5.3 -19 7 C-20.32 7.33 -21.64 7.66 -23 8 C-22.505 11.465 -22.505 11.465 -22 15 C-23.155 14.835 -24.31 14.67 -25.5 14.5 C-37.54271907 13.18312581 -50.29737458 12.5286451 -61 19 C-63.60791476 21.52098427 -63.97577002 22.58001368 -64.1875 26.25 C-64.125625 27.1575 -64.06375 28.065 -64 29 C-56.08696008 32.2598284 -48.99431718 32.42051522 -40.5 32.3125 C-39.23285156 32.31572266 -37.96570313 32.31894531 -36.66015625 32.32226562 C-25.00162021 32.73155511 -25.00162021 32.73155511 -15 28 C-14.65638394 24.04841529 -14.91098803 21.39464446 -17 18 C-16.34 17.67 -15.68 17.34 -15 17 C-14.505 17.99 -14.505 17.99 -14 19 C-13.67 17.35 -13.34 15.7 -13 14 C-11 16 -11 16 -10.83984375 18.8984375 C-10.87207031 20.04570313 -10.90429688 21.19296875 -10.9375 22.375 C-11.08782179 27.76495997 -11.08782179 27.76495997 -10 33 C-11.98 33.495 -11.98 33.495 -14 34 C-14 35.32 -14 36.64 -14 38 C-14.66 38 -15.32 38 -16 38 C-16.75 36.25 -16.75 36.25 -17 34 C-15.0625 31.75 -15.0625 31.75 -13 30 C-13.81791016 30.41572266 -13.81791016 30.41572266 -14.65234375 30.83984375 C-20.21722476 33.51288916 -24.84095196 34.60894933 -31 35 C-30.67 35.66 -30.34 36.32 -30 37 C-30.99 37 -31.98 37 -33 37 C-33 37.99 -33 38.98 -33 40 C-34.670625 39.9690625 -34.670625 39.9690625 -36.375 39.9375 C-39.83215921 39.73619282 -39.83215921 39.73619282 -42 41 C-41.484375 41.2475 -40.96875 41.495 -40.4375 41.75 C-37.22815849 43.39581616 -34.12414336 45.1976096 -31 47 C-31 47.33 -31 47.66 -31 48 C-34.04172719 48.0271045 -37.08320997 48.04688964 -40.125 48.0625 C-40.9809375 48.07087891 -41.836875 48.07925781 -42.71875 48.08789062 C-47.28274572 48.10544445 -51.49665087 47.83085046 -56 47 C-57.33981486 47.3062434 -58.67511887 47.63451555 -60 48 C-60.99 47.67 -61.98 47.34 -63 47 C-63.05167527 49.42267086 -63.05167527 49.42267086 -62 52 C-58.52692672 53.86983745 -58.52692672 53.86983745 -55 55 C-55 55.33 -55 55.66 -55 56 C-62.47589642 55.50977728 -62.47589642 55.50977728 -64.71484375 53.33203125 C-66.30502925 50.44649707 -66.53870026 48.21670941 -66.75 44.9375 C-66.82734375 43.89464844 -66.9046875 42.85179687 -66.984375 41.77734375 C-67 39 -67 39 -66 36 C-66.99 35.67 -67.98 35.34 -69 35 C-69 33.68 -69 32.36 -69 31 C-68.01 31 -67.02 31 -66 31 C-66.33 30.34 -66.66 29.68 -67 29 C-67.42222151 25.28445073 -67.13020872 23.27126817 -65.5 19.875 C-60.16590241 13.74078777 -52.8795032 11.89694633 -45 11 C-38.24026666 10.65939328 -31.68430649 10.97164516 -25 12 C-25.20625 11.401875 -25.4125 10.80375 -25.625 10.1875 C-26 8 -26 8 -24 5 C-23.01 5 -22.02 5 -21 5 C-20.67 3.68 -20.34 2.36 -20 1 C-18.02 1 -16.04 1 -14 1 C-13.505 1.99 -13.505 1.99 -13 3 C-12.38125 2.835 -11.7625 2.67 -11.125 2.5 C-9 2 -9 2 -7 2 C-6.154375 1.814375 -5.30875 1.62875 -4.4375 1.4375 C-3.633125 1.293125 -2.82875 1.14875 -2 1 C-1.505 1.495 -1.505 1.495 -1 2 C-0.67 1.34 -0.34 0.68 0 0 Z " fill="#2C2721" transform="translate(74,20)"/>
<path d="M0 0 C0.99 0.33 1.98 0.66 3 1 C4.1875 4.5625 4.1875 4.5625 5 8 C7.475 8.495 7.475 8.495 10 9 C10.66 6.36 11.32 3.72 12 1 C12.66 1 13.32 1 14 1 C14 8.59 14 16.18 14 24 C7 23 7 23 6 22 C5.85884839 19.32941149 5.95752893 16.67567762 6 14 C5.34 15.32 4.68 16.64 4 18 C3.67 18 3.34 18 3 18 C3.495 18.99 3.495 18.99 4 20 C4.46100383 25.41679497 4.46100383 25.41679497 2.72070312 27.6184082 C-3.65340494 32.736325 -14.85754249 31.33193657 -22.5 31.3125 C-24.40072266 31.33666992 -24.40072266 31.33666992 -26.33984375 31.36132812 C-33.55939786 31.3650844 -39.32717313 30.81598997 -46 28 C-47 27 -47 27 -47.375 24.3125 C-46.89335266 20.05794851 -45.18215277 17.70243124 -42 15 C-35.24290036 11.43716565 -28.72196372 10.80532432 -21.1875 10.8125 C-20.135625 10.8115332 -20.135625 10.8115332 -19.0625 10.81054688 C-13.75257387 10.86452949 -9.08911311 11.54596768 -4 13 C-4.66 10.69 -5.32 8.38 -6 6 C-4.35 5.67 -2.7 5.34 -1 5 C-0.67 3.35 -0.34 1.7 0 0 Z " fill="#D6821F" transform="translate(56,22)"/>
<path d="M0 0 C1.32 0.33 2.64 0.66 4 1 C3.34 1 2.68 1 2 1 C2.15597656 1.62648437 2.31195313 2.25296875 2.47265625 2.8984375 C2.76462891 4.12433594 2.76462891 4.12433594 3.0625 5.375 C3.25972656 6.18710937 3.45695312 6.99921875 3.66015625 7.8359375 C4 10 4 10 3 12 C2.92934383 14.04055005 2.91578024 16.08334257 2.9375 18.125 C2.94652344 19.22070312 2.95554688 20.31640625 2.96484375 21.4453125 C2.97644531 22.28835937 2.98804688 23.13140625 3 24 C1.35 24 -0.3 24 -2 24 C-2.226875 24.61875 -2.45375 25.2375 -2.6875 25.875 C-4.74467774 29.20566872 -7.54671426 29.65138453 -11.21362305 30.53100586 C-14.58281488 31.09809755 -17.85402263 31.21801711 -21.26953125 31.31640625 C-21.95053391 31.33718735 -22.63153656 31.35796844 -23.33317566 31.37937927 C-25.49285508 31.44437878 -27.65264846 31.50352712 -29.8125 31.5625 C-31.28321456 31.6057325 -32.75391791 31.64934825 -34.22460938 31.69335938 C-37.81628717 31.80000859 -41.40809082 31.90141349 -45 32 C-45.33 31.34 -45.66 30.68 -46 30 C-47.64821244 28.96986723 -49.31503702 27.96885372 -51 27 C-52 26 -52 26 -52.0625 23.4375 C-52.041875 22.633125 -52.02125 21.82875 -52 21 C-51.0925 21.185625 -50.185 21.37125 -49.25 21.5625 C-46.20862587 21.97191575 -44.84883123 21.75968833 -42 21 C-41.3905957 21.15267334 -40.78119141 21.30534668 -40.15332031 21.46264648 C-37.90020846 22.02490263 -35.98960773 22.11421148 -33.671875 22.09765625 C-32.87265625 22.09443359 -32.0734375 22.09121094 -31.25 22.08789062 C-30.425 22.07951172 -29.6 22.07113281 -28.75 22.0625 C-27.90953125 22.05798828 -27.0690625 22.05347656 -26.203125 22.04882812 C-24.13538599 22.03707961 -22.06768376 22.01914522 -20 22 C-21.10472656 21.55011719 -22.20945312 21.10023437 -23.34765625 20.63671875 C-26.60850545 19.30878833 -28.67598041 17.69586273 -31 15 C-27.30458414 14.04975021 -24.69541586 14.04975021 -21 15 C-21 14.01 -21 13.02 -21 12 C-20.34 11.67 -19.68 11.34 -19 11 C-19.495 10.01 -19.495 10.01 -20 9 C-19.35933594 8.96261719 -18.71867187 8.92523438 -18.05859375 8.88671875 C-12.35652169 8.45332728 -8.15659227 7.42044127 -3 5 C-2.01 5 -1.02 5 0 5 C-0.66 5.763125 -1.32 6.52625 -2 7.3125 C-4.29850538 9.84277939 -4.29850538 9.84277939 -4 13 C-3.34 13 -2.68 13 -2 13 C-2 11.68 -2 10.36 -2 9 C-1.01 8.67 -0.02 8.34 1 8 C0.505 4.04 0.505 4.04 0 0 Z " fill="#371708" transform="translate(62,45)"/>
<path d="M0 0 C2 2 2 2 2.16015625 4.8984375 C2.12792969 6.04570313 2.09570312 7.19296875 2.0625 8.375 C1.91217821 13.76495997 1.91217821 13.76495997 3 19 C1.68 19.33 0.36 19.66 -1 20 C-1 21.32 -1 22.64 -1 24 C-1.66 24 -2.32 24 -3 24 C-3.75 22.25 -3.75 22.25 -4 20 C-2.0625 17.75 -2.0625 17.75 0 16 C-0.81791016 16.41572266 -0.81791016 16.41572266 -1.65234375 16.83984375 C-7.21722476 19.51288916 -11.84095196 20.60894933 -18 21 C-17.505 21.99 -17.505 21.99 -17 23 C-17.99 23 -18.98 23 -20 23 C-20 23.99 -20 24.98 -20 26 C-21.11375 25.979375 -22.2275 25.95875 -23.375 25.9375 C-26.83215921 25.73619282 -26.83215921 25.73619282 -29 27 C-28.484375 27.2475 -27.96875 27.495 -27.4375 27.75 C-24.22815849 29.39581616 -21.12414336 31.1976096 -18 33 C-18 33.33 -18 33.66 -18 34 C-21.04172719 34.0271045 -24.08320997 34.04688964 -27.125 34.0625 C-27.9809375 34.07087891 -28.836875 34.07925781 -29.71875 34.08789062 C-34.28274572 34.10544445 -38.49665087 33.83085046 -43 33 C-44.33981486 33.3062434 -45.67511887 33.63451555 -47 34 C-47.99 33.67 -48.98 33.34 -50 33 C-50.05167527 35.42267086 -50.05167527 35.42267086 -49 38 C-45.52692672 39.86983745 -45.52692672 39.86983745 -42 41 C-42 41.33 -42 41.66 -42 42 C-49.49122807 41.50877193 -49.49122807 41.50877193 -51.71875 39.28125 C-53.19836945 36.64680562 -53.49000896 34.75186386 -53.6875 31.75 C-53.75324219 30.85796875 -53.81898437 29.9659375 -53.88671875 29.046875 C-53.92410156 28.37140625 -53.96148437 27.6959375 -54 27 C-52.35 27 -50.7 27 -49 27 C-49.33 26.01 -49.66 25.02 -50 24 C-49.34 24 -48.68 24 -48 24 C-46.9171875 25.5159375 -46.9171875 25.5159375 -45.8125 27.0625 C-44.56618837 28.75544527 -44.56618837 28.75544527 -43 30 C-39.51167779 29.94087589 -37.1147063 29.55735315 -34 28 C-36.31 27.67 -38.62 27.34 -41 27 C-41 26.67 -41 26.34 -41 26 C-39.02 25.67 -37.04 25.34 -35 25 C-36.32 24.34 -37.64 23.68 -39 23 C-35.24600202 21.7960663 -31.66782588 21.90122383 -27.75 21.9375 C-25.85507812 21.95103516 -25.85507812 21.95103516 -23.921875 21.96484375 C-22.95765625 21.97644531 -21.9934375 21.98804687 -21 22 C-20.67 21.34 -20.34 20.68 -20 20 C-22.64 20.66 -25.28 21.32 -28 22 C-28 21.34 -28 20.68 -28 20 C-32.62 20.33 -37.24 20.66 -42 21 C-42 21.66 -42 22.32 -42 23 C-43.98 23 -45.96 23 -48 23 C-46.68 21.68 -45.36 20.36 -44 19 C-44.66 18.67 -45.32 18.34 -46 18 C-45.04746338 18.01047363 -44.09492676 18.02094727 -43.11352539 18.03173828 C-39.54081052 18.06825181 -35.96811175 18.09101318 -32.39526367 18.10986328 C-30.85617285 18.11985006 -29.31710065 18.13344419 -27.77807617 18.15087891 C-15.74517087 18.34822518 -15.74517087 18.34822518 -4 16 C-1.70073702 14.12953174 -1.70073702 14.12953174 -1.75 11.125 C-1.98847747 8.14403168 -2.45492665 6.5107442 -4 4 C-3.34 3.67 -2.68 3.34 -2 3 C-1.505 3.99 -1.505 3.99 -1 5 C-0.67 3.35 -0.34 1.7 0 0 Z " fill="#56250E" transform="translate(61,34)"/>
<path d="M0 0 C1.14339844 0.32484375 2.28679688 0.6496875 3.46484375 0.984375 C10.02998279 2.43844219 16.65194629 2.29919261 23.33862305 2.26074219 C25.56131157 2.25000574 27.78319511 2.26069315 30.00585938 2.2734375 C36.91200155 2.27924269 43.37544456 2.1936767 50 0 C50.36821823 4.5413582 50.36821823 4.5413582 48.71850586 6.59619141 C42.15247276 11.95983544 30.06345251 10.44691726 21.9375 10.625 C20.48500473 10.66326196 19.03253016 10.70231819 17.58007812 10.7421875 C14.05357688 10.83728105 10.52691721 10.92163114 7 11 C6.67 10.34 6.34 9.68 6 9 C4.35178756 7.96986723 2.68496298 6.96885372 1 6 C0 5 0 5 -0.0625 2.4375 C-0.041875 1.633125 -0.02125 0.82875 0 0 Z " fill="#D57D1B" transform="translate(10,66)"/>
<path d="M0 0 C1.65 0 3.3 0 5 0 C5 0.99 5 1.98 5 3 C5.99 3 6.98 3 8 3 C8.33 4.32 8.66 5.64 9 7 C9.99 5.02 10.98 3.04 12 1 C12.99 1 13.98 1 15 1 C15 2.98 15 4.96 15 7 C15.99 7 16.98 7 18 7 C17.45276317 10.37462715 16.9451 12.08235 15 15 C13.515 15.185625 13.515 15.185625 12 15.375 C11.01 15.58125 10.02 15.7875 9 16 C7.81608777 18.37625345 7.81608777 18.37625345 7 21 C4.69758543 23.30241457 3.64405299 23.9818711 0.36328125 24.07421875 C-0.41660156 24.04972656 -1.19648437 24.02523437 -2 24 C-2.05425013 21.12474331 -2.09379277 18.25052354 -2.125 15.375 C-2.14175781 14.56675781 -2.15851563 13.75851563 -2.17578125 12.92578125 C-2.21420986 8.19906185 -1.82737094 4.44612298 0 0 Z " fill="#B6801F" transform="translate(75,22)"/>
<path d="M0 0 C2.875 -0.125 2.875 -0.125 6 0 C6.66 0.66 7.32 1.32 8 2 C10.21072977 2.24253813 10.21072977 2.24253813 12.625 2.125 C13.44226563 2.10695313 14.25953125 2.08890625 15.1015625 2.0703125 C15.72804688 2.04710937 16.35453125 2.02390625 17 2 C18.52448631 4.9826906 19.93940067 7.818202 21 11 C20.71125 11.70125 20.4225 12.4025 20.125 13.125 C18.92154354 16.20049985 18.63047427 19.02319925 18.29492188 22.28955078 C17.72753089 27.50409938 16.96016007 32.68757236 16.1875 37.875 C16.03474609 39.00164063 15.88199219 40.12828125 15.72460938 41.2890625 C15.56154297 42.36671875 15.39847656 43.444375 15.23046875 44.5546875 C15.09020264 45.52905762 14.94993652 46.50342773 14.80541992 47.50732422 C13.81492851 50.57277354 12.81838399 51.49459166 10 53 C6.5 52.75 6.5 52.75 4.42578125 52.39453125 C1.51866386 51.92171506 -1.37707609 51.67531548 -4.3125 51.4375 C-5.31925781 51.35371094 -6.32601562 51.26992187 -7.36328125 51.18359375 C-9.23864323 51.05301299 -11.12009737 51 -13 51 C-13.34804687 51.93585938 -13.34804687 51.93585938 -13.703125 52.890625 C-15.4219015 55.68622533 -16.59679849 55.92980308 -19.75 56.75 C-30.49061489 59.15715364 -43.24845945 59.38683961 -54 57 C-54 56.67 -54 56.34 -54 56 C-53.19892822 55.98018066 -52.39785645 55.96036133 -51.57250977 55.93994141 C-47.90220652 55.84400309 -44.23241955 55.73460437 -40.5625 55.625 C-39.30244141 55.5940625 -38.04238281 55.563125 -36.74414062 55.53125 C-29.93587419 55.31793617 -23.51346598 55.08808113 -17 53 C-15.98977951 51.6743936 -14.98847668 50.34189851 -14 49 C-10.6015625 48.5390625 -10.6015625 48.5390625 -6.625 48.625 C-5.31789062 48.63789062 -4.01078125 48.65078125 -2.6640625 48.6640625 C0.70315321 48.97278377 2.9499483 49.64626328 6 51 C8.1182079 50.76230794 8.1182079 50.76230794 10 50 C10.99 49.67 11.98 49.34 13 49 C12.97679688 48.40719238 12.95359375 47.81438477 12.9296875 47.20361328 C12.78407182 40.52479411 13.64346715 34.40102289 15 27.875 C15.19078125 26.91851562 15.3815625 25.96203125 15.578125 24.9765625 C16.04360048 22.64918508 16.51763952 20.32392556 17 18 C14.69 18 12.38 18 10 18 C10 17.67 10 17.34 10 17 C10.928125 16.979375 11.85625 16.95875 12.8125 16.9375 C16.00696214 16.37155641 16.00696214 16.37155641 17.06640625 14.375 C17.79974771 12.61781467 18.40775925 10.80962451 19 9 C17.68 9.33 16.36 9.66 15 10 C15.33 7.69 15.66 5.38 16 3 C12.7014861 3.72268235 12.7014861 3.72268235 11.3125 7.0625 C10.879375 8.031875 10.44625 9.00125 10 10 C9.67 10 9.34 10 9 10 C9 8.35 9 6.7 9 5 C8.01 5 7.02 5 6 5 C6 4.01 6 3.02 6 2 C4.35 2 2.7 2 1 2 C0.67 3.32 0.34 4.64 0 6 C-1 3 -1 3 0 0 Z " fill="#2D211D" transform="translate(74,20)"/>
<path d="M0 0 C0.99 0.33 1.98 0.66 3 1 C4.1875 4.5625 4.1875 4.5625 5 8 C6.65 8.33 8.3 8.66 10 9 C10.66 6.36 11.32 3.72 12 1 C12.66 1 13.32 1 14 1 C14 8.59 14 16.18 14 24 C7 23 7 23 6 22 C5.85884839 19.32941149 5.95752893 16.67567762 6 14 C5.34 15.32 4.68 16.64 4 18 C3.34 17.34 2.68 16.68 2 16 C0.67696283 15.6278958 -0.65737935 15.29369827 -2 15 C-4 14 -4 14 -4.6328125 12.15234375 C-4.79523437 11.42144531 -4.95765625 10.69054687 -5.125 9.9375 C-5.29257812 9.20402344 -5.46015625 8.47054688 -5.6328125 7.71484375 C-5.75398438 7.14894531 -5.87515625 6.58304688 -6 6 C-4.35 5.67 -2.7 5.34 -1 5 C-0.67 3.35 -0.34 1.7 0 0 Z " fill="#B36E19" transform="translate(56,22)"/>
<path d="M0 0 C0.66 0.66 1.32 1.32 2 2 C1.01 2.8971875 1.01 2.8971875 0 3.8125 C-2.3373846 5.87501834 -2.3373846 5.87501834 -2 9 C-1.01 9.33 -0.02 9.66 1 10 C1 10.33 1 10.66 1 11 C0.195625 10.87625 -0.60875 10.7525 -1.4375 10.625 C-5.98171071 11.10333797 -8.2223597 13.00902072 -11.75390625 15.78515625 C-14 17 -14 17 -16.4453125 16.8125 C-19.12460477 15.96037035 -21.71397785 15.01155582 -24.3125 13.9375 C-25.63701172 13.39416016 -25.63701172 13.39416016 -26.98828125 12.83984375 C-27.65214844 12.56269531 -28.31601562 12.28554688 -29 12 C-25.1496895 9.43312633 -23.41430237 10.16711276 -19 11 C-19 10.01 -19 9.02 -19 8 C-18.34 7.67 -17.68 7.34 -17 7 C-17.33 6.34 -17.66 5.68 -18 5 C-17.35933594 4.96261719 -16.71867187 4.92523438 -16.05859375 4.88671875 C-7.36321088 4.29938219 -7.36321088 4.29938219 0 0 Z " fill="#462712" transform="translate(60,49)"/>
<path d="M0 0 C2.64 0 5.28 0 8 0 C7.33057553 6.99250316 6.58629547 13.97059366 5.6875 20.9375 C5.58244141 21.86884766 5.47738281 22.80019531 5.36914062 23.75976562 C5.25119141 24.65244141 5.13324219 25.54511719 5.01171875 26.46484375 C4.91334717 27.265271 4.81497559 28.06569824 4.71362305 28.89038086 C3.76659101 31.69000586 2.5698168 32.60389334 0 34 C-0.99 33.67 -1.98 33.34 -3 33 C-2.34 33 -1.68 33 -1 33 C-0.94392578 31.79730469 -0.94392578 31.79730469 -0.88671875 30.5703125 C-0.30791962 20.56049225 1.22297726 10.8574469 3 1 C2.01 1.33 1.02 1.66 0 2 C0 1.34 0 0.68 0 0 Z " fill="#951B15" transform="translate(83,38)"/>
<path d="M0 0 C2 2 2 2 2.16015625 4.8984375 C2.12792969 6.04570313 2.09570312 7.19296875 2.0625 8.375 C1.91217821 13.76495997 1.91217821 13.76495997 3 19 C1.68 19.33 0.36 19.66 -1 20 C-1 21.32 -1 22.64 -1 24 C-1.66 24 -2.32 24 -3 24 C-3.75 22.25 -3.75 22.25 -4 20 C-2.0625 17.75 -2.0625 17.75 0 16 C-0.81791016 16.41572266 -0.81791016 16.41572266 -1.65234375 16.83984375 C-7.21722476 19.51288916 -11.84095196 20.60894933 -18 21 C-17.67 21.66 -17.34 22.32 -17 23 C-19.31 23.33 -21.62 23.66 -24 24 C-23.67 23.34 -23.34 22.68 -23 22 C-22.34 22 -21.68 22 -21 22 C-20.67 21.34 -20.34 20.68 -20 20 C-22.64 20.66 -25.28 21.32 -28 22 C-28 21.34 -28 20.68 -28 20 C-32.62 20.33 -37.24 20.66 -42 21 C-42 21.66 -42 22.32 -42 23 C-43.98 23 -45.96 23 -48 23 C-46.68 21.68 -45.36 20.36 -44 19 C-44.66 18.67 -45.32 18.34 -46 18 C-45.04746338 18.01047363 -44.09492676 18.02094727 -43.11352539 18.03173828 C-39.54081052 18.06825181 -35.96811175 18.09101318 -32.39526367 18.10986328 C-30.85617285 18.11985006 -29.31710065 18.13344419 -27.77807617 18.15087891 C-15.74517087 18.34822518 -15.74517087 18.34822518 -4 16 C-1.70073702 14.12953174 -1.70073702 14.12953174 -1.75 11.125 C-1.98847747 8.14403168 -2.45492665 6.5107442 -4 4 C-3.34 3.67 -2.68 3.34 -2 3 C-1.505 3.99 -1.505 3.99 -1 5 C-0.67 3.35 -0.34 1.7 0 0 Z " fill="#2D270F" transform="translate(61,34)"/>
<path d="M0 0 C7.33333333 0 14.66666667 0 22 0 C21.67 0.99 21.34 1.98 21 3 C15.39 3 9.78 3 4 3 C6.475 3.99 6.475 3.99 9 5 C8.67 5.66 8.34 6.32 8 7 C8.66 7.66 9.32 8.32 10 9 C2.21518987 11.59493671 2.21518987 11.59493671 -2 10 C-4.3125 8.0625 -4.3125 8.0625 -6 6 C-6 5.34 -6 4.68 -6 4 C-6.66 4 -7.32 4 -8 4 C-8 3.34 -8 2.68 -8 2 C-5.69 2 -3.38 2 -1 2 C-0.67 1.34 -0.34 0.68 0 0 Z " fill="#99481E" transform="translate(19,54)"/>
<path d="M0 0 C0.8971875 0.309375 0.8971875 0.309375 1.8125 0.625 C2.1425 2.605 2.4725 4.585 2.8125 6.625 C1.8225 6.625 0.8325 6.625 -0.1875 6.625 C-0.1875 11.905 -0.1875 17.185 -0.1875 22.625 C-0.8475 22.955 -1.5075 23.285 -2.1875 23.625 C-2.21653577 20.52085298 -2.2343107 17.41674091 -2.25 14.3125 C-2.25837891 13.43142578 -2.26675781 12.55035156 -2.27539062 11.64257812 C-2.27861328 10.79501953 -2.28183594 9.94746094 -2.28515625 9.07421875 C-2.29039307 8.29393311 -2.29562988 7.51364746 -2.30102539 6.7097168 C-2.1875 4.625 -2.1875 4.625 -1.1875 1.625 C-1.8475 1.625 -2.5075 1.625 -3.1875 1.625 C-3.5175 5.585 -3.8475 9.545 -4.1875 13.625 C-4.5175 12.305 -4.8475 10.985 -5.1875 9.625 C-6.8375 9.625 -8.4875 9.625 -10.1875 9.625 C-11.2201802 6.83676345 -11.23259293 5.7572726 -10.25 2.875 C-9.899375 2.1325 -9.54875 1.39 -9.1875 0.625 C-8.589375 0.83125 -7.99125 1.0375 -7.375 1.25 C-4.05749207 1.81871565 -3.31750793 -0.56871565 0 0 Z " fill="#5A3F18" transform="translate(71.1875,21.375)"/>
<path d="M0 0 C4.455 0.99 4.455 0.99 9 2 C9 2.33 9 2.66 9 3 C7.35 3.33 5.7 3.66 4 4 C10.82022281 8.4818607 17.32349089 8.20971279 25.25 8.25 C26.74853516 8.2809375 26.74853516 8.2809375 28.27734375 8.3125 C34.49552208 8.34501335 40.40783288 7.97870614 46 5 C47.66334085 2.48248124 47.66334085 2.48248124 48 0 C48.66 0 49.32 0 50 0 C50.36821823 4.5413582 50.36821823 4.5413582 48.71850586 6.59619141 C42.15247276 11.95983544 30.06345251 10.44691726 21.9375 10.625 C20.48500473 10.66326196 19.03253016 10.70231819 17.58007812 10.7421875 C14.05357688 10.83728105 10.52691721 10.92163114 7 11 C6.67 10.34 6.34 9.68 6 9 C4.35178756 7.96986723 2.68496298 6.96885372 1 6 C0 5 0 5 -0.0625 2.4375 C-0.041875 1.633125 -0.02125 0.82875 0 0 Z " fill="#9A5219" transform="translate(10,66)"/>
<path d="M0 0 C0.66 0 1.32 0 2 0 C2 1.65 2 3.3 2 5 C3.65 5 5.3 5 7 5 C7 7.97 7 10.94 7 14 C7.99 13.34 8.98 12.68 10 12 C8.63016497 15.16115776 8.0109362 15.9927092 5 18 C3.35 18 1.7 18 0 18 C0 12.06 0 6.12 0 0 Z " fill="#835218" transform="translate(73,28)"/>
<path d="M0 0 C0.680625 0.763125 1.36125 1.52625 2.0625 2.3125 C8.31814928 8.03575359 14.10712312 8.47229301 22.25 8.3125 C23.18005859 8.3019458 24.11011719 8.2913916 25.06835938 8.28051758 C37.73676002 8.16816565 37.73676002 8.16816565 49 3 C48.05370568 5.3657358 47.38343203 6.73981398 45.25 8.1875 C38.05511198 10.78565401 30.22046598 10.21994328 22.6875 10.25 C21.40681641 10.270625 20.12613281 10.29125 18.80664062 10.3125 C11.55007103 10.3423778 5.67571207 9.94790286 -1 7 C-1.33 6.34 -1.66 5.68 -2 5 C-1.0625 2.375 -1.0625 2.375 0 0 Z " fill="#AA5613" transform="translate(11,43)"/>
<path d="M0 0 C1.32 0.33 2.64 0.66 4 1 C3.34 1 2.68 1 2 1 C2.15597656 1.62648437 2.31195313 2.25296875 2.47265625 2.8984375 C2.66730469 3.71570312 2.86195312 4.53296875 3.0625 5.375 C3.35833984 6.59316406 3.35833984 6.59316406 3.66015625 7.8359375 C4 10 4 10 3 12 C2.92934383 14.04055005 2.91578024 16.08334257 2.9375 18.125 C2.95103516 19.76855469 2.95103516 19.76855469 2.96484375 21.4453125 C2.97644531 22.28835937 2.98804687 23.13140625 3 24 C1.68 24 0.36 24 -1 24 C-0.67 20.37 -0.34 16.74 0 13 C-0.66 13 -1.32 13 -2 13 C-2 11.68 -2 10.36 -2 9 C-1.01 8.67 -0.02 8.34 1 8 C0.67 5.36 0.34 2.72 0 0 Z " fill="#811410" transform="translate(62,45)"/>
<path d="M0 0 C0.66 0 1.32 0 2 0 C2 7.59 2 15.18 2 23 C1.01 22.67 0.02 22.34 -1 22 C-2.16796875 19.34765625 -2.16796875 19.34765625 -3.1875 16.0625 C-3.53167969 14.98097656 -3.87585938 13.89945313 -4.23046875 12.78515625 C-5 10 -5 10 -5 8 C-4.01 8 -3.02 8 -2 8 C-1.34 5.36 -0.68 2.72 0 0 Z " fill="#C98D21" transform="translate(68,23)"/>
<path d="M0 0 C-0.33 0.99 -0.66 1.98 -1 3 C-2.65 3 -4.3 3 -6 3 C-5.67 4.65 -5.34 6.3 -5 8 C-6.32 8.33 -7.64 8.66 -9 9 C-9 7 -9 5 -9 3 C-9.99 2.67 -10.98 2.34 -12 2 C-11.67 0.68 -11.34 -0.64 -11 -2 C-6.38619749 -3.49270081 -4.10342037 -2.38570952 0 0 Z " fill="#4A3C20" transform="translate(17,53)"/>
<path d="M0 0 C0.66 0 1.32 0 2 0 C2.66 1.32 3.32 2.64 4 4 C3.01 4.66 2.02 5.32 1 6 C1.99 6.99 2.98 7.98 4 9 C2.68 9 1.36 9 0 9 C-0.05167527 11.42267086 -0.05167527 11.42267086 1 14 C4.47307328 15.86983745 4.47307328 15.86983745 8 17 C8 17.33 8 17.66 8 18 C0.50877193 17.50877193 0.50877193 17.50877193 -1.71875 15.28125 C-3.19836945 12.64680562 -3.49000896 10.75186386 -3.6875 7.75 C-3.75324219 6.85796875 -3.81898438 5.9659375 -3.88671875 5.046875 C-3.92410156 4.37140625 -3.96148438 3.6959375 -4 3 C-2.35 3 -0.7 3 1 3 C0.67 2.01 0.34 1.02 0 0 Z " fill="#2B2421" transform="translate(11,58)"/>
<path d="M0 0 C0.75732422 0.09667969 1.51464844 0.19335938 2.29492188 0.29296875 C3.08060547 0.40511719 3.86628906 0.51726563 4.67578125 0.6328125 C5.47306641 0.73722656 6.27035156 0.84164062 7.09179688 0.94921875 C9.05869236 1.20833073 11.02369892 1.48170904 12.98828125 1.7578125 C10.80078125 4.3203125 10.80078125 4.3203125 7.98828125 6.7578125 C5.5078125 6.69921875 5.5078125 6.69921875 2.98828125 5.7578125 C2.10527344 5.43683594 1.22226562 5.11585937 0.3125 4.78515625 C-0.55761719 4.42550781 -1.42773438 4.06585938 -2.32421875 3.6953125 C-3.64873047 3.15197266 -3.64873047 3.15197266 -5 2.59765625 C-5.66386719 2.32050781 -6.32773437 2.04335938 -7.01171875 1.7578125 C-3.81766666 -0.37155556 -3.51984214 -0.47636961 0 0 Z " fill="#D9951A" transform="translate(38.01171875,59.2421875)"/>
<path d="M0 0 C2 2 2 2 2.16015625 4.8984375 C2.12792969 6.04570313 2.09570312 7.19296875 2.0625 8.375 C1.91217821 13.76495997 1.91217821 13.76495997 3 19 C1.68 19.33 0.36 19.66 -1 20 C-1 21.32 -1 22.64 -1 24 C-1.66 24 -2.32 24 -3 24 C-3.75 22.25 -3.75 22.25 -4 20 C-2.0625 17.75 -2.0625 17.75 0 16 C-0.99 15.67 -1.98 15.34 -3 15 C-2.67 14.67 -2.34 14.34 -2 14 C-1.7367754 10.05163095 -1.91002627 7.39620731 -4 4 C-3.34 3.67 -2.68 3.34 -2 3 C-1.67 3.66 -1.34 4.32 -1 5 C-0.67 3.35 -0.34 1.7 0 0 Z " fill="#43240E" transform="translate(61,34)"/>
<path d="M0 0 C2.53591184 0.42265197 5.00631548 1.00157887 7.5 1.625 C10.00707096 2.14566181 10.00707096 2.14566181 12.5 1.5 C15.31556665 0.93688667 17.24286986 1.29102368 20 2 C19.01 3.485 19.01 3.485 18 5 C15.3203125 5.2578125 15.3203125 5.2578125 12.125 5.125 C8.52237803 4.99222523 5.45647728 4.91463274 2 6 C2 5.34 2 4.68 2 4 C0.54166642 2.37485532 0.54166642 2.37485532 -1 1 C-0.67 0.67 -0.34 0.34 0 0 Z " fill="#5F2A0F" transform="translate(12,62)"/>
<path d="M0 0 C0.33 0.99 0.66 1.98 1 3 C1.99 3.33 2.98 3.66 4 4 C4 4.33 4 4.66 4 5 C2.63875 4.938125 2.63875 4.938125 1.25 4.875 C-1.87615431 4.74529232 -1.87615431 4.74529232 -3.8125 6.03125 C-6.80427673 7.3561797 -9.02129019 6.97594672 -12.25 6.625 C-13.32765625 6.51414062 -14.4053125 6.40328125 -15.515625 6.2890625 C-16.74539062 6.14597656 -16.74539062 6.14597656 -18 6 C-17.34 5.67 -16.68 5.34 -16 5 C-16 4.34 -16 3.68 -16 3 C-8.08 2.505 -8.08 2.505 0 2 C0 1.34 0 0.68 0 0 Z " fill="#9F4E1D" transform="translate(57,55)"/>
<path d="M0 0 C2.875 -0.125 2.875 -0.125 6 0 C6.66 0.66 7.32 1.32 8 2 C10.17815365 2.20487473 10.17815365 2.20487473 12.5625 2.0625 C14.04081272 2.00809809 15.52082541 1.97973733 17 2 C18 3 18 3 18.0625 5.5625 C18.041875 6.366875 18.02125 7.17125 18 8 C17.34 7.34 16.68 6.68 16 6 C16 5.01 16 4.02 16 3 C12.7014861 3.72268235 12.7014861 3.72268235 11.3125 7.0625 C10.6628125 8.5165625 10.6628125 8.5165625 10 10 C9.67 10 9.34 10 9 10 C9 8.35 9 6.7 9 5 C8.01 5 7.02 5 6 5 C6 4.01 6 3.02 6 2 C4.35 2 2.7 2 1 2 C0.67 3.32 0.34 4.64 0 6 C-1 3 -1 3 0 0 Z " fill="#40382A" transform="translate(74,20)"/>
<path d="M0 0 C1.87751953 0.01740234 1.87751953 0.01740234 3.79296875 0.03515625 C5.65888672 0.04869141 5.65888672 0.04869141 7.5625 0.0625 C8.69042969 0.07410156 9.81835938 0.08570313 10.98046875 0.09765625 C12.30046875 0.09765625 13.62046875 0.09765625 14.98046875 0.09765625 C16.30046875 0.09765625 17.62046875 0.09765625 18.98046875 0.09765625 C18.65046875 1.08765625 18.32046875 2.07765625 17.98046875 3.09765625 C16.77648437 3.08605469 15.5725 3.07445312 14.33203125 3.0625 C12.75651196 3.05312191 11.180991 3.04402173 9.60546875 3.03515625 C8.81140625 3.02677734 8.01734375 3.01839844 7.19921875 3.00976562 C2.95654653 2.86725474 2.95654653 2.86725474 -1.01953125 4.09765625 C-2.00953125 3.10765625 -2.99953125 2.11765625 -4.01953125 1.09765625 C-3.01953125 0.09765625 -3.01953125 0.09765625 0 0 Z " fill="#547D2C" transform="translate(22.01953125,53.90234375)"/>
<path d="M0 0 C0.33 0 0.66 0 1 0 C1 1.98 1 3.96 1 6 C1.99 6 2.98 6 4 6 C3.45276317 9.37462715 2.9451 11.08235 1 14 C0.01 14 -0.98 14 -2 14 C-2 13.01 -2 12.02 -2 11 C-2.66 11.66 -3.32 12.32 -4 13 C-3.40895235 8.15340923 -2.02055843 4.39251833 0 0 Z " fill="#C38420" transform="translate(89,23)"/>
<path d="M0 0 C1.65 0 3.3 0 5 0 C5.25939145 6.77299898 5.12822089 13.49710284 3 20 C2.34 20.33 1.68 20.66 1 21 C0.77268784 14.06697907 1.57997892 7.7831364 3 1 C2.01 1.33 1.02 1.66 0 2 C0 1.34 0 0.68 0 0 Z " fill="#7E1511" transform="translate(83,38)"/>
<path d="M0 0 C0.66 0 1.32 0 2 0 C2.36846807 4.54443948 2.36846807 4.54443948 0.7109375 6.59375 C-6.29160594 12.34926516 -19.49416738 10.1651618 -28 10 C-28 9.67 -28 9.34 -28 9 C-26.87722656 8.96261719 -25.75445312 8.92523438 -24.59765625 8.88671875 C-12.95831267 8.54832028 -12.95831267 8.54832028 -2 5 C-0.33665915 2.48248124 -0.33665915 2.48248124 0 0 Z " fill="#B35E14" transform="translate(58,66)"/>
<path d="M0 0 C-0.33 1.32 -0.66 2.64 -1 4 C-2.65 4 -4.3 4 -6 4 C-6 4.66 -6 5.32 -6 6 C-8.31 6 -10.62 6 -13 6 C-12.34 5.67 -11.68 5.34 -11 5 C-11 4.34 -11 3.68 -11 3 C-7.28026121 0.15549386 -4.62609198 -0.3227506 0 0 Z " fill="#66270F" transform="translate(60,61)"/>
<path d="M0 0 C2.12563103 0.11376617 4.2505261 0.24135631 6.375 0.375 C8.15003906 0.47941406 8.15003906 0.47941406 9.9609375 0.5859375 C13 1 13 1 15 3 C7.15384615 5.61538462 7.15384615 5.61538462 3 4 C1.96004988 2.69758627 0.95466558 1.36615936 0 0 Z " fill="#E5AE2C" transform="translate(14,60)"/>
<path d="M0 0 C3.78827901 0.26768957 7.58042832 0.41316524 11.375 0.5625 C12.39722656 0.60568359 13.41945313 0.64886719 14.47265625 0.69335938 C16.98165288 0.79887792 19.49073943 0.90099213 22 1 C22 1.33 22 1.66 22 2 C17.56255461 2.05793591 13.12520611 2.09357467 8.6875 2.125 C7.42486328 2.14175781 6.16222656 2.15851563 4.86132812 2.17578125 C3.04858398 2.18544922 3.04858398 2.18544922 1.19921875 2.1953125 C0.08377686 2.20578613 -1.03166504 2.21625977 -2.1809082 2.22705078 C-5 2 -5 2 -8 0 C-5.1097515 -1.44512425 -3.21188237 -0.53531373 0 0 Z " fill="#2D1106" transform="translate(24,67)"/>
<path d="M0 0 C1.32 0 2.64 0 4 0 C3.67 3.3 3.34 6.6 3 10 C2.01 10.33 1.02 10.66 0 11 C0 7.37 0 3.74 0 0 Z " fill="#D89720" transform="translate(75,34)"/>
<path d="M0 0 C1.98 0.495 1.98 0.495 4 1 C4.66 3.97 5.32 6.94 6 10 C5.01 9.34 4.02 8.68 3 8 C2.34 8 1.68 8 1 8 C0.34 5.69 -0.32 3.38 -1 1 C-0.67 0.67 -0.34 0.34 0 0 Z " fill="#E1A926" transform="translate(51,27)"/>
<path d="M0 0 C0.99 0 1.98 0 3 0 C4.62950412 4.12168689 5.26264601 6.70700357 4 11 C1.13275314 10.42655063 0.1385485 10.1385485 -2 8 C-1.34 8 -0.68 8 0 8 C1.3363414 5.3273172 0.65732432 3.84840537 0 1 C0 0.67 0 0.34 0 0 Z " fill="#885B19" transform="translate(54,27)"/>
<path d="M0 0 C0.99 0.33 1.98 0.66 3 1 C4.10228696 5.40914783 4.07654536 9.48382401 4 14 C1.87491756 10.81237635 1.4979837 8.73487777 1 5 C0.34 5 -0.32 5 -1 5 C-0.67 3.35 -0.34 1.7 0 0 Z " fill="#E2A624" transform="translate(56,22)"/>
<path d="M0 0 C1.65 0 3.3 0 5 0 C4.42655063 2.86724686 4.1385485 3.8614515 2 6 C1.83312552 8.58354218 1.83312552 8.58354218 2 11 C1.34 11 0.68 11 0 11 C-1.28571429 3.57142857 -1.28571429 3.57142857 0 0 Z " fill="#DAA426" transform="translate(75,22)"/>
<path d="M0 0 C0.886875 0.53625 1.77375 1.0725 2.6875 1.625 C2.3575 2.615 2.0275 3.605 1.6875 4.625 C-1.2825 4.13 -1.2825 4.13 -4.3125 3.625 C-4.3125 2.965 -4.3125 2.305 -4.3125 1.625 C-5.6325 1.295 -6.9525 0.965 -8.3125 0.625 C-4.8011922 -1.33720142 -3.82270308 -1.58678241 0 0 Z " fill="#597C2C" transform="translate(14.3125,51.375)"/>
<path d="M0 0 C0.99 0 1.98 0 3 0 C4.32 4.95 5.64 9.9 7 15 C6.01 14.67 5.02 14.34 4 14 C2.83203125 11.34765625 2.83203125 11.34765625 1.8125 8.0625 C1.46832031 6.98097656 1.12414062 5.89945313 0.76953125 4.78515625 C0 2 0 2 0 0 Z " fill="#ECB126" transform="translate(63,31)"/>
<path d="M0 0 C0.66 0.99 1.32 1.98 2 3 C2.66 3.66 3.32 4.32 4 5 C4 6.32 4 7.64 4 9 C2.1875 10.8125 2.1875 10.8125 0 12 C-0.99 11.67 -1.98 11.34 -3 11 C-2.34 11 -1.68 11 -1 11 C-0.67 7.37 -0.34 3.74 0 0 Z " fill="#781511" transform="translate(83,60)"/>
<path d="M0 0 C0.66 0 1.32 0 2 0 C2.66 1.32 3.32 2.64 4 4 C3.01 4.66 2.02 5.32 1 6 C1.99 6.99 2.98 7.98 4 9 C1.03 8.505 1.03 8.505 -2 8 C-2 7.01 -2 6.02 -2 5 C-2.66 5 -3.32 5 -4 5 C-3.67 4.34 -3.34 3.68 -3 3 C-1.68 3 -0.36 3 1 3 C0.67 2.01 0.34 1.02 0 0 Z " fill="#2C1308" transform="translate(11,58)"/>
<path d="M0 0 C0.66 0 1.32 0 2 0 C2 1.65 2 3.3 2 5 C-0.8125 6.5625 -0.8125 6.5625 -4 8 C-4.99 7.67 -5.98 7.34 -7 7 C-6.21625 6.401875 -5.4325 5.80375 -4.625 5.1875 C-1.85425677 3.08914751 -1.85425677 3.08914751 0 0 Z " fill="#C87319" transform="translate(56,43)"/>
<path d="M0 0 C3.63 0 7.26 0 11 0 C9.515 1.98 9.515 1.98 8 4 C3.91927658 3.44855089 3.08669204 3.08669204 0 0 Z " fill="#EBB732" transform="translate(38,62)"/>
<path d="M0 0 C1.43861294 0.08746284 2.87597508 0.19565348 4.3125 0.3125 C5.11300781 0.37050781 5.91351563 0.42851563 6.73828125 0.48828125 C9.36272334 1.08206694 10.30820672 1.95780294 12 4 C10.88625 3.938125 9.7725 3.87625 8.625 3.8125 C6.830625 3.9053125 6.830625 3.9053125 5 4 C4.01 5.485 4.01 5.485 3 7 C3 6.34 3 5.68 3 5 C2.34 4.67 1.68 4.34 1 4 C1.66 3.34 2.32 2.68 3 2 C2.01 1.34 1.02 0.68 0 0 Z " fill="#D38A30" transform="translate(43,34)"/>
<path d="M0 0 C1.98 0 3.96 0 6 0 C6.33 1.98 6.66 3.96 7 6 C6.01 6.495 6.01 6.495 5 7 C4.87625 6.195625 4.7525 5.39125 4.625 4.5625 C4.41875 3.716875 4.2125 2.87125 4 2 C3.34 1.67 2.68 1.34 2 1 C1.67 2.32 1.34 3.64 1 5 C-0.65 5 -2.3 5 -4 5 C-3.01 4.67 -2.02 4.34 -1 4 C-0.26676204 1.98491642 -0.26676204 1.98491642 0 0 Z " fill="#443A29" transform="translate(54,21)"/>
<path d="M0 0 C0.33 0 0.66 0 1 0 C0.67 2.97 0.34 5.94 0 9 C-0.66 9 -1.32 9 -2 9 C-2.66 10.32 -3.32 11.64 -4 13 C-3.40895235 8.15340923 -2.02055843 4.39251833 0 0 Z " fill="#BD7318" transform="translate(89,23)"/>
<path d="M0 0 C0.66 0.66 1.32 1.32 2 2 C0.6875 3.5 0.6875 3.5 -1 5 C-1.99 5 -2.98 5 -4 5 C-4 5.66 -4 6.32 -4 7 C-4.99 7 -5.98 7 -7 7 C-7 6.01 -7 5.02 -7 4 C-6.030625 3.525625 -5.06125 3.05125 -4.0625 2.5625 C-1.19522563 1.29806053 -1.19522563 1.29806053 0 0 Z " fill="#79AB40" transform="translate(60,49)"/>
<path d="M0 0 C1.52519276 0.08937803 3.04681929 0.24537146 4.5625 0.4375 C5.80193359 0.59025391 5.80193359 0.59025391 7.06640625 0.74609375 C7.70449219 0.82988281 8.34257812 0.91367187 9 1 C9 1.66 9 2.32 9 3 C7.824375 2.9690625 7.824375 2.9690625 6.625 2.9375 C4.01885039 2.81315937 4.01885039 2.81315937 2 4 C1.01 3.01 0.02 2.02 -1 1 C-0.67 0.67 -0.34 0.34 0 0 Z " fill="#659633" transform="translate(19,54)"/>
<path d="M0 0 C0.66 0 1.32 0 2 0 C1.54917531 1.46067199 1.08906463 2.91848032 0.625 4.375 C0.36976562 5.18710937 0.11453125 5.99921875 -0.1484375 6.8359375 C-1 9 -1 9 -3 11 C-2.25 3.375 -2.25 3.375 0 0 Z " fill="#E6AC26" transform="translate(87,23)"/>
<path d="M0 0 C1.32 0.33 2.64 0.66 4 1 C4 2.65 4 4.3 4 6 C2.68 6 1.36 6 0 6 C0 4.02 0 2.04 0 0 Z " fill="#C6851F" transform="translate(62,24)"/>
<path d="M0 0 C0.99 0.33 1.98 0.66 3 1 C-1.5 4 -1.5 4 -6 7 C-6 6.01 -6 5.02 -6 4 C-3.1875 1.75 -3.1875 1.75 0 0 Z " fill="#382E23" transform="translate(16,34)"/>
<path d="M0 0 C0.66 0 1.32 0 2 0 C2.36625971 4.51720311 2.36625971 4.51720311 0.625 6.8125 C-1 8 -1 8 -3 8 C-1.125 2.25 -1.125 2.25 0 0 Z " fill="#A55313" transform="translate(58,66)"/>
<path d="M0 0 C3.3 0 6.6 0 10 0 C6 3 6 3 3.3125 2.8125 C1 2 1 2 0 0 Z " fill="#659336" transform="translate(42,54)"/>
<path d="M0 0 C1.9375 0.625 1.9375 0.625 4 2 C4.75 5.125 4.75 5.125 5 8 C4.01 8.495 4.01 8.495 3 9 C2 6 1 3 0 0 Z " fill="#D99949" transform="translate(55,38)"/>
<path d="M0 0 C4.455 0.99 4.455 0.99 9 2 C9 2.33 9 2.66 9 3 C7.329375 3.2165625 7.329375 3.2165625 5.625 3.4375 C2.17857953 3.78372035 2.17857953 3.78372035 0 5 C0 3.35 0 1.7 0 0 Z " fill="#AB5915" transform="translate(10,66)"/>
<path d="M0 0 C2.97 0.33 5.94 0.66 9 1 C9 1.66 9 2.32 9 3 C2.25 2.25 2.25 2.25 0 0 Z " fill="#491B0C" transform="translate(32,57)"/>
</svg>
