<?xml version="1.0" encoding="UTF-8"?>
<svg version="1.1" xmlns="http://www.w3.org/2000/svg" width="100" height="100">
<path d="M0 0 C2 0 2 0 4.3125 2.25 C5.199375 3.1575 6.08625 4.065 7 5 C8.36125 6.0209375 8.36125 6.0209375 9.75 7.0625 C12 9 12 9 12.35546875 11.03515625 C12.56816406 11.68355469 12.78085938 12.33195312 13 13 C15.3203285 13.96793431 17.6091155 14.38474489 20.06640625 14.8984375 C24.42526799 16.53518718 27.97886117 18.38244938 31 22 C32.13168752 25.80279478 32.12038797 29.42855036 32.0625 33.375 C32.08248047 34.37789062 32.10246094 35.38078125 32.12304688 36.4140625 C32.19295056 42.03579053 31.84201952 47.44399718 31 53 C27.60268905 54.45975429 24.42526681 55.41654443 20.78588867 56.05322266 C19.77100876 56.23325836 18.75612885 56.41329407 17.710495 56.5987854 C16.62396133 56.78532684 15.53742767 56.97186829 14.41796875 57.1640625 C13.28982254 57.36099701 12.16167633 57.55793152 10.99934387 57.76083374 C8.61519268 58.17534067 6.2305498 58.58702808 3.84545898 58.99609375 C0.20979039 59.62116765 -3.42343712 60.25921037 -7.05664062 60.8984375 C-9.37746772 61.30026801 -11.69842722 61.70133473 -14.01953125 62.1015625 C-15.09999222 62.2921524 -16.18045319 62.48274231 -17.2936554 62.67910767 C-22.95268421 63.63890067 -28.26033271 64.20946747 -34 64 C-34.33919096 60.33385091 -34.67028081 56.6670121 -35 53 C-35.09539063 51.97003906 -35.19078125 50.94007812 -35.2890625 49.87890625 C-35.55284524 46.92077129 -35.77864023 43.96156069 -36 41 C-36.12556274 39.85059937 -36.12556274 39.85059937 -36.25366211 38.67797852 C-36.54332237 34.68599404 -36.07978758 33.10921853 -33.69140625 29.83984375 C-32.66942243 28.85025376 -31.6251613 27.88327494 -30.5625 26.9375 C-30.01916016 26.42292236 -29.47582031 25.90834473 -28.91601562 25.37817383 C-25.09591515 21.81562713 -21.02674912 18.6740244 -16.81640625 15.5859375 C-14.91553593 13.92625287 -14.03433887 12.56315639 -12.9375 10.3125 C-10.44390821 6.04926242 -7.584813 4.59773786 -3 3 C-2.34 3 -1.68 3 -1 3 C-0.67 2.01 -0.34 1.02 0 0 Z " fill="#41261B" transform="translate(54,19)"/>
<path d="M0 0 C2 0 2 0 4.3125 2.25 C5.199375 3.1575 6.08625 4.065 7 5 C8.36125 6.0209375 8.36125 6.0209375 9.75 7.0625 C12.10171348 9.08758661 12.67587628 9.97484531 13 13 C15.475 13.495 15.475 13.495 18 14 C18.495 15.485 18.495 15.485 19 17 C20.97300116 18.05226728 22.97676387 19.04788888 25 20 C27.17480469 21.17895508 27.17480469 21.17895508 29 23 C29.45410156 26.00268555 29.45410156 26.00268555 29.390625 29.63671875 C29.37773438 30.93544922 29.36484375 32.23417969 29.3515625 33.57226562 C29.31814101 34.94402103 29.28428123 36.31576581 29.25 37.6875 C29.22993376 39.07093812 29.21168319 40.45440384 29.1953125 41.83789062 C29.14809207 45.22595649 29.08224069 48.61263241 29 52 C28.01 52 27.02 52 26 52 C26.00523682 51.34926514 26.01047363 50.69853027 26.01586914 50.02807617 C26.03664938 47.08122726 26.0496635 44.13439377 26.0625 41.1875 C26.07506836 39.65125977 26.07506836 39.65125977 26.08789062 38.08398438 C26.09111328 37.10107422 26.09433594 36.11816406 26.09765625 35.10546875 C26.10289307 34.19949951 26.10812988 33.29353027 26.11352539 32.36010742 C26.09920981 29.84715961 26.09920981 29.84715961 25 27 C15.79612982 28.15368846 6.79298601 30.38919297 -2.25292969 32.40087891 C-4.59432039 32.91152348 -6.93761554 33.39400732 -9.2890625 33.85546875 C-11.00222656 34.20544922 -11.00222656 34.20544922 -12.75 34.5625 C-13.71421875 34.74941406 -14.6784375 34.93632813 -15.671875 35.12890625 C-18.51016635 36.19088439 -19.32917446 37.53905515 -21 40 C-21.66 40 -22.32 40 -23 40 C-23.33 39.34 -23.66 38.68 -24 38 C-27.34373475 38.55728913 -30.03312999 39.35173889 -33 41 C-34 40 -34 40 -34.0625 36.9375 C-32.64131385 28.23273481 -21.47683116 21.99034532 -15 17 C-14.34 17.33 -13.68 17.66 -13 18 C-13.03222656 17.33613281 -13.06445312 16.67226563 -13.09765625 15.98828125 C-13.0596165 13.09303363 -12.87866982 10.76696506 -12 8 C-8.93972696 5.28042142 -5.18536276 3 -1 3 C-0.67 2.01 -0.34 1.02 0 0 Z " fill="#E378A1" transform="translate(54,19)"/>
<path d="M0 0 C0 1.98 0 3.96 0 6 C-13.365 8.475 -13.365 8.475 -27 11 C-20.565 10.505 -20.565 10.505 -14 10 C-15 15 -15 15 -17 18 C-17.66 18 -18.32 18 -19 18 C-19 18.66 -19 19.32 -19 20 C-17.68 20.33 -16.36 20.66 -15 21 C-17.33294775 21.04241723 -19.66702567 21.04092937 -22 21 C-22.33 20.67 -22.66 20.34 -23 20 C-25.1818982 20.26881898 -27.35408505 20.61690234 -29.51953125 20.99609375 C-30.17451096 21.10848892 -30.82949066 21.22088409 -31.50431824 21.33668518 C-33.60801046 21.69828294 -35.71029846 22.06734172 -37.8125 22.4375 C-39.90410857 22.80329701 -41.99596415 23.16741838 -44.08854675 23.52760315 C-45.99566206 23.85621177 -47.90178851 24.19054396 -49.80786133 24.52514648 C-53 25 -53 25 -57 25 C-56.979375 23.865625 -56.95875 22.73125 -56.9375 21.5625 C-56.58422523 18.18424326 -56.58422523 18.18424326 -58 17 C-58.04063832 15.33382885 -58.042721 13.66611905 -58 12 C-53.25130208 10.98242188 -48.50260417 9.96484375 -43.75390625 8.94726562 C-42.78727051 8.74012939 -41.82063477 8.53299316 -40.82470703 8.31958008 C-39.85130371 8.11099365 -38.87790039 7.90240723 -37.875 7.6875 C-36.4521167 7.38259644 -36.4521167 7.38259644 -35.00048828 7.0715332 C-33.59452393 6.77025513 -33.59452393 6.77025513 -32.16015625 6.46289062 C-31.23019836 6.26357941 -30.30024048 6.06426819 -29.34210205 5.85891724 C-27.49055605 5.46222688 -25.63895324 5.06580158 -23.78729248 4.66964722 C-19.71653264 3.79844485 -15.64642033 2.92473949 -11.57910156 2.03759766 C-10.31807617 1.76351074 -9.05705078 1.48942383 -7.7578125 1.20703125 C-6.67902832 0.97089111 -5.60024414 0.73475098 -4.48876953 0.49145508 C-2 0 -2 0 0 0 Z " fill="#503322" transform="translate(79,56)"/>
<path d="M0 0 C2 0 2 0 4.3125 2.25 C5.6428125 3.61125 5.6428125 3.61125 7 5 C7.9075 5.680625 8.815 6.36125 9.75 7.0625 C12.10171348 9.08758661 12.67587628 9.97484531 13 13 C15.475 13.495 15.475 13.495 18 14 C18 14.66 18 15.32 18 16 C16.68 16 15.36 16 14 16 C12.7639396 17.49628365 11.53127232 18.99616017 10.34375 20.53125 C7.42255831 23.72418045 3.73155599 23.93226333 -0.375 24.3125 C-4.81912826 23.9293855 -7.93080509 22.82412186 -12 21 C-14.02386786 16.95226429 -13.3154223 12.20692661 -12 8 C-8.94782768 5.20366278 -5.22768376 3 -1 3 C-0.67 2.01 -0.34 1.02 0 0 Z " fill="#21181B" transform="translate(54,19)"/>
<path d="M0 0 C2.64 0.99 5.28 1.98 8 3 C7.67 4.32 7.34 5.64 7 7 C5.24285889 7.96859741 5.24285889 7.96859741 2.98730469 8.61083984 C2.17112671 8.84953796 1.35494873 9.08823608 0.51403809 9.33416748 C-0.31559448 9.55389221 -1.14522705 9.77361694 -2 10 C-2.72682983 10.19636047 -3.45365967 10.39272095 -4.20251465 10.59503174 C-6.39494522 11.16546958 -8.59329987 11.70089902 -10.796875 12.2265625 C-11.59353577 12.41971039 -12.39019653 12.61285828 -13.21099854 12.81185913 C-14.87769925 13.21523693 -16.54483985 13.61680127 -18.21240234 14.01660156 C-20.758429 14.62702088 -23.30313824 15.24270012 -25.84765625 15.859375 C-27.47648945 16.25290664 -29.10539327 16.64614613 -30.734375 17.0390625 C-31.48966492 17.22135406 -32.24495483 17.40364563 -33.02313232 17.59146118 C-35.01366476 18.06836721 -37.00673055 18.53466608 -39 19 C-39.95422852 19.24669434 -40.90845703 19.49338867 -41.89160156 19.74755859 C-42.58737305 19.83086426 -43.28314453 19.91416992 -44 20 C-44.66 19.34 -45.32 18.68 -46 18 C-40.39533171 12.11353275 -34.43616864 6.95901518 -28 2 C-27.58234375 2.46019531 -27.1646875 2.92039063 -26.734375 3.39453125 C-23.04886452 6.80611866 -18.32622203 7.86039768 -13.4375 8.375 C-9.3852556 7.93293697 -6.56164109 6.98629984 -3 5 C-1.04499143 2.47019293 -1.04499143 2.47019293 0 0 Z " fill="#F37EAB" transform="translate(67,34)"/>
<path d="M0 0 C0 1.98 0 3.96 0 6 C-0.71317383 6.13051758 -1.42634766 6.26103516 -2.16113281 6.39550781 C-17.13373809 9.1400849 -32.08389062 11.96318731 -47 15 C-50.65741234 15.74157188 -54.31630439 16.40032862 -58 17 C-58 15.35 -58 13.7 -58 12 C-53.25130208 10.98242188 -48.50260417 9.96484375 -43.75390625 8.94726562 C-42.78727051 8.74012939 -41.82063477 8.53299316 -40.82470703 8.31958008 C-39.85130371 8.11099365 -38.87790039 7.90240723 -37.875 7.6875 C-36.4521167 7.38259644 -36.4521167 7.38259644 -35.00048828 7.0715332 C-33.59452393 6.77025513 -33.59452393 6.77025513 -32.16015625 6.46289062 C-31.23019836 6.26357941 -30.30024048 6.06426819 -29.34210205 5.85891724 C-27.49055605 5.46222688 -25.63895324 5.06580158 -23.78729248 4.66964722 C-19.71653264 3.79844485 -15.64642033 2.92473949 -11.57910156 2.03759766 C-10.31807617 1.76351074 -9.05705078 1.48942383 -7.7578125 1.20703125 C-6.67902832 0.97089111 -5.60024414 0.73475098 -4.48876953 0.49145508 C-2 0 -2 0 0 0 Z " fill="#EB7AA5" transform="translate(79,56)"/>
<path d="M0 0 C0.66 0 1.32 0 2 0 C1.67 2.97 1.34 5.94 1 9 C0.01 8.67 -0.98 8.34 -2 8 C-8.49259768 12.20778225 -15.98639445 18.26043027 -20 25 C-20.23540372 27.65703223 -20.23540372 27.65703223 -20 30 C-19.401875 29.649375 -18.80375 29.29875 -18.1875 28.9375 C-16 28 -16 28 -13 29 C-14.28965176 30.37562854 -15.62689293 31.70766393 -17 33 C-17.66 33 -18.32 33 -19 33 C-19 34.65 -19 36.3 -19 38 C-18.34 38.33 -17.68 38.66 -17 39 C-17.99 39 -18.98 39 -20 39 C-20 40.65 -20 42.3 -20 44 C-19.34 44.33 -18.68 44.66 -18 45 C-18.33 47.31 -18.66 49.62 -19 52 C-1.18 49.03 -1.18 49.03 17 46 C16.67 46.99 16.34 47.98 16 49 C12.0179843 49.72093505 8.03443369 50.43263662 4.04931641 51.13623047 C2.69698862 51.37627912 1.34508685 51.61874186 -0.00634766 51.86376953 C-13.82514216 54.36606418 -13.82514216 54.36606418 -21 54 C-21.33919096 50.33385091 -21.67028081 46.6670121 -22 43 C-22.09539063 41.97003906 -22.19078125 40.94007812 -22.2890625 39.87890625 C-22.55284524 36.92077129 -22.77864023 33.96156069 -23 31 C-23.12556274 29.85059937 -23.12556274 29.85059937 -23.25366211 28.67797852 C-23.54332237 24.68599404 -23.07978758 23.10921853 -20.69140625 19.83984375 C-19.66951068 18.85016263 -18.62525795 17.88316634 -17.5625 16.9375 C-17.02061035 16.42509766 -16.4787207 15.91269531 -15.92041016 15.38476562 C-12.07760132 11.80553478 -8.03958102 8.5223427 -3.7421875 5.5 C-1.80631687 3.83324143 -0.97786336 2.3388072 0 0 Z " fill="#131011" transform="translate(41,29)"/>
<path d="M0 0 C1 1 1 1 1.09765625 3.50390625 C1.06510417 6.3359375 1.03255208 9.16796875 1 12 C-4.61 12.66 -10.22 13.32 -16 14 C-13 12 -13 12 -11 11 C-10.34444881 8.47266765 -10.34444881 8.47266765 -10 6 C-12.64 6.33 -15.28 6.66 -18 7 C-18 7.66 -18 8.32 -18 9 C-22.29 9 -26.58 9 -31 9 C-31.33 8.34 -31.66 7.68 -32 7 C-30.83597656 6.74476562 -30.83597656 6.74476562 -29.6484375 6.484375 C-22.36708793 4.85085028 -15.22956503 2.95446544 -8.09375 0.76953125 C-5.22700212 0.05646391 -2.93389538 -0.23917625 0 0 Z " fill="#331C12" transform="translate(79,45)"/>
<path d="M0 0 C-0.66 0 -1.32 0 -2 0 C-1.938125 0.78375 -1.87625 1.5675 -1.8125 2.375 C-1.9053125 3.674375 -1.9053125 3.674375 -2 5 C-5 7 -5 7 -8 7 C-8 7.66 -8 8.32 -8 9 C-10.10320063 9.50404808 -12.20759791 10.00310508 -14.3125 10.5 C-15.48425781 10.7784375 -16.65601563 11.056875 -17.86328125 11.34375 C-21 12 -21 12 -24 12 C-23.67 10.35 -23.34 8.7 -23 7 C-24.65 5.68 -26.3 4.36 -28 3 C-27.67 2.34 -27.34 1.68 -27 1 C-26.45601562 1.165 -25.91203125 1.33 -25.3515625 1.5 C-22.62353891 2.08004488 -20.16131387 2.06008224 -17.375 2 C-12.22107969 1.88946015 -12.22107969 1.88946015 -10 3 C-10 2.34 -10 1.68 -10 1 C-3.375 -1.125 -3.375 -1.125 0 0 Z " fill="#4F3221" transform="translate(71,51)"/>
<path d="M0 0 C4 2 4 2 8 4 C8 13.57 8 23.14 8 33 C7.01 33 6.02 33 5 33 C5.00523682 32.34926514 5.01047363 31.69853027 5.01586914 31.02807617 C5.03664938 28.08122726 5.0496635 25.13439377 5.0625 22.1875 C5.07087891 21.16333984 5.07925781 20.13917969 5.08789062 19.08398438 C5.09111328 18.10107422 5.09433594 17.11816406 5.09765625 16.10546875 C5.10289307 15.19949951 5.10812988 14.29353027 5.11352539 13.36010742 C5.09920981 10.84715961 5.09920981 10.84715961 4 8 C-1.72398793 8.74660712 -7.34853777 9.82877141 -13 11 C-13 10.01 -13 9.02 -13 8 C-14.32 7.67 -15.64 7.34 -17 7 C-15.94039062 6.74605469 -14.88078125 6.49210937 -13.7890625 6.23046875 C-12.40088835 5.88342521 -11.01287569 5.53573523 -9.625 5.1875 C-8.92632812 5.02185547 -8.22765625 4.85621094 -7.5078125 4.68554688 C-2.96323061 3.56828793 -2.96323061 3.56828793 0 0 Z " fill="#E45582" transform="translate(75,38)"/>
<path d="M0 0 C2.46943529 3.70415293 2.46913089 5.62144505 2 10 C-0.86929636 13.32838378 -4.84856641 13.9621416 -9 15 C-9 15.66 -9 16.32 -9 17 C-9.99 17 -10.98 17 -12 17 C-14 15 -14 15 -14.5 12.1875 C-13.91560167 8.46196066 -12.72086486 7.36047924 -9.7265625 5.16796875 C-9.15679687 4.78253906 -8.58703125 4.39710937 -8 4 C-6.9275 3.236875 -5.855 2.47375 -4.75 1.6875 C-2 0 -2 0 0 0 Z " fill="#F681AE" transform="translate(56,22)"/>
<path d="M0 0 C4.875 1.75 4.875 1.75 6 4 C6.47892926 7.67179103 6.47427613 9.35633954 4.25 12.375 C-0.70709566 14.85354783 -5.55768977 14.31247714 -11 14 C-11.33 13.34 -11.66 12.68 -12 12 C-11.21753906 11.63648438 -10.43507812 11.27296875 -9.62890625 10.8984375 C-8.11103516 10.14433594 -8.11103516 10.14433594 -6.5625 9.375 C-5.04849609 8.64410156 -5.04849609 8.64410156 -3.50390625 7.8984375 C-0.69262157 6.17195658 -0.69262157 6.17195658 -0.15234375 2.7890625 C-0.10207031 1.86867188 -0.05179688 0.94828125 0 0 Z " fill="#EB7AA5" transform="translate(59,27)"/>
<path d="M0 0 C2.64 0.99 5.28 1.98 8 3 C7.67 4.32 7.34 5.64 7 7 C1.0750008 9.9624996 -4.42827149 10.27694539 -10.9375 10.3125 C-11.69546875 10.31797852 -12.4534375 10.32345703 -13.234375 10.32910156 C-18.74285607 10.25714393 -18.74285607 10.25714393 -21 8 C-20.28714844 8.03480469 -19.57429688 8.06960937 -18.83984375 8.10546875 C-12.73766039 8.27793961 -8.28227738 8.19137592 -3 5 C-1.04499143 2.47019293 -1.04499143 2.47019293 0 0 Z " fill="#F0709F" transform="translate(67,34)"/>
<path d="M0 0 C0 0.99 0 1.98 0 3 C-2.04111542 3.48150942 -4.08291932 3.96010083 -6.125 4.4375 C-7.26195313 4.70433594 -8.39890625 4.97117187 -9.5703125 5.24609375 C-15.91925362 6.64170381 -19.72494317 7.13351932 -26 5 C-22.10679246 2.71777489 -17.90999161 1.84089895 -13.5625 0.8125 C-12.81162109 0.62236328 -12.06074219 0.43222656 -11.28710938 0.23632812 C-7.20071947 -0.73764871 -4.12514226 -1.28756925 0 0 Z " fill="#CC698F" transform="translate(62,46)"/>
<path d="M0 0 C0.99 0 1.98 0 3 0 C3.103125 0.61875 3.20625 1.2375 3.3125 1.875 C3.87525373 4.36526484 3.87525373 4.36526484 7 6 C6.67 6.99 6.34 7.98 6 9 C4.00390625 9.984375 4.00390625 9.984375 1.5625 10.75 C0.75941406 11.01296875 -0.04367188 11.2759375 -0.87109375 11.546875 C-3 12 -3 12 -5 11 C-5 9.35 -5 7.7 -5 6 C-3.35 5.34 -1.7 4.68 0 4 C0 2.68 0 1.36 0 0 Z " fill="#513421" transform="translate(27,56)"/>
<path d="M0 0 C0.66 0 1.32 0 2 0 C2 9.57 2 19.14 2 29 C1.01 29 0.02 29 -1 29 C-0.99214478 28.03960815 -0.99214478 28.03960815 -0.98413086 27.05981445 C-0.96327571 24.14405305 -0.95031271 21.22830738 -0.9375 18.3125 C-0.92912109 17.30509766 -0.92074219 16.29769531 -0.91210938 15.25976562 C-0.90888672 14.28330078 -0.90566406 13.30683594 -0.90234375 12.30078125 C-0.89710693 11.40528564 -0.89187012 10.50979004 -0.88647461 9.5871582 C-0.92228355 6.95762366 -0.92228355 6.95762366 -1.63110352 4.29370117 C-1.75283936 3.53677979 -1.8745752 2.7798584 -2 2 C-1.34 1.34 -0.68 0.68 0 0 Z " fill="#E54F7C" transform="translate(81,42)"/>
<path d="M0 0 C4.43568572 0.27723036 7.91825455 2.12808272 11.39453125 4.76953125 C14.74191087 9.42002702 13.5373575 15.551792 13 21 C12.34 20.67 11.68 20.34 11 20 C10.68306373 16.92571815 10.62005943 13.8740846 10.5390625 10.78515625 C10.31961581 7.90978937 10.31961581 7.90978937 8.1953125 6.75390625 C7.10863281 6.38072266 7.10863281 6.38072266 6 6 C3.65147725 4.69208286 1.32858596 3.34341498 -1 2 C-0.67 1.34 -0.34 0.68 0 0 Z " fill="#1D1316" transform="translate(72,34)"/>
<path d="M0 0 C0.66 1.32 1.32 2.64 2 4 C-2.66473842 8.13465451 -5.00545461 9.76965035 -11.25 10.25 C-15.74440322 9.95037312 -18.86362824 8.74163021 -23 7 C-23 4 -23 4 -21 2 C-21 3.32 -21 4.64 -21 6 C-11.56273763 7.78362184 -11.56273763 7.78362184 -2.5 5.75 C-0.84703999 3.82154665 -0.34442894 2.49710982 0 0 Z " fill="#3A141F" transform="translate(65,33)"/>
<path d="M0 0 C0.99 0.33 1.98 0.66 3 1 C3.12022642 6.77086794 2.91696124 12.29446341 2 18 C1 19 1 19 -0.84765625 19.09765625 C-2.8984375 19.06510417 -4.94921875 19.03255208 -7 19 C-4 17 -4 17 0 17 C0 11.39 0 5.78 0 0 Z " fill="#382B2E" transform="translate(83,54)"/>
<path d="M0 0 C0 1.98 0 3.96 0 6 C-3.63 6.33 -7.26 6.66 -11 7 C-10.67 6.01 -10.34 5.02 -10 4 C-10.66 3.34 -11.32 2.68 -12 2 C-10.37548581 1.66430703 -8.75037083 1.3315204 -7.125 1 C-6.22007813 0.814375 -5.31515625 0.62875 -4.3828125 0.4375 C-2 0 -2 0 0 0 Z " fill="#D14A73" transform="translate(79,56)"/>
<path d="M0 0 C-0.928125 0.3403125 -0.928125 0.3403125 -1.875 0.6875 C-4.22088583 1.84019791 -4.22088583 1.84019791 -4.9375 4.4375 C-6.30031488 7.72428883 -7.91119829 8.3783791 -11 10 C-11.66 10.66 -12.32 11.32 -13 12 C-13.375 9.3125 -13.375 9.3125 -13 6 C-5.25 -1.75 -5.25 -1.75 0 0 Z " fill="#EA90B4" transform="translate(55,25)"/>
<path d="M0 0 C1.9375 0.375 1.9375 0.375 4 1 C5.43735246 3.87470493 5.38172649 5.81894588 5 9 C2.44065969 11.77871234 0.97719051 12.91313862 -2.8125 13.25 C-3.534375 13.1675 -4.25625 13.085 -5 13 C-5 12.34 -5 11.68 -5 11 C-4.195625 10.566875 -3.39125 10.13375 -2.5625 9.6875 C0.19975444 8.23986955 0.19975444 8.23986955 0.875 5.5 C1.1582456 2.8693898 1.1582456 2.8693898 0 0 Z " fill="#AC4061" transform="translate(60,28)"/>
<path d="M0 0 C0.66 0 1.32 0 2 0 C1.67 2.97 1.34 5.94 1 9 C0.01 8.67 -0.98 8.34 -2 8 C-4.13946938 9.43058496 -4.13946938 9.43058496 -6.1875 11.4375 C-7.26064453 12.42556641 -7.26064453 12.42556641 -8.35546875 13.43359375 C-8.89816406 13.95050781 -9.44085937 14.46742187 -10 15 C-10.99 14.34 -11.98 13.68 -13 13 C-12.22914062 12.39671875 -11.45828125 11.7934375 -10.6640625 11.171875 C-9.66117188 10.37265625 -8.65828125 9.5734375 -7.625 8.75 C-6.62726562 7.96109375 -5.62953125 7.1721875 -4.6015625 6.359375 C-2.26907982 4.24403035 -1.10149667 2.89308764 0 0 Z " fill="#30292C" transform="translate(41,29)"/>
<path d="M0 0 C0.66 0 1.32 0 2 0 C2.66 1.32 3.32 2.64 4 4 C-1.4612069 11.02155172 -1.4612069 11.02155172 -6 13 C-8.3125 12.6875 -8.3125 12.6875 -10 12 C-9.21625 11.773125 -8.4325 11.54625 -7.625 11.3125 C-4.32343815 9.66171907 -4.18378375 8.38223927 -3 5 C-2.01 4.34 -1.02 3.68 0 3 C0 2.01 0 1.02 0 0 Z " fill="#D56F96" transform="translate(54,22)"/>
<path d="M0 0 C0 3 0 3 -2.40625 5.69921875 C-3.4299968 6.70302243 -4.4616054 7.69885649 -5.5 8.6875 C-6.02464844 9.19861328 -6.54929687 9.70972656 -7.08984375 10.23632812 C-8.38660904 11.49772708 -9.69246117 12.74977212 -11 14 C-10.34 14.66 -9.68 15.32 -9 16 C-11.375 16.625 -11.375 16.625 -14 17 C-14.66 16.34 -15.32 15.68 -16 15 C-10.86877855 9.74595676 -5.5930976 4.76008307 0 0 Z " fill="#E893B4" transform="translate(37,37)"/>
<path d="M0 0 C-0.33 0.99 -0.66 1.98 -1 3 C-3.30824842 3.71023028 -5.58303983 4.01261364 -7.96875 4.375 C-8.6390625 4.58125 -9.309375 4.7875 -10 5 C-10.33 5.99 -10.66 6.98 -11 8 C-12.65 7.67 -14.3 7.34 -16 7 C-15.67 6.01 -15.34 5.02 -15 4 C-15 4.66 -15 5.32 -15 6 C-14.278125 5.195625 -13.55625 4.39125 -12.8125 3.5625 C-8.69715739 -0.18703438 -5.3905688 -0.15401625 0 0 Z " fill="#2F1913" transform="translate(46,53)"/>
<path d="M0 0 C-2.23407889 3.35111834 -3.26215824 4.81553956 -7.25 5.8125 C-8.61125 5.9053125 -8.61125 5.9053125 -10 6 C-10 4.35 -10 2.7 -10 1 C-6.61981469 -0.04005702 -3.5219721 -0.08004482 0 0 Z " fill="#E884AB" transform="translate(31,67)"/>
<path d="M0 0 C-0.33 0.66 -0.66 1.32 -1 2 C-6.51671831 3.52250148 -12.28062226 4.30915555 -18 4 C-18 3.67 -18 3.34 -18 3 C-15.37700199 2.30391966 -12.7520793 1.61784618 -10.125 0.9375 C-9.00544922 0.63875977 -9.00544922 0.63875977 -7.86328125 0.33398438 C-2.2265625 -1.11328125 -2.2265625 -1.11328125 0 0 Z " fill="#19181F" transform="translate(58,76)"/>
<path d="M0 0 C-3.72965139 2.03435531 -5.66905042 3 -10 3 C-9.67 3.99 -9.34 4.98 -9 6 C-9.66 6 -10.32 6 -11 6 C-11 5.01 -11 4.02 -11 3 C-12.32 2.67 -13.64 2.34 -15 2 C-13.25364835 1.46706165 -11.50272348 0.94909337 -9.75 0.4375 C-8.77546875 0.14746094 -7.8009375 -0.14257812 -6.796875 -0.44140625 C-4.03756068 -0.99249836 -2.6087176 -0.93789609 0 0 Z " fill="#AA4C6C" transform="translate(73,43)"/>
<path d="M0 0 C-1.23263349 3.69790046 -2.20052451 3.9354846 -5.5625 5.6875 C-6.80193359 6.34298828 -6.80193359 6.34298828 -8.06640625 7.01171875 C-8.70449219 7.33785156 -9.34257813 7.66398437 -10 8 C-10 6.68 -10 5.36 -10 4 C-8.71086513 3.32845067 -7.41859796 2.66291141 -6.125 2 C-5.40570313 1.62875 -4.68640625 1.2575 -3.9453125 0.875 C-2 0 -2 0 0 0 Z " fill="#322E30" transform="translate(53,22)"/>
<path d="M0 0 C0 0.66 0 1.32 0 2 C-4.67201205 3.20568053 -9.21496292 3.09382426 -14 3 C-9.11521152 0.50693368 -5.53108342 -0.12570644 0 0 Z " fill="#0C0A0A" transform="translate(74,73)"/>
<path d="M0 0 C0.33 0 0.66 0 1 0 C1.25 2.3125 1.25 2.3125 1 5 C-0.6875 6.625 -0.6875 6.625 -3 8 C-4.2684375 8.8353125 -4.2684375 8.8353125 -5.5625 9.6875 C-8 11 -8 11 -11 11 C-11 10.34 -11 9.68 -11 9 C-10.28972656 8.68546875 -9.57945313 8.3709375 -8.84765625 8.046875 C-7.92855469 7.61890625 -7.00945313 7.1909375 -6.0625 6.75 C-5.14597656 6.33234375 -4.22945312 5.9146875 -3.28515625 5.484375 C-0.83550383 4.21446051 -0.83550383 4.21446051 -0.18359375 1.828125 C-0.12300781 1.22484375 -0.06242187 0.6215625 0 0 Z " fill="#894159" transform="translate(58,28)"/>
<path d="M0 0 C0 0.33 0 0.66 0 1 C-4.76307437 1.95261487 -9.1666528 2.08333357 -14 2 C-9.82769799 -2.17230201 -5.41860283 -0.81279043 0 0 Z " fill="#221F1E" transform="translate(34,81)"/>
<path d="M0 0 C0.66 0 1.32 0 2 0 C2 2.97 2 5.94 2 9 C1.67 8.34 1.34 7.68 1 7 C0.34 7 -0.32 7 -1 7 C-1.625 4.625 -1.625 4.625 -2 2 C-1.34 1.34 -0.68 0.68 0 0 Z " fill="#D84C76" transform="translate(81,42)"/>
<path d="M0 0 C0.99 0.33 1.98 0.66 3 1 C1.71034824 2.37562854 0.37310707 3.70766393 -1 5 C-1.66 5 -2.32 5 -3 5 C-3 6.65 -3 8.3 -3 10 C-3.33 10 -3.66 10 -4 10 C-4.25 7.25 -4.25 7.25 -4 4 C-2 1.625 -2 1.625 0 0 Z " fill="#321C15" transform="translate(25,57)"/>
<path d="M0 0 C1.32 0.66 2.64 1.32 4 2 C2.71034824 3.37562854 1.37310707 4.70766393 0 6 C-0.66 6 -1.32 6 -2 6 C-2 6.66 -2 7.32 -2 8 C-3.32 7.67 -4.64 7.34 -6 7 C-5.195625 6.401875 -4.39125 5.80375 -3.5625 5.1875 C-0.77672016 3.19052724 -0.77672016 3.19052724 0 0 Z " fill="#D8507C" transform="translate(67,34)"/>
<path d="M0 0 C0.66 0.33 1.32 0.66 2 1 C2 1.66 2 2.32 2 3 C0.68 3.33 -0.64 3.66 -2 4 C-2 4.66 -2 5.32 -2 6 C-2.99 6 -3.98 6 -5 6 C-5 4.68 -5 3.36 -5 2 C-2.625 0.9375 -2.625 0.9375 0 0 Z " fill="#F176A5" transform="translate(49,33)"/>
<path d="M0 0 C3.68754757 0.49831724 5.60490662 1.10067643 8 4 C5 5 5 5 1.8125 3.5625 C0.884375 3.046875 -0.04375 2.53125 -1 2 C-0.67 1.34 -0.34 0.68 0 0 Z " fill="#3A2D31" transform="translate(72,34)"/>
<path d="M0 0 C0.66 0 1.32 0 2 0 C6 4.47058824 6 4.47058824 6 7 C4.68 6.34 3.36 5.68 2 5 C2 4.34 2 3.68 2 3 C1.01 3.33 0.02 3.66 -1 4 C-0.67 2.68 -0.34 1.36 0 0 Z " fill="#120F11" transform="translate(54,19)"/>
<path d="M0 0 C0.66 0.33 1.32 0.66 2 1 C1.34 2.65 0.68 4.3 0 6 C-1.65 5.67 -3.3 5.34 -5 5 C-4.67 4.01 -4.34 3.02 -4 2 C-4 2.66 -4 3.32 -4 4 C-2.68 2.68 -1.36 1.36 0 0 Z " fill="#20110D" transform="translate(35,55)"/>
<path d="M0 0 C0 0.99 0 1.98 0 3 C-3.22791555 5.1519437 -4.28400809 5.20086443 -8 5 C-8 4.34 -8 3.68 -8 3 C-7.05125 2.690625 -6.1025 2.38125 -5.125 2.0625 C-2.13919592 1.12605258 -2.13919592 1.12605258 0 0 Z " fill="#C1456A" transform="translate(63,36)"/>
<path d="M0 0 C0.66 0.33 1.32 0.66 2 1 C-0.75 3.0625 -0.75 3.0625 -4 5 C-6.203125 4.62109375 -6.203125 4.62109375 -8 4 C-6.71349294 3.30289269 -5.42059335 2.61757124 -4.125 1.9375 C-3.40570313 1.55464844 -2.68640625 1.17179687 -1.9453125 0.77734375 C-1.30335937 0.52082031 -0.66140625 0.26429687 0 0 Z " fill="#A44262" transform="translate(52,30)"/>
<path d="M0 0 C0.33 1.32 0.66 2.64 1 4 C2.32 4.33 3.64 4.66 5 5 C5 5.66 5 6.32 5 7 C3.02 6.34 1.04 5.68 -1 5 C-1 2 -1 2 0 0 Z " fill="#542636" transform="translate(43,35)"/>
<path d="M0 0 C0.66 0 1.32 0 2 0 C1.67 2.97 1.34 5.94 1 9 C0.67 8.01 0.34 7.02 0 6 C-0.66 6 -1.32 6 -2 6 C-1.34 4.02 -0.68 2.04 0 0 Z " fill="#0D0B0C" transform="translate(41,29)"/>
</svg>
