<?xml version="1.0" encoding="UTF-8"?>
<svg version="1.1" xmlns="http://www.w3.org/2000/svg" width="100" height="100">
<path d="M0 0 C1.8125 1.375 1.8125 1.375 3 3 C3 3.66 3 4.32 3 5 C4.32 5.66 5.64 6.32 7 7 C7 7.99 7 8.98 7 10 C8.32 10.66 9.64 11.32 11 12 C10.54300722 17.02692063 8.00758252 20.14896261 5 24 C5.78375 24.268125 6.5675 24.53625 7.375 24.8125 C10 26 10 26 12 29 C12.84593655 35.31316336 11.55013103 41.65061982 10.25 47.8125 C9.97929688 49.11973022 9.97929688 49.11973022 9.703125 50.45336914 C5.66969682 69.33030318 5.66969682 69.33030318 0 75 C-2.25 74.875 -2.25 74.875 -5 74 C-8.6518996 69.43157306 -10.1807043 64.92651225 -11.625 59.3125 C-11.83664795 58.51521484 -12.0482959 57.71792969 -12.26635742 56.89648438 C-17.47599531 36.92451852 -17.47599531 36.92451852 -16 29 C-13.5 26.0625 -13.5 26.0625 -11 24 C-10.66719258 20.85670791 -10.66719258 20.85670791 -13.0625 18.6875 C-15 16 -15 16 -14.75 12.6875 C-14.5025 11.800625 -14.255 10.91375 -14 10 C-13.01 10 -12.02 10 -11 10 C-10.8453125 9.1646875 -10.8453125 9.1646875 -10.6875 8.3125 C-9.85988599 5.52870742 -8.62262248 3.40148127 -7 1 C-4.45132831 -0.27433584 -2.82594567 -0.27570202 0 0 Z " fill="#EC7B1C" transform="translate(52,14)"/>
<path d="M0 0 C1.8125 1.375 1.8125 1.375 3 3 C3 3.66 3 4.32 3 5 C4.32 5.66 5.64 6.32 7 7 C7 7.99 7 8.98 7 10 C8.32 10.66 9.64 11.32 11 12 C10.54300722 17.02692063 8.00758252 20.14896261 5 24 C5.78375 24.268125 6.5675 24.53625 7.375 24.8125 C10 26 10 26 12 29 C12.84593655 35.31316336 11.55013103 41.65061982 10.25 47.8125 C9.97929688 49.11973022 9.97929688 49.11973022 9.703125 50.45336914 C5.66969682 69.33030318 5.66969682 69.33030318 0 75 C-2.25 74.875 -2.25 74.875 -5 74 C-8.75201615 69.34106376 -10.2230924 64.67741275 -11.6875 58.9375 C-11.89955078 58.14794922 -12.11160156 57.35839844 -12.33007812 56.54492188 C-14.10945931 49.84838636 -15.11759007 43.93781388 -15 37 C-12.03 37.33 -9.06 37.66 -6 38 C-6 38.33 -6 38.66 -6 39 C-9.465 39.495 -9.465 39.495 -13 40 C-12.71125 41.19238281 -12.4225 42.38476562 -12.125 43.61328125 C-11.74982302 45.17964512 -11.37483274 46.74605372 -11 48.3125 C-10.80921875 49.09818359 -10.6184375 49.88386719 -10.421875 50.69335938 C-10.24140625 51.45068359 -10.0609375 52.20800781 -9.875 52.98828125 C-9.70742188 53.68477783 -9.53984375 54.38127441 -9.3671875 55.09887695 C-9 57 -9 57 -9 60 C-8.01 60.33 -7.02 60.66 -6 61 C-6.66 61 -7.32 61 -8 61 C-7.43613497 62.65260442 -6.84821283 64.29701637 -6.25 65.9375 C-5.92515625 66.85402344 -5.6003125 67.77054687 -5.265625 68.71484375 C-4.22179047 71.1788835 -4.22179047 71.1788835 -1.859375 71.81640625 C-1.24578125 71.87699219 -0.6321875 71.93757813 0 72 C1.92471317 66.66164461 3.39891424 61.65020618 4 56 C4.66 56 5.32 56 6 56 C6.09087891 55.12988281 6.09087891 55.12988281 6.18359375 54.2421875 C6.66016561 49.79907137 7.21008666 45.40094577 8 41 C7.34 40.67 6.68 40.34 6 40 C6.99 40 7.98 40 9 40 C9 37.69 9 35.38 9 33 C8.34 32.67 7.68 32.34 7 32 C7.66 32 8.32 32 9 32 C8.88693303 30.04105639 8.88693303 30.04105639 8 28 C4.41579734 26.18247879 1.42835204 25.72779776 -2.5625 25.75 C-3.49191406 25.74484375 -4.42132813 25.7396875 -5.37890625 25.734375 C-8.14076395 26.0142652 -9.74308095 26.38719044 -12 28 C-12.90609992 29.93981618 -12.90609992 29.93981618 -13.25 32.125 C-13.4975 33.40375 -13.745 34.6825 -14 36 C-14.66 36 -15.32 36 -16 36 C-16.3125 32.8125 -16.3125 32.8125 -16 29 C-13.5 26.25 -13.5 26.25 -11 24 C-10.66719258 20.85670791 -10.66719258 20.85670791 -13.0625 18.6875 C-15 16 -15 16 -14.75 12.6875 C-14.5025 11.800625 -14.255 10.91375 -14 10 C-13.01 10 -12.02 10 -11 10 C-10.8453125 9.1646875 -10.8453125 9.1646875 -10.6875 8.3125 C-9.85988599 5.52870742 -8.62262248 3.40148127 -7 1 C-4.45132831 -0.27433584 -2.82594567 -0.27570202 0 0 Z " fill="#131408" transform="translate(52,14)"/>
<path d="M0 0 C0.598125 0.763125 1.19625 1.52625 1.8125 2.3125 C4.22411987 5.34127671 4.22411987 5.34127671 7 8 C7.99 8 8.98 8 10 8 C10 8.66 10 9.32 10 10 C12.78723657 10.5863982 12.78723657 10.5863982 16 10 C17.5831143 8.28817723 18.73044413 6.53285386 19.921875 4.53125 C20.27765625 4.0259375 20.6334375 3.520625 21 3 C21.66 3 22.32 3 23 3 C22.40072174 6.35595828 21.15377564 8.37801226 19 11 C19.78375 11.268125 20.5675 11.53625 21.375 11.8125 C24 13 24 13 26 16 C26.84593655 22.31316336 25.55013103 28.65061982 24.25 34.8125 C23.97929688 36.11973022 23.97929688 36.11973022 23.703125 37.45336914 C19.66969682 56.33030318 19.66969682 56.33030318 14 62 C11.75 61.875 11.75 61.875 9 61 C5.24798385 56.34106376 3.7769076 51.67741275 2.3125 45.9375 C2.10044922 45.14794922 1.88839844 44.35839844 1.66992188 43.54492188 C-0.10945931 36.84838636 -1.11759007 30.93781388 -1 24 C1.97 24.33 4.94 24.66 8 25 C8 25.33 8 25.66 8 26 C5.69 26.33 3.38 26.66 1 27 C1.28875 28.19238281 1.5775 29.38476562 1.875 30.61328125 C2.25017698 32.17964512 2.62516726 33.74605372 3 35.3125 C3.19078125 36.09818359 3.3815625 36.88386719 3.578125 37.69335938 C3.75859375 38.45068359 3.9390625 39.20800781 4.125 39.98828125 C4.29257812 40.68477783 4.46015625 41.38127441 4.6328125 42.09887695 C5 44 5 44 5 47 C5.99 47.33 6.98 47.66 8 48 C7.34 48 6.68 48 6 48 C6.56386503 49.65260442 7.15178717 51.29701637 7.75 52.9375 C8.07484375 53.85402344 8.3996875 54.77054688 8.734375 55.71484375 C9.77820953 58.1788835 9.77820953 58.1788835 12.140625 58.81640625 C13.06101562 58.90728516 13.06101562 58.90728516 14 59 C15.92471317 53.66164461 17.39891424 48.65020618 18 43 C18.66 43 19.32 43 20 43 C20.09087891 42.12988281 20.09087891 42.12988281 20.18359375 41.2421875 C20.66016561 36.79907137 21.21008666 32.40094577 22 28 C21.34 27.67 20.68 27.34 20 27 C20.99 27 21.98 27 23 27 C23 24.69 23 22.38 23 20 C22.34 19.67 21.68 19.34 21 19 C21.66 19 22.32 19 23 19 C22.88693303 17.04105639 22.88693303 17.04105639 22 15 C18.41579734 13.18247879 15.42835204 12.72779776 11.4375 12.75 C10.50808594 12.74484375 9.57867187 12.7396875 8.62109375 12.734375 C5.85923605 13.0142652 4.25691905 13.38719044 2 15 C1.09390008 16.93981618 1.09390008 16.93981618 0.75 19.125 C0.5025 20.40375 0.255 21.6825 0 23 C-0.66 23 -1.32 23 -2 23 C-2.3125 19.8125 -2.3125 19.8125 -2 16 C0.5 13.25 0.5 13.25 3 11 C3 10.01 3 9.02 3 8 C2.2575 7.319375 2.2575 7.319375 1.5 6.625 C0 5 0 5 -0.1875 2.3125 C-0.125625 1.549375 -0.06375 0.78625 0 0 Z " fill="#2E1E0E" transform="translate(38,27)"/>
<path d="M0 0 C-0.33 1.98 -0.66 3.96 -1 6 C0.98 6 2.96 6 5 6 C5 6.66 5 7.32 5 8 C3.35 8.33 1.7 8.66 0 9 C0.28241641 10.46015291 0.57626614 11.91809793 0.875 13.375 C1.03742187 14.18710938 1.19984375 14.99921875 1.3671875 15.8359375 C1.86658932 18.18673923 1.86658932 18.18673923 4 20 C3.835 20.78375 3.67 21.5675 3.5 22.375 C2.91714603 25.43498336 3.27864122 26.46326075 5 29 C5.66 29.33 6.32 29.66 7 30 C7 30.66 7 31.32 7 32 C4.6875 31.9375 4.6875 31.9375 2 31 C0.10567525 27.41431386 -1.06346696 23.91903784 -2 20 C-2.15863525 19.35087646 -2.31727051 18.70175293 -2.48071289 18.03295898 C-3.01149028 15.83530354 -3.53733712 13.63650359 -4.0625 11.4375 C-4.24876953 10.66986328 -4.43503906 9.90222656 -4.62695312 9.11132812 C-5.36494973 6.01066106 -6 3.1991839 -6 0 C-3.50907189 -1.24546405 -2.58919267 -0.7767578 0 0 Z " fill="#B84308" transform="translate(45,54)"/>
<path d="M0 0 C3.69230769 0.69230769 3.69230769 0.69230769 5 2 C5.07271741 4.35313555 5.08370868 6.70833668 5.0625 9.0625 C5.05347656 10.35285156 5.04445313 11.64320312 5.03515625 12.97265625 C5.02355469 13.97167969 5.01195312 14.97070312 5 16 C6.65 14.02 8.3 12.04 10 10 C10.99 10.33 11.98 10.66 13 11 C11.22054913 15.04420651 8.60470327 18.46078487 6 22 C4.68 21.67 3.36 21.34 2 21 C1.86722656 19.97519531 1.73445313 18.95039062 1.59765625 17.89453125 C1.41935912 16.5338426 1.24096877 15.17316615 1.0625 13.8125 C0.97548828 13.13896484 0.88847656 12.46542969 0.79882812 11.77148438 C0.41329915 8.84431993 -0.00822458 5.96173782 -0.62890625 3.07421875 C-0.75136719 2.38972656 -0.87382813 1.70523437 -1 1 C-0.67 0.67 -0.34 0.34 0 0 Z " fill="#5D882C" transform="translate(48,16)"/>
<path d="M0 0 C0.598125 0.763125 1.19625 1.52625 1.8125 2.3125 C4.22411987 5.34127671 4.22411987 5.34127671 7 8 C7.99 8 8.98 8 10 8 C10 8.66 10 9.32 10 10 C14.14093698 10.20970559 14.14093698 10.20970559 18 9 C18 9.99 18 10.98 18 12 C16.77023438 12.07347656 16.77023438 12.07347656 15.515625 12.1484375 C14.43796875 12.22320312 13.3603125 12.29796875 12.25 12.375 C10.64898437 12.47941406 10.64898437 12.47941406 9.015625 12.5859375 C6.13438649 12.98154797 4.34790685 13.3042895 2 15 C1.09390008 16.93981618 1.09390008 16.93981618 0.75 19.125 C0.5025 20.40375 0.255 21.6825 0 23 C-0.66 23 -1.32 23 -2 23 C-2.3125 19.8125 -2.3125 19.8125 -2 16 C0.5 13.25 0.5 13.25 3 11 C3 10.01 3 9.02 3 8 C2.2575 7.319375 2.2575 7.319375 1.5 6.625 C0 5 0 5 -0.1875 2.3125 C-0.125625 1.549375 -0.06375 0.78625 0 0 Z " fill="#1B180C" transform="translate(38,27)"/>
<path d="M0 0 C0.66 0.33 1.32 0.66 2 1 C3.18695553 4.56086658 3.35095418 7.97331024 3.5625 11.6875 C3.60568359 12.38939453 3.64886719 13.09128906 3.69335938 13.81445312 C3.7991736 15.54275206 3.90006581 17.2713511 4 19 C3.34 19 2.68 19 2 19 C1.67 18.34 1.34 17.68 1 17 C0.01 17 -0.98 17 -2 17 C-4.75 14.1875 -4.75 14.1875 -7 11 C-6.67 10.01 -6.34 9.02 -6 8 C-2.83884224 9.36983503 -2.0072908 9.9890638 0 13 C0 8.71 0 4.42 0 0 Z " fill="#335418" transform="translate(46,18)"/>
<path d="M0 0 C-1.32 0.33 -2.64 0.66 -4 1 C-3.979375 2.093125 -3.95875 3.18625 -3.9375 4.3125 C-4 8 -4 8 -5 11 C-3.68 11 -2.36 11 -1 11 C-1.33 11.66 -1.66 12.32 -2 13 C-4.01822917 12.70703125 -6.03645833 12.4140625 -8.0546875 12.12109375 C-10.08140667 11.8315703 -10.08140667 11.8315703 -12 13 C-12 12.01 -12 11.02 -12 10 C-11.34 10 -10.68 10 -10 10 C-10.0825 9.0925 -10.165 8.185 -10.25 7.25 C-10 4 -10 4 -8.125 1.6875 C-4.92657993 -0.85242182 -3.85385408 -1.15615622 0 0 Z " fill="#AB4A11" transform="translate(48,40)"/>
<path d="M0 0 C0.66 0 1.32 0 2 0 C1.40072174 3.35595828 0.15377564 5.37801226 -2 8 C-1.21625 8.226875 -0.4325 8.45375 0.375 8.6875 C3 10 3 10 4.3125 12.625 C4.6528125 13.800625 4.6528125 13.800625 5 15 C4.67 15 4.34 15 4 15 C3.67 16.98 3.34 18.96 3 21 C2.87625 20.360625 2.7525 19.72125 2.625 19.0625 C2.41875 18.381875 2.2125 17.70125 2 17 C1.34 16.67 0.68 16.34 0 16 C0.66 16 1.32 16 2 16 C1.88693303 14.04105639 1.88693303 14.04105639 1 12 C-1.49034386 10.70339566 -1.49034386 10.70339566 -4 10 C-4.4025937 6.47730515 -4.13372795 5.20059192 -2.125 2.1875 C-1.42375 1.465625 -0.7225 0.74375 0 0 Z " fill="#3A2C15" transform="translate(59,30)"/>
<path d="M0 0 C2.97 0.33 5.94 0.66 9 1 C9 1.33 9 1.66 9 2 C6.69 2.33 4.38 2.66 2 3 C2.16757812 3.74765625 2.33515625 4.4953125 2.5078125 5.265625 C2.71148437 6.25046875 2.91515625 7.2353125 3.125 8.25 C3.33382812 9.22453125 3.54265625 10.1990625 3.7578125 11.203125 C4.0202996 14.23442766 3.61988849 15.48017346 2 18 C0.59545452 11.88019467 -0.23268915 6.28260706 0 0 Z " fill="#32180A" transform="translate(37,51)"/>
<path d="M0 0 C0.99 0 1.98 0 3 0 C3.8125 2.0625 3.8125 2.0625 4 5 C2.62353742 7.57223122 0.95685733 9.83748569 -1 12 C-1.33 12 -1.66 12 -2 12 C-2.05395478 10.37536158 -2.09277195 8.75021459 -2.125 7.125 C-2.14820313 6.22007813 -2.17140625 5.31515625 -2.1953125 4.3828125 C-2 2 -2 2 0 0 Z " fill="#151709" transform="translate(54,22)"/>
<path d="M0 0 C1.65 0 3.3 0 5 0 C5.0825 0.61875 5.165 1.2375 5.25 1.875 C5.81258459 4.18437567 5.81258459 4.18437567 8.0625 5.25 C8.701875 5.4975 9.34125 5.745 10 6 C9.67 7.65 9.34 9.3 9 11 C8.34 10.34 7.68 9.68 7 9 C7 8.34 7 7.68 7 7 C6.01 6.34 5.02 5.68 4 5 C4 4.01 4 3.02 4 2 C3.01 2 2.02 2 1 2 C0.67 3.32 0.34 4.64 0 6 C0 4.02 0 2.04 0 0 Z " fill="#161309" transform="translate(53,20)"/>
<path d="M0 0 C-0.33 1.98 -0.66 3.96 -1 6 C-1.66 6 -2.32 6 -3 6 C-3.33 6.99 -3.66 7.98 -4 9 C-4.33 9 -4.66 9 -5 9 C-5.33 6.03 -5.66 3.06 -6 0 C-3.50907189 -1.24546405 -2.58919267 -0.7767578 0 0 Z " fill="#C24B0A" transform="translate(45,54)"/>
<path d="M0 0 C1.875 0.625 1.875 0.625 4 2 C5.3125 5 5.3125 5 6 8 C5.67 8.66 5.34 9.32 5 10 C3.96704564 8.90716423 2.94892165 7.80029421 1.9375 6.6875 C1.36902344 6.07261719 0.80054688 5.45773438 0.21484375 4.82421875 C-0.38650391 3.92123047 -0.38650391 3.92123047 -1 3 C-0.67 2.01 -0.34 1.02 0 0 Z " fill="#395C1B" transform="translate(40,26)"/>
<path d="M0 0 C1.8125 1.375 1.8125 1.375 3 3 C3 3.66 3 4.32 3 5 C3.66 5.33 4.32 5.66 5 6 C3.68 6 2.36 6 1 6 C0.34 5.01 -0.32 4.02 -1 3 C-2.98 3.33 -4.96 3.66 -7 4 C-7 3.01 -7 2.02 -7 1 C-4.45132831 -0.27433584 -2.82594567 -0.27570202 0 0 Z " fill="#2B270A" transform="translate(52,14)"/>
<path d="M0 0 C0.66 0.99 1.32 1.98 2 3 C1.67 3.99 1.34 4.98 1 6 C2.32 6 3.64 6 5 6 C4.67 6.66 4.34 7.32 4 8 C1.69 7.67 -0.62 7.34 -3 7 C-3 5.68 -3 4.36 -3 3 C-2.34 3 -1.68 3 -1 3 C-0.67 2.01 -0.34 1.02 0 0 Z " fill="#CA4B09" transform="translate(42,45)"/>
<path d="M0 0 C0.66 0.33 1.32 0.66 2 1 C1.67 5.29 1.34 9.58 1 14 C-1.04379831 9.91240337 -1.18594005 9.01314435 -0.625 4.75 C-0.51414063 3.85796875 -0.40328125 2.9659375 -0.2890625 2.046875 C-0.19367187 1.37140625 -0.09828125 0.6959375 0 0 Z " fill="#20170E" transform="translate(62,44)"/>
<path d="M0 0 C0.99 0 1.98 0 3 0 C3 2.31 3 4.62 3 7 C2.01 7 1.02 7 0 7 C0 4.69 0 2.38 0 0 Z " fill="#ED9F54" transform="translate(58,47)"/>
<path d="M0 0 C0.99 0 1.98 0 3 0 C2.6875 2.375 2.6875 2.375 2 5 C1.01 5.66 0.02 6.32 -1 7 C-1.625 4.625 -1.625 4.625 -2 2 C-1.34 1.34 -0.68 0.68 0 0 Z " fill="#344F19" transform="translate(54,22)"/>
<path d="M0 0 C0.66 0 1.32 0 2 0 C5 5.75 5 5.75 5 8 C3.0625 7.375 3.0625 7.375 1 6 C0.25 2.875 0.25 2.875 0 0 Z " fill="#211409" transform="translate(44,80)"/>
<path d="M0 0 C0.33 0 0.66 0 1 0 C2.33928571 8.03571429 2.33928571 8.03571429 0 12 C-0.19477739 10.37585622 -0.38059458 8.75063577 -0.5625 7.125 C-0.66691406 6.22007813 -0.77132812 5.31515625 -0.87890625 4.3828125 C-1 2 -1 2 0 0 Z " fill="#33291B" transform="translate(39,57)"/>
<path d="M0 0 C0.97608217 2.92824652 1.08226668 4.95613276 1 8 C-0.32 7.34 -1.64 6.68 -3 6 C-2.42655063 3.13275314 -2.1385485 2.1385485 0 0 Z " fill="#242D11" transform="translate(44,18)"/>
<path d="M0 0 C0.99 0.99 1.98 1.98 3 3 C1.68 4.32 0.36 5.64 -1 7 C-1.33 6.34 -1.66 5.68 -2 5 C-1.0625 2.375 -1.0625 2.375 0 0 Z " fill="#456620" transform="translate(54,31)"/>
</svg>
