<?xml version="1.0" encoding="UTF-8"?>
<svg version="1.1" xmlns="http://www.w3.org/2000/svg" width="100" height="100">
<path d="M0 0 C1.20728052 2.95513441 1.04005092 3.87984723 0 7 C-0.03874921 8.66621616 -0.0450286 10.33394172 0 12 C0.61875 12.0825 1.2375 12.165 1.875 12.25 C2.926875 12.62125 2.926875 12.62125 4 13 C4.268125 13.639375 4.53625 14.27875 4.8125 14.9375 C5.93243794 17.42015885 5.93243794 17.42015885 9.5625 18.125 C10.696875 18.41375 11.83125 18.7025 13 19 C14.96873071 22.93746141 13.76762639 27.79293134 13 32 C9.53020142 38.81567577 4.18269793 42.6317822 -3 45 C-5.96664982 45.52981974 -8.93383028 45.77694267 -11.9375 46 C-18.15122784 46.46378969 -23.27501546 47.44134769 -29 50 C-29.33 50.66 -29.66 51.32 -30 52 C-31.36125 51.6596875 -31.36125 51.6596875 -32.75 51.3125 C-35.9112209 50.73971629 -35.9112209 50.73971629 -38.25 52 C-40.65006473 54.74293111 -41.20505543 57.48899481 -42 61 C-48.44807122 62.33827893 -48.44807122 62.33827893 -50.9375 60.8125 C-52 59 -52 59 -52 55 C-52.61875 54.896875 -53.2375 54.79375 -53.875 54.6875 C-56 54 -56 54 -58 51 C-57.8125 48.4375 -57.8125 48.4375 -57 46 C-54 44 -54 44 -50.4375 43.5 C-46.9428808 43.34152243 -46.9428808 43.34152243 -45 41 C-44.32741333 38.66836622 -43.66152556 36.3347961 -43 34 C-42.31164062 32.64068359 -42.31164062 32.64068359 -41.609375 31.25390625 C-40.13621847 28.27541258 -39.00282216 25.36520768 -37.90820312 22.23925781 C-34.61252071 12.85683403 -31.30956579 3.84873218 -22 -1 C-14.23403152 -4.37650804 -7.40696559 -3.63850941 0 0 Z " fill="#E2832F" transform="translate(71,20)"/>
<path d="M0 0 C1.20728052 2.95513441 1.04005092 3.87984723 0 7 C-0.03874921 8.66621616 -0.0450286 10.33394172 0 12 C0.61875 12.0825 1.2375 12.165 1.875 12.25 C2.926875 12.62125 2.926875 12.62125 4 13 C4.268125 13.639375 4.53625 14.27875 4.8125 14.9375 C5.93243794 17.42015885 5.93243794 17.42015885 9.5625 18.125 C10.696875 18.41375 11.83125 18.7025 13 19 C14.96873071 22.93746141 13.76762639 27.79293134 13 32 C9.53020142 38.81567577 4.18269793 42.6317822 -3 45 C-5.96664982 45.52981974 -8.93383028 45.77694267 -11.9375 46 C-18.15122784 46.46378969 -23.27501546 47.44134769 -29 50 C-29.33 50.66 -29.66 51.32 -30 52 C-31.36125 51.6596875 -31.36125 51.6596875 -32.75 51.3125 C-35.9112209 50.73971629 -35.9112209 50.73971629 -38.25 52 C-40.65006473 54.74293111 -41.20505543 57.48899481 -42 61 C-48.44807122 62.33827893 -48.44807122 62.33827893 -50.9375 60.8125 C-52 59 -52 59 -52 55 C-52.61875 54.896875 -53.2375 54.79375 -53.875 54.6875 C-56 54 -56 54 -58 51 C-57.8125 48.4375 -57.8125 48.4375 -57 46 C-54 44 -54 44 -50.4375 43.5 C-46.9428808 43.34152243 -46.9428808 43.34152243 -45 41 C-44.32741333 38.66836622 -43.66152556 36.3347961 -43 34 C-42.31164062 32.64068359 -42.31164062 32.64068359 -41.609375 31.25390625 C-40.13621847 28.27541258 -39.00282216 25.36520768 -37.90820312 22.23925781 C-34.61252071 12.85683403 -31.30956579 3.84873218 -22 -1 C-14.23403152 -4.37650804 -7.40696559 -3.63850941 0 0 Z M-29.62890625 7.8984375 C-34.1380322 14.80986132 -36.67145015 22.61195624 -39.0078125 30.46875 C-40.01670541 33.04261852 -41.03595345 34.13725098 -43 36 C-42.77242269 38.16299211 -42.77242269 38.16299211 -42 40 C-40.68 40 -39.36 40 -38 40 C-38 41.32 -38 42.64 -38 44 C-36.68 44 -35.36 44 -34 44 C-34 45.32 -34 46.64 -34 48 C-33.34 48 -32.68 48 -32 48 C-31.75765625 47.43410156 -31.5153125 46.86820313 -31.265625 46.28515625 C-30.76289062 45.18494141 -30.76289062 45.18494141 -30.25 44.0625 C-29.92515625 43.33160156 -29.6003125 42.60070313 -29.265625 41.84765625 C-28 40 -28 40 -26.00390625 39.33203125 C-25.34261719 39.22246094 -24.68132813 39.11289062 -24 39 C-22.32936253 38.00664799 -20.66324401 37.00568242 -19 36 C-17.96875 35.649375 -16.9375 35.29875 -15.875 34.9375 C-10.09599242 32.55941281 -5.15642081 27.55192798 -1 23 C-0.12895162 20.82483659 -0.12895162 20.82483659 0 19 C0.495 19.7734375 0.495 19.7734375 1 20.5625 C3.46229584 22.33227513 4.25492998 22.07158882 7.1875 21.6875 C8.445625 21.460625 9.70375 21.23375 11 21 C11 20.67 11 20.34 11 20 C10.113125 19.773125 9.22625 19.54625 8.3125 19.3125 C4.55152397 17.82230195 2.67820657 15.98428732 0 13 C-0.495 12.505 -0.495 12.505 -1 12 C-1.07205511 10.31391034 -1.08386068 8.62499341 -1.0625 6.9375 C-1.05347656 6.01839844 -1.04445312 5.09929688 -1.03515625 4.15234375 C-1.02355469 3.44207031 -1.01195312 2.73179688 -1 2 C-11.21237656 -4.44992204 -22.45573442 -1.23812282 -29.62890625 7.8984375 Z " fill="#9C3D0F" transform="translate(71,20)"/>
<path d="M0 0 C0.78375 0.495 1.5675 0.99 2.375 1.5 C1.375 3.5 1.375 3.5 -0.625 4.5 C-0.955 5.49 -1.285 6.48 -1.625 7.5 C-2.615 7.83 -3.605 8.16 -4.625 8.5 C-5.35823796 10.51508358 -5.35823796 10.51508358 -5.625 12.5 C-6.285 11.51 -6.945 10.52 -7.625 9.5 C-8.285 9.5 -8.945 9.5 -9.625 9.5 C-9.955 10.49 -10.285 11.48 -10.625 12.5 C-10.625 11.84 -10.625 11.18 -10.625 10.5 C-19.66028543 14.11411417 -25.92696595 21.99151381 -30.125 30.5625 C-32.28025932 34.78321617 -34.02713836 37.96737945 -38.625 39.5 C-39.3125 37.6875 -39.3125 37.6875 -39.625 35.5 C-38.63025107 34.49477636 -37.62956267 33.49541642 -36.625 32.5 C-35.57871054 29.7956562 -34.63800316 27.12955562 -33.75 24.375 C-30.06975384 13.55054571 -26.47940948 5.17018942 -16.3125 -0.875 C-10.61764963 -2.19938381 -5.42212332 -2.24363724 0 0 Z " fill="#C86222" transform="translate(67.625,20.5)"/>
<path d="M0 0 C1.20728052 2.95513441 1.04005092 3.87984723 0 7 C-0.03874921 8.66621616 -0.0450286 10.33394172 0 12 C0.61875 12.0825 1.2375 12.165 1.875 12.25 C2.926875 12.62125 2.926875 12.62125 4 13 C4.268125 13.639375 4.53625 14.27875 4.8125 14.9375 C5.93243794 17.42015885 5.93243794 17.42015885 9.5625 18.125 C10.696875 18.41375 11.83125 18.7025 13 19 C14.96873071 22.93746141 13.76762639 27.79293134 13 32 C9.53020142 38.81567577 4.18269793 42.6317822 -3 45 C-5.96664982 45.52981974 -8.93383028 45.77694267 -11.9375 46 C-18.15122784 46.46378969 -23.27501546 47.44134769 -29 50 C-29.33 50.66 -29.66 51.32 -30 52 C-31.36125 51.6596875 -31.36125 51.6596875 -32.75 51.3125 C-35.9112209 50.73971629 -35.9112209 50.73971629 -38.25 52 C-40.65006473 54.74293111 -41.20505543 57.48899481 -42 61 C-48.44807122 62.33827893 -48.44807122 62.33827893 -50.9375 60.8125 C-52 59 -52 59 -52 55 C-52.61875 54.896875 -53.2375 54.79375 -53.875 54.6875 C-56 54 -56 54 -58 51 C-57.8125 48.4375 -57.8125 48.4375 -57 46 C-54 44 -54 44 -50.4375 43.5 C-46.9428808 43.34152243 -46.9428808 43.34152243 -45 41 C-44.32741333 38.66836622 -43.66152556 36.3347961 -43 34 C-42.31164062 32.64068359 -42.31164062 32.64068359 -41.609375 31.25390625 C-40.13621847 28.27541258 -39.00282216 25.36520768 -37.90820312 22.23925781 C-34.61252071 12.85683403 -31.30956579 3.84873218 -22 -1 C-14.23403152 -4.37650804 -7.40696559 -3.63850941 0 0 Z M-29.62890625 7.8984375 C-34.1380322 14.80986132 -36.67145015 22.61195624 -39.0078125 30.46875 C-40 33 -40 33 -41.6796875 34.59375 C-42.11539063 35.0578125 -42.55109375 35.521875 -43 36 C-42.68154943 37.33696602 -42.34786468 38.67038387 -42 40 C-43.50219388 42.548469 -45.55751863 44.35186545 -48 46 C-51.3125 46.3125 -51.3125 46.3125 -54 46 C-55.35618499 47.12534105 -55.35618499 47.12534105 -55.0625 50.0625 C-55.041875 51.031875 -55.02125 52.00125 -55 53 C-54.38125 53.04125 -53.7625 53.0825 -53.125 53.125 C-52.073125 53.558125 -52.073125 53.558125 -51 54 C-49.75 57.0625 -49.75 57.0625 -49 60 C-46.58354218 60.16687448 -46.58354218 60.16687448 -44 60 C-41.77993501 58.08569695 -41.77993501 58.08569695 -41.0625 55.0625 C-40.01807579 52.05210081 -39.26641875 51.06933886 -37 49 C-36.67 48.01 -36.34 47.02 -36 46 C-35.34 47.32 -34.68 48.64 -34 50 C-31.5573456 49.54765659 -30.05512464 49.04065853 -28.03515625 47.55078125 C-23.57286022 45.2708179 -19.06569811 45.02866122 -14.125 44.5 C-5.42088849 43.56120768 2.58984015 42.58821984 9 36 C11.42420686 31.45339516 12.49303133 27.17682893 12 22 C11.505 21.01 11.505 21.01 11 20 C10.0925 19.731875 9.185 19.46375 8.25 19.1875 C4.46369852 17.80404369 2.66603969 15.97072994 0 13 C-0.495 12.505 -0.495 12.505 -1 12 C-1.07205511 10.31391034 -1.08386068 8.62499341 -1.0625 6.9375 C-1.05347656 6.01839844 -1.04445312 5.09929688 -1.03515625 4.15234375 C-1.02355469 3.44207031 -1.01195312 2.73179688 -1 2 C-11.21237656 -4.44992204 -22.45573442 -1.23812282 -29.62890625 7.8984375 Z " fill="#201816" transform="translate(71,20)"/>
<path d="M0 0 C1.0415625 0.26296875 2.083125 0.5259375 3.15625 0.796875 C1.3243838 6.84203345 -2.17996676 11.08358713 -7.44921875 14.47265625 C-14.52452509 18.23929886 -21.86989739 20.77576294 -29.84375 21.796875 C-30.83375 21.466875 -31.82375 21.136875 -32.84375 20.796875 C-32.09375 18.859375 -32.09375 18.859375 -30.84375 16.796875 C-29.03125 16.234375 -29.03125 16.234375 -26.84375 15.796875 C-25.17311253 14.80352299 -23.50699401 13.80255742 -21.84375 12.796875 C-20.8125 12.44625 -19.78125 12.095625 -18.71875 11.734375 C-13.72913017 9.76249468 -10.3354832 5.57944427 -6.6875 1.78125 C-3.84375 -0.203125 -3.84375 -0.203125 0 0 Z " fill="#CD5C1A" transform="translate(73.84375,42.203125)"/>
<path d="M0 0 C0.99 0.33 1.98 0.66 3 1 C3 2.32 3 3.64 3 5 C3.99 5 4.98 5 6 5 C5.59186904 7.36715956 5.32646529 8.68772885 3.5625 10.375 C1.40287836 12.62100651 0.89608801 15.05571083 0 18 C-1 19 -1 19 -3.5625 19.0625 C-4.366875 19.041875 -5.17125 19.02125 -6 19 C-6.2475 18.030625 -6.495 17.06125 -6.75 16.0625 C-7.1625 15.051875 -7.575 14.04125 -8 13 C-10.03243548 12.03122943 -10.03243548 12.03122943 -12 12 C-12 10.02 -12 8.04 -12 6 C-11.2575 5.87625 -10.515 5.7525 -9.75 5.625 C-5.53175653 4.6663083 -2.90884419 3.19972861 0 0 Z " fill="#F1C88E" transform="translate(28,61)"/>
<path d="M0 0 C0 0.99 0 1.98 0 3 C-3 4 -3 4 -7 4 C-7.33 5.98 -7.66 7.96 -8 10 C-6.35 10 -4.7 10 -3 10 C-2.67 11.98 -2.34 13.96 -2 16 C-0.35 16 1.3 16 3 16 C3.433125 14.906875 3.86625 13.81375 4.3125 12.6875 C5.51473906 9.85568573 6.70881532 8.08289516 9 6 C9.33 5.01 9.66 4.02 10 3 C9.34 2.67 8.68 2.34 8 2 C9.9375 2.3125 9.9375 2.3125 12 3 C12.33 3.99 12.66 4.98 13 6 C15.5477528 5.52819393 17.20577224 4.87337093 19.4375 3.5 C24.39571314 0.59763133 29.39320152 0.7287033 35 1 C35.99 1.66 36.98 2.32 38 3 C36.89140625 3.12117188 35.7828125 3.24234375 34.640625 3.3671875 C33.17703766 3.53606296 31.71349843 3.70535572 30.25 3.875 C29.52039062 3.95363281 28.79078125 4.03226562 28.0390625 4.11328125 C22.73334028 4.71580305 22.73334028 4.71580305 18 7 C17.67 7.66 17.34 8.32 17 9 C15.63875 8.6596875 15.63875 8.6596875 14.25 8.3125 C11.0887791 7.73971629 11.0887791 7.73971629 8.75 9 C6.34993527 11.74293111 5.79494457 14.48899481 5 18 C-1.44807122 19.33827893 -1.44807122 19.33827893 -3.9375 17.8125 C-5 16 -5 16 -5 12 C-5.928125 11.8453125 -5.928125 11.8453125 -6.875 11.6875 C-9 11 -9 11 -11 8 C-10.8125 5.4375 -10.8125 5.4375 -10 3 C-6.55549263 0.70366176 -4.06187717 0.45983515 0 0 Z " fill="#241A17" transform="translate(24,63)"/>
<path d="M0 0 C0.33 0 0.66 0 1 0 C1.01417969 0.59167969 1.02835937 1.18335937 1.04296875 1.79296875 C1.31136533 6.23964718 1.51110711 8.41082139 4.4375 11.9375 C5.283125 12.618125 6.12875 13.29875 7 14 C7.66 14.66 8.32 15.32 9 16 C11.57061311 16.64767793 11.57061311 16.64767793 14 17 C14 17.33 14 17.66 14 18 C8.69249106 18.95709178 8.69249106 18.95709178 6 19 C4.3125 17.6875 4.3125 17.6875 3 16 C2.13375 15.67 1.2675 15.34 0.375 15 C-0.40875 14.67 -1.1925 14.34 -2 14 C-2.33 13.01 -2.66 12.02 -3 11 C-4.49985609 9.33289654 -4.49985609 9.33289654 -6 8 C-5.67 7.01 -5.34 6.02 -5 5 C-4.01 5 -3.02 5 -2 5 C-1.855625 4.360625 -1.71125 3.72125 -1.5625 3.0625 C-1 1 -1 1 0 0 Z " fill="#E7B290" transform="translate(68,23)"/>
<path d="M0 0 C-0.33 0.99 -0.66 1.98 -1 3 C-1.66 3 -2.32 3 -3 3 C-3.33 3.99 -3.66 4.98 -4 6 C-4 5.34 -4 4.68 -4 4 C-9.95161269 6.38064508 -13.641885 10.40368843 -18 15 C-19.32985358 16.33680403 -20.66221484 17.67113341 -22 19 C-21.625 16.0625 -21.625 16.0625 -21 13 C-20.34 12.67 -19.68 12.34 -19 12 C-18.649375 11.278125 -18.29875 10.55625 -17.9375 9.8125 C-14.91829818 5.42978768 -5.5416659 -2.77083295 0 0 Z " fill="#D96F21" transform="translate(61,27)"/>
<path d="M0 0 C0.99 0 1.98 0 3 0 C1.20041978 5.93861473 -2.72296631 10.35841757 -7.6875 13.9375 C-10 15 -10 15 -13 15 C-11.3500987 10.30412708 -9.81770065 8.04517787 -5.5 5.5625 C-2.90786908 4.15372036 -2.90786908 4.15372036 -1.375 1.8125 C-0.92125 1.214375 -0.4675 0.61625 0 0 Z " fill="#CA591A" transform="translate(74,43)"/>
<path d="M0 0 C0.99 0.33 1.98 0.66 3 1 C3 2.32 3 3.64 3 5 C3.99 5 4.98 5 6 5 C5.59186904 7.36715956 5.32646529 8.68772885 3.5625 10.375 C1.40287836 12.62100651 0.89608801 15.05571083 0 18 C-1 19 -1 19 -3.5625 19.0625 C-4.366875 19.041875 -5.17125 19.02125 -6 19 C-6.2475 18.05125 -6.495 17.1025 -6.75 16.125 C-7.6857077 12.91306809 -7.6857077 12.91306809 -10.125 11.625 C-10.74375 11.41875 -11.3625 11.2125 -12 11 C-9.69 11 -7.38 11 -5 11 C-5.33 12.98 -5.66 14.96 -6 17 C-4.03243548 16.96877057 -4.03243548 16.96877057 -2 16 C-0.80404463 13.1628485 -0.80404463 13.1628485 0 10 C0.5878125 8.9171875 0.5878125 8.9171875 1.1875 7.8125 C2.3202776 5.83312397 2.3202776 5.83312397 1 3 C0.34 2.34 -0.32 1.68 -1 1 C-0.67 0.67 -0.34 0.34 0 0 Z " fill="#BE8A5D" transform="translate(28,61)"/>
<path d="M0 0 C0.99 0.66 1.98 1.32 3 2 C0.9596745 6.86778164 -2.42338852 8.67471984 -7 11 C-9.33498064 11.85426121 -11.56937393 12.44298153 -14 13 C-10.38972129 9.27690009 -6.59471674 5.84505583 -2.671875 2.453125 C-1.75931754 1.65996758 -0.85494439 0.85494439 0 0 Z M-8 11 C-8 11.99 -8 12.98 -8 14 C-8.66 14.66 -9.32 15.32 -10 16 C-9.125 12.125 -9.125 12.125 -8 11 Z " fill="#D66A20" transform="translate(70,42)"/>
<path d="M0 0 C2.25 -0.3125 2.25 -0.3125 5 0 C6.35386936 1.65002828 7.68678142 3.3174387 9 5 C11.63460948 5.87943404 11.63460948 5.87943404 14 6 C14 6.33 14 6.66 14 7 C8.65981199 7.96298472 8.65981199 7.96298472 6 8 C4.25 6.625 4.25 6.625 3 5 C0.89667109 4.28552357 0.89667109 4.28552357 -1 4 C-0.67 2.68 -0.34 1.36 0 0 Z " fill="#DCA082" transform="translate(68,34)"/>
<path d="M0 0 C0 0.99 0 1.98 0 3 C-1.423125 2.2575 -1.423125 2.2575 -2.875 1.5 C-9.57272032 -1.37432532 -17.00400416 -0.21669493 -24 1 C-17.22313302 -5.77686698 -7.75184321 -3.32221852 0 0 Z " fill="#28221D" transform="translate(71,20)"/>
<path d="M0 0 C0.99 0 1.98 0 3 0 C3 1.32 3 2.64 3 4 C4.32 4 5.64 4 7 4 C7 5.32 7 6.64 7 8 C7.66 8 8.32 8 9 8 C9.66 6.68 10.32 5.36 11 4 C11.33 4.66 11.66 5.32 12 6 C11.0625 8.125 11.0625 8.125 10 10 C8.0625 9.6875 8.0625 9.6875 6 9 C5.67 8.01 5.34 7.02 5 6 C3.68 6 2.36 6 1 6 C0.67 4.02 0.34 2.04 0 0 Z " fill="#914118" transform="translate(30,60)"/>
<path d="M0 0 C0.66 0.66 1.32 1.32 2 2 C-4.28571429 6.42857143 -4.28571429 6.42857143 -8 7 C-8 7.66 -8 8.32 -8 9 C-8.99 8.67 -9.98 8.34 -11 8 C-10.25 6.0625 -10.25 6.0625 -9 4 C-7.1875 3.4375 -7.1875 3.4375 -5 3 C-3.31008021 2.0398183 -1.63790712 1.04644066 0 0 Z " fill="#D7681E" transform="translate(52,55)"/>
<path d="M0 0 C0 0.33 0 0.66 0 1 C-1.27875 1.0825 -2.5575 1.165 -3.875 1.25 C-6.05333418 1.45869931 -6.05333418 1.45869931 -8 2 C-9.5899433 3.92064793 -9.5899433 3.92064793 -10 6 C-10.99 6 -11.98 6 -13 6 C-13 5.34 -13 4.68 -13 4 C-14.65 4.66 -16.3 5.32 -18 6 C-12.57151162 -0.03165375 -7.7230563 -0.30286495 0 0 Z " fill="#D67D34" transform="translate(63,19)"/>
<path d="M0 0 C0 0.99 0 1.98 0 3 C-3 4 -3 4 -7 4 C-7.66 5.32 -8.32 6.64 -9 8 C-9.66 8 -10.32 8 -11 8 C-10.6875 5.625 -10.6875 5.625 -10 3 C-6.55549263 0.70366176 -4.06187717 0.45983515 0 0 Z " fill="#4D453F" transform="translate(24,63)"/>
<path d="M0 0 C2.31 0 4.62 0 7 0 C6.67 1.98 6.34 3.96 6 6 C7.98 5.34 9.96 4.68 12 4 C11.67 5.32 11.34 6.64 11 8 C9.35 8 7.7 8 6 8 C5.7525 7.05125 5.505 6.1025 5.25 5.125 C4.3142923 1.91306809 4.3142923 1.91306809 1.875 0.625 C1.25625 0.41875 0.6375 0.2125 0 0 Z " fill="#C49062" transform="translate(16,72)"/>
<path d="M0 0 C0 3.84683138 -1.02333195 4.45590742 -3.6875 7.125 C-4.37199219 7.82882813 -5.05648437 8.53265625 -5.76171875 9.2578125 C-8.23017494 11.17915885 -9.92585464 11.64466971 -13 12 C-8.87675353 7.74790208 -4.48717034 3.86364295 0 0 Z " fill="#DD7725" transform="translate(69,43)"/>
<path d="M0 0 C2.475 0.495 2.475 0.495 5 1 C5 1.66 5 2.32 5 3 C8.3 3 11.6 3 15 3 C11.37251204 4.81374398 8.97794897 5.65409139 5 6 C4.34 5.34 3.68 4.68 3 4 C3 3.01 3 2.02 3 1 C2.01 0.67 1.02 0.34 0 0 Z " fill="#673C26" transform="translate(67,38)"/>
<path d="M0 0 C0 0.66 0 1.32 0 2 C0.99 2.33 1.98 2.66 3 3 C1 5 1 5 -2.625 5.125 C-3.73875 5.08375 -4.8525 5.0425 -6 5 C-4.87312259 1.61936778 -3.78825335 0 0 0 Z " fill="#CA5919" transform="translate(50,23)"/>
<path d="M0 0 C0.99 0.495 0.99 0.495 2 1 C1.01 1.495 1.01 1.495 0 2 C0 1.34 0 0.68 0 0 Z M-2 2 C-1.34 2 -0.68 2 0 2 C0 2.99 0 3.98 0 5 C-0.66 5 -1.32 5 -2 5 C-1.67 6.32 -1.34 7.64 -1 9 C-2.32 8.67 -3.64 8.34 -5 8 C-4.42655063 5.13275314 -4.1385485 4.1385485 -2 2 Z " fill="#BB591E" transform="translate(33,51)"/>
<path d="M0 0 C2.97 0.495 2.97 0.495 6 1 C5.67 2.32 5.34 3.64 5 5 C3.68 4.67 2.36 4.34 1 4 C0.67 2.68 0.34 1.36 0 0 Z " fill="#E19170" transform="translate(62,29)"/>
<path d="M0 0 C3.68754757 0.49831724 5.60490662 1.10067643 8 4 C4.79604584 4 2.90600261 3.25664978 0 2 C0 1.34 0 0.68 0 0 Z " fill="#3D2F2A" transform="translate(64,18)"/>
</svg>
