<?xml version="1.0" encoding="UTF-8"?>
<svg version="1.1" xmlns="http://www.w3.org/2000/svg" width="100" height="100">
<path d="M0 0 C8.99024123 7.72177686 14.50161088 17.57545244 15.41796875 29.55859375 C15.61878317 41.74133544 13.3108701 51.90588503 6.21484375 61.90234375 C5.13203125 63.48015625 5.13203125 63.48015625 4.02734375 65.08984375 C-5.09029462 74.20748212 -15.3865926 78.12513932 -28.09765625 78.33984375 C-39.45555276 78.26112566 -50.04403623 75.43493771 -58.78515625 67.90234375 C-60.9422143 65.68750736 -62.9770056 63.42151749 -64.9609375 61.05078125 C-66.74825214 58.85348594 -66.74825214 58.85348594 -68.91015625 56.96484375 C-74.82625097 50.45713956 -75.08250978 37.274704 -74.78515625 28.90234375 C-72.46579588 16.18934971 -66.4138486 5.38241094 -55.78515625 -2.09765625 C-38.13532959 -11.97854211 -16.5238031 -12.66735635 0 0 Z M-37.78515625 31.90234375 C-38.45775365 35.56426295 -38.31038119 37.12501083 -36.22265625 40.21484375 C-32.98823817 42.45405627 -30.70469104 42.83357998 -26.78515625 42.90234375 C-23.16258672 41.33805236 -20.60451494 39.43998564 -18.78515625 35.90234375 C-18.62066744 32.80585499 -18.62066744 32.80585499 -19.78515625 29.90234375 C-23.11767647 26.87277991 -26.47599906 26.30612887 -30.84765625 26.48828125 C-34.34278043 27.23522311 -35.80443578 29.05505807 -37.78515625 31.90234375 Z " fill="#86909C" transform="translate(79.78515625,16.09765625)"/>
<path d="M0 0 C8.99024123 7.72177686 14.50161088 17.57545244 15.41796875 29.55859375 C15.61878317 41.74133544 13.3108701 51.90588503 6.21484375 61.90234375 C5.13203125 63.48015625 5.13203125 63.48015625 4.02734375 65.08984375 C-5.09029462 74.20748212 -15.3865926 78.12513932 -28.09765625 78.33984375 C-39.44674351 78.26118671 -50.05707972 75.44247792 -58.78515625 67.90234375 C-60.97419851 65.6209693 -63.04447067 63.29230902 -65.05859375 60.85546875 C-66.82165181 58.69311959 -66.82165181 58.69311959 -69.78515625 56.90234375 C-69.45515625 55.91234375 -69.12515625 54.92234375 -68.78515625 53.90234375 C-68.23085937 54.32386719 -67.6765625 54.74539062 -67.10546875 55.1796875 C-66.38101563 55.72753906 -65.6565625 56.27539062 -64.91015625 56.83984375 C-64.19085938 57.38511719 -63.4715625 57.93039063 -62.73046875 58.4921875 C-59.71891918 60.71269883 -59.71891918 60.71269883 -56.03515625 60.46484375 C-54.42640625 60.18640625 -54.42640625 60.18640625 -52.78515625 59.90234375 C-51.86347656 59.96550781 -50.94179688 60.02867188 -49.9921875 60.09375 C-46.01339888 59.85628271 -43.48877929 58.37721968 -40.22265625 56.27734375 C-39.59061279 55.88272949 -38.95856934 55.48811523 -38.30737305 55.08154297 C-36.12226427 53.70512525 -33.95394025 52.30433054 -31.78515625 50.90234375 C-30.52203613 50.09893555 -30.52203613 50.09893555 -29.23339844 49.27929688 C-10.48425468 37.8759601 -10.48425468 37.8759601 4.21484375 21.90234375 C4.21484375 20.91234375 4.21484375 19.92234375 4.21484375 18.90234375 C-2.78100725 16.92915501 -8.59961007 19.69761507 -14.78515625 22.90234375 C-14.67816406 23.87816406 -14.57117188 24.85398438 -14.4609375 25.859375 C-14.34105469 27.13167969 -14.22117188 28.40398438 -14.09765625 29.71484375 C-13.97003906 30.97941406 -13.84242187 32.24398437 -13.7109375 33.546875 C-13.78515625 36.90234375 -13.78515625 36.90234375 -14.93359375 38.6171875 C-15.85011719 39.25333984 -15.85011719 39.25333984 -16.78515625 39.90234375 C-17.60628906 40.5159375 -18.42742188 41.12953125 -19.2734375 41.76171875 C-20.20542969 42.385625 -21.13742188 43.00953125 -22.09765625 43.65234375 C-23.02191406 44.2865625 -23.94617187 44.92078125 -24.8984375 45.57421875 C-28.42301106 47.19580875 -30.08106087 46.84211424 -33.78515625 45.90234375 C-43.44265426 44.29276075 -51.98731757 49.70378463 -59.78515625 54.90234375 C-64.32569679 54.36180321 -64.32569679 54.36180321 -65.78515625 52.90234375 C-66.42344885 49.07258817 -66.42469338 47.01441722 -64.46875 43.61328125 C-60.69037728 38.55854549 -56.18831145 32.67890021 -49.63671875 31.5234375 C-48.92257813 31.46285156 -48.2084375 31.40226562 -47.47265625 31.33984375 C-46.25578125 31.19546875 -45.03890625 31.05109375 -43.78515625 30.90234375 C-42.28515625 29.15234375 -42.28515625 29.15234375 -41.78515625 26.90234375 C-40.56679423 23.5518482 -39.90471301 22.96929554 -36.66015625 21.15234375 C-35.71140625 20.73984375 -34.76265625 20.32734375 -33.78515625 19.90234375 C-45.60392278 22.06911761 -55.47432793 25.95981352 -63.78515625 34.90234375 C-64.11515625 35.56234375 -64.44515625 36.22234375 -64.78515625 36.90234375 C-65.44515625 36.90234375 -66.10515625 36.90234375 -66.78515625 36.90234375 C-66.07086888 32.08090402 -63.15746879 29.00431759 -59.4453125 26.0234375 C-52.48335412 21.51125094 -45.75867347 19.06044542 -37.78515625 16.90234375 C-31.28385508 15.05417512 -25.73643483 13.06528541 -20.09765625 9.27734375 C-14.24609485 5.34819733 -9.34142964 3.58481934 -2.28515625 4.21484375 C0.21484375 4.90234375 0.21484375 4.90234375 1.21484375 5.90234375 C1.52297953 8.82963368 1.6505921 10.3279482 -0.16015625 12.71484375 C-1.78515625 13.90234375 -1.78515625 13.90234375 -3.78515625 13.90234375 C-3.78515625 13.24234375 -3.78515625 12.58234375 -3.78515625 11.90234375 C-3.12515625 11.90234375 -2.46515625 11.90234375 -1.78515625 11.90234375 C-1.78515625 10.58234375 -1.78515625 9.26234375 -1.78515625 7.90234375 C-8.30373638 7.42826519 -13.13132994 8.51252228 -18.78515625 11.90234375 C-19.11515625 12.56234375 -19.44515625 13.22234375 -19.78515625 13.90234375 C-18.13515625 14.23234375 -16.48515625 14.56234375 -14.78515625 14.90234375 C-14.29015625 16.88234375 -14.29015625 16.88234375 -13.78515625 18.90234375 C-13.22828125 18.61359375 -12.67140625 18.32484375 -12.09765625 18.02734375 C-6.68268928 15.39303549 -2.80903428 14.18764636 3.21484375 14.90234375 C5.71484375 16.40234375 5.71484375 16.40234375 7.21484375 17.90234375 C6.73769718 23.98596256 5.31960185 27.11152051 0.76855469 31.20239258 C-0.89010431 32.57668814 -2.5771101 33.90245596 -4.28515625 35.21484375 C-4.90680664 35.69703369 -5.52845703 36.17922363 -6.16894531 36.67602539 C-11.29052386 40.60740555 -16.57611996 44.23352743 -21.99804688 47.73925781 C-25.78036267 50.20086334 -29.52968394 52.7125709 -33.28515625 55.21484375 C-34.06342773 55.73103271 -34.84169922 56.24722168 -35.64355469 56.77905273 C-36.3812207 57.26962158 -37.11888672 57.76019043 -37.87890625 58.265625 C-38.53568359 58.70173096 -39.19246094 59.13783691 -39.86914062 59.5871582 C-41.88152649 60.96849392 -43.83247027 62.43782926 -45.78515625 63.90234375 C-41.82515625 63.90234375 -37.86515625 63.90234375 -33.78515625 63.90234375 C-33.12515625 62.25234375 -32.46515625 60.60234375 -31.78515625 58.90234375 C-25.14345038 50.11128117 -13.21157865 43.06445546 -2.78515625 39.90234375 C1.25852301 39.53559145 5.17014947 39.5846976 9.21484375 39.90234375 C9.21484375 40.56234375 9.21484375 41.22234375 9.21484375 41.90234375 C8.60898438 41.928125 8.003125 41.95390625 7.37890625 41.98046875 C-5.79171925 42.87201878 -19.52462513 49.43005801 -28.58203125 59.125 C-30.54707964 62.0279124 -30.71439412 64.43499944 -30.78515625 67.90234375 C-26.24451268 66.9756818 -23.61072799 65.98391164 -20.22265625 62.77734375 C-17.6127511 60.34458148 -17.07995574 59.93450369 -13.34765625 59.52734375 C-12.07921875 59.71296875 -12.07921875 59.71296875 -10.78515625 59.90234375 C-10.78515625 60.89234375 -10.78515625 61.88234375 -10.78515625 62.90234375 C-8.47515625 63.23234375 -6.16515625 63.56234375 -3.78515625 63.90234375 C-3.615 63.28746094 -3.44484375 62.67257813 -3.26953125 62.0390625 C-1.29919718 55.46778878 -1.29919718 55.46778878 1.08984375 52.83984375 C3.60802911 51.72887962 5.4899838 51.83489672 8.21484375 51.90234375 C8.32441406 51.23847656 8.43398437 50.57460937 8.546875 49.890625 C8.70542969 49.00761719 8.86398438 48.12460938 9.02734375 47.21484375 C9.25357422 45.90966797 9.25357422 45.90966797 9.484375 44.578125 C10.21484375 41.90234375 10.21484375 41.90234375 11.8203125 39.55078125 C13.70130664 35.97847306 13.28939326 33.06869604 12.71484375 29.21484375 C12.56426514 28.15027954 12.56426514 28.15027954 12.41064453 27.06420898 C10.75949158 16.7696802 5.85218055 8.97555908 -1.78515625 1.90234375 C-5.07390114 -0.41176518 -7.316001 -1.50130672 -11.34765625 -1.41015625 C-12.09144531 -1.40628906 -12.83523437 -1.40242187 -13.6015625 -1.3984375 C-15.83162514 -1.21109722 -15.83162514 -1.21109722 -17.8125 -0.078125 C-19.78515625 0.90234375 -19.78515625 0.90234375 -23.78515625 0.90234375 C-23.78515625 1.56234375 -23.78515625 2.22234375 -23.78515625 2.90234375 C-24.37941406 3.17046875 -24.97367188 3.43859375 -25.5859375 3.71484375 C-31.64647045 6.5801657 -36.81583552 10.02002057 -42.171875 14.03515625 C-48.1976735 18.34058478 -54.07261389 21.07458702 -61.53515625 20.96484375 C-62.334375 20.95582031 -63.13359375 20.94679688 -63.95703125 20.9375 C-64.5603125 20.92589844 -65.16359375 20.91429688 -65.78515625 20.90234375 C-65.78515625 20.24234375 -65.78515625 19.58234375 -65.78515625 18.90234375 C-65.15351562 18.83917969 -64.521875 18.77601562 -63.87109375 18.7109375 C-51.4482573 17.01040513 -41.34471264 10.78009968 -31.57885742 3.27929688 C-28.10755074 0.65006802 -24.98761613 -0.95210619 -20.78515625 -2.09765625 C-20.78515625 -2.75765625 -20.78515625 -3.41765625 -20.78515625 -4.09765625 C-23.26015625 -4.59265625 -23.26015625 -4.59265625 -25.78515625 -5.09765625 C-24.46515625 -5.42765625 -23.14515625 -5.75765625 -21.78515625 -6.09765625 C-35.40722257 -6.71998415 -48.08185101 -5.69703315 -58.78515625 3.90234375 C-59.91340978 5.90862857 -59.91340978 5.90862857 -60.78515625 7.90234375 C-62.78515625 10.15234375 -62.78515625 10.15234375 -64.78515625 11.90234375 C-65.44515625 11.90234375 -66.10515625 11.90234375 -66.78515625 11.90234375 C-69.03456619 18.2690703 -69.03456619 18.2690703 -69.78515625 24.90234375 C-70.44515625 25.89234375 -71.10515625 26.88234375 -71.78515625 27.90234375 C-72.25968928 32.83622056 -72.25968928 32.83622056 -70.24609375 37.203125 C-68.36197317 40.68421409 -68.66460777 42.81740743 -69.09765625 46.71484375 C-69.21753906 47.87628906 -69.33742188 49.03773437 -69.4609375 50.234375 C-69.56792969 51.11480469 -69.67492187 51.99523437 -69.78515625 52.90234375 C-74.93273939 45.18096904 -75.78100894 34.42650774 -74.1640625 25.45703125 C-70.63726409 13.07665176 -64.50182647 2.78218905 -53.04296875 -3.6328125 C-35.70166856 -11.87113101 -15.72324461 -12.05363809 0 0 Z M-37.78515625 31.90234375 C-38.45775365 35.56426295 -38.31038119 37.12501083 -36.22265625 40.21484375 C-32.98823817 42.45405627 -30.70469104 42.83357998 -26.78515625 42.90234375 C-23.16258672 41.33805236 -20.60451494 39.43998564 -18.78515625 35.90234375 C-18.62066744 32.80585499 -18.62066744 32.80585499 -19.78515625 29.90234375 C-23.11767647 26.87277991 -26.47599906 26.30612887 -30.84765625 26.48828125 C-34.34278043 27.23522311 -35.80443578 29.05505807 -37.78515625 31.90234375 Z " fill="#423C30" transform="translate(79.78515625,16.09765625)"/>
<path d="M0 0 C9.03460493 6.2411263 15.42427303 15.34650388 17.93359375 26.00390625 C19.54455265 36.78198844 19.54455265 36.78198844 17.93359375 40.00390625 C17.27359375 40.00390625 16.61359375 40.00390625 15.93359375 40.00390625 C15.45921875 39.36453125 14.98484375 38.72515625 14.49609375 38.06640625 C13.02445725 35.72017662 13.02445725 35.72017662 9.93359375 35.00390625 C8.55859375 31.69140625 8.55859375 31.69140625 7.93359375 28.00390625 C9.30859375 25.87890625 9.30859375 25.87890625 10.93359375 24.00390625 C11.43419291 21.41873038 11.43419291 21.41873038 10.93359375 19.00390625 C7.18292146 16.50345806 4.27362788 16.48936612 -0.06640625 17.00390625 C-3.14032226 17.82710667 -6.10164032 18.85094172 -9.06640625 20.00390625 C-9.56140625 18.51890625 -9.56140625 18.51890625 -10.06640625 17.00390625 C-12.57088141 15.78520696 -12.57088141 15.78520696 -15.06640625 15.00390625 C-14.06640625 12.00390625 -14.06640625 12.00390625 -12.28125 10.8359375 C-6.90098322 8.42727604 -2.95575489 7.57558999 2.93359375 8.00390625 C3.42859375 9.48890625 3.42859375 9.48890625 3.93359375 11.00390625 C3.60359375 11.66390625 3.27359375 12.32390625 2.93359375 13.00390625 C2.27359375 13.00390625 1.61359375 13.00390625 0.93359375 13.00390625 C0.93359375 13.66390625 0.93359375 14.32390625 0.93359375 15.00390625 C3.03314705 13.84706296 3.03314705 13.84706296 4.93359375 12.00390625 C5.2678511 9.37765486 5.2678511 9.37765486 4.93359375 7.00390625 C-0.50513858 5.6093595 -4.88028464 6.01406503 -10.06640625 8.00390625 C-12.07049257 9.23506671 -14.04764452 10.51058923 -16.00390625 11.81640625 C-21.41558609 15.33015098 -26.53406799 17.37447652 -32.75390625 19.06640625 C-33.54466553 19.28208252 -34.3354248 19.49775879 -35.15014648 19.7199707 C-40.77619381 21.14901247 -40.77619381 21.14901247 -43.06640625 20.00390625 C-41.77450781 16.12821092 -40.27213335 15.6407665 -36.81640625 13.56640625 C-33.86250331 11.78208921 -31.11862727 10.04663254 -28.4453125 7.859375 C-25.32528895 5.42585909 -22.87368989 4.8997377 -19.06640625 4.00390625 C-19.06640625 3.34390625 -19.06640625 2.68390625 -19.06640625 2.00390625 C-12.85795279 -0.70523708 -6.50501156 -3.1356861 0 0 Z " fill="#74BDBD" transform="translate(75.06640625,14.99609375)"/>
<path d="M0 0 C8.99024123 7.72177686 14.50161088 17.57545244 15.41796875 29.55859375 C15.6274305 42.26594015 13.22474866 53.83365112 4.71484375 63.62890625 C3.59489154 64.76794856 2.41264027 65.84546446 1.21484375 66.90234375 C1.21484375 63.3186246 1.95962712 62.62647171 4.15234375 59.90234375 C6.11660208 57.45050356 7.20819717 55.92228348 8.21484375 52.90234375 C3.31921682 54.77936702 3.31921682 54.77936702 -0.78515625 57.90234375 C-0.47265625 56.02734375 -0.47265625 56.02734375 0.21484375 53.90234375 C3.4427593 51.75040005 4.49885184 51.70147932 8.21484375 51.90234375 C8.32441406 51.23847656 8.43398437 50.57460937 8.546875 49.890625 C8.70542969 49.00761719 8.86398438 48.12460938 9.02734375 47.21484375 C9.25357422 45.90966797 9.25357422 45.90966797 9.484375 44.578125 C10.21484375 41.90234375 10.21484375 41.90234375 11.8203125 39.55078125 C13.70130664 35.97847306 13.28939326 33.06869604 12.71484375 29.21484375 C12.56426514 28.15027954 12.56426514 28.15027954 12.41064453 27.06420898 C10.75949158 16.7696802 5.85218055 8.97555908 -1.78515625 1.90234375 C-5.07390114 -0.41176518 -7.316001 -1.50130672 -11.34765625 -1.41015625 C-12.09144531 -1.40628906 -12.83523437 -1.40242187 -13.6015625 -1.3984375 C-15.83162514 -1.21109722 -15.83162514 -1.21109722 -17.8125 -0.078125 C-19.78515625 0.90234375 -19.78515625 0.90234375 -23.78515625 0.90234375 C-23.78515625 1.56234375 -23.78515625 2.22234375 -23.78515625 2.90234375 C-24.37941406 3.17046875 -24.97367188 3.43859375 -25.5859375 3.71484375 C-31.64647045 6.5801657 -36.81583552 10.02002057 -42.171875 14.03515625 C-48.1976735 18.34058478 -54.07261389 21.07458702 -61.53515625 20.96484375 C-62.334375 20.95582031 -63.13359375 20.94679688 -63.95703125 20.9375 C-64.5603125 20.92589844 -65.16359375 20.91429688 -65.78515625 20.90234375 C-65.78515625 20.24234375 -65.78515625 19.58234375 -65.78515625 18.90234375 C-65.15351562 18.83917969 -64.521875 18.77601562 -63.87109375 18.7109375 C-51.4482573 17.01040513 -41.34471264 10.78009968 -31.57885742 3.27929688 C-28.10755074 0.65006802 -24.98761613 -0.95210619 -20.78515625 -2.09765625 C-20.78515625 -2.75765625 -20.78515625 -3.41765625 -20.78515625 -4.09765625 C-23.26015625 -4.59265625 -23.26015625 -4.59265625 -25.78515625 -5.09765625 C-24.46515625 -5.42765625 -23.14515625 -5.75765625 -21.78515625 -6.09765625 C-35.40722257 -6.71998415 -48.08185101 -5.69703315 -58.78515625 3.90234375 C-59.91340978 5.90862857 -59.91340978 5.90862857 -60.78515625 7.90234375 C-62.78515625 10.15234375 -62.78515625 10.15234375 -64.78515625 11.90234375 C-65.44515625 11.90234375 -66.10515625 11.90234375 -66.78515625 11.90234375 C-69.03456619 18.2690703 -69.03456619 18.2690703 -69.78515625 24.90234375 C-70.44515625 25.89234375 -71.10515625 26.88234375 -71.78515625 27.90234375 C-72.25968928 32.83622056 -72.25968928 32.83622056 -70.24609375 37.203125 C-68.36197317 40.68421409 -68.66460777 42.81740743 -69.09765625 46.71484375 C-69.21753906 47.87628906 -69.33742188 49.03773437 -69.4609375 50.234375 C-69.56792969 51.11480469 -69.67492187 51.99523437 -69.78515625 52.90234375 C-74.93273939 45.18096904 -75.78100894 34.42650774 -74.1640625 25.45703125 C-70.63726409 13.07665176 -64.50182647 2.78218905 -53.04296875 -3.6328125 C-35.70166856 -11.87113101 -15.72324461 -12.05363809 0 0 Z " fill="#493625" transform="translate(79.78515625,16.09765625)"/>
<path d="M0 0 C1.1909729 -0.00833862 1.1909729 -0.00833862 2.40600586 -0.0168457 C6.28936663 0.03185761 8.26443829 0.11379219 11.5625 2.3125 C9.2525 2.3125 6.9425 2.3125 4.5625 2.3125 C5.5525 2.6425 6.5425 2.9725 7.5625 3.3125 C7.5625 3.9725 7.5625 4.6325 7.5625 5.3125 C6.89605469 5.6528125 6.22960938 5.993125 5.54296875 6.34375 C0.4457834 9.02422789 -4.2816112 11.83063094 -8.875 15.3125 C-17.75651464 21.96087519 -26.26769294 26.52730398 -37.4375 26.3125 C-37.7675 24.0025 -38.0975 21.6925 -38.4375 19.3125 C-37.7775 19.3125 -37.1175 19.3125 -36.4375 19.3125 C-36.16035156 18.72339844 -35.88320313 18.13429688 -35.59765625 17.52734375 C-31.92478535 10.51549931 -26.5619436 6.49576203 -19.4375 3.3125 C-18.72207031 2.99152344 -18.00664063 2.67054687 -17.26953125 2.33984375 C-11.57098118 0.23108598 -6.00975954 0.03634335 0 0 Z " fill="#DB91A4" transform="translate(51.4375,8.6875)"/>
<path d="M0 0 C0.66 0.33 1.32 0.66 2 1 C1.69964844 1.68707031 1.39929688 2.37414063 1.08984375 3.08203125 C0.70957031 3.98308594 0.32929687 4.88414063 -0.0625 5.8125 C-0.63677734 7.15248047 -0.63677734 7.15248047 -1.22265625 8.51953125 C-2.29461205 11.0919236 -2.29461205 11.0919236 -1 14 C-0.938125 12.906875 -0.87625 11.81375 -0.8125 10.6875 C0 7 0 7 2.5625 5.0625 C3.7690625 4.5365625 3.7690625 4.5365625 5 4 C4.67 4.70125 4.34 5.4025 4 6.125 C2.51585646 10.39191269 2.57724602 13.73173805 4 18 C10.06968051 19.15349848 10.06968051 19.15349848 15.9375 17.75 C18.2081442 15.98631509 18.2081442 15.98631509 20 13 C20 9.91666667 20 9.91666667 19 7 C16.06368255 5.03592989 13.73194724 4.77258979 10.25 4.875 C9.05117187 4.90207031 9.05117187 4.90207031 7.828125 4.9296875 C6.92320313 4.96449219 6.92320313 4.96449219 6 5 C6 4.34 6 3.68 6 3 C9.10953379 1.4452331 11.56266761 1.71355563 15 2 C21.57372654 5.77380598 21.57372654 5.77380598 22.6328125 8.8203125 C23.191279 11.43535405 23.42211491 13.3479245 23 16 C19.63668676 20.11493403 15.62810845 22.52636845 10.5625 24 C8 24 8 24 6 23 C-3.83488922 21.68868144 -12.01834373 26.67889582 -20 32 C-24.54054054 31.45945946 -24.54054054 31.45945946 -26 30 C-26.6382926 26.17024442 -26.63953713 24.11207347 -24.68359375 20.7109375 C-20.90522103 15.65620174 -16.4031552 9.77655646 -9.8515625 8.62109375 C-9.13742188 8.56050781 -8.42328125 8.49992187 -7.6875 8.4375 C-5.8621875 8.2209375 -5.8621875 8.2209375 -4 8 C-2.5 6.25 -2.5 6.25 -2 4 C-1.33333333 2.66666667 -0.66666667 1.33333333 0 0 Z " fill="#5F5B48" transform="translate(40,39)"/>
<path d="M0 0 C-1.61662211 9.13391492 -12.78379952 17.02712834 -19.92578125 22.06298828 C-23.09277191 24.14593198 -26.28670199 26.17678358 -29.5 28.1875 C-30.57636719 28.87263672 -31.65273438 29.55777344 -32.76171875 30.26367188 C-35.82563344 32.20240961 -38.90604138 34.10964911 -42 36 C-43.30904297 36.80945068 -43.30904297 36.80945068 -44.64453125 37.63525391 C-45.82595703 38.33593994 -45.82595703 38.33593994 -47.03125 39.05078125 C-47.70736328 39.45594971 -48.38347656 39.86111816 -49.08007812 40.27856445 C-51.49493507 41.18597827 -52.62384035 40.93661319 -55 40 C-57.125 38.0625 -57.125 38.0625 -59 36 C-59.66 35.34 -60.32 34.68 -61 34 C-57.11953418 29.27595466 -51.68582954 26.44254203 -45.625 25.71484375 C-42.27245225 25.67520214 -39.35558164 25.91122391 -36.08984375 26.7265625 C-32.06343716 27.08288167 -30.53994908 25.95502016 -27.25 23.6875 C-26.30640625 23.05199219 -25.3628125 22.41648437 -24.390625 21.76171875 C-21.97048364 20.07031716 -21.97048364 20.07031716 -20 18 C-19.97893406 14.63576801 -19.97893406 14.63576801 -20.375 10.875 C-20.48585937 9.59367187 -20.59671875 8.31234375 -20.7109375 6.9921875 C-20.85402344 5.51105469 -20.85402344 5.51105469 -21 4 C-19.60922699 3.17886823 -18.21211107 2.36847505 -16.8125 1.5625 C-16.03519531 1.11003906 -15.25789063 0.65757813 -14.45703125 0.19140625 C-9.03791363 -2.43630579 -5.66548775 -1.88849592 0 0 Z " fill="#73C6C6" transform="translate(85,35)"/>
<path d="M0 0 C1 1 1 1 1.25 3.375 C1 6 1 6 -0.375 7.8125 C-2 9 -2 9 -4 9 C-4 8.34 -4 7.68 -4 7 C-3.34 7 -2.68 7 -2 7 C-2 5.68 -2 4.36 -2 3 C-8.51858013 2.52592144 -13.34617369 3.61017853 -19 7 C-19.33 7.66 -19.66 8.32 -20 9 C-17.525 9.495 -17.525 9.495 -15 10 C-14.1875 12.1875 -14.1875 12.1875 -14 15 C-16.4375 17.8125 -16.4375 17.8125 -19 20 C-17.68 20 -16.36 20 -15 20 C-14.75099354 21.93505023 -14.52643758 23.87325934 -14.3125 25.8125 C-14.18488281 26.89144531 -14.05726562 27.97039063 -13.92578125 29.08203125 C-14 32 -14 32 -15.48046875 33.88671875 C-15.98191406 34.25410156 -16.48335937 34.62148438 -17 35 C-17.07476562 34.32453125 -17.14953125 33.6490625 -17.2265625 32.953125 C-18.09254041 27.06995571 -18.09254041 27.06995571 -21.5625 22.375 C-25.87306476 20.6507741 -29.42348876 20.6338791 -34 21 C-34.495 22.485 -34.495 22.485 -35 24 C-35.66 24 -36.32 24 -37 24 C-37.99 24.33 -38.98 24.66 -40 25 C-40 27.64 -40 30.28 -40 33 C-40.99 32.01 -41.98 31.02 -43 30 C-42.54554036 28.58208592 -42.08625056 27.16571954 -41.625 25.75 C-41.24214844 24.56664062 -41.24214844 24.56664062 -40.8515625 23.359375 C-38.70623145 17.41543027 -38.70623145 17.41543027 -35.875 15.75 C-35.25625 15.5025 -34.6375 15.255 -34 15 C-45.81876653 17.16677386 -55.68917168 21.05746977 -64 30 C-64.33 30.66 -64.66 31.32 -65 32 C-65.66 32 -66.32 32 -67 32 C-66.28571263 27.17856027 -63.37231254 24.10197384 -59.66015625 21.12109375 C-52.69819787 16.60890719 -45.97351722 14.15810167 -38 12 C-31.49869883 10.15183137 -25.95127858 8.16294166 -20.3125 4.375 C-13.82004589 0.01551352 -7.77956611 -2.13938068 0 0 Z " fill="#A9662F" transform="translate(80,21)"/>
<path d="M0 0 C-0.30212821 4.83405138 -2.7839716 7.614158 -5.72265625 11.23046875 C-7.19509816 12.9065411 -7.19509816 12.9065411 -7 15 C-8.64453125 16.2890625 -8.64453125 16.2890625 -10.8125 17.625 C-11.52019531 18.07101563 -12.22789063 18.51703125 -12.95703125 18.9765625 C-15 20 -15 20 -18 20 C-19.36822409 20.45799391 -20.7241962 20.95326574 -22.0703125 21.47265625 C-27.07002735 23.18808611 -31.61883795 23.49991026 -36.875 23.4375 C-37.74761475 23.43210205 -38.62022949 23.4267041 -39.51928711 23.42114258 C-46.75176023 23.25097465 -54.23617708 22.46602594 -59.77734375 17.36328125 C-60.18082031 16.91339844 -60.58429687 16.46351562 -61 16 C-57.98968256 15.06576355 -57.13349732 14.95550089 -54 16 C-53.401875 15.525625 -52.80375 15.05125 -52.1875 14.5625 C-49.1898849 12.42134636 -47.62008106 12.42078703 -44 13 C-41.9832342 14.64633943 -39.98260426 16.31267723 -38 18 C-35.45488934 19.00026314 -35.45488934 19.00026314 -33 18 C-31.50920877 16.29808515 -30.30546084 14.55115022 -29.11328125 12.62890625 C-28 11 -28 11 -26 10 C-23.62216895 10.08838461 -21.24654854 10.24346421 -18.875 10.4375 C-17.59367187 10.53933594 -16.31234375 10.64117187 -14.9921875 10.74609375 C-14.00476563 10.82988281 -13.01734375 10.91367188 -12 11 C-11.34 9.02 -10.68 7.04 -10 5 C-9.34 5 -8.68 5 -8 5 C-7.7525 4.360625 -7.505 3.72125 -7.25 3.0625 C-6 1 -6 1 -4 0.25 C-2 0 -2 0 0 0 Z " fill="#825129" transform="translate(88,69)"/>
<path d="M0 0 C0.639375 0.26683594 1.27875 0.53367187 1.9375 0.80859375 C3.63202403 1.52261698 5.31690493 2.25943817 7 3 C7 3.33 7 3.66 7 4 C5.783125 4.165 4.56625 4.33 3.3125 4.5 C-1.12718345 5.45825466 -4.1848994 7.28378056 -7.9375 9.8125 C-13.34917984 13.32624473 -18.46766174 15.37057027 -24.6875 17.0625 C-25.47825928 17.27817627 -26.26901855 17.49385254 -27.08374023 17.71606445 C-32.70978756 19.14510622 -32.70978756 19.14510622 -35 18 C-33.70810156 14.12430467 -32.2057271 13.63686025 -28.75 11.5625 C-25.79609706 9.77818296 -23.05222102 8.04272629 -20.37890625 5.85546875 C-17.2588827 3.42195284 -14.80728364 2.89583145 -11 2 C-11 1.34 -11 0.68 -11 0 C-6.59945475 -2.32970043 -4.52111189 -1.89886699 0 0 Z " fill="#CF88A0" transform="translate(67,17)"/>
<path d="M0 0 C-1.44041458 8.1383424 -10.6649884 15.30436294 -17 20 C-19.26953125 20.72265625 -19.26953125 20.72265625 -21 21 C-20.814375 19.865625 -20.62875 18.73125 -20.4375 17.5625 C-19.83992989 12.92303203 -20.30722741 8.60427319 -21 4 C-19.60922699 3.17886823 -18.21211107 2.36847505 -16.8125 1.5625 C-16.03519531 1.11003906 -15.25789063 0.65757813 -14.45703125 0.19140625 C-9.03791363 -2.43630579 -5.66548775 -1.88849592 0 0 Z " fill="#DD8599" transform="translate(85,35)"/>
<path d="M0 0 C0 0.66 0 1.32 0 2 C-0.60585937 2.02578125 -1.21171875 2.0515625 -1.8359375 2.078125 C-15.006563 2.96967503 -28.73946888 9.52771426 -37.796875 19.22265625 C-39.76192339 22.12556865 -39.92923787 24.53265569 -40 28 C-35.45935643 27.07333805 -32.82557174 26.08156789 -29.4375 22.875 C-26.82759485 20.44223773 -26.29479949 20.03215994 -22.5625 19.625 C-21.716875 19.74875 -20.87125 19.8725 -20 20 C-20.495 21.485 -20.495 21.485 -21 23 C-22.2375 23.2475 -23.475 23.495 -24.75 23.75 C-27.42084329 24.29273821 -28.65326177 24.60240683 -30.46484375 26.6796875 C-31.26342196 27.95026881 -32.06161608 29.22109162 -32.859375 30.4921875 C-34 32 -34 32 -36.4375 32.75 C-39 32 -39 32 -41.9375 29.5 C-44.7579862 26.77054643 -44.7579862 26.77054643 -48.125 26.5 C-51.23942595 27.0416393 -52.69974626 27.87668885 -55 30 C-56.9375 29.3125 -56.9375 29.3125 -59 28 C-59.75 25.375 -59.75 25.375 -60 23 C-58.02 22.67 -56.04 22.34 -54 22 C-54.33 22.66 -54.66 23.32 -55 24 C-51.04 24 -47.08 24 -43 24 C-42.34 22.35 -41.68 20.7 -41 19 C-31.63211308 6.60052286 -15.24365688 -1.19714583 0 0 Z " fill="#52989B" transform="translate(89,56)"/>
<path d="M0 0 C1 1 1 1 1.25 3.375 C1 6 1 6 -0.375 7.8125 C-2 9 -2 9 -4 9 C-4 8.34 -4 7.68 -4 7 C-3.34 7 -2.68 7 -2 7 C-2 5.68 -2 4.36 -2 3 C-12.26752411 1.81528568 -20.69496844 7.63463408 -28.57421875 13.703125 C-30.13203369 14.96345088 -30.13203369 14.96345088 -31 17 C-29.68 16.67 -28.36 16.34 -27 16 C-27.33 16.66 -27.66 17.32 -28 18 C-29.77734375 18.484375 -29.77734375 18.484375 -31.9375 18.75 C-32.64777344 18.84796875 -33.35804687 18.9459375 -34.08984375 19.046875 C-36 19 -36 19 -38 17 C-36.68 16.34 -35.36 15.68 -34 15 C-45.81876653 17.16677386 -55.68917168 21.05746977 -64 30 C-64.33 30.66 -64.66 31.32 -65 32 C-65.66 32 -66.32 32 -67 32 C-66.28571263 27.17856027 -63.37231254 24.10197384 -59.66015625 21.12109375 C-52.69819787 16.60890719 -45.97351722 14.15810167 -38 12 C-31.49869883 10.15183137 -25.95127858 8.16294166 -20.3125 4.375 C-13.82004589 0.01551352 -7.77956611 -2.13938068 0 0 Z " fill="#482015" transform="translate(80,21)"/>
<path d="M0 0 C-1.0725 0.515625 -2.145 1.03125 -3.25 1.5625 C-6.21150435 3.21433509 -7.48003783 4.48576101 -8.875 7.5625 C-10.02694276 9.88607684 -10.57762626 10.80479938 -12.9609375 11.90625 C-14.51279169 12.35115018 -16.06763337 12.78573543 -17.625 13.2109375 C-24.47229667 15.48586172 -28.68949603 20.3057318 -32.08984375 26.4609375 C-32.39019531 26.96882813 -32.69054687 27.47671875 -33 28 C-33.33 28 -33.66 28 -34 28 C-34 24.7 -34 21.4 -34 18 C-33.34 18 -32.68 18 -32 18 C-31.91105469 17.41992188 -31.82210938 16.83984375 -31.73046875 16.2421875 C-29.84728191 10.46171026 -23.6028987 6.82358883 -18.46484375 4.18359375 C-5.24930935 -1.74976978 -5.24930935 -1.74976978 0 0 Z " fill="#6FC3C4" transform="translate(47,36)"/>
<path d="M0 0 C2.01559845 2.57548691 3.54135892 5.08271784 5 8 C3.98292969 8.32871094 3.98292969 8.32871094 2.9453125 8.6640625 C-3.17882247 10.75067912 -8.41951599 13.2413253 -13.80859375 16.828125 C-16 18 -16 18 -20 18 C-20.08756967 13.88422549 -19.6960545 11.88119064 -17.10546875 8.6015625 C-7.25966475 -1.489162 -7.25966475 -1.489162 0 0 Z " fill="#77B9BE" transform="translate(36,50)"/>
<path d="M0 0 C0.98484375 0.10183594 1.9696875 0.20367187 2.984375 0.30859375 C3.73203125 0.39238281 4.4796875 0.47617188 5.25 0.5625 C5.25 1.2225 5.25 1.8825 5.25 2.5625 C4.58355469 2.9028125 3.91710937 3.243125 3.23046875 3.59375 C-2.98714479 6.86343208 -8.64072041 10.49174664 -14.2421875 14.73046875 C-20.85660981 19.5625 -20.85660981 19.5625 -24.75 19.5625 C-23.4975381 14.83097726 -20.93621888 12.77592236 -17.2109375 9.89453125 C-16.72882812 9.45496094 -16.24671875 9.01539063 -15.75 8.5625 C-15.75 7.9025 -15.75 7.2425 -15.75 6.5625 C-18.72 6.0675 -18.72 6.0675 -21.75 5.5625 C-18.9634483 2.7759483 -16.59575573 2.90587105 -12.75 2.5625 C-12.09 2.8925 -11.43 3.2225 -10.75 3.5625 C-10.42 2.5725 -10.09 1.5825 -9.75 0.5625 C-6.49454896 -0.80389344 -3.44767963 -0.36939425 0 0 Z " fill="#E5A2B3" transform="translate(53.75,11.4375)"/>
<path d="M0 0 C1.27118864 0.79109602 2.54193623 1.58290078 3.8125 2.375 C4.52019531 2.81585938 5.22789063 3.25671875 5.95703125 3.7109375 C7.65432039 4.78188476 9.33014358 5.88676239 11 7 C11.928125 7.2165625 11.928125 7.2165625 12.875 7.4375 C15.71203717 8.18848043 17.68031915 9.19580378 20 11 C20.3125 13.6875 20.3125 13.6875 20 16 C19.34 16 18.68 16 18 16 C19.41478135 16.64995297 20.83191487 17.29478722 22.25 17.9375 C23.03890625 18.29714844 23.8278125 18.65679687 24.640625 19.02734375 C35.62745159 23.5566812 50.2711103 22.17392297 61.078125 17.875 C61.71234375 17.58625 62.3465625 17.2975 63 17 C62 20 62 20 59.875 21.16796875 C46.66290981 25.85323443 32.91535935 25.65597592 20 20 C13.6539604 16.76302786 9.24067215 12.41464037 4.7265625 6.953125 C2.96350444 4.79077584 2.96350444 4.79077584 0 3 C0 2.01 0 1.02 0 0 Z " fill="#603B1E" transform="translate(10,70)"/>
<path d="M0 0 C-1 3 -1 3 -3.28515625 4.16796875 C-4.20167969 4.50441406 -5.11820313 4.84085937 -6.0625 5.1875 C-7.44115234 5.70376953 -7.44115234 5.70376953 -8.84765625 6.23046875 C-9.55792969 6.48441406 -10.26820312 6.73835938 -11 7 C-6.65535464 6.39174965 -2.32448133 5.73832608 2 5 C2 6.65 2 8.3 2 10 C1.43152344 10.14695312 0.86304687 10.29390625 0.27734375 10.4453125 C-5.09603321 12.00619329 -8.37713276 13.94738058 -12.42578125 17.76953125 C-14 19 -14 19 -16.9375 19.375 C-17.618125 19.25125 -18.29875 19.1275 -19 19 C-19.46107673 16.23353965 -19.64684437 14.67833997 -19 12 C-15.2029533 6.7592845 -6.85374983 -2.28458328 0 0 Z " fill="#76C6C7" transform="translate(68,65)"/>
<path d="M0 0 C0 0.66 0 1.32 0 2 C0.66 2 1.32 2 2 2 C2.33 2.66 2.66 3.32 3 4 C5.46800047 2.84826645 7.04783565 1.95216435 9 0 C8.67 1.98 8.34 3.96 8 6 C6.948125 6.12375 5.89625 6.2475 4.8125 6.375 C1.9148673 7.15241365 1.12129435 7.81865895 -0.578125 10.359375 C-1.81539852 12.87658665 -2.95762483 15.39646386 -4 18 C-6.31 18 -8.62 18 -11 18 C-12.15957207 14.52128379 -11.77456651 13.65780355 -10.5625 10.3125 C-10.27503906 9.50425781 -9.98757812 8.69601563 -9.69140625 7.86328125 C-9.46324219 7.24839844 -9.23507813 6.63351563 -9 6 C-8.34 6 -7.68 6 -7 6 C-6.67 5.34 -6.34 4.68 -6 4 C-2.35294118 0 -2.35294118 0 0 0 Z " fill="#E0869D" transform="translate(80,62)"/>
<path d="M0 0 C0.33 0.99 0.66 1.98 1 3 C0.67 3.66 0.34 4.32 0 5 C-0.66 5 -1.32 5 -2 5 C-2 5.66 -2 6.32 -2 7 C-1.38125 6.505 -0.7625 6.01 -0.125 5.5 C2 4 2 4 4 4 C4.33 5.32 4.66 6.64 5 8 C3.91332031 8.18175781 3.91332031 8.18175781 2.8046875 8.3671875 C-2.28497573 9.24939579 -7.14883346 10.16442347 -12 12 C-12.33 11.01 -12.66 10.02 -13 9 C-15.50447516 7.78130071 -15.50447516 7.78130071 -18 7 C-17 4 -17 4 -15.21484375 2.83203125 C-9.83457697 0.42336979 -5.88934864 -0.42831626 0 0 Z " fill="#DCA9B8" transform="translate(78,23)"/>
<path d="M0 0 C1.62463842 -0.05395478 3.24978541 -0.09277195 4.875 -0.125 C6.23238281 -0.15980469 6.23238281 -0.15980469 7.6171875 -0.1953125 C10 0 10 0 12 2 C10.35 2.33 8.7 2.66 7 3 C6.67 4.32 6.34 5.64 6 7 C4.68 7 3.36 7 2 7 C2 7.66 2 8.32 2 9 C1.40574219 9.268125 0.81148437 9.53625 0.19921875 9.8125 C-5.8613142 12.67782195 -11.03067927 16.11767682 -16.38671875 20.1328125 C-22.41251725 24.43824103 -28.28745764 27.17224327 -35.75 27.0625 C-36.54921875 27.05347656 -37.3484375 27.04445313 -38.171875 27.03515625 C-38.77515625 27.02355469 -39.3784375 27.01195313 -40 27 C-40 26.34 -40 25.68 -40 25 C-39.36835937 24.93683594 -38.73671875 24.87367187 -38.0859375 24.80859375 C-25.66310105 23.10806138 -15.55955639 16.87775593 -5.79370117 9.37695312 C-2.32239449 6.74772427 0.79754012 5.14555006 5 4 C5 3.34 5 2.68 5 2 C2.525 1.505 2.525 1.505 0 1 C0 0.67 0 0.34 0 0 Z " fill="#663D2C" transform="translate(54,10)"/>
<path d="M0 0 C0.495 1.485 0.495 1.485 1 3 C0.20335937 3.56847656 -0.59328125 4.13695312 -1.4140625 4.72265625 C-11.07107462 11.56451628 -11.07107462 11.56451628 -18 21 C-21.16015625 21.4140625 -21.16015625 21.4140625 -25.0625 21.625 C-26.35285156 21.69976562 -27.64320312 21.77453125 -28.97265625 21.8515625 C-29.97167969 21.90054688 -30.97070312 21.94953125 -32 22 C-28.58713356 18.19334128 -24.70701795 15.79774067 -20.375 13.1875 C-14.72043776 9.72422517 -9.20370114 6.15520845 -3.8203125 2.27734375 C-2 1 -2 1 0 0 Z " fill="#70C2C2" transform="translate(64,59)"/>
<path d="M0 0 C0.66 0.33 1.32 0.66 2 1 C1.67 1.99 1.34 2.98 1 4 C3.31 4.66 5.62 5.32 8 6 C5.32366853 9.41531852 1.73172883 10.36269066 -2.25 11.625 C-2.89324219 11.8415625 -3.53648438 12.058125 -4.19921875 12.28125 C-8.45769848 13.66932589 -12.55155437 14.48139883 -17 15 C-16.828125 13.21875 -16.828125 13.21875 -16 11 C-13.671875 9.21875 -13.671875 9.21875 -10.75 7.5 C-6.92018757 5.22281423 -3.42773377 2.85227482 0 0 Z " fill="#D67894" transform="translate(49,21)"/>
<path d="M0 0 C1.1909729 -0.00833862 1.1909729 -0.00833862 2.40600586 -0.0168457 C6.28936663 0.03185761 8.26443829 0.11379219 11.5625 2.3125 C10.49 2.291875 9.4175 2.27125 8.3125 2.25 C5.29080581 2.30036157 3.3858294 2.54250107 0.5625 3.3125 C-0.83248049 3.46627738 -2.22843642 3.61133411 -3.625 3.75 C-4.883125 3.935625 -6.14125 4.12125 -7.4375 4.3125 C-7.7675 4.9725 -8.0975 5.6325 -8.4375 6.3125 C-10.29296875 6.62109375 -10.29296875 6.62109375 -12.625 6.75 C-16.80308544 7.12982595 -19.86109731 7.98783825 -23.4375 10.3125 C-23.7675 11.3025 -24.0975 12.2925 -24.4375 13.3125 C-25.05625 13.10625 -25.675 12.9 -26.3125 12.6875 C-27.01375 12.56375 -27.715 12.44 -28.4375 12.3125 C-29.0975 12.9725 -29.7575 13.6325 -30.4375 14.3125 C-31.4275 13.9825 -32.4175 13.6525 -33.4375 13.3125 C-24.60391485 3.33909741 -12.92506598 0.07816289 0 0 Z " fill="#D9919B" transform="translate(51.4375,8.6875)"/>
<path d="M0 0 C0.66 0.33 1.32 0.66 2 1 C2.29365442 8.63501484 2.29365442 8.63501484 0 12 C-1.84765625 12.6875 -1.84765625 12.6875 -4.0625 13 C-9.1138295 13.90202313 -13.40615155 15.76280666 -18 18 C-18 16.68 -18 15.36 -18 14 C-15.5859375 11.81640625 -15.5859375 11.81640625 -12.375 9.5625 C-11.27261071 8.77459301 -10.1710394 7.98554023 -9.0703125 7.1953125 C-8.05710937 6.47085938 -7.04390625 5.74640625 -6 5 C-3.95619429 3.37543649 -1.97850815 1.70371536 0 0 Z " fill="#CE8FA5" transform="translate(83,44)"/>
<path d="M0 0 C-0.20703125 1.84765625 -0.20703125 1.84765625 -1 4 C-3.07421875 5.30859375 -3.07421875 5.30859375 -5.6875 6.4375 C-12.27622157 9.51537422 -16.32743806 12.5730166 -20 19 C-20.66 19 -21.32 19 -22 19 C-22.36263859 13.1977825 -21.25684543 9.36000789 -19 4 C-18.10796875 3.87882812 -17.2159375 3.75765625 -16.296875 3.6328125 C-15.12640625 3.46523438 -13.9559375 3.29765625 -12.75 3.125 C-11.58984375 2.96257813 -10.4296875 2.80015625 -9.234375 2.6328125 C-6.00267842 2.00052404 -3.19971544 0 0 0 Z " fill="#66B0B1" transform="translate(33,33)"/>
<path d="M0 0 C2.31 0.66 4.62 1.32 7 2 C6.40024865 5.55052798 5.02728246 7.54446997 2.6875 10.25 C2.09324219 10.95640625 1.49898437 11.6628125 0.88671875 12.390625 C-1 14 -1 14 -5 14 C-6.04449911 10.86650268 -5.93423645 10.01031744 -5 7 C-5.66 7 -6.32 7 -7 7 C-6.8125 5.125 -6.8125 5.125 -6 3 C-3.5 1.8125 -3.5 1.8125 -1 1 C-0.67 0.67 -0.34 0.34 0 0 Z " fill="#E48AA4" transform="translate(78,33)"/>
<path d="M0 0 C6.66564714 3.15216584 12.3662515 9.71272399 16 16 C16.36104074 18.86290054 15.96551062 20.22415697 15 23 C9.81279066 18.79415459 8.52724531 14.39456368 7 8 C6.32453125 7.89042969 5.6490625 7.78085937 4.953125 7.66796875 C4.06109375 7.50941406 3.1690625 7.35085937 2.25 7.1875 C1.36828125 7.03667969 0.4865625 6.88585937 -0.421875 6.73046875 C-3.21523615 5.93901642 -4.78180837 4.8357448 -7 3 C-8.31836295 2.30419733 -9.64791086 1.62775567 -11 1 C-7.45575023 -0.77212489 -3.86129056 -0.62598771 0 0 Z " fill="#A6D3D0" transform="translate(73,14)"/>
<path d="M0 0 C0 0.66 0 1.32 0 2 C-0.60585937 2.02578125 -1.21171875 2.0515625 -1.8359375 2.078125 C-15.12645036 2.97779049 -28.64107084 9.55838049 -37.73046875 19.35546875 C-39.33436232 21.43312781 -40.31004797 23.4701759 -41 26 C-41.66 26 -42.32 26 -43 26 C-43 21.50156213 -41.62792046 19.20637387 -38.625 16.0625 C-33.86364277 11.61517168 -28.66131628 8.19515385 -23 5 C-22.10023437 4.48953125 -21.20046875 3.9790625 -20.2734375 3.453125 C-13.41553998 -0.06475903 -7.63919614 -0.59993687 0 0 Z " fill="#623C35" transform="translate(89,56)"/>
<path d="M0 0 C0.33 0 0.66 0 1 0 C1.66237393 13.61546421 -0.31731676 26.15691148 -9.5 36.7265625 C-10.61995221 37.86560481 -11.80220348 38.94312071 -13 40 C-13 36.41628085 -12.25521663 35.72412796 -10.0625 33 C-8.09824167 30.54815981 -7.00664658 29.01993973 -6 26 C-10.89562693 27.87702327 -10.89562693 27.87702327 -15 31 C-14.6875 29.125 -14.6875 29.125 -14 27 C-10.77208445 24.8480563 -9.71599191 24.79913557 -6 25 C-5.89042969 24.33613281 -5.78085938 23.67226562 -5.66796875 22.98828125 C-4.32773454 15.52437526 -4.32773454 15.52437526 -2.4375 12.5 C-0.19575179 8.60130746 -0.24934939 4.42810121 0 0 Z " fill="#583724" transform="translate(94,43)"/>
<path d="M0 0 C0.66 0 1.32 0 2 0 C2.45755719 7.62595318 0.74536299 14.6029854 -1 22 C0.32 22.66 1.64 23.32 3 24 C2.34 24 1.68 24 1 24 C0.67 27.3 0.34 30.6 0 34 C-0.33 34 -0.66 34 -1 34 C-1.12117187 33.31292969 -1.24234375 32.62585937 -1.3671875 31.91796875 C-1.53476563 31.01691406 -1.70234375 30.11585937 -1.875 29.1875 C-2.03742187 28.29417969 -2.19984375 27.40085937 -2.3671875 26.48046875 C-2.91188449 23.77272154 -2.91188449 23.77272154 -5 21 C-5.47841125 15.83315855 -4.74821805 13.30155869 -2 9 C-2.33 8.01 -2.66 7.02 -3 6 C-1.5625 2.8125 -1.5625 2.8125 0 0 Z " fill="#589DA0" transform="translate(12,30)"/>
<path d="M0 0 C-5.20954265 6.47672871 -10.79703229 10.82370244 -19 13 C-22.375 13.125 -22.375 13.125 -25 13 C-23.5836933 10.1673866 -21.85502707 9.98292167 -18.9375 8.875 C-18.01839844 8.52179688 -17.09929688 8.16859375 -16.15234375 7.8046875 C-15.44207031 7.53914063 -14.73179688 7.27359375 -14 7 C-14 5.68 -14 4.36 -14 3 C-5.11538462 -1.64423077 -5.11538462 -1.64423077 0 0 Z " fill="#F2DBD4" transform="translate(81,60)"/>
<path d="M0 0 C0.33 0.66 0.66 1.32 1 2 C3.52733235 2.65555119 3.52733235 2.65555119 6 3 C6.33 4.65 6.66 6.3 7 8 C5.3125 9.5625 5.3125 9.5625 3 11 C0.25 10.6875 0.25 10.6875 -2 10 C-2 9.34 -2 8.68 -2 8 C-4.64 8.66 -7.28 9.32 -10 10 C-8.5741914 6.54804233 -6.90253666 4.8985744 -3.875 2.75 C-3.15054688 2.22921875 -2.42609375 1.7084375 -1.6796875 1.171875 C-1.12539063 0.78515625 -0.57109375 0.3984375 0 0 Z " fill="#B75172" transform="translate(59,28)"/>
<path d="M0 0 C0.98484375 0.10183594 1.9696875 0.20367187 2.984375 0.30859375 C3.73203125 0.39238281 4.4796875 0.47617188 5.25 0.5625 C5.25 1.2225 5.25 1.8825 5.25 2.5625 C3.45856793 3.5420958 1.66684696 4.5211633 -0.125 5.5 C-1.12273438 6.04527344 -2.12046875 6.59054688 -3.1484375 7.15234375 C-4.67070346 7.9774759 -6.20128783 8.78814391 -7.75 9.5625 C-7.75 8.9025 -7.75 8.2425 -7.75 7.5625 C-9.73 7.5625 -11.71 7.5625 -13.75 7.5625 C-13.75 6.5725 -13.75 5.5825 -13.75 4.5625 C-12.76 4.2325 -11.77 3.9025 -10.75 3.5625 C-10.42 2.5725 -10.09 1.5825 -9.75 0.5625 C-6.49454896 -0.80389344 -3.44767963 -0.36939425 0 0 Z " fill="#E490A7" transform="translate(53.75,11.4375)"/>
<path d="M0 0 C2.5 1.5 2.5 1.5 4 3 C3.58525633 8.28798182 2.64775386 11.11690718 -1 15 C-2.32 14.67 -3.64 14.34 -5 14 C-4.566875 13.52949219 -4.13375 13.05898438 -3.6875 12.57421875 C-3.130625 11.95160156 -2.57375 11.32898437 -2 10.6875 C-1.443125 10.07261719 -0.88625 9.45773438 -0.3125 8.82421875 C1.29201498 6.96868665 1.29201498 6.96868665 1 4 C-5.43945678 2.18374296 -10.34794405 4.38044869 -16.2109375 6.98046875 C-18.17031081 7.87755605 -18.17031081 7.87755605 -19 10 C-19.99 10 -20.98 10 -22 10 C-20.11714994 4.78246368 -15.86512433 3.45575433 -11.1171875 1.20703125 C-6.93167527 -0.41367461 -4.42323423 -0.71087693 0 0 Z " fill="#5E4638" transform="translate(83,31)"/>
<path d="M0 0 C2.01559845 2.57548691 3.54135892 5.08271784 5 8 C-0.445 9.485 -0.445 9.485 -6 11 C-6 9.35 -6 7.7 -6 6 C-6.99 6.33 -7.98 6.66 -9 7 C-8.6875 4.625 -8.6875 4.625 -8 2 C-4.76259258 -0.15827162 -3.75766697 -0.73320331 0 0 Z " fill="#7CCAC9" transform="translate(36,50)"/>
<path d="M0 0 C0.33 0.99 0.66 1.98 1 3 C0.39671875 3.44730469 -0.2065625 3.89460938 -0.828125 4.35546875 C-5.15100573 7.62551885 -8.69076507 10.67253893 -12 15 C-12.99 15.33 -13.98 15.66 -15 16 C-15 15.01 -15 14.02 -15 13 C-15.66 13 -16.32 13 -17 13 C-17 10.8125 -17 10.8125 -16 8 C-13.49196821 6.03811466 -10.80358957 4.50078257 -8 3 C-8 3.66 -8 4.32 -8 5 C-7.01 5 -6.02 5 -5 5 C-4.87625 4.360625 -4.7525 3.72125 -4.625 3.0625 C-4.41875 2.381875 -4.2125 1.70125 -4 1 C-2 0 -2 0 0 0 Z " fill="#E095A8" transform="translate(32,17)"/>
<path d="M0 0 C0.55429687 0.15597656 1.10859375 0.31195313 1.6796875 0.47265625 C2.76636719 0.76462891 2.76636719 0.76462891 3.875 1.0625 C4.95394531 1.35833984 4.95394531 1.35833984 6.0546875 1.66015625 C8.07273593 2.21132607 8.07273593 2.21132607 10 1 C16.26407421 0.47799382 19.09822453 1.07857962 24 5 C19.26904921 7.77592318 15.21785052 7.18587512 10 6 C6.52403398 4.5642749 3.25632506 2.87758317 0 1 C0 0.67 0 0.34 0 0 Z " fill="#AA6A32" transform="translate(27,85)"/>
<path d="M0 0 C0.99 0.66 1.98 1.32 3 2 C-2.61 5.63 -8.22 9.26 -14 13 C-14.33 12.34 -14.66 11.68 -15 11 C-15.99 11 -16.98 11 -18 11 C-18 10.34 -18 9.68 -18 9 C-18.969375 8.87625 -19.93875 8.7525 -20.9375 8.625 C-21.948125 8.41875 -22.95875 8.2125 -24 8 C-24.33 7.34 -24.66 6.68 -25 6 C-23.62511713 5.97250234 -22.25006609 5.9533836 -20.875 5.9375 C-19.72644531 5.92009766 -19.72644531 5.92009766 -18.5546875 5.90234375 C-16 6 -16 6 -13.03125 6.71875 C-9.05749979 7.08744847 -7.74046429 5.96224952 -4.625 3.5625 C-3.75101563 2.90378906 -2.87703125 2.24507812 -1.9765625 1.56640625 C-1.32429688 1.04949219 -0.67203125 0.53257813 0 0 Z " fill="#6FC4C4" transform="translate(62,55)"/>
<path d="M0 0 C0.89203125 0.11085938 1.7840625 0.22171875 2.703125 0.3359375 C3.37859375 0.43132812 4.0540625 0.52671875 4.75 0.625 C-0.50846476 6.26131852 -6.88592742 7.14074126 -14.25 7.625 C-9.92198082 2.09475327 -7.4431582 -0.97936292 0 0 Z " fill="#E3AE63" transform="translate(69.25,82.375)"/>
<path d="M0 0 C0 0.66 0 1.32 0 2 C-0.76183594 2.268125 -1.52367188 2.53625 -2.30859375 2.8125 C-9.78101829 5.64847636 -18.22367379 9.44734759 -22 17 C-22.66 17 -23.32 17 -24 17 C-23.26700786 12.05230303 -20.29606871 8.96384245 -16.37890625 6.05078125 C-15.44949219 5.47714844 -14.52007812 4.90351562 -13.5625 4.3125 C-12.17224609 3.44044922 -12.17224609 3.44044922 -10.75390625 2.55078125 C-3.90981013 -1.30327004 -3.90981013 -1.30327004 0 0 Z " fill="#403629" transform="translate(37,36)"/>
<path d="M0 0 C-1 3 -1 3 -3 4 C-3.99 5.485 -3.99 5.485 -5 7 C-5.99 7 -6.98 7 -8 7 C-9.28043789 7.47486438 -10.55025797 7.97869163 -11.8125 8.5 C-18.07983508 10.71016949 -24.44201896 10.25187125 -31 10 C-28.552898 7.0542722 -28.552898 7.0542722 -26.08984375 6.8125 C-25.37957031 6.874375 -24.66929688 6.93625 -23.9375 7 C-14.92124832 7.29321144 -7.80222715 0 0 0 Z " fill="#A56630" transform="translate(78,82)"/>
<path d="M0 0 C-0.28875 0.515625 -0.5775 1.03125 -0.875 1.5625 C-2.28780027 4.62356725 -3.1248517 7.74944918 -4 11 C1.57515218 9.03796748 1.57515218 9.03796748 6.75 6.25 C9 5 9 5 11.140625 5.421875 C11.75421875 5.61265625 12.3678125 5.8034375 13 6 C10.94803718 7.37298244 8.88595971 8.72269162 6.8125 10.0625 C6.23435547 10.45244141 5.65621094 10.84238281 5.06054688 11.24414062 C2.24126968 13.04401816 0.52353401 14.0349975 -2.86328125 13.80859375 C-5 13 -5 13 -6 12 C-6.40250992 7.8138968 -6.41767351 5.65435516 -4.125 2.0625 C-2 0 -2 0 0 0 Z " fill="#392C1E" transform="translate(20,57)"/>
<path d="M0 0 C6.61213947 3.79585785 6.61213947 3.79585785 7.59765625 6.85546875 C8.10684147 9.40995256 8.3371066 11.40982651 8 14 C5.84941531 17.01321476 3.42730733 18.64682364 0 20 C-3.15399071 20.17468256 -5.94646758 19.77751983 -9 19 C-9 18.67 -9 18.34 -9 18 C-8.32453125 17.91363281 -7.6490625 17.82726562 -6.953125 17.73828125 C-1.17477022 16.83429439 -1.17477022 16.83429439 3.6875 13.75 C5.22882509 11.02841619 5.22882509 11.02841619 5 7.8125 C4.29672819 4.94203681 4.29672819 4.94203681 2.234375 3.83203125 C-0.26002422 2.9031728 -2.09908069 2.79703179 -4.75 2.875 C-5.94882812 2.90207031 -5.94882812 2.90207031 -7.171875 2.9296875 C-8.07679687 2.96449219 -8.07679687 2.96449219 -9 3 C-9 2.34 -9 1.68 -9 1 C-5.89046621 -0.5547669 -3.43733239 -0.28644437 0 0 Z " fill="#3A2816" transform="translate(55,41)"/>
<path d="M0 0 C-1.0725 0.515625 -2.145 1.03125 -3.25 1.5625 C-7.46996205 3.93355373 -8.93145982 6.69743642 -11 11 C-12.32 10.67 -13.64 10.34 -15 10 C-15.33 7.69 -15.66 5.38 -16 3 C-13.89936424 2.30178583 -11.79434263 1.61675528 -9.6875 0.9375 C-8.51574219 0.55464844 -7.34398437 0.17179687 -6.13671875 -0.22265625 C-3 -1 -3 -1 0 0 Z " fill="#BA577A" transform="translate(47,36)"/>
<path d="M0 0 C1.125 3.75 1.125 3.75 0 6 C-1.0725 6.165 -2.145 6.33 -3.25 6.5 C-6.15095172 7.20579856 -6.8773463 7.81678033 -8.57421875 10.3515625 C-9.81285601 12.87142627 -10.95652042 15.39370539 -12 18 C-14.31 18 -16.62 18 -19 18 C-19.33 17.01 -19.66 16.02 -20 15 C-18.948125 14.835 -17.89625 14.67 -16.8125 14.5 C-14.27786425 13.80411804 -13.2448555 13.33245777 -11.66796875 11.19140625 C-10.88462678 9.76357557 -10.10471501 8.333858 -9.328125 6.90234375 C-7.15783646 3.79372458 -4.51226208 3.21578303 -1 2 C-0.67 1.34 -0.34 0.68 0 0 Z " fill="#BA5478" transform="translate(88,62)"/>
<path d="M0 0 C-0.28186548 4.65078045 -2.47603185 7.20117979 -5.33203125 10.64453125 C-7 12 -7 12 -11 12 C-10.54917531 10.53932801 -10.08906463 9.08151968 -9.625 7.625 C-9.36976562 6.81289062 -9.11453125 6.00078125 -8.8515625 5.1640625 C-8 3 -8 3 -6 1 C-3.90200436 0.34437636 -2.19959601 0 0 0 Z " fill="#AB6D33" transform="translate(88,69)"/>
<path d="M0 0 C0.33 0.33 0.66 0.66 1 1 C2.68608966 1.07205511 4.37500659 1.08386068 6.0625 1.0625 C6.98160156 1.05347656 7.90070312 1.04445313 8.84765625 1.03515625 C9.55792969 1.02355469 10.26820312 1.01195313 11 1 C11 1.66 11 2.32 11 3 C11.66 3.33 12.32 3.66 13 4 C12.32453125 3.96519531 11.6490625 3.93039063 10.953125 3.89453125 C10.06109375 3.86746094 9.1690625 3.84039062 8.25 3.8125 C7.36828125 3.77769531 6.4865625 3.74289063 5.578125 3.70703125 C2.55328417 4.05076316 1.24416398 5.00227459 -1 7 C-2.9375 6.3125 -2.9375 6.3125 -5 5 C-5.75 2.375 -5.75 2.375 -6 0 C-2.25 -1.125 -2.25 -1.125 0 0 Z " fill="#519395" transform="translate(35,79)"/>
<path d="M0 0 C0.99 1.485 0.99 1.485 2 3 C3.0828125 4.423125 3.0828125 4.423125 4.1875 5.875 C7.27667351 11.15281305 5.80110022 17.20943865 5 23 C0.35169357 16.02754035 0.46562931 8.14851289 0 0 Z " fill="#432F1D" transform="translate(5,46)"/>
<path d="M0 0 C3.90469752 2.60313168 4.06786357 4.49467394 5 9 C4.625 11.4375 4.625 11.4375 4 13 C3.4225 12.814375 2.845 12.62875 2.25 12.4375 C-0.20692525 11.95976454 -1.64397534 12.24270636 -4 13 C-4 10 -4 10 -2.5625 7.625 C-0.99717886 4.99526048 -0.42887375 3.00211625 0 0 Z " fill="#91C3AF" transform="translate(88,32)"/>
<path d="M0 0 C0.33 0.66 0.66 1.32 1 2 C0.01 3.485 0.01 3.485 -1 5 C-1.21314985 8.4103976 -1.084894 10.74531799 0 14 C3.11612257 16.07741505 6.3351268 16.50024456 10 17 C10 17.66 10 18.32 10 19 C7.1875 19.625 7.1875 19.625 4 20 C3.01 19.34 2.02 18.68 1 18 C1 17.34 1 16.68 1 16 C0.34 16 -0.32 16 -1 16 C-3.38567343 13.06378655 -4.25253518 10.58799744 -4.4375 6.875 C-4 3 -4 3 -2 1 C-1.34 0.67 -0.68 0.34 0 0 Z " fill="#433222" transform="translate(44,43)"/>
<path d="M0 0 C4.29 0.33 8.58 0.66 13 1 C13 1.33 13 1.66 13 2 C8.545 2.495 8.545 2.495 4 3 C3.67 3.99 3.34 4.98 3 6 C2.34 6 1.68 6 1 6 C0.01 6.33 -0.98 6.66 -2 7 C-2 9.64 -2 12.28 -2 15 C-2.99 14.01 -3.98 13.02 -5 12 C-4.54738642 10.56068883 -4.08767021 9.12361001 -3.625 7.6875 C-3.24214844 6.48673828 -3.24214844 6.48673828 -2.8515625 5.26171875 C-2 3 -2 3 0 0 Z " fill="#A06633" transform="translate(42,39)"/>
<path d="M0 0 C0.99 0.33 1.98 0.66 3 1 C2.87890625 3.32421875 2.87890625 3.32421875 2 6 C-0.72265625 7.58203125 -0.72265625 7.58203125 -4.0625 8.8125 C-5.16722656 9.23144531 -6.27195312 9.65039062 -7.41015625 10.08203125 C-8.26480469 10.38496094 -9.11945313 10.68789063 -10 11 C-10 9.68 -10 8.36 -10 7 C-7.91796875 5.04296875 -7.91796875 5.04296875 -5.1875 3.1875 C-4.29417969 2.56230469 -3.40085937 1.93710937 -2.48046875 1.29296875 C-1.66191406 0.86628906 -0.84335938 0.43960938 0 0 Z " fill="#D98CA2" transform="translate(75,51)"/>
<path d="M0 0 C0.33 2.31 0.66 4.62 1 7 C-1.8125 8.5625 -1.8125 8.5625 -5 10 C-5.99 9.67 -6.98 9.34 -8 9 C-7.75 5.625 -7.75 5.625 -7 2 C-4.4664092 0.05758039 -3.21812786 0 0 0 Z " fill="#81C7C8" transform="translate(32,40)"/>
<path d="M0 0 C1.32 0.66 2.64 1.32 4 2 C4 2.99 4 3.98 4 5 C3.01 5 2.02 5 1 5 C1 5.66 1 6.32 1 7 C1.99 7.33 2.98 7.66 4 8 C3.21654285 9.17219543 2.42297164 10.33763668 1.625 11.5 C1.18414063 12.1496875 0.74328125 12.799375 0.2890625 13.46875 C-0.13632813 13.9740625 -0.56171875 14.479375 -1 15 C-1.66 15 -2.32 15 -3 15 C-3.36263859 9.1977825 -2.25684543 5.36000789 0 0 Z " fill="#6EC5C5" transform="translate(14,37)"/>
<path d="M0 0 C0.33 0.99 0.66 1.98 1 3 C-0.84186568 4.49708294 -2.69611285 5.97152964 -4.5625 7.4375 C-5.33303711 8.06881836 -5.33303711 8.06881836 -6.11914062 8.71289062 C-10.01640547 11.73871737 -13.11291609 12.66104714 -18 13 C-14.65971913 9.32231703 -10.92633588 6.85596568 -6.75 4.25 C-6.1003125 3.83878906 -5.450625 3.42757812 -4.78125 3.00390625 C-3.1904341 1.99794914 -1.59561567 0.99832638 0 0 Z " fill="#68B9B9" transform="translate(64,59)"/>
<path d="M0 0 C1 1 1 1 1.25 3.375 C1 6 1 6 -0.375 7.8125 C-2 9 -2 9 -4 9 C-4 8.34 -4 7.68 -4 7 C-3.34 7 -2.68 7 -2 7 C-2 5.68 -2 4.36 -2 3 C-6.95 3 -11.9 3 -17 3 C-12.69886239 -1.30113761 -5.63611283 -1.54993103 0 0 Z " fill="#5A4A3E" transform="translate(80,21)"/>
<path d="M0 0 C0.33 0.99 0.66 1.98 1 3 C1.99 3 2.98 3 4 3 C4.12375 3.639375 4.2475 4.27875 4.375 4.9375 C4.58125 5.618125 4.7875 6.29875 5 7 C5.66 7.33 6.32 7.66 7 8 C5.02 8.66 3.04 9.32 1 10 C0.67 9.01 0.34 8.02 0 7 C-2.50447516 5.78130071 -2.50447516 5.78130071 -5 5 C-4 2 -4 2 -1.9375 0.8125 C-1.298125 0.544375 -0.65875 0.27625 0 0 Z " fill="#DE8A9B" transform="translate(65,25)"/>
<path d="M0 0 C2.3125 0.1875 2.3125 0.1875 4 1 C4 2.32 4 3.64 4 5 C4.33 5.99 4.66 6.98 5 8 C3.72125 8.061875 2.4425 8.12375 1.125 8.1875 C0.40570313 8.22230469 -0.31359375 8.25710937 -1.0546875 8.29296875 C-1.69664063 8.19628906 -2.33859375 8.09960938 -3 8 C-3.66 7.01 -4.32 6.02 -5 5 C-2.75 2.4375 -2.75 2.4375 0 0 Z " fill="#E48F9C" transform="translate(54,19)"/>
<path d="M0 0 C0 0.99 0 1.98 0 3 C-0.65226562 3.15855469 -1.30453125 3.31710938 -1.9765625 3.48046875 C-7.86138187 5.05148985 -11.62920943 6.74423023 -16 11 C-16.66 10.34 -17.32 9.68 -18 9 C-16.40012144 7.68227638 -14.79494034 6.37098863 -13.1875 5.0625 C-12.29417969 4.33160156 -11.40085937 3.60070313 -10.48046875 2.84765625 C-6.91738362 0.19357867 -4.32733255 -0.11695493 0 0 Z " fill="#4C4638" transform="translate(36,47)"/>
<path d="M0 0 C2.68453027 0.37028004 3.8677757 0.87659065 5.875 2.75 C7 5 7 5 6.1875 7.75 C5.795625 8.4925 5.40375 9.235 5 10 C2.36 9.67 -0.28 9.34 -3 9 C-3 8.67 -3 8.34 -3 8 C-0.69 8 1.62 8 4 8 C4 7.34 4 6.68 4 6 C2.02 6 0.04 6 -2 6 C-1.34 4.02 -0.68 2.04 0 0 Z " fill="#D7849D" transform="translate(85,50)"/>
<path d="M0 0 C-0.59167969 0.43570313 -1.18335938 0.87140625 -1.79296875 1.3203125 C-10.00905635 7.36102076 -10.00905635 7.36102076 -15 16 C-15.66 16 -16.32 16 -17 16 C-17 11.27103779 -15.44297202 9.05948847 -12.25 5.8125 C-4.44044118 -1.48014706 -4.44044118 -1.48014706 0 0 Z " fill="#3D3123" transform="translate(63,66)"/>
<path d="M0 0 C4.455 0.99 4.455 0.99 9 2 C9 2.66 9 3.32 9 4 C9.99 4 10.98 4 12 4 C12 4.66 12 5.32 12 6 C9.03 5.505 9.03 5.505 6 5 C6 5.66 6 6.32 6 7 C5.01 7 4.02 7 3 7 C3 6.34 3 5.68 3 5 C1.68 4.67 0.36 4.34 -1 4 C-0.67 2.68 -0.34 1.36 0 0 Z " fill="#9FB4BC" transform="translate(35,62)"/>
<path d="M0 0 C5.56862745 3.2685422 5.56862745 3.2685422 7.4375 6.4375 C8.06904352 9.31453161 7.8034083 11.18807094 7 14 C3.62142333 10.88815307 1.26014726 8.46779482 0 4 C0 2.68 0 1.36 0 0 Z " fill="#76C2C1" transform="translate(81,23)"/>
<path d="M0 0 C2.9375 0.5 2.9375 0.5 4.8125 3 C5.18375 3.825 5.555 4.65 5.9375 5.5 C5.25042969 5.48839844 4.56335937 5.47679688 3.85546875 5.46484375 C2.95441406 5.45582031 2.05335937 5.44679688 1.125 5.4375 C0.23167969 5.42589844 -0.66164063 5.41429688 -1.58203125 5.40234375 C-4.19663791 5.38990033 -4.19663791 5.38990033 -7.0625 6.5 C-9.25 5.5625 -9.25 5.5625 -11.0625 4.5 C-10.7325 3.84 -10.4025 3.18 -10.0625 2.5 C-9.0725 2.83 -8.0825 3.16 -7.0625 3.5 C-6.464375 3.025625 -5.86625 2.55125 -5.25 2.0625 C-3.0625 0.5 -3.0625 0.5 0 0 Z " fill="#90592C" transform="translate(41.0625,81.5)"/>
<path d="M0 0 C2.9375 0.8125 2.9375 0.8125 6 2 C6.33 2.99 6.66 3.98 7 5 C3.55930376 7.29379749 2.27709699 8 -2 8 C-1.125 1.125 -1.125 1.125 0 0 Z " fill="#5BABAF" transform="translate(18,60)"/>
<path d="M0 0 C2.97 0.495 2.97 0.495 6 1 C6 1.66 6 2.32 6 3 C7.32 3.33 8.64 3.66 10 4 C8.6696875 4.37125 8.6696875 4.37125 7.3125 4.75 C3.88698085 6.04264874 1.81636302 7.71646242 -1 10 C-1.99 10 -2.98 10 -4 10 C-3.67 9.34 -3.34 8.68 -3 8 C-2.01 8 -1.02 8 0 8 C-0.33 7.01 -0.66 6.02 -1 5 C-0.5625 2.3125 -0.5625 2.3125 0 0 Z " fill="#CB8F9C" transform="translate(32,17)"/>
<path d="M0 0 C-2.19458816 2.19458816 -3.45683722 2.60806985 -6.375 3.5 C-9.41237087 4.43457565 -12.24410679 5.39745417 -15 7 C-15.33 7.66 -15.66 8.32 -16 9 C-16.99 9 -17.98 9 -19 9 C-17.19450531 4.5527815 -14.58533293 3.15644873 -10.46484375 0.97265625 C-6.77736772 -0.48246504 -3.92111777 -0.35646525 0 0 Z " fill="#49271F" transform="translate(80,32)"/>
<path d="M0 0 C0.66 0.33 1.32 0.66 2 1 C-0.57020804 4.14136538 -3.09026955 5.05876859 -7 6 C-10.00887403 6.15241029 -12.99050424 6.12037983 -16 6 C-16 5.34 -16 4.68 -16 4 C-15.26394531 3.87882812 -14.52789062 3.75765625 -13.76953125 3.6328125 C-12.79371094 3.46523438 -11.81789063 3.29765625 -10.8125 3.125 C-9.84957031 2.96257813 -8.88664062 2.80015625 -7.89453125 2.6328125 C-4.97381476 2.08328833 -4.97381476 2.08328833 -2.26171875 0.8671875 C-1.51535156 0.58101562 -0.76898438 0.29484375 0 0 Z " fill="#5A392D" transform="translate(30,31)"/>
<path d="M0 0 C0.66 0 1.32 0 2 0 C2.19392201 5.52677733 1.7479503 9.75614911 0 15 C-2.2012803 11.69807955 -2.76868654 9.93232882 -3 6 C-1.5625 2.625 -1.5625 2.625 0 0 Z " fill="#8D7D65" transform="translate(12,30)"/>
<path d="M0 0 C0.66 0.33 1.32 0.66 2 1 C-3.63094969 4.3989636 -9.27393295 7.76352732 -15 11 C-15 10.34 -15 9.68 -15 9 C-15.66 8.67 -16.32 8.34 -17 8 C-4.87804878 1.82926829 -4.87804878 1.82926829 0 0 Z " fill="#4D231C" transform="translate(66,23)"/>
<path d="M0 0 C2.31 0.66 4.62 1.32 7 2 C6.45773019 5.79588866 4.79872437 7.47211993 2 10 C2 7.69 2 5.38 2 3 C1.01 3 0.02 3 -1 3 C-0.67 2.01 -0.34 1.02 0 0 Z " fill="#BFA2B2" transform="translate(78,33)"/>
<path d="M0 0 C4.16027455 1.80881502 6.26765792 2.79288352 8 7 C10.44491721 10.25988961 13.06812656 13.17283633 16 16 C12.53242222 15.42333499 10.9533644 14.28994833 8.5625 11.75 C7.6653125 10.80640625 7.6653125 10.80640625 6.75 9.84375 C6.1725 9.2353125 5.595 8.626875 5 8 C4.02270272 7.08134056 3.0437947 6.16438824 2.0625 5.25 C0 3 0 3 0 0 Z " fill="#3B2A19" transform="translate(10,70)"/>
<path d="M0 0 C0.99 0.33 1.98 0.66 3 1 C3 1.66 3 2.32 3 3 C3.99 3.33 4.98 3.66 6 4 C6 4.66 6 5.32 6 6 C6.99 6 7.98 6 9 6 C9 5.34 9 4.68 9 4 C10.65 4.33 12.3 4.66 14 5 C13 6.5625 13 6.5625 11 8 C7.8741756 8 5.8638588 7.99638421 3 7 C1.00607447 4.56990326 0 3.16090285 0 0 Z " fill="#7EC7C7" transform="translate(32,63)"/>
<path d="M0 0 C1.46373047 0.16628906 1.46373047 0.16628906 2.95703125 0.3359375 C3.69308594 0.43132813 4.42914063 0.52671875 5.1875 0.625 C5.1875 1.285 5.1875 1.945 5.1875 2.625 C1.5575 2.625 -2.0725 2.625 -5.8125 2.625 C-5.8125 3.285 -5.8125 3.945 -5.8125 4.625 C-6.4725 4.625 -7.1325 4.625 -7.8125 4.625 C-7.8125 3.965 -7.8125 3.305 -7.8125 2.625 C-8.8025 2.295 -9.7925 1.965 -10.8125 1.625 C-6.91531829 -0.24165742 -4.27165815 -0.51465761 0 0 Z " fill="#F1DBDD" transform="translate(53.8125,11.375)"/>
<path d="M0 0 C2.97 0.495 2.97 0.495 6 1 C6.33 1.99 6.66 2.98 7 4 C0.565 4.495 0.565 4.495 -6 5 C-5.67 4.01 -5.34 3.02 -5 2 C-3.35 2 -1.7 2 0 2 C0 1.34 0 0.68 0 0 Z " fill="#442718" transform="translate(66,10)"/>
<path d="M0 0 C0.99 0.33 1.98 0.66 3 1 C2 4 2 4 -0.21484375 5.203125 C-1.11332031 5.54859375 -2.01179688 5.8940625 -2.9375 6.25 C-4.28134766 6.78367187 -4.28134766 6.78367187 -5.65234375 7.328125 C-8 8 -8 8 -10 7 C-8.4050992 5.80008401 -6.79873853 4.61538682 -5.1875 3.4375 C-3.84751953 2.44556641 -3.84751953 2.44556641 -2.48046875 1.43359375 C-1.66191406 0.96050781 -0.84335938 0.48742187 0 0 Z " fill="#69B2B3" transform="translate(65,64)"/>
<path d="M0 0 C0.99 0.33 1.98 0.66 3 1 C1.58510266 2.27280294 0.16800334 3.5431583 -1.25 4.8125 C-2.03890625 5.52019531 -2.8278125 6.22789063 -3.640625 6.95703125 C-8.10004486 10.81841633 -8.10004486 10.81841633 -10 12 C-10.99 11.67 -11.98 11.34 -13 11 C-10.90603799 9.13305812 -8.80129803 7.28173824 -6.6875 5.4375 C-6.09259766 4.90447266 -5.49769531 4.37144531 -4.88476562 3.82226562 C-3.32180963 2.46886798 -1.66512254 1.2255136 0 0 Z " fill="#4E251E" transform="translate(77,46)"/>
<path d="M0 0 C0.33 0 0.66 0 1 0 C1.13277344 0.68707031 1.26554688 1.37414063 1.40234375 2.08203125 C1.57894531 2.98308594 1.75554688 3.88414063 1.9375 4.8125 C2.19853516 6.15248047 2.19853516 6.15248047 2.46484375 7.51953125 C2.97741153 10.11397171 2.97741153 10.11397171 4 13 C3.21625 12.649375 2.4325 12.29875 1.625 11.9375 C0.75875 11.628125 -0.1075 11.31875 -1 11 C-1.99 11.495 -1.99 11.495 -3 12 C-2.14285714 3.42857143 -2.14285714 3.42857143 0 0 Z " fill="#4D8585" transform="translate(12,59)"/>
<path d="M0 0 C0.66 0.33 1.32 0.66 2 1 C2.28571429 8.42857143 2.28571429 8.42857143 0 12 C-0.99 12 -1.98 12 -3 12 C-2.67 10.9275 -2.34 9.855 -2 8.75 C-0.8282249 5.00268399 -0.8282249 5.00268399 -1 1 C-0.67 0.67 -0.34 0.34 0 0 Z " fill="#E0E0DF" transform="translate(83,44)"/>
<path d="M0 0 C-0.33 1.11375 -0.66 2.2275 -1 3.375 C-2.088643 6.69459717 -2.088643 6.69459717 -2 9 C-3.32 8.67 -4.64 8.34 -6 8 C-6.33 5.69 -6.66 3.38 -7 1 C-4.50935112 0.31292445 -2.62113708 0 0 0 Z " fill="#DF88A2" transform="translate(38,38)"/>
<path d="M0 0 C1.65 0.33 3.3 0.66 5 1 C2.85073619 3.39105598 1.00963087 4.63278854 -2 5.75 C-2.680625 6.01296875 -3.36125 6.2759375 -4.0625 6.546875 C-6 7 -6 7 -9 6 C-7.8125 4.5 -7.8125 4.5 -6 3 C-3.3125 2.8125 -3.3125 2.8125 -1 3 C-0.67 2.01 -0.34 1.02 0 0 Z " fill="#B74E72" transform="translate(52,26)"/>
<path d="M0 0 C0.33 0.99 0.66 1.98 1 3 C-1.97 5.31 -4.94 7.62 -8 10 C-8.66 9.01 -9.32 8.02 -10 7 C-9.34 6.34 -8.68 5.68 -8 5 C-7.01 5 -6.02 5 -5 5 C-4.814375 4.0409375 -4.814375 4.0409375 -4.625 3.0625 C-4.41875 2.381875 -4.2125 1.70125 -4 1 C-2 0 -2 0 0 0 Z " fill="#EEDCDD" transform="translate(32,17)"/>
<path d="M0 0 C-4.64285022 4.23912412 -11.02610372 5.56083408 -17 7 C-17 6.34 -17 5.68 -17 5 C-15.29870914 4.15238178 -13.58856916 3.3225132 -11.875 2.5 C-10.92367188 2.0359375 -9.97234375 1.571875 -8.9921875 1.09375 C-5.78803369 -0.07748116 -3.38282687 -0.20076124 0 0 Z " fill="#412618" transform="translate(41,9)"/>
<path d="M0 0 C-0.125 1.875 -0.125 1.875 -1 4 C-5.05701058 5.88698167 -8.56542098 6.21117043 -13 6 C-11.59719304 3.19438607 -9.9490995 2.99319493 -7.0625 1.875 C-6.16660156 1.52179688 -5.27070312 1.16859375 -4.34765625 0.8046875 C-2 0 -2 0 0 0 Z " fill="#E3EFE9" transform="translate(69,67)"/>
<path d="M0 0 C-0.28875 0.515625 -0.5775 1.03125 -0.875 1.5625 C-2.28780027 4.62356725 -3.1248517 7.74944918 -4 11 C-2.35 10.67 -0.7 10.34 1 10 C1 10.66 1 11.32 1 12 C-1.31 12 -3.62 12 -6 12 C-6.32644414 7.83783725 -6.40650982 5.63686538 -4.125 2.0625 C-2 0 -2 0 0 0 Z " fill="#413425" transform="translate(20,57)"/>
<path d="M0 0 C4.09430738 3.75024794 5.81422436 8.27916101 6.1875 13.74609375 C6.1875 16.17173096 6.13398536 18.5783386 6 21 C3.88440787 17.82661181 3.72034375 15.83720657 3.3515625 12.12890625 C2.98885817 9.93253003 2.35595928 8.20896879 1.4375 6.1875 C0 3 0 3 0 0 Z " fill="#382515" transform="translate(88,27)"/>
<path d="M0 0 C0.33 0 0.66 0 1 0 C1.24900646 1.93505023 1.47356242 3.87325934 1.6875 5.8125 C1.87892578 7.43091797 1.87892578 7.43091797 2.07421875 9.08203125 C2 12 2 12 0.51953125 13.88671875 C0.01808594 14.25410156 -0.48335937 14.62148438 -1 15 C-2.35439668 12.29120665 -2.06501451 9.99066732 -2 7 C-1.34 7 -0.68 7 0 7 C0 4.69 0 2.38 0 0 Z " fill="#804531" transform="translate(64,41)"/>
<path d="M0 0 C7.38461538 -0.49230769 7.38461538 -0.49230769 10.5 2 C10.995 2.66 11.49 3.32 12 4 C7.01137151 4.29344873 4.03770942 4.05887078 0 1 C0 0.67 0 0.34 0 0 Z " fill="#DFA85F" transform="translate(37,86)"/>
<path d="M0 0 C1.125 3.75 1.125 3.75 0 6 C-1.11375 6.309375 -2.2275 6.61875 -3.375 6.9375 C-6.69993306 7.91204934 -7.95212691 8.3498113 -10 11 C-10 8.75 -10 8.75 -9 6 C-7.00286727 4.73027122 -4.99341384 3.80973616 -2.8125 2.89453125 C-0.81645992 2.13637029 -0.81645992 2.13637029 0 0 Z " fill="#C96A88" transform="translate(88,62)"/>
<path d="M0 0 C0.66 0 1.32 0 2 0 C2.22151549 1.79008467 2.42682213 3.58218162 2.625 5.375 C2.74101563 6.37273438 2.85703125 7.37046875 2.9765625 8.3984375 C2.98429687 9.25695313 2.99203125 10.11546875 3 11 C2.34 11.66 1.68 12.32 1 13 C0.63901937 11.02206479 0.28638652 9.04260427 -0.0625 7.0625 C-0.25972656 5.96035156 -0.45695312 4.85820313 -0.66015625 3.72265625 C-0.77230469 2.82417969 -0.88445312 1.92570312 -1 1 C-0.67 0.67 -0.34 0.34 0 0 Z " fill="#B44E72" transform="translate(65,38)"/>
<path d="M0 0 C0.33 0.66 0.66 1.32 1 2 C1.99 2.66 2.98 3.32 4 4 C2.02 4.66 0.04 5.32 -2 6 C-2 5.34 -2 4.68 -2 4 C-3.98 4 -5.96 4 -8 4 C-4.5 0 -4.5 0 0 0 Z " fill="#905327" transform="translate(57,36)"/>
<path d="M0 0 C-0.33 0.99 -0.66 1.98 -1 3 C-2.7421875 3.66015625 -2.7421875 3.66015625 -4.875 4.0625 C-7.98533464 4.6650556 -9.23878766 5.15919177 -12 7 C-9.52030127 1.00739475 -6.36870588 -0.43422995 0 0 Z " fill="#5AA0A3" transform="translate(69,76)"/>
<path d="M0 0 C4.62 0 9.24 0 14 0 C13 2 13 2 9.25 3.3125 C5.97703221 4.07776225 5.2200213 4.09625932 2 2.6875 C1.34 2.130625 0.68 1.57375 0 1 C0 0.67 0 0.34 0 0 Z " fill="#321F12" transform="translate(23,76)"/>
<path d="M0 0 C0.66 0.33 1.32 0.66 2 1 C0.87895467 2.31587941 -0.24696965 3.62760353 -1.375 4.9375 C-2.00148438 5.66839844 -2.62796875 6.39929688 -3.2734375 7.15234375 C-5 9 -5 9 -7 10 C-5.6561086 3.52488688 -5.6561086 3.52488688 -2.5 1 C-1.675 0.67 -0.85 0.34 0 0 Z " fill="#DDA65C" transform="translate(84,71)"/>
<path d="M0 0 C0.99 0.33 1.98 0.66 3 1 C2.525625 1.495 2.05125 1.99 1.5625 2.5 C-0.62167907 5.99468651 -0.65913911 8.90966936 -1 13 C-1.99 12.01 -2.98 11.02 -4 10 C-3.52449439 8.51965236 -3.04448784 7.04074979 -2.5625 5.5625 C-2.29566406 4.73878906 -2.02882812 3.91507813 -1.75390625 3.06640625 C-1 1 -1 1 0 0 Z " fill="#D1964E" transform="translate(41,41)"/>
<path d="M0 0 C-0.33 0.66 -0.66 1.32 -1 2 C-1.66 2.144375 -2.32 2.28875 -3 2.4375 C-3.66 2.623125 -4.32 2.80875 -5 3 C-5.33 3.99 -5.66 4.98 -6 6 C-5.34 6 -4.68 6 -4 6 C-4 6.66 -4 7.32 -4 8 C-5.875 7.75 -5.875 7.75 -8 7 C-9.25 4.9375 -9.25 4.9375 -10 3 C-6.27034861 0.96564469 -4.33094958 0 0 0 Z " fill="#C66889" transform="translate(77,34)"/>
<path d="M0 0 C-3.465 2.97 -3.465 2.97 -7 6 C-7.66 4.68 -8.32 3.36 -9 2 C-3.375 -1.125 -3.375 -1.125 0 0 Z " fill="#D5809B" transform="translate(76,61)"/>
<path d="M0 0 C0.66 0.33 1.32 0.66 2 1 C0.35 4.63 -1.3 8.26 -3 12 C-3.33 11.34 -3.66 10.68 -4 10 C-6.02463255 9.34786708 -6.02463255 9.34786708 -8 9 C-6.68 9 -5.36 9 -4 9 C-3.8453125 8.1646875 -3.8453125 8.1646875 -3.6875 7.3125 C-2.86866423 4.55823422 -1.54146219 2.41272343 0 0 Z " fill="#693E25" transform="translate(40,39)"/>
<path d="M0 0 C0.66 0 1.32 0 2 0 C3.39935013 2.79870027 3.25265405 4.90498792 3 8 C1.5 9.875 1.5 9.875 0 11 C0.33 8.69 0.66 6.38 1 4 C0.34 4 -0.32 4 -1 4 C-0.67 2.68 -0.34 1.36 0 0 Z " fill="#E79EA7" transform="translate(72,36)"/>
<path d="M0 0 C2 1 2 1 3.1875 4.3125 C3.90649268 7.57562063 4.20286847 8.99282882 3 12 C0.01485372 7.89542386 -0.2954439 5.02254631 0 0 Z " fill="#957A52" transform="translate(89,33)"/>
<path d="M0 0 C-1 2 -1 2 -3.50390625 2.8515625 C-4.51324219 3.10679688 -5.52257812 3.36203125 -6.5625 3.625 C-7.57441406 3.88539062 -8.58632813 4.14578125 -9.62890625 4.4140625 C-10.41136719 4.60742188 -11.19382813 4.80078125 -12 5 C-7.81374099 0.67419902 -6.05150555 -0.13155447 0 0 Z " fill="#DA984B" transform="translate(70,82)"/>
<path d="M0 0 C0.99 0.33 1.98 0.66 3 1 C2.67 2.65 2.34 4.3 2 6 C0.35 6.33 -1.3 6.66 -3 7 C-2.34 5.68 -1.68 4.36 -1 3 C-1.66 2.67 -2.32 2.34 -3 2 C-2.01 1.34 -1.02 0.68 0 0 Z " fill="#D57797" transform="translate(75,51)"/>
<path d="M0 0 C0.33 0.66 0.66 1.32 1 2 C0.01 3.485 0.01 3.485 -1 5 C-1.39387788 7.32387947 -1.73486085 9.65793749 -2 12 C-2.66 11.67 -3.32 11.34 -4 11 C-4.35233161 5.62694301 -4.35233161 5.62694301 -4 3 C-2 1 -2 1 0 0 Z " fill="#472E10" transform="translate(44,43)"/>
<path d="M0 0 C0.33 0.99 0.66 1.98 1 3 C-0.98 4.32 -2.96 5.64 -5 7 C-5.99 6.34 -6.98 5.68 -8 5 C-4.04 2.525 -4.04 2.525 0 0 Z " fill="#7D9DA6" transform="translate(64,59)"/>
<path d="M0 0 C4.455 0.99 4.455 0.99 9 2 C9 2.66 9 3.32 9 4 C6.03 3.67 3.06 3.34 0 3 C0 2.01 0 1.02 0 0 Z " fill="#E2EBE5" transform="translate(35,62)"/>
<path d="M0 0 C0.66 0.99 1.32 1.98 2 3 C4.05925139 3.72382467 4.05925139 3.72382467 6 4 C1.87831311 5.62950412 -0.70700357 6.26264601 -5 5 C-3.35 3.35 -1.7 1.7 0 0 Z " fill="#5E3326" transform="translate(47,34)"/>
<path d="M0 0 C-0.1875 1.875 -0.1875 1.875 -1 4 C-3.89111788 5.52164099 -5.71823412 6 -9 6 C-9 5.34 -9 4.68 -9 4 C-8.01 4 -7.02 4 -6 4 C-6 3.34 -6 2.68 -6 2 C-2.25 0 -2.25 0 0 0 Z " fill="#B3A3AF" transform="translate(33,33)"/>
<path d="M0 0 C0.556875 0.226875 1.11375 0.45375 1.6875 0.6875 C0.6975 1.0175 -0.2925 1.3475 -1.3125 1.6875 C-1.3125 2.3475 -1.3125 3.0075 -1.3125 3.6875 C-2.9625 4.3475 -4.6125 5.0075 -6.3125 5.6875 C-6.6425 4.6975 -6.9725 3.7075 -7.3125 2.6875 C-2.88173077 -0.38942308 -2.88173077 -0.38942308 0 0 Z " fill="#723D3B" transform="translate(57.3125,15.3125)"/>
<path d="M0 0 C3.1875 -0.3125 3.1875 -0.3125 7 0 C9.9375 2.5 9.9375 2.5 12 5 C7.61110675 4.33501617 4.0188515 2.81242323 0 1 C0 0.67 0 0.34 0 0 Z " fill="#F3DEDE" transform="translate(62,15)"/>
<path d="M0 0 C2.97 0 5.94 0 9 0 C6.61426621 1.89213369 4.92824652 3.02391783 2 4 C-0.1875 3.0625 -0.1875 3.0625 -2 2 C-1.34 2 -0.68 2 0 2 C0 1.34 0 0.68 0 0 Z " fill="#DB8CA3" transform="translate(48,14)"/>
<path d="M0 0 C0.99 0.66 1.98 1.32 3 2 C-1.95 4.97 -1.95 4.97 -7 8 C-7 7.01 -7 6.02 -7 5 C-5.46875 3.61328125 -5.46875 3.61328125 -3.5 2.3125 C-2.8503125 1.87550781 -2.200625 1.43851563 -1.53125 0.98828125 C-1.0259375 0.66214844 -0.520625 0.33601563 0 0 Z " fill="#50888C" transform="translate(62,55)"/>
<path d="M0 0 C2.12038635 2.61514317 4.13091744 5.19637616 6 8 C4.68 8.33 3.36 8.66 2 9 C2 7.35 2 5.7 2 4 C1.01 4.33 0.02 4.66 -1 5 C-0.67 3.35 -0.34 1.7 0 0 Z " fill="#E4E9E6" transform="translate(28,52)"/>
<path d="M0 0 C0 0.66 0 1.32 0 2 C-1.43503555 2.36402369 -2.87316506 2.71586591 -4.3125 3.0625 C-5.11300781 3.25972656 -5.91351563 3.45695312 -6.73828125 3.66015625 C-9 4 -9 4 -12 3 C-10.5682384 2.30062798 -9.12932968 1.61587282 -7.6875 0.9375 C-6.48673828 0.36322266 -6.48673828 0.36322266 -5.26171875 -0.22265625 C-3 -1 -3 -1 0 0 Z " fill="#744D46" transform="translate(37,36)"/>
<path d="M0 0 C0.66 0 1.32 0 2 0 C2 0.66 2 1.32 2 2 C2.66 2 3.32 2 4 2 C4 3.32 4 4.64 4 6 C5.32 6.33 6.64 6.66 8 7 C5.69 7 3.38 7 1 7 C0.67 4.69 0.34 2.38 0 0 Z " fill="#CC8795" transform="translate(13,28)"/>
<path d="M0 0 C0.66 0 1.32 0 2 0 C3.4783226 2.95664519 3.06032783 5.74229737 3 9 C2.34 9 1.68 9 1 9 C0.67 6.03 0.34 3.06 0 0 Z " fill="#825B33" transform="translate(8,54)"/>
<path d="M0 0 C0 0.99 0 1.98 0 3 C-2.64 3.66 -5.28 4.32 -8 5 C-8.33 4.01 -8.66 3.02 -9 2 C-5.86501708 0.14223235 -3.62528568 -0.20140476 0 0 Z " fill="#536158" transform="translate(36,47)"/>
<path d="M0 0 C0 1.32 0 2.64 0 4 C0.66 4.33 1.32 4.66 2 5 C1.38125 4.79375 0.7625 4.5875 0.125 4.375 C-0.57625 4.25125 -1.2775 4.1275 -2 4 C-2.66 4.66 -3.32 5.32 -4 6 C-4.99 5.67 -5.98 5.34 -7 5 C-2.25 0 -2.25 0 0 0 Z " fill="#A2794B" transform="translate(25,17)"/>
<path d="M0 0 C2.97 0 5.94 0 9 0 C9 0.99 9 1.98 9 3 C9.99 3.33 10.98 3.66 12 4 C11.01 4.33 10.02 4.66 9 5 C7.65599167 4.01439389 6.32392972 3.01241685 5 2 C2.35065178 1.28566879 2.35065178 1.28566879 0 1 C0 0.67 0 0.34 0 0 Z " fill="#D2889F" transform="translate(64,14)"/>
<path d="M0 0 C-0.33 0.99 -0.66 1.98 -1 3 C-3.875 3.625 -3.875 3.625 -7 4 C-7.66 3.34 -8.32 2.68 -9 2 C-5.62902617 0.50178941 -3.79557881 0 0 0 Z " fill="#E2D5D8" transform="translate(41,14)"/>
<path d="M0 0 C-3.4856746 2.32378307 -5.86476981 2.63078302 -10 3 C-10.99 2.67 -11.98 2.34 -13 2 C-8.50343896 -0.24828052 -4.92127034 -0.16682272 0 0 Z " fill="#653A30" transform="translate(76,21)"/>
<path d="M0 0 C-4.455 2.97 -4.455 2.97 -9 6 C-9 3 -9 3 -7.6875 1.375 C-4.83663561 -0.94792654 -3.48907273 -1.16302424 0 0 Z " fill="#D78198" transform="translate(46,22)"/>
<path d="M0 0 C4.455 2.97 4.455 2.97 9 6 C8.34 6.66 7.68 7.32 7 8 C5.82512964 7.24172908 4.66027408 6.46792245 3.5 5.6875 C2.52546875 5.04361328 2.52546875 5.04361328 1.53125 4.38671875 C1.0259375 3.92910156 0.520625 3.47148437 0 3 C0 2.01 0 1.02 0 0 Z " fill="#4D422D" transform="translate(73,12)"/>
<path d="M0 0 C0.66 0 1.32 0 2 0 C1.5359375 1.1446875 1.5359375 1.1446875 1.0625 2.3125 C0.32106407 4.18789677 -0.36228217 6.08684652 -1 8 C-1.66 8 -2.32 8 -3 8 C-2.25 2.25 -2.25 2.25 0 0 Z " fill="#35281A" transform="translate(49,74)"/>
<path d="M0 0 C0.86625 0.4640625 0.86625 0.4640625 1.75 0.9375 C3.84294184 1.92583364 5.74535275 2.5168613 8 3 C7.34 4.32 6.68 5.64 6 7 C1.125 2.25 1.125 2.25 0 0 Z " fill="#7C512B" transform="translate(15,74)"/>
<path d="M0 0 C0.6875 1.75 0.6875 1.75 1 4 C-0.3125 6.25 -0.3125 6.25 -2 8 C-2.66 8 -3.32 8 -4 8 C-2.25 2.25 -2.25 2.25 0 0 Z " fill="#F1D9DC" transform="translate(21,25)"/>
<path d="M0 0 C1.22589844 0.01353516 1.22589844 0.01353516 2.4765625 0.02734375 C3.41628906 0.04474609 3.41628906 0.04474609 4.375 0.0625 C-0.79833569 2.69776912 -0.79833569 2.69776912 -3.625 3.0625 C-4.615 2.4025 -5.605 1.7425 -6.625 1.0625 C-4.21954362 -0.14022819 -2.67503047 -0.03821472 0 0 Z " fill="#574A3B" transform="translate(36.625,59.9375)"/>
<path d="M0 0 C0.66 0 1.32 0 2 0 C2 2.31 2 4.62 2 7 C1.01 6.67 0.02 6.34 -1 6 C-0.67 4.02 -0.34 2.04 0 0 Z " fill="#E3ECE6" transform="translate(25,43)"/>
<path d="M0 0 C1.32 0.33 2.64 0.66 4 1 C3.625 2.9375 3.625 2.9375 3 5 C2.01 5.495 2.01 5.495 1 6 C0.67 4.02 0.34 2.04 0 0 Z " fill="#E1DCD6" transform="translate(81,34)"/>
<path d="M0 0 C2.46800047 1.15173355 4.04783565 2.04783565 6 4 C7.31747324 4.69748583 8.64914193 5.36959957 10 6 C7.25 6.375 7.25 6.375 4 6 C1.625 3 1.625 3 0 0 Z " fill="#5D4D36" transform="translate(44,83)"/>
<path d="M0 0 C0.33 0.66 0.66 1.32 1 2 C3.32156597 2.40729228 5.6568787 2.74438677 8 3 C6.68 3.99 5.36 4.98 4 6 C3.67 5.34 3.34 4.68 3 4 C2.01 3.67 1.02 3.34 0 3 C0 2.01 0 1.02 0 0 Z " fill="#5CB5BB" transform="translate(34,68)"/>
<path d="M0 0 C2.31 0 4.62 0 7 0 C7 0.66 7 1.32 7 2 C5.02 2.33 3.04 2.66 1 3 C0.67 2.01 0.34 1.02 0 0 Z " fill="#7A613E" transform="translate(47,60)"/>
<path d="M0 0 C1.32 0.66 2.64 1.32 4 2 C4 2.99 4 3.98 4 5 C2.35 4.67 0.7 4.34 -1 4 C-0.67 2.68 -0.34 1.36 0 0 Z " fill="#88CDCC" transform="translate(14,37)"/>
<path d="M0 0 C0 0.99 0 1.98 0 3 C-2.64 3.33 -5.28 3.66 -8 4 C-5.57415142 1.34311822 -3.76063134 0 0 0 Z " fill="#5A2B27" transform="translate(44,33)"/>
</svg>
