<?xml version="1.0" encoding="UTF-8"?>
<svg version="1.1" xmlns="http://www.w3.org/2000/svg" width="100" height="100">
<path d="M0 0 C2.86970644 1.85837877 4.9860628 3.78923387 7.18359375 6.4140625 C7.663125 6.96578125 8.14265625 7.5175 8.63671875 8.0859375 C18.42718385 20.05206151 21.49752831 35.28739093 20.18359375 50.4140625 C18.0074516 61.50496878 13.50080966 69.83720421 4.18359375 76.4140625 C-2.84490868 80.77116258 -9.67649422 81.37461173 -17.81640625 80.4140625 C-27.47546527 78.11493437 -34.84831908 71.7704484 -40.49609375 63.76171875 C-47.23761363 51.77457836 -47.21870185 38.63007072 -43.85546875 25.6171875 C-40.23612091 14.45979943 -34.32301062 4.22622662 -23.81640625 -1.5859375 C-15.4920181 -5.3697503 -7.80864303 -4.3611454 0 0 Z " fill="#EAB939" transform="translate(62.81640625,11.5859375)"/>
<path d="M0 0 C2.86970644 1.85837877 4.9860628 3.78923387 7.18359375 6.4140625 C7.663125 6.96578125 8.14265625 7.5175 8.63671875 8.0859375 C18.42718385 20.05206151 21.49752831 35.28739093 20.18359375 50.4140625 C18.0074516 61.50496878 13.50080966 69.83720421 4.18359375 76.4140625 C-2.84490868 80.77116258 -9.67649422 81.37461173 -17.81640625 80.4140625 C-27.47546527 78.11493437 -34.84831908 71.7704484 -40.49609375 63.76171875 C-47.23761363 51.77457836 -47.21870185 38.63007072 -43.85546875 25.6171875 C-40.23612091 14.45979943 -34.32301062 4.22622662 -23.81640625 -1.5859375 C-15.4920181 -5.3697503 -7.80864303 -4.3611454 0 0 Z M-26.81640625 4.4140625 C-27.42226563 4.91035156 -28.028125 5.40664063 -28.65234375 5.91796875 C-37.82516664 14.22958774 -42.02330354 25.76826388 -43.1328125 37.86328125 C-43.53831706 49.75372142 -40.73202572 59.4430271 -32.81640625 68.4140625 C-32.81640625 67.4240625 -32.81640625 66.4340625 -32.81640625 65.4140625 C-32.2853125 65.57390625 -31.75421875 65.73375 -31.20703125 65.8984375 C-23.60184023 67.53877282 -14.60011542 67.5457043 -7.81640625 63.4140625 C0.95223258 57.26697549 6.45804003 48.75623211 9.18359375 38.4140625 C9.45949832 35.30465033 9.46318884 32.22137805 9.43359375 29.1015625 C9.44132812 28.29783203 9.4490625 27.49410156 9.45703125 26.66601562 C9.43667948 20.3417031 9.21655889 13.60636722 5.73828125 8.14453125 C-1.00699183 1.94829202 -6.74798026 -1.42060985 -16.14453125 -1.03125 C-20.53560784 -0.2994039 -23.44258175 1.59297095 -26.81640625 4.4140625 Z " fill="#CE8823" transform="translate(62.81640625,11.5859375)"/>
<path d="M0 0 C2.86970644 1.85837877 4.9860628 3.78923387 7.18359375 6.4140625 C7.663125 6.96578125 8.14265625 7.5175 8.63671875 8.0859375 C18.42718385 20.05206151 21.49752831 35.28739093 20.18359375 50.4140625 C18.0074516 61.50496878 13.50080966 69.83720421 4.18359375 76.4140625 C-2.84490868 80.77116258 -9.67649422 81.37461173 -17.81640625 80.4140625 C-27.47546527 78.11493437 -34.84831908 71.7704484 -40.49609375 63.76171875 C-47.23761363 51.77457836 -47.21870185 38.63007072 -43.85546875 25.6171875 C-40.23612091 14.45979943 -34.32301062 4.22622662 -23.81640625 -1.5859375 C-15.4920181 -5.3697503 -7.80864303 -4.3611454 0 0 Z M-26.81640625 4.4140625 C-27.42226563 4.91035156 -28.028125 5.40664063 -28.65234375 5.91796875 C-37.82516664 14.22958774 -42.02330354 25.76826388 -43.1328125 37.86328125 C-43.49865157 48.59062697 -41.39938302 58.26839836 -34.44921875 66.66796875 C-27.73179308 73.85143591 -21.97693779 77.50391618 -12.00390625 77.9140625 C-3.19890933 77.68973137 2.95627057 75.08691203 9.05859375 68.7265625 C17.21042046 58.59445713 17.78091033 47.13782072 17.015625 34.6796875 C15.66991086 24.23061299 10.05201488 11.62885631 1.94921875 4.67578125 C-3.96208117 0.45155587 -8.75412485 -1.33748231 -16.14453125 -1.03125 C-20.53560784 -0.2994039 -23.44258175 1.59297095 -26.81640625 4.4140625 Z " fill="#1E1912" transform="translate(62.81640625,11.5859375)"/>
<path d="M0 0 C0.66 0.33 1.32 0.66 2 1 C0.01143838 4.53728563 -2.14312527 7.37867471 -4.9375 10.3125 C-13.87048775 20.25985633 -16.65238051 32.28740091 -16.359375 45.53125 C-15.56716026 53.17784443 -12.71584237 60.31148373 -9 67 C-10.485 67.495 -10.485 67.495 -12 68 C-19.78820708 57.25658391 -21.3816366 45.7059971 -19.53125 32.70703125 C-16.8992735 19.59414831 -11.0063395 7.90630064 0 0 Z " fill="#1A1914" transform="translate(37,11)"/>
<path d="M0 0 C2.86970644 1.85837877 4.9860628 3.78923387 7.18359375 6.4140625 C7.663125 6.96578125 8.14265625 7.5175 8.63671875 8.0859375 C15.44944949 16.41260841 19.25958623 25.60631586 18.18359375 36.4140625 C16.22370916 33.47423562 15.43911961 31.26581536 14.43359375 27.9140625 C10.9557285 17.36581184 6.49115256 8.87269896 -2.81640625 2.4140625 C-6.44094167 0.6251037 -9.35105269 0.14165441 -13.37890625 0.1640625 C-14.30832031 0.15890625 -15.23773438 0.15375 -16.1953125 0.1484375 C-18.82298475 0.25786419 -18.82298475 0.25786419 -20.96875 1.4921875 C-22.81640625 2.4140625 -22.81640625 2.4140625 -25.81640625 1.4140625 C-20.07632954 -7.19605256 -7.66576804 -4.28134939 0 0 Z " fill="#1A1712" transform="translate(62.81640625,11.5859375)"/>
<path d="M0 0 C0.33 0 0.66 0 1 0 C3.24252806 12.08777318 2.95376736 24.49579882 -3.37890625 35.3671875 C-4.75 37.3125 -4.75 37.3125 -7 40 C-7.66 38.68 -8.32 37.36 -9 36 C-8.401875 35.21625 -7.80375 34.4325 -7.1875 33.625 C-2.10263287 25.78959976 -1.68126475 17.88145019 -2.02246094 8.80151367 C-2.19577819 3.29366728 -2.19577819 3.29366728 0 0 Z " fill="#16120C" transform="translate(81,42)"/>
<path d="M0 0 C0.33 0 0.66 0 1 0 C3.34338333 10.34518005 2.59238068 20.40018382 -2 30 C-4.96287838 34.65398762 -8.21704573 39.10555347 -13 42 C-13.99 41.67 -14.98 41.34 -16 41 C-15.22076172 40.41605469 -15.22076172 40.41605469 -14.42578125 39.8203125 C-6.79002682 33.69477198 -2.31950927 25.78891764 -1 16 C-0.52237092 10.6751181 -0.24625371 5.33981722 0 0 Z " fill="#DEAC36" transform="translate(78,44)"/>
<path d="M0 0 C0.33 0 0.66 0 1 0 C0.96519531 1.06476562 0.93039063 2.12953125 0.89453125 3.2265625 C0.5955581 16.32826413 1.33907457 27.93421882 9 39 C8.67 39.66 8.34 40.32 8 41 C-0.05326365 31.87296786 -2.62072282 22.22164269 -2.2734375 10.16015625 C-1.95557697 6.48659674 -1.30906987 3.43630842 0 0 Z " fill="#F0E6B5" transform="translate(22,39)"/>
<path d="M0 0 C3.23697199 0.58027792 4.76702351 1.49354037 7.0625 3.8125 C13.09377073 9.20821747 21.0711084 11.29520964 29 12 C29 12.33 29 12.66 29 13 C18.74296963 13.65656667 12.03813752 13.13429989 4.12109375 6.40234375 C2.4375 4.8125 2.4375 4.8125 0 2 C0 1.34 0 0.68 0 0 Z " fill="#14120F" transform="translate(26,78)"/>
<path d="M0 0 C0.99 0 1.98 0 3 0 C2.69306887 5.98515697 -0.22910606 10.49893296 -4 15 C-4.66 15 -5.32 15 -6 15 C-6.45826062 9.2717423 -5.55825861 6.5001506 -2 2 C-1.34 1.34 -0.68 0.68 0 0 Z " fill="#FBEFB7" transform="translate(36,20)"/>
<path d="M0 0 C0.66 0.99 1.32 1.98 2 3 C1.360625 3.86625 0.72125 4.7325 0.0625 5.625 C-1.97548296 8.9598812 -2.63433093 11.16047478 -3 15 C-3.66 14.01 -4.32 13.02 -5 12 C-5.66 12 -6.32 12 -7 12 C-7.12375 12.763125 -7.2475 13.52625 -7.375 14.3125 C-8 17 -8 17 -10 20 C-9.66075349 12.19733016 -5.72456703 5.27894206 0 0 Z " fill="#E5C86D" transform="translate(33,19)"/>
<path d="M0 0 C0.99 0 1.98 0 3 0 C5.77471079 6.24309927 6.37634203 11.19796625 6 18 C3.98996365 14.98494548 3.00828459 12.42503788 1.875 9 C1.52179688 7.948125 1.16859375 6.89625 0.8046875 5.8125 C0 3 0 3 0 0 Z " fill="#0F0D09" transform="translate(75,30)"/>
<path d="M0 0 C0.66 0.33 1.32 0.66 2 1 C-0.32121701 5.51347752 -2.90712143 8.10087768 -7 11 C-7.99 10.67 -8.98 10.34 -10 10 C-3.84965831 2.51708428 -3.84965831 2.51708428 0 0 Z " fill="#26251B" transform="translate(37,11)"/>
<path d="M0 0 C1.06347656 -0.01417969 2.12695312 -0.02835938 3.22265625 -0.04296875 C5.9375 0.1875 5.9375 0.1875 7.9375 2.1875 C7.11765625 2.23648437 6.2978125 2.28546875 5.453125 2.3359375 C4.37546875 2.41070312 3.2978125 2.48546875 2.1875 2.5625 C0.58648437 2.66691406 0.58648437 2.66691406 -1.046875 2.7734375 C-4.01545153 3.01646358 -4.01545153 3.01646358 -6.265625 4.2890625 C-6.85859375 4.58554688 -7.4515625 4.88203125 -8.0625 5.1875 C-9.0525 4.8575 -10.0425 4.5275 -11.0625 4.1875 C-8.03825859 -0.34886212 -5.12881648 0.03115927 0 0 Z " fill="#060505" transform="translate(48.0625,8.8125)"/>
<path d="M0 0 C0.33 0 0.66 0 1 0 C1.15855469 0.9178125 1.31710938 1.835625 1.48046875 2.78125 C2.91928116 10.34892633 4.6309445 15.68914205 9 22 C8.67 22.66 8.34 23.32 8 24 C3.32309477 18.44522907 -1.12053107 12.46407507 -0.953125 4.875 C-0.6875 2.9375 -0.6875 2.9375 0 0 Z " fill="#EEDEA1" transform="translate(22,56)"/>
<path d="M0 0 C0.33 0.66 0.66 1.32 1 2 C1.66 2 2.32 2 3 2 C2.34 5.3 1.68 8.6 1 12 C0.01 12.33 -0.98 12.66 -2 13 C-1.85851011 11.3954444 -1.71164314 9.79136233 -1.5625 8.1875 C-1.48128906 7.29417969 -1.40007813 6.40085937 -1.31640625 5.48046875 C-1 3 -1 3 0 0 Z " fill="#2A2824" transform="translate(20,34)"/>
<path d="M0 0 C1.32 0.33 2.64 0.66 4 1 C2.02 3.97 0.04 6.94 -2 10 C-2.66 8.68 -3.32 7.36 -4 6 C-2.68 4.02 -1.36 2.04 0 0 Z " fill="#2B2721" transform="translate(76,72)"/>
<path d="M0 0 C0.33 0 0.66 0 1 0 C1.88277755 4.51815281 2.10589503 8.77512694 2.0625 13.375 C2.05347656 14.62023438 2.04445313 15.86546875 2.03515625 17.1484375 C2.02355469 18.08945312 2.01195313 19.03046875 2 20 C1.67 20 1.34 20 1 20 C0.95101562 19.39671875 0.90203125 18.7934375 0.8515625 18.171875 C0.77679688 17.37265625 0.70203125 16.5734375 0.625 15.75 C0.55539063 14.96109375 0.48578125 14.1721875 0.4140625 13.359375 C-0.01573427 10.91034436 -0.87207864 9.19500049 -2 7 C-1.6875 4.9375 -1.6875 4.9375 -1 3 C-0.67 2.01 -0.34 1.02 0 0 Z " fill="#2F291A" transform="translate(81,42)"/>
<path d="M0 0 C5.28 0.99 10.56 1.98 16 3 C16 3.33 16 3.66 16 4 C13.70839681 4.02692484 11.41670454 4.04636124 9.125 4.0625 C7.84882812 4.07410156 6.57265625 4.08570312 5.2578125 4.09765625 C2 4 2 4 0 3 C0 2.01 0 1.02 0 0 Z " fill="#0D0C09" transform="translate(39,87)"/>
<path d="M0 0 C0.33 0 0.66 0 1 0 C1 3.63 1 7.26 1 11 C0.01 11 -0.98 11 -2 11 C-2 8.03 -2 5.06 -2 2 C-1.34 2 -0.68 2 0 2 C0 1.34 0 0.68 0 0 Z " fill="#14130F" transform="translate(19,45)"/>
<path d="M0 0 C2.375 0.625 2.375 0.625 5 2 C6.3125 5.125 6.3125 5.125 7 8 C6.01 8.33 5.02 8.66 4 9 C0 2.25 0 2.25 0 0 Z " fill="#1C160F" transform="translate(70,22)"/>
<path d="M0 0 C0.33 0.99 0.66 1.98 1 3 C-1.97 5.475 -1.97 5.475 -5 8 C-5.66 7.67 -6.32 7.34 -7 7 C-5.66667905 3.00003714 -3.5042173 2.16217663 0 0 Z " fill="#14120F" transform="translate(72,80)"/>
<path d="M0 0 C0.99 0.33 1.98 0.66 3 1 C1.90716423 2.03295436 0.80029421 3.05107835 -0.3125 4.0625 C-0.92738281 4.63097656 -1.54226562 5.19945313 -2.17578125 5.78515625 C-2.77777344 6.18605469 -3.37976563 6.58695312 -4 7 C-4.99 6.67 -5.98 6.34 -7 6 C-5.90716423 4.96704564 -4.80029421 3.94892165 -3.6875 2.9375 C-3.07261719 2.36902344 -2.45773438 1.80054687 -1.82421875 1.21484375 C-0.92123047 0.61349609 -0.92123047 0.61349609 0 0 Z " fill="#CEA033" transform="translate(69,79)"/>
<path d="M0 0 C0.99 0 1.98 0 3 0 C3.33 2.31 3.66 4.62 4 7 C3.34 7 2.68 7 2 7 C2 6.01 2 5.02 2 4 C1.34 4 0.68 4 0 4 C0 2.68 0 1.36 0 0 Z " fill="#222119" transform="translate(17,56)"/>
<path d="M0 0 C0.66 0.33 1.32 0.66 2 1 C2 1.66 2 2.32 2 3 C0.1875 4.0625 0.1875 4.0625 -2 5 C-2.99 4.67 -3.98 4.34 -5 4 C-3 1 -3 1 0 0 Z " fill="#13120F" transform="translate(42,9)"/>
</svg>
