<?xml version="1.0" encoding="UTF-8"?>
<svg version="1.1" xmlns="http://www.w3.org/2000/svg" width="100" height="100">
<path d="M0 0 C0.66451172 0.16395264 1.32902344 0.32790527 2.01367188 0.49682617 C6.49049416 1.8339456 8.91616577 3.48084492 11.1875 7.5625 C11.55646679 10.37187707 11.70528405 12.7107767 11.625 15.5 C11.63208984 16.19029297 11.63917969 16.88058594 11.64648438 17.59179688 C11.5711387 23.70638823 9.93700722 27.72327446 5.75 32.125 C-7.01673088 41.83270979 -25.83933328 43.84556045 -41.30078125 42.31640625 C-48.0519396 41.18538318 -54.1388478 37.94522297 -58.41796875 32.53125 C-59.66076307 30.57776684 -60.77077085 28.6292237 -61.8125 26.5625 C-62.17859375 25.88316406 -62.5446875 25.20382813 -62.921875 24.50390625 C-64.20665873 21.70330313 -64.12350847 19.61038303 -63.8125 16.5625 C-62.4375 13.6875 -62.4375 13.6875 -60.8125 11.5625 C-60.1525 11.5625 -59.4925 11.5625 -58.8125 11.5625 C-58.565 10.964375 -58.3175 10.36625 -58.0625 9.75 C-56.03673998 6.20491996 -53.63255844 4.83585281 -49.8125 3.5625 C-48.16622133 3.45980643 -46.51653295 3.40767095 -44.8671875 3.38671875 C-30.66303162 3.09457295 -30.66303162 3.09457295 -16.8125 0.25 C-10.784128 -1.47343347 -6.10408193 -1.510023 0 0 Z " fill="#622819" transform="translate(75.8125,27.4375)"/>
<path d="M0 0 C2.375 1.5 2.375 1.5 4 3 C3.8011936 6.47911196 3.10520945 7.88310062 0.75 10.5 C-9.12126696 18.00405666 -22.8742174 20.44093755 -35 20 C-36.68865701 20 -38.37699903 20.08430606 -40.0625 20.1875 C-44.6521843 19.9689436 -48.89522219 19.14047427 -53 17 C-53.33 16.01 -53.66 15.02 -54 14 C-49.88888889 8.44444444 -49.88888889 8.44444444 -47 7 C-45.47264255 6.83796351 -43.93979926 6.72608412 -42.40625 6.640625 C-31.816293 5.9488507 -21.90022645 4.93036329 -11.76171875 1.67675781 C-7.70250894 0.3811417 -4.26687741 -0.38961178 0 0 Z " fill="#C67832" transform="translate(79,37)"/>
<path d="M0 0 C2 2 2 2 2.375 5.75 C2.25542588 10.15032749 0.8561402 12.60350895 -2 16 C-13.82039425 26.49340698 -30.91251676 27.83172454 -46 27 C-54.07020281 25.92979719 -54.07020281 25.92979719 -57 23 C-57.825 23.020625 -58.65 23.04125 -59.5 23.0625 C-60.325 23.041875 -61.15 23.02125 -62 23 C-64 20 -64 20 -63.625 17.8125 C-63.41875 17.214375 -63.2125 16.61625 -63 16 C-61.68 16 -60.36 16 -59 16 C-58.67 14.68 -58.34 13.36 -58 12 C-55.65865324 12.54031079 -53.45581464 13.19348813 -51.1875 14 C-47.79463091 15.06442952 -44.52524029 15.57697117 -41 16 C-40.67 15.01 -40.34 14.02 -40 13 C-39.67 13.66 -39.34 14.32 -39 15 C-27.58950688 15.68462959 -14.88919501 12.78655683 -5 7 C-2.97884274 4.74269378 -1.35332436 2.70664871 0 0 Z " fill="#964519" transform="translate(83,41)"/>
<path d="M0 0 C0.495 0.99 0.495 0.99 1 2 C3.01669827 3.13350534 3.01669827 3.13350534 5 4 C-0.05236773 6.02094709 -4.73220416 7.4611529 -10.1171875 8.27734375 C-12.20164682 8.85735854 -12.20164682 8.85735854 -13.2578125 11.06640625 C-13.50273438 11.70449219 -13.74765625 12.34257813 -14 13 C-13.67 13 -13.34 13 -13 13 C-12.525625 12.34 -12.05125 11.68 -11.5625 11 C-8.06348698 8.26906301 -5.54177572 8.80148714 -1.2421875 9.15234375 C-0.13230469 9.07693359 -0.13230469 9.07693359 1 9 C1.66 8.01 2.32 7.02 3 6 C6.125 5.8125 6.125 5.8125 9 6 C8.4225 6.2475 7.845 6.495 7.25 6.75 C4.87143489 7.8836925 4.87143489 7.8836925 3.3125 10.125 C0.18309115 12.66235853 -1.98381756 12.2089208 -5.87890625 11.84765625 C-8.62260791 12.0447177 -9.17624457 13.0329142 -11 15 C-14.5 15.8125 -14.5 15.8125 -18 16 C-18.99 15.34 -19.98 14.68 -21 14 C-23.28397032 14.34605611 -24.93409037 14.96704519 -27 16 C-30.23479014 16.14703592 -33.11513012 15.9804496 -36.3125 15.4375 C-37.199375 15.293125 -38.08625 15.14875 -39 15 C-39.33 15.33 -39.66 15.66 -40 16 C-38.02 16 -36.04 16 -34 16 C-34.78375 16.61875 -35.5675 17.2375 -36.375 17.875 C-38.96837647 19.89858661 -38.96837647 19.89858661 -41 22 C-45.23963281 22.31404687 -48.36534398 22.32617985 -52 20 C-51.65221564 16.78299472 -51.49927596 15.40849852 -48.9375 13.3125 C-48.298125 12.879375 -47.65875 12.44625 -47 12 C-47 11.34 -47 10.68 -47 10 C-42.30408622 5.78915863 -36.36925979 6.56160985 -30.4375 6.5 C-22.75530047 6.31170517 -15.73494351 6.01400109 -8.3671875 3.71875 C-5.60400836 2.87976491 -2.85257249 2.42995295 0 2 C0 1.34 0 0.68 0 0 Z " fill="#AE4025" transform="translate(67,26)"/>
<path d="M0 0 C2 2 2 2 2.265625 3.875 C2.26046875 4.57625 2.2553125 5.2775 2.25 6 C2.25773437 7.051875 2.25773437 7.051875 2.265625 8.125 C2 10 2 10 0 12 C-0.495 11.01 -0.495 11.01 -1 10 C-1.67482422 10.47179687 -1.67482422 10.47179687 -2.36328125 10.953125 C-15.03502127 19.38402217 -29.96815167 21.60200363 -45 21 C-47.328125 20.44921875 -47.328125 20.44921875 -49.25 19.6875 C-49.89453125 19.44386719 -50.5390625 19.20023438 -51.203125 18.94921875 C-53.19543434 17.89675969 -54.49257592 16.66095802 -56 15 C-56 17.64 -56 20.28 -56 23 C-58.875 23.1875 -58.875 23.1875 -62 23 C-64 20 -64 20 -63.625 17.8125 C-63.41875 17.214375 -63.2125 16.61625 -63 16 C-61.68 16 -60.36 16 -59 16 C-58.67 14.68 -58.34 13.36 -58 12 C-55.65865324 12.54031079 -53.45581464 13.19348813 -51.1875 14 C-47.79463091 15.06442952 -44.52524029 15.57697117 -41 16 C-40.67 15.01 -40.34 14.02 -40 13 C-39.67 13.66 -39.34 14.32 -39 15 C-27.58950688 15.68462959 -14.88919501 12.78655683 -5 7 C-2.97884274 4.74269378 -1.35332436 2.70664871 0 0 Z " fill="#AB5720" transform="translate(83,41)"/>
<path d="M0 0 C0.495 0.99 0.495 0.99 1 2 C3.01669827 3.13350534 3.01669827 3.13350534 5 4 C-0.05236773 6.02094709 -4.73220416 7.4611529 -10.1171875 8.27734375 C-12.20164682 8.85735854 -12.20164682 8.85735854 -13.2578125 11.06640625 C-13.50273438 11.70449219 -13.74765625 12.34257813 -14 13 C-16.475 12.505 -16.475 12.505 -19 12 C-19 11.67 -19 11.34 -19 11 C-27.91 11 -36.82 11 -46 11 C-41.50573384 6.50573384 -41.50573384 6.50573384 -36.78125 6.49609375 C-35.77175293 6.47933594 -34.76225586 6.46257813 -33.72216797 6.4453125 C-32.65885254 6.44273438 -31.59553711 6.44015625 -30.5 6.4375 C-22.78143127 6.28126762 -15.76948623 6.02476207 -8.3671875 3.71875 C-5.60400836 2.87976491 -2.85257249 2.42995295 0 2 C0 1.34 0 0.68 0 0 Z " fill="#D18E51" transform="translate(67,26)"/>
<path d="M0 0 C-2.5811964 1.7207976 -4.42662463 2.61051002 -7.3125 3.5625 C-8.05113281 3.81128906 -8.78976563 4.06007813 -9.55078125 4.31640625 C-17.32897534 6.48735356 -25.30396064 6.32060359 -33.32226562 6.51757812 C-34.88170898 6.56881836 -34.88170898 6.56881836 -36.47265625 6.62109375 C-37.88430054 6.65867798 -37.88430054 6.65867798 -39.32446289 6.69702148 C-42.17956301 7.02033376 -44.39272957 7.81852981 -47 9 C-47 9.66 -47 10.32 -47 11 C-46.34 11.33 -45.68 11.66 -45 12 C-45.969375 12.309375 -46.93875 12.61875 -47.9375 12.9375 C-51.11268557 14.62117901 -51.11268557 14.62117901 -51.69140625 17.09765625 C-52.37269748 22.33693111 -52.37269748 22.33693111 -50 27 C-50.99 27 -51.98 27 -53 27 C-55.10306598 23.58251778 -55.40603518 20.97914475 -55 17 C-53.625 14.125 -53.625 14.125 -52 12 C-51.34 12 -50.68 12 -50 12 C-49.7525 11.401875 -49.505 10.80375 -49.25 10.1875 C-47.22423998 6.64241996 -44.82005844 5.27335281 -41 4 C-39.28361139 3.88573918 -37.56362406 3.82190522 -35.84375 3.7890625 C-34.30847656 3.74652344 -34.30847656 3.74652344 -32.7421875 3.703125 C-30.61213749 3.65179849 -28.48190946 3.60731605 -26.3515625 3.5703125 C-19.99668639 3.38014164 -14.40221676 2.55250173 -8.3269043 0.65258789 C-5.49770999 -0.14086887 -2.92188803 -0.23690984 0 0 Z " fill="#54291C" transform="translate(67,27)"/>
<path d="M0 0 C0 0.33 0 0.66 0 1 C-2.31 1.66 -4.62 2.32 -7 3 C-7 3.66 -7 4.32 -7 5 C-7.99 4.67 -8.98 4.34 -10 4 C-11.58448573 4.56695346 -13.14346288 5.20568645 -14.6875 5.875 C-23.94070014 9.19519882 -33.80701828 8.73821642 -43.53320312 8.8581543 C-45.82562523 8.98997311 -47.80212011 9.35788311 -50 10 C-48.26406243 7.45258866 -46.79240182 6.15882265 -43.73925781 5.546875 C-40.86802974 5.29473642 -38.00424908 5.1320672 -35.125 5 C-26.87712206 4.47622307 -19.76627658 3.39580664 -11.90625 0.8203125 C-7.79218415 -0.34091576 -4.24352448 -0.29265686 0 0 Z " fill="#E5AD6C" transform="translate(78,38)"/>
<path d="M0 0 C0.66 0 1.32 0 2 0 C1 3 1 3 -1.59765625 4.5 C-16.78439208 11.07464099 -34.76472977 15.50176517 -51 10 C-54.0625 8.5 -54.0625 8.5 -56 7 C-56 6.34 -56 5.68 -56 5 C-53.03824877 5.61277612 -51.61941217 6.25372522 -49 8 C-32.05442364 11.1849517 -16.56957796 7.80557024 -1 1 C-0.67 0.67 -0.34 0.34 0 0 Z " fill="#5E3926" transform="translate(79,58)"/>
<path d="M0 0 C3.125 -0.1875 3.125 -0.1875 6 0 C5.13375 0.37125 5.13375 0.37125 4.25 0.75 C1.87143489 1.8836925 1.87143489 1.8836925 0.3125 4.125 C-2.81690885 6.66235853 -4.98381756 6.2089208 -8.87890625 5.84765625 C-11.62260791 6.0447177 -12.17624457 7.0329142 -14 9 C-17.5 9.8125 -17.5 9.8125 -21 10 C-21.99 9.34 -22.98 8.68 -24 8 C-26.28397032 8.34605611 -27.93409037 8.96704519 -30 10 C-34.79390495 10.33445849 -38.48883754 9.44357199 -43 8 C-42.67 7.34 -42.34 6.68 -42 6 C-41.24074219 6.09539063 -40.48148438 6.19078125 -39.69921875 6.2890625 C-38.20841797 6.45535156 -38.20841797 6.45535156 -36.6875 6.625 C-35.20830078 6.79902344 -35.20830078 6.79902344 -33.69921875 6.9765625 C-30.77342584 7.25476995 -30.77342584 7.25476995 -28 5 C-22.44444444 5.55555556 -22.44444444 5.55555556 -21 7 C-18.62694422 7.41780879 -18.62694422 7.41780879 -16 7 C-15.443125 6.34 -14.88625 5.68 -14.3125 5 C-11.47465269 2.54564557 -10.52394279 2.8066197 -6.875 2.9375 C-6.00617187 3.00839844 -5.13734375 3.07929687 -4.2421875 3.15234375 C-3.13230469 3.07693359 -3.13230469 3.07693359 -2 3 C-1.34 2.01 -0.68 1.02 0 0 Z " fill="#DFBE57" transform="translate(70,32)"/>
<path d="M0 0 C0.33 0.66 0.66 1.32 1 2 C2.60875 1.9071875 2.60875 1.9071875 4.25 1.8125 C8 2 8 2 10.4375 3.25 C12 5 12 5 12 9 C6.06 8.01 6.06 8.01 0 7 C0 6.67 0 6.34 0 6 C1.98 6 3.96 6 6 6 C5.34 5.67 4.68 5.34 4 5 C4 4.34 4 3.68 4 3 C1.06556598 3.26656572 1.06556598 3.26656572 -2 4 C-2.99 5.485 -2.99 5.485 -4 7 C-6.8203125 7.29296875 -6.8203125 7.29296875 -10.125 7.1875 C-11.76855469 7.14689453 -11.76855469 7.14689453 -13.4453125 7.10546875 C-14.28835937 7.07066406 -15.13140625 7.03585938 -16 7 C-16.66 8.32 -17.32 9.64 -18 11 C-19.65 11 -21.3 11 -23 11 C-23.33 10.34 -23.66 9.68 -24 9 C-23.195625 9.020625 -22.39125 9.04125 -21.5625 9.0625 C-19.06645115 9.29633621 -19.06645115 9.29633621 -18 8 C-18.66 7.34 -19.32 6.68 -20 6 C-19.42967041 5.85377197 -18.85934082 5.70754395 -18.27172852 5.55688477 C-15.70105211 4.89565885 -13.13177426 4.22915229 -10.5625 3.5625 C-9.66466797 3.33240234 -8.76683594 3.10230469 -7.84179688 2.86523438 C-6.98779297 2.64287109 -6.13378906 2.42050781 -5.25390625 2.19140625 C-4.46314697 1.98717041 -3.6723877 1.78293457 -2.85766602 1.57250977 C-1.0038412 1.15967047 -1.0038412 1.15967047 0 0 Z " fill="#935032" transform="translate(72,29)"/>
<path d="M0 0 C1.32 0 2.64 0 4 0 C4 1.32 4 2.64 4 4 C-5.78825436 6.11094574 -14.92403162 7.465841 -25 7 C-24.67 6.34 -24.34 5.68 -24 5 C-21.68925595 4.25881795 -19.35188447 3.59793673 -17 3 C-16.2575 2.7525 -15.515 2.505 -14.75 2.25 C-13 2 -13 2 -10 4 C-5.4098067 3.75409679 -3.07805419 3.37120221 0 0 Z " fill="#72361A" transform="translate(59,37)"/>
<path d="M0 0 C0.33 0.66 0.66 1.32 1 2 C1.928125 1.773125 2.85625 1.54625 3.8125 1.3125 C5.3903125 1.1578125 5.3903125 1.1578125 7 1 C8.69921875 2.48046875 8.69921875 2.48046875 10 4 C9.45730469 4.3403125 8.91460937 4.680625 8.35546875 5.03125 C2.82669133 8.77687218 0.77596839 11.56211457 -1 18 C-2.32 18 -3.64 18 -5 18 C-4.67 19.32 -4.34 20.64 -4 22 C-4.99 21.67 -5.98 21.34 -7 21 C-8.1875 18.4375 -8.1875 18.4375 -9 16 C-6.69 16 -4.38 16 -2 16 C-1.938125 15.29875 -1.87625 14.5975 -1.8125 13.875 C-0.69528762 9.92178696 1.20187383 8.00286711 4 5 C4.66 4.67 5.32 4.34 6 4 C4.35 4 2.7 4 1 4 C0.67 2.68 0.34 1.36 0 0 Z " fill="#5E2411" transform="translate(25,39)"/>
<path d="M0 0 C0.33 0.99 0.66 1.98 1 3 C4.00007271 4.70855022 4.00007271 4.70855022 7 6 C7.33 5.01 7.66 4.02 8 3 C8 4.65 8 6.3 8 8 C5 8 5 8 2 6 C-0.28776178 5.93846206 -0.28776178 5.93846206 -2.75 6.3125 C-4.06871094 6.47492187 -4.06871094 6.47492187 -5.4140625 6.640625 C-6.69410156 6.81851563 -6.69410156 6.81851563 -8 7 C-8.72960937 7.09796875 -9.45921875 7.1959375 -10.2109375 7.296875 C-11.80908955 7.51865937 -13.40489536 7.75726669 -15 8 C-14.67 7.34 -14.34 6.68 -14 6 C-12.865625 5.87625 -11.73125 5.7525 -10.5625 5.625 C-8.7990625 5.315625 -8.7990625 5.315625 -7 5 C-5.8499169 3.03327085 -5.8499169 3.03327085 -5 1 C-2.375 0.25 -2.375 0.25 0 0 Z " fill="#652D12" transform="translate(77,32)"/>
<path d="M0 0 C-9.41366678 6.27577785 -20.14791335 6.47262136 -31 5 C-31 4.67 -31 4.34 -31 4 C-30.11699219 3.96261719 -29.23398437 3.92523437 -28.32421875 3.88671875 C-21.33161687 3.50366537 -15.052316 2.67055332 -8.35546875 0.6328125 C-5.51663357 -0.12985964 -2.924529 -0.23712397 0 0 Z " fill="#644130" transform="translate(67,27)"/>
<path d="M0 0 C0.763125 0.20625 1.52625 0.4125 2.3125 0.625 C1.714375 0.91375 1.11625 1.2025 0.5 1.5 C-1.88077792 2.67242026 -1.88077792 2.67242026 -4.6875 4.625 C-9.45299564 5.05822688 -13.2028968 4.06007302 -17.6875 2.625 C-17.3575 1.965 -17.0275 1.305 -16.6875 0.625 C-15.92824219 0.72039063 -15.16898438 0.81578125 -14.38671875 0.9140625 C-12.89591797 1.08035156 -12.89591797 1.08035156 -11.375 1.25 C-9.89580078 1.42402344 -9.89580078 1.42402344 -8.38671875 1.6015625 C-4.73630068 1.63325933 -3.65835858 -0.51046864 0 0 Z " fill="#DCBD5C" transform="translate(44.6875,37.375)"/>
<path d="M0 0 C-3.4932521 2.32883474 -4.92922578 2 -9 2 C-9.99 2.66 -10.98 3.32 -12 4 C-16.18055914 3.69595934 -19.33176351 2.96714221 -23 1 C-15.30881404 0.24833087 -7.72772107 -0.13690844 0 0 Z " fill="#682F1B" transform="translate(51,36)"/>
<path d="M0 0 C1.65 0 3.3 0 5 0 C5.66 2.31 6.32 4.62 7 7 C4.125 7.1875 4.125 7.1875 1 7 C-1 4 -1 4 -0.625 1.8125 C-0.41875 1.214375 -0.2125 0.61625 0 0 Z " fill="#B36227" transform="translate(20,57)"/>
<path d="M0 0 C0.33 0.66 0.66 1.32 1 2 C1.66 2.33 2.32 2.66 3 3 C-10.44874715 7.59225513 -10.44874715 7.59225513 -18 7 C-18 6.67 -18 6.34 -18 6 C-16.12577848 5.51779737 -14.25058246 5.03938167 -12.375 4.5625 C-10.80878906 4.16224609 -10.80878906 4.16224609 -9.2109375 3.75390625 C-6.15108876 3.03547461 -3.1051949 2.48023284 0 2 C0 1.34 0 0.68 0 0 Z " fill="#BA7739" transform="translate(67,26)"/>
<path d="M0 0 C-1.62395997 0.50336767 -3.24920541 1.00258976 -4.875 1.5 C-5.77992187 1.7784375 -6.68484375 2.056875 -7.6171875 2.34375 C-10 3 -10 3 -12 3 C-12.66 4.32 -13.32 5.64 -14 7 C-15.65 7 -17.3 7 -19 7 C-19.33 6.34 -19.66 5.68 -20 5 C-18.7934375 5.0309375 -18.7934375 5.0309375 -17.5625 5.0625 C-15.06645115 5.29633621 -15.06645115 5.29633621 -14 4 C-14.66 3.34 -15.32 2.68 -16 2 C-14.08654673 1.46748234 -12.1690705 0.94940517 -10.25 0.4375 C-9.18265625 0.14746094 -8.1153125 -0.14257812 -7.015625 -0.44140625 C-4.15664073 -0.97098494 -2.68402617 -0.98370862 0 0 Z " fill="#68361D" transform="translate(68,33)"/>
<path d="M0 0 C1.65 0.33 3.3 0.66 5 1 C5.33 2.65 5.66 4.3 6 6 C0.06 5.01 0.06 5.01 -6 4 C-6 3.67 -6 3.34 -6 3 C-4.02 3 -2.04 3 0 3 C0 2.01 0 1.02 0 0 Z " fill="#A5361C" transform="translate(78,32)"/>
<path d="M0 0 C5.13503344 0.64187918 9.9943454 1.68272247 15 3 C14.67 3.66 14.34 4.32 14 5 C11.03 4.67 8.06 4.34 5 4 C5 3.34 5 2.68 5 2 C3.35 1.67 1.7 1.34 0 1 C0 0.67 0 0.34 0 0 Z " fill="#5B3626" transform="translate(68,27)"/>
<path d="M0 0 C2 2 2 2 2.125 5.625 C2.08375 6.73875 2.0425 7.8525 2 9 C-0.97 8.505 -0.97 8.505 -4 8 C-2.68 5.36 -1.36 2.72 0 0 Z " fill="#B25F25" transform="translate(83,41)"/>
<path d="M0 0 C2.96175123 0.61277612 4.38058783 1.25372522 7 3 C9.32387947 3.39387788 11.65793749 3.73486085 14 4 C13.34 4.66 12.68 5.32 12 6 C7.26153746 5.73178514 3.80717821 4.88422592 0 2 C0 1.34 0 0.68 0 0 Z " fill="#542B16" transform="translate(23,63)"/>
<path d="M0 0 C0.99 0.66 1.98 1.32 3 2 C1.02528784 4.67166939 -0.18834025 5.04708506 -3.5 5.875 C-7 6 -7 6 -8.9375 4.5625 C-9.4634375 3.7890625 -9.4634375 3.7890625 -10 3 C-7 3 -7 3 -4.4375 3.1875 C-3.633125 3.125625 -2.82875 3.06375 -2 3 C-1.34 2.01 -0.68 1.02 0 0 Z " fill="#DAB241" transform="translate(56,36)"/>
<path d="M0 0 C2.64 0.66 5.28 1.32 8 2 C7.67 2.99 7.34 3.98 7 5 C4.625 5.125 4.625 5.125 2 5 C1.34 4.34 0.68 3.68 0 3 C0 2.01 0 1.02 0 0 Z " fill="#912D17" transform="translate(17,46)"/>
<path d="M0 0 C1.21236328 0.01353516 1.21236328 0.01353516 2.44921875 0.02734375 C3.37154297 0.04474609 3.37154297 0.04474609 4.3125 0.0625 C4.3125 0.3925 4.3125 0.7225 4.3125 1.0625 C2.0025 1.7225 -0.3075 2.3825 -2.6875 3.0625 C-2.6875 3.7225 -2.6875 4.3825 -2.6875 5.0625 C-3.3475 5.0625 -4.0075 5.0625 -4.6875 5.0625 C-6.3125 3.0625 -6.3125 3.0625 -7.6875 1.0625 C-4.80538698 0.10179566 -2.98899956 -0.04331883 0 0 Z " fill="#DA9D59" transform="translate(73.6875,37.9375)"/>
<path d="M0 0 C0.33 0 0.66 0 1 0 C1 1.65 1 3.3 1 5 C-2 5 -2 5 -5 3 C-6.9896995 2.60986284 -8.99019869 2.26797351 -11 2 C-11 1.67 -11 1.34 -11 1 C-3.57142857 0.71428571 -3.57142857 0.71428571 0 3 C0 2.01 0 1.02 0 0 Z " fill="#5F2010" transform="translate(84,35)"/>
<path d="M0 0 C-4 2 -8 4 -12 6 C-10.2890625 2.15625 -10.2890625 2.15625 -7.6875 0.75 C-4.98166314 -0.00511726 -2.79292118 -0.1595955 0 0 Z " fill="#502F1F" transform="translate(31,31)"/>
<path d="M0 0 C1.5 1.375 1.5 1.375 3 3 C3 3.66 3 4.32 3 5 C3.66 5.33 4.32 5.66 5 6 C3.68 6.33 2.36 6.66 1 7 C-1 4 -1 4 -0.625 1.8125 C-0.41875 1.214375 -0.2125 0.61625 0 0 Z " fill="#7E4926" transform="translate(20,57)"/>
<path d="M0 0 C2.64 0.33 5.28 0.66 8 1 C8 2.32 8 3.64 8 5 C7.34 5 6.68 5 6 5 C6 4.34 6 3.68 6 3 C3.03 2.505 3.03 2.505 0 2 C0 1.34 0 0.68 0 0 Z " fill="#87552E" transform="translate(20,36)"/>
<path d="M0 0 C-0.33 0.99 -0.66 1.98 -1 3 C-4.5625 4.6875 -4.5625 4.6875 -8 6 C-6.72879117 2.18637351 -4.19078006 0 0 0 Z " fill="#623D2F" transform="translate(81,58)"/>
<path d="M0 0 C2.31 0.33 4.62 0.66 7 1 C6.01 1.33 5.02 1.66 4 2 C4.33 3.32 4.66 4.64 5 6 C4.01 5.67 3.02 5.34 2 5 C0.8125 2.4375 0.8125 2.4375 0 0 Z " fill="#5A2B19" transform="translate(16,55)"/>
<path d="M0 0 C2.625 0.9375 2.625 0.9375 5 2 C1.91190305 3.76462683 0.76687864 4 -3 4 C-2.67 3.01 -2.34 2.02 -2 1 C-1.34 0.67 -0.68 0.34 0 0 Z " fill="#E0A461" transform="translate(55,42)"/>
</svg>
