<?xml version="1.0" encoding="UTF-8"?>
<svg version="1.1" xmlns="http://www.w3.org/2000/svg" width="100" height="100">
<path d="M0 0 C2.92761527 0.32529059 5.32615294 0.59569177 7.875 2.125 C9.611916 5.01986 9.18630572 7.70859897 9 11 C9.61359375 11.2578125 10.2271875 11.515625 10.859375 11.78125 C14.50673146 13.85784711 15.76610277 17.09265878 17 21 C17.30601646 24.36618101 17.2484669 27.63189318 17 31 C17.99 31.33 18.98 31.66 20 32 C21.36952673 34.73905345 21.12621361 36.97087332 21 40 C20.505 40.99 20.505 40.99 20 42 C19.34 42 18.68 42 18 42 C17.95101562 42.68707031 17.90203125 43.37414063 17.8515625 44.08203125 C17.77679688 44.98308594 17.70203125 45.88414063 17.625 46.8125 C17.55539063 47.70582031 17.48578125 48.59914062 17.4140625 49.51953125 C17 52 17 52 15 55 C14.01 55 13.02 55 12 55 C11.87882812 55.88300781 11.75765625 56.76601562 11.6328125 57.67578125 C10.81356619 63.54284523 9.9777135 69.4069979 9 75.25 C8.855625 76.12140625 8.71125 76.9928125 8.5625 77.890625 C8 80 8 80 6 82 C2.29994112 83.36684528 -1.53634514 83.16816821 -5.4375 83.1875 C-6.73558594 83.20167969 -8.03367187 83.21585937 -9.37109375 83.23046875 C-12.86354833 83.00866593 -15.05044222 82.8682317 -18 81 C-20.15044653 76.41469304 -20.78426843 71.28396882 -21.625 66.3125 C-21.7590625 65.55388672 -21.893125 64.79527344 -22.03125 64.01367188 C-22.55734945 60.97249498 -23 58.09217665 -23 55 C-24.32 54.67 -25.64 54.34 -27 54 C-27.18175781 53.18015625 -27.36351562 52.3603125 -27.55078125 51.515625 C-27.80214844 50.43796875 -28.05351562 49.3603125 -28.3125 48.25 C-28.55613281 47.18265625 -28.79976562 46.1153125 -29.05078125 45.015625 C-29.81632303 41.99583696 -29.81632303 41.99583696 -31.609375 39.8671875 C-33.29757939 37.60044116 -33.30980483 36.63320198 -32.9375 33.875 C-32.628125 32.59625 -32.31875 31.3175 -32 30 C-30.99453125 29.51273438 -30.99453125 29.51273438 -29.96875 29.015625 C-29.3190625 28.68046875 -28.669375 28.3453125 -28 28 C-27.48310314 26.07503597 -27.48310314 26.07503597 -27.5625 23.875 C-27.17098959 18.58109841 -25.52923863 14.97039346 -22 11 C-16.50590839 6.60690691 -11.76637818 4.84517923 -4.75 4.9375 C-3.85796875 4.94652344 -2.9659375 4.95554687 -2.046875 4.96484375 C-1.37140625 4.97644531 -0.6959375 4.98804688 0 5 C0 3.35 0 1.7 0 0 Z " fill="#DB9C5E" transform="translate(56,8)"/>
<path d="M0 0 C0.99 0.33 1.98 0.66 3 1 C3.6875 3.75 3.6875 3.75 4 7 C2.5625 9.375 2.5625 9.375 1 11 C2.32 10.34 3.64 9.68 5 9 C12.30988024 17.46407186 12.30988024 17.46407186 12.125 23.75 C12.10695312 24.54921875 12.08890625 25.3484375 12.0703125 26.171875 C12.04710937 26.77515625 12.02390625 27.3784375 12 28 C11.01 28.33 10.02 28.66 9 29 C10.98 29.66 12.96 30.32 15 31 C15.38218767 32.65614657 15.71395102 34.32457024 16 36 C15 37 15 37 11.9375 37.0625 C10.968125 37.041875 9.99875 37.02125 9 37 C9 38.98 9 40.96 9 43 C8.01 42.67 7.02 42.34 6 42 C6 40.35 6 38.7 6 37 C3.36 37 0.72 37 -2 37 C-2 38.32 -2 39.64 -2 41 C-3.32 40.67 -4.64 40.34 -6 40 C-6 39.01 -6 38.02 -6 37 C-6.78238037 37.00523682 -7.56476074 37.01047363 -8.37084961 37.01586914 C-11.89305833 37.03657106 -15.4152543 37.04963838 -18.9375 37.0625 C-20.16919922 37.07087891 -21.40089844 37.07925781 -22.66992188 37.08789062 C-23.83974609 37.09111328 -25.00957031 37.09433594 -26.21484375 37.09765625 C-27.84087524 37.10551147 -27.84087524 37.10551147 -29.49975586 37.11352539 C-32 37 -32 37 -33 36 C-33.1875 32.5625 -33.1875 32.5625 -33 29 C-32.34 28.34 -31.68 27.68 -31 27 C-27.875 27.375 -27.875 27.375 -25 28 C-26.32 27.34 -27.64 26.68 -29 26 C-28.96639487 18.74129162 -27.14818076 14.15982823 -22 9 C-16.783695 4.48344323 -11.65137161 4.56224977 -5 5 C-4.34 5 -3.68 5 -3 5 C-1.3553326 2.53673288 -1.3553326 2.53673288 0 0 Z " fill="#70D1E0" transform="translate(59,11)"/>
<path d="M0 0 C2.92761527 0.32529059 5.32615294 0.59569177 7.875 2.125 C9.611916 5.01986 9.18630572 7.70859897 9 11 C9.61359375 11.2578125 10.2271875 11.515625 10.859375 11.78125 C14.50673146 13.85784711 15.76610277 17.09265878 17 21 C17.30601646 24.36618101 17.2484669 27.63189318 17 31 C17.99 31.33 18.98 31.66 20 32 C21.36952673 34.73905345 21.12621361 36.97087332 21 40 C20.505 40.99 20.505 40.99 20 42 C19.34 42 18.68 42 18 42 C17.95101562 42.68707031 17.90203125 43.37414063 17.8515625 44.08203125 C17.77679688 44.98308594 17.70203125 45.88414063 17.625 46.8125 C17.55539063 47.70582031 17.48578125 48.59914062 17.4140625 49.51953125 C17 52 17 52 15 55 C14.01 55 13.02 55 12 55 C11.87882812 55.88300781 11.75765625 56.76601562 11.6328125 57.67578125 C10.81356619 63.54284523 9.9777135 69.4069979 9 75.25 C8.855625 76.12140625 8.71125 76.9928125 8.5625 77.890625 C8 80 8 80 6 82 C2.29994112 83.36684528 -1.53634514 83.16816821 -5.4375 83.1875 C-6.73558594 83.20167969 -8.03367187 83.21585937 -9.37109375 83.23046875 C-12.86354833 83.00866593 -15.05044222 82.8682317 -18 81 C-20.15044653 76.41469304 -20.78426843 71.28396882 -21.625 66.3125 C-21.7590625 65.55388672 -21.893125 64.79527344 -22.03125 64.01367188 C-22.55734945 60.97249498 -23 58.09217665 -23 55 C-24.32 54.67 -25.64 54.34 -27 54 C-27.18175781 53.18015625 -27.36351562 52.3603125 -27.55078125 51.515625 C-27.80214844 50.43796875 -28.05351562 49.3603125 -28.3125 48.25 C-28.55613281 47.18265625 -28.79976562 46.1153125 -29.05078125 45.015625 C-29.81632303 41.99583696 -29.81632303 41.99583696 -31.609375 39.8671875 C-33.29757939 37.60044116 -33.30980483 36.63320198 -32.9375 33.875 C-32.628125 32.59625 -32.31875 31.3175 -32 30 C-30.99453125 29.51273438 -30.99453125 29.51273438 -29.96875 29.015625 C-29.3190625 28.68046875 -28.669375 28.3453125 -28 28 C-27.48310314 26.07503597 -27.48310314 26.07503597 -27.5625 23.875 C-27.17098959 18.58109841 -25.52923863 14.97039346 -22 11 C-16.50590839 6.60690691 -11.76637818 4.84517923 -4.75 4.9375 C-3.85796875 4.94652344 -2.9659375 4.95554687 -2.046875 4.96484375 C-1.37140625 4.97644531 -0.6959375 4.98804688 0 5 C0 3.35 0 1.7 0 0 Z M3 3 C2.54625 3.825 2.0925 4.65 1.625 5.5 C1.08875 6.325 0.5525 7.15 0 8 C-2 8 -2 8 -4.1015625 7.82421875 C-10.77130013 7.46285526 -14.94669077 8.56431746 -20 13 C-24.75991027 17.77175085 -25.83469705 22.37285459 -26 29 C-24.02 29.99 -22.04 30.98 -20 32 C-22.51796153 30.41461682 -23.67865586 29.9626344 -26.6875 30.3125 C-28.94160952 30.78284847 -28.94160952 30.78284847 -30 32 C-30.16666667 35.5 -30.16666667 35.5 -30 39 C-28.94049948 40.28426897 -28.94049948 40.28426897 -26.49975586 40.11352539 C-24.87372437 40.10567017 -24.87372437 40.10567017 -23.21484375 40.09765625 C-22.04501953 40.09443359 -20.87519531 40.09121094 -19.66992188 40.08789062 C-18.43822266 40.07951172 -17.20652344 40.07113281 -15.9375 40.0625 C-14.70193359 40.05798828 -13.46636719 40.05347656 -12.19335938 40.04882812 C-9.12885883 40.03699608 -6.06445279 40.02051173 -3 40 C-2.67 41.32 -2.34 42.64 -2 44 C-1.01 44 -0.02 44 1 44 C1 42.68 1 41.36 1 40 C3.64 40 6.28 40 9 40 C9 41.65 9 43.3 9 45 C9.99 45.33 10.98 45.66 12 46 C12 44.02 12 42.04 12 40 C13.98 40 15.96 40 18 40 C18.67958603 37.60280568 18.67958603 37.60280568 19 35 C16.64046906 32.64046906 15.22104383 32.50858587 12 32 C12.99 31.67 13.98 31.34 15 31 C15.65055683 24.75465439 14.90383622 20.85705384 11.38671875 15.62890625 C9.90711994 13.74020171 9.90711994 13.74020171 7 12 C6.34 12.33 5.68 12.66 5 13 C5.66 12.01 6.32 11.02 7 10 C6.68493373 6.85778033 6.68493373 6.85778033 6 4 C5.01 3.67 4.02 3.34 3 3 Z M-26 42 C-25.91036938 43.69141656 -25.75422324 45.37959602 -25.5625 47.0625 C-25.46066406 47.98160156 -25.35882813 48.90070312 -25.25390625 49.84765625 C-25.17011719 50.55792969 -25.08632813 51.26820312 -25 52 C-21.62902617 53.49821059 -19.79557881 54 -16 54 C-16 54.66 -16 55.32 -16 56 C-17.32 56 -18.64 56 -20 56 C-19.58229515 61.68298443 -19.04857677 67.3572264 -18.25 73 C-18.13140625 73.886875 -18.0128125 74.77375 -17.890625 75.6875 C-17.15023337 78.17504491 -17.15023337 78.17504491 -14.828125 79.7890625 C-11.52071557 81.20521847 -9.09021961 81.40016509 -5.5 81.375 C-4.3965625 81.38273437 -3.293125 81.39046875 -2.15625 81.3984375 C1.48222364 80.93912523 3.25184337 80.446589 6 78 C6.87280806 75.26837889 7.41430537 72.98500753 7.8125 70.1875 C7.99329102 69.13852539 7.99329102 69.13852539 8.17773438 68.06835938 C8.84181783 64.01175815 9.12293864 60.12167957 9 56 C7.68 56 6.36 56 5 56 C5 55.34 5 54.68 5 54 C6.27875 53.9175 7.5575 53.835 8.875 53.75 C12.10115674 53.40608063 12.10115674 53.40608063 14.5 51.375 C15.1658591 48.21216928 15.12387601 45.22077636 15 42 C14.67 42 14.34 42 14 42 C13.67 43.65 13.34 45.3 13 47 C11.68 47 10.36 47 9 47 C8.505 44.525 8.505 44.525 8 42 C5.58380177 41.74969023 5.58380177 41.74969023 3 42 C2.01 43.485 2.01 43.485 1 45 C-0.32 45 -1.64 45 -3 45 C-3.33 44.01 -3.66 43.02 -4 42 C-8.65191107 41.088428 -13.0753929 40.86570244 -17.8125 40.875 C-18.49248047 40.87113281 -19.17246094 40.86726563 -19.87304688 40.86328125 C-23.22043606 40.57950168 -23.22043606 40.57950168 -26 42 Z " fill="#1B1815" transform="translate(56,8)"/>
<path d="M0 0 C7.92 0.33 15.84 0.66 24 1 C23.67 3.97 23.34 6.94 23 10 C22.93039063 11.33998047 22.93039063 11.33998047 22.859375 12.70703125 C22.66817075 16.38771302 22.3487377 18.50695705 20.1875 21.5625 C15.29843577 23.7673721 10.28469459 23.67132014 5 23 C2.58808847 20.58808847 2.58863466 19.53242518 2.1484375 16.2109375 C2.03161621 15.36321777 1.91479492 14.51549805 1.79443359 13.64208984 C1.65602051 12.5639502 1.51760742 11.48581055 1.375 10.375 C0.92125 6.95125 0.4675 3.5275 0 0 Z " fill="#E4AB6F" transform="translate(36,65)"/>
<path d="M0 0 C2.92761527 0.32529059 5.32615294 0.59569177 7.875 2.125 C9.611916 5.01986 9.18630572 7.70859897 9 11 C9.61359375 11.2578125 10.2271875 11.515625 10.859375 11.78125 C14.50673146 13.85784711 15.76610277 17.09265878 17 21 C17.30601646 24.36618101 17.2484669 27.63189318 17 31 C17.99 31.33 18.98 31.66 20 32 C21.36952673 34.73905345 21.12621361 36.97087332 21 40 C20.505 40.99 20.505 40.99 20 42 C19.34 42 18.68 42 18 42 C17.95101562 42.68707031 17.90203125 43.37414063 17.8515625 44.08203125 C17.77679688 44.98308594 17.70203125 45.88414063 17.625 46.8125 C17.55539063 47.70582031 17.48578125 48.59914062 17.4140625 49.51953125 C17 52 17 52 15 55 C14.01 55 13.02 55 12 55 C11.87882812 55.88300781 11.75765625 56.76601562 11.6328125 57.67578125 C10.81356619 63.54284523 9.9777135 69.4069979 9 75.25 C8.855625 76.12140625 8.71125 76.9928125 8.5625 77.890625 C8 80 8 80 6 82 C2.2629651 83.39586646 -1.62150225 83.13270479 -5.5625 83.125 C-6.23474609 83.12886719 -6.90699219 83.13273437 -7.59960938 83.13671875 C-10.67499752 83.13061073 -13.06026313 82.97991229 -16 82 C-16 81.34 -16 80.68 -16 80 C-14.22882812 80.03480469 -14.22882812 80.03480469 -12.421875 80.0703125 C-10.86458967 80.08907497 -9.30729748 80.10727466 -7.75 80.125 C-6.58404297 80.15013672 -6.58404297 80.15013672 -5.39453125 80.17578125 C-4.26337891 80.18544922 -4.26337891 80.18544922 -3.109375 80.1953125 C-2.41811523 80.20578613 -1.72685547 80.21625977 -1.01464844 80.22705078 C1.48104052 79.94578676 2.94709006 79.46542124 5 78 C5.91799437 75.70923161 5.91799437 75.70923161 6.265625 72.9921875 C6.43320312 72.00605469 6.60078125 71.01992187 6.7734375 70.00390625 C6.93070313 68.97136719 7.08796875 67.93882813 7.25 66.875 C7.50910156 65.31458984 7.50910156 65.31458984 7.7734375 63.72265625 C8.19818265 61.15058843 8.60627033 58.57696705 9 56 C7.68 56 6.36 56 5 56 C5 55.34 5 54.68 5 54 C5.56589844 53.89042969 6.13179687 53.78085937 6.71484375 53.66796875 C7.81505859 53.43013672 7.81505859 53.43013672 8.9375 53.1875 C9.66839844 53.03667969 10.39929688 52.88585938 11.15234375 52.73046875 C11.76207031 52.48941406 12.37179688 52.24835937 13 52 C13.96070434 49.11788698 14.10581883 47.30149956 14.0625 44.3125 C14.05347656 43.50425781 14.04445313 42.69601563 14.03515625 41.86328125 C14.02355469 41.24839844 14.01195313 40.63351563 14 40 C15.98 39.505 15.98 39.505 18 39 C17.67 37.35 17.34 35.7 17 34 C15.02 33.67 13.04 33.34 11 33 C11.33 32.34 11.66 31.68 12 31 C12.99 31 13.98 31 15 31 C14.83349546 24.4609126 13.61934786 18.89971291 9 14 C6.37886292 14 4.49064888 14.31292445 2 15 C2.680625 14.29875 3.36125 13.5975 4.0625 12.875 C6.32514353 10.12787492 6.32514353 10.12787492 5.875 6.75 C5.58625 5.8425 5.2975 4.935 5 4 C4.34 3.67 3.68 3.34 3 3 C2.896875 3.598125 2.79375 4.19625 2.6875 4.8125 C1.91123545 7.28243264 0.92911079 8.32251235 -1 10 C-1.66 9.67 -2.32 9.34 -3 9 C-3 8.67 -3 8.34 -3 8 C-5.97 7.505 -5.97 7.505 -9 7 C-9 6.67 -9 6.34 -9 6 C-4.545 5.505 -4.545 5.505 0 5 C0 3.35 0 1.7 0 0 Z " fill="#211C1A" transform="translate(56,8)"/>
<path d="M0 0 C5.61 0 11.22 0 17 0 C16.46610545 5.03386292 15.89474106 10.01501407 15 15 C12.525 13.515 12.525 13.515 10 12 C10.33 11.01 10.66 10.02 11 9 C10.01 9 9.02 9 8 9 C7.01 8.34 6.02 7.68 5 7 C5.99 8.65 6.98 10.3 8 12 C6.6875 13.5 6.6875 13.5 5 15 C4.01 15 3.02 15 2 15 C1.67 13.02 1.34 11.04 1 9 C0.01 9.33 -0.98 9.66 -2 10 C-4 8 -4 8 -4.125 5.375 C-4.08375 4.59125 -4.0425 3.8075 -4 3 C-3.34 2.67 -2.68 2.34 -2 2 C-1.67 2.66 -1.34 3.32 -1 4 C-0.67 2.68 -0.34 1.36 0 0 Z " fill="#DDA063" transform="translate(43,66)"/>
<path d="M0 0 C0 0.66 0 1.32 0 2 C1.32 2 2.64 2 4 2 C3.69442308 5.00483974 3.35287342 8.0005759 3 11 C2.83371094 12.67642578 2.83371094 12.67642578 2.6640625 14.38671875 C2.52742188 15.53785156 2.39078125 16.68898438 2.25 17.875 C2.13140625 18.96554688 2.0128125 20.05609375 1.890625 21.1796875 C1 24 1 24 -1.15234375 25.87109375 C-4.56709155 27.22481407 -7.14996807 27.29848582 -10.8125 27.1875 C-12.55466797 27.14689453 -12.55466797 27.14689453 -14.33203125 27.10546875 C-15.65267578 27.05326172 -15.65267578 27.05326172 -17 27 C-17 26.67 -17 26.34 -17 26 C-16.39671875 25.96261719 -15.7934375 25.92523438 -15.171875 25.88671875 C-14.37265625 25.82097656 -13.5734375 25.75523438 -12.75 25.6875 C-11.96109375 25.62949219 -11.1721875 25.57148437 -10.359375 25.51171875 C-7.43745629 24.87799135 -6.05449173 24.18807976 -4 22 C-3.37160968 18.98051907 -3.37160968 18.98051907 -3.375 15.625 C-3.24445927 11.25690626 -2.86174211 7.97668114 -1 4 C-1.62044189 4.01047363 -2.24088379 4.02094727 -2.88012695 4.03173828 C-5.69087677 4.07330886 -8.5015619 4.09932933 -11.3125 4.125 C-12.28896484 4.14175781 -13.26542969 4.15851563 -14.27148438 4.17578125 C-15.20927734 4.18222656 -16.14707031 4.18867187 -17.11328125 4.1953125 C-17.97735596 4.20578613 -18.84143066 4.21625977 -19.73168945 4.22705078 C-22 4 -22 4 -25 2 C-21.09515273 0.79304721 -17.11477475 0.66283159 -13.0625 0.4375 C-12.35931641 0.39431641 -11.65613281 0.35113281 -10.93164062 0.30664062 C-7.28316422 0.09121981 -3.65477782 -0.05006545 0 0 Z " fill="#B46743" transform="translate(61,62)"/>
<path d="M0 0 C1.64671412 0.30782496 3.29235576 0.62139234 4.9375 0.9375 C5.85402344 1.11152344 6.77054688 1.28554688 7.71484375 1.46484375 C10 2 10 2 11 3 C11.04092937 5.33297433 11.04241723 7.66705225 11 10 C12.32 10.66 13.64 11.32 15 12 C5.58997722 12.3690205 5.58997722 12.3690205 1 10 C0.67 6.7 0.34 3.4 0 0 Z " fill="#E2AC74" transform="translate(30,50)"/>
<path d="M0 0 C2.89659753 0.32184417 5.31897331 0.61408488 7.875 2.0625 C9.71360478 5.22898602 9.81081614 8.45452216 9 12 C6.625 14.0625 6.625 14.0625 4 15 C3.34 14.67 2.68 14.34 2 14 C2.680625 13.46375 3.36125 12.9275 4.0625 12.375 C6.35609307 10.09848586 6.35609307 10.09848586 5.875 6.8125 C5.58625 5.884375 5.2975 4.95625 5 4 C4.34 3.67 3.68 3.34 3 3 C2.8453125 3.8971875 2.8453125 3.8971875 2.6875 4.8125 C1.91123545 7.28243264 0.92911079 8.32251235 -1 10 C-1.66 9.67 -2.32 9.34 -3 9 C-3 8.67 -3 8.34 -3 8 C-5.97 7.505 -5.97 7.505 -9 7 C-9 6.67 -9 6.34 -9 6 C-4.545 5.505 -4.545 5.505 0 5 C0 3.35 0 1.7 0 0 Z " fill="#141A1D" transform="translate(56,8)"/>
<path d="M0 0 C4.091918 2.87540184 6.30239493 5.26457533 8 10 C8.22733451 13.01959538 8.18125374 15.97910428 8 19 C2.25 22 2.25 22 0 22 C0 21.34 0 20.68 0 20 C0.66 19.608125 1.32 19.21625 2 18.8125 C4.35373647 17.07202326 4.35373647 17.07202326 4.4375 13.6875 C3.96884265 9.73738806 3.16503811 7.32487996 1 4 C-1.05093145 2.59533047 -1.05093145 2.59533047 -3 2 C-2.01 1.34 -1.02 0.68 0 0 Z " fill="#439BB3" transform="translate(63,20)"/>
<path d="M0 0 C2.475 0.99 2.475 0.99 5 2 C5 5 5 5 4 8 C1.23547967 9.38226016 -1.0461363 9.09525387 -4.125 9.0625 C-5.22070312 9.05347656 -6.31640625 9.04445313 -7.4453125 9.03515625 C-8.70988281 9.01775391 -8.70988281 9.01775391 -10 9 C-5.25 5 -5.25 5 -3 5 C-2.690625 4.360625 -2.38125 3.72125 -2.0625 3.0625 C-1 1 -1 1 0 0 Z " fill="#D7985C" transform="translate(51,79)"/>
<path d="M0 0 C0.33 0 0.66 0 1 0 C1.05391993 1.79133978 1.09275571 3.58313899 1.125 5.375 C1.14820312 6.37273437 1.17140625 7.37046875 1.1953125 8.3984375 C1 11 1 11 -1 13 C-4.7370349 14.39586646 -8.62150225 14.13270479 -12.5625 14.125 C-13.23474609 14.12886719 -13.90699219 14.13273437 -14.59960938 14.13671875 C-17.67499752 14.13061073 -20.06026313 13.97991229 -23 13 C-23 12.34 -23 11.68 -23 11 C-21.22882812 11.03480469 -21.22882812 11.03480469 -19.421875 11.0703125 C-17.86458967 11.08907497 -16.30729748 11.10727466 -14.75 11.125 C-13.58404297 11.15013672 -13.58404297 11.15013672 -12.39453125 11.17578125 C-6.82790761 11.3797368 -6.82790761 11.3797368 -2 9 C-1.08839907 6.82791412 -1.08839907 6.82791412 -0.75 4.375 C-0.60046875 3.55773437 -0.4509375 2.74046875 -0.296875 1.8984375 C-0.19890625 1.27195312 -0.1009375 0.64546875 0 0 Z " fill="#121010" transform="translate(63,77)"/>
<path d="M0 0 C2.31 0.33 4.62 0.66 7 1 C7.33 1.99 7.66 2.98 8 4 C7.01 5.485 7.01 5.485 6 7 C5.34 6.01 4.68 5.02 4 4 C4 5.65 4 7.3 4 9 C5.32 9.33 6.64 9.66 8 10 C8 11.32 8 12.64 8 14 C7.01 14 6.02 14 5 14 C4.34 15.32 3.68 16.64 3 18 C2.49645133 15.56318413 1.99703244 13.12564561 1.5 10.6875 C1.35691406 9.99720703 1.21382812 9.30691406 1.06640625 8.59570312 C0.47374956 5.67475227 0 2.98891878 0 0 Z " fill="#E2B282" transform="translate(36,65)"/>
<path d="M0 0 C4.13385555 1.7369141 5.38620033 3.66442569 7.25 7.625 C8.54261596 11.71828388 8.31283322 15.75937186 8 20 C8.99 20.33 9.98 20.66 11 21 C7.92677456 21.91058531 5.19902639 22.08886184 2 22 C2.33 21.34 2.66 20.68 3 20 C3.99 20 4.98 20 6 20 C5.84246312 13.81309705 4.71270175 9.75743073 1.05859375 4.7265625 C0 3 0 3 0 0 Z " fill="#2A2C2E" transform="translate(65,19)"/>
<path d="M0 0 C0.79921875 0.00902344 1.5984375 0.01804687 2.421875 0.02734375 C3.02515625 0.03894531 3.6284375 0.05054688 4.25 0.0625 C3.26 1.5475 3.26 1.5475 2.25 3.0625 C0.3671875 3.3984375 0.3671875 3.3984375 -1.875 3.4375 C-9.53334657 4.05312271 -14.72800504 8.56969301 -19.75 14.0625 C-19.33318127 9.1996148 -17.38015855 7.19763693 -13.75 4.0625 C-9.14679304 0.91884647 -5.53281271 -0.08136489 0 0 Z " fill="#1A1C1D" transform="translate(50.75,12.9375)"/>
<path d="M0 0 C0.66 0.99 1.32 1.98 2 3 C2.99 2.01 3.98 1.02 5 0 C4.70703125 5.95703125 4.70703125 5.95703125 4 8 C0.16117156 11.16138813 -2.94767723 11.33491887 -7.8125 11.1875 C-9.55466797 11.14689453 -9.55466797 11.14689453 -11.33203125 11.10546875 C-12.21246094 11.07066406 -13.09289063 11.03585938 -14 11 C-14 10.67 -14 10.34 -14 10 C-13.39671875 9.96261719 -12.7934375 9.92523438 -12.171875 9.88671875 C-8.65728122 9.59761507 -5.70651605 9.33559512 -2.5 7.8125 C-0.45061027 5.33615408 -0.2800342 3.15038474 0 0 Z " fill="#9F5D3D" transform="translate(58,78)"/>
<path d="M0 0 C2.37507855 -0.02719556 4.74983964 -0.04693247 7.125 -0.0625 C8.12273438 -0.07506836 8.12273438 -0.07506836 9.140625 -0.08789062 C13.20681354 -0.10782292 17.0120092 0.21109839 21 1 C21 1.66 21 2.32 21 3 C18.43721301 3.05420701 15.87558517 3.09377007 13.3125 3.125 C12.59126953 3.14175781 11.87003906 3.15851562 11.12695312 3.17578125 C6.95123219 3.21391569 3.7505862 2.8789919 0 1 C0 0.67 0 0.34 0 0 Z " fill="#C08450" transform="translate(31,49)"/>
<path d="M0 0 C0 0.33 0 0.66 0 1 C-0.56847656 1.14695312 -1.13695313 1.29390625 -1.72265625 1.4453125 C-8.13010032 3.30657338 -13.69539632 6.02358213 -17.15234375 11.98828125 C-18.25669519 14.60920747 -18.61715081 17.19243928 -19 20 C-19.33 20 -19.66 20 -20 20 C-20.54352084 14.92713884 -20.43204091 11.97571821 -17.4375 7.75 C-12.53667311 1.90582146 -7.85152811 -0.64094107 0 0 Z " fill="#ADDFE4" transform="translate(51,16)"/>
<path d="M0 0 C2.475 0.99 2.475 0.99 5 2 C5.125 7.75 5.125 7.75 4 10 C3.34 10 2.68 10 2 10 C2 11.32 2 12.64 2 14 C1.34 14 0.68 14 0 14 C0 15.65 0 17.3 0 19 C-0.33 19 -0.66 19 -1 19 C-1.33 15.37 -1.66 11.74 -2 8 C-0.68 7.67 0.64 7.34 2 7 C1.34414811 3.39007621 1.34414811 3.39007621 0 0 Z " fill="#151415" transform="translate(72,40)"/>
<path d="M0 0 C2 3 2 3 1.7578125 5.26171875 C1.54898437 6.06222656 1.34015625 6.86273438 1.125 7.6875 C0.92132812 8.49574219 0.71765625 9.30398437 0.5078125 10.13671875 C0.34023438 10.75160156 0.17265625 11.36648437 0 12 C1.175625 12.1546875 1.175625 12.1546875 2.375 12.3125 C5 13 5 13 7 16 C6.34 15.649375 5.68 15.29875 5 14.9375 C0.9486909 13.67146591 -1.83374555 14.29385518 -6 15 C-5.34 13.68 -4.68 12.36 -4 11 C-3.34 11 -2.68 11 -2 11 C-1.93941406 10.37351562 -1.87882812 9.74703125 -1.81640625 9.1015625 C-1.73261719 8.28429688 -1.64882813 7.46703125 -1.5625 6.625 C-1.48128906 5.81289063 -1.40007813 5.00078125 -1.31640625 4.1640625 C-1 2 -1 2 0 0 Z " fill="#1A1E1F" transform="translate(30,25)"/>
<path d="M0 0 C5.76471999 -0.10481309 11.2852729 0.26708873 17 1 C17.77472656 1.09539063 18.54945312 1.19078125 19.34765625 1.2890625 C21.23230746 1.52173549 23.11623622 1.76024825 25 2 C25 2.33 25 2.66 25 3 C16.75 3 8.5 3 0 3 C0 2.01 0 1.02 0 0 Z " fill="#4390A3" transform="translate(27,45)"/>
<path d="M0 0 C0.66 0 1.32 0 2 0 C3.625 2.5 3.625 2.5 5 5 C3.6875 6.5 3.6875 6.5 2 8 C1.01 8 0.02 8 -1 8 C-1.625 5.125 -1.625 5.125 -2 2 C-1.34 1.34 -0.68 0.68 0 0 Z " fill="#D9995B" transform="translate(46,73)"/>
<path d="M0 0 C0.33 0 0.66 0 1 0 C1.32211538 8.375 1.32211538 8.375 -1 11 C-4.625 11.75 -4.625 11.75 -8 12 C-7.525625 11.566875 -7.05125 11.13375 -6.5625 10.6875 C-4.76313043 8.97690387 -4.76313043 8.97690387 -4 6 C-3.01 5.67 -2.02 5.34 -1 5 C-0.67 3.35 -0.34 1.7 0 0 Z " fill="#A76140" transform="translate(70,50)"/>
<path d="M0 0 C0.28875 0.639375 0.5775 1.27875 0.875 1.9375 C1.82823451 4.15206079 1.82823451 4.15206079 4 5 C3.6875 7.375 3.6875 7.375 3 10 C2.01 10.66 1.02 11.32 0 12 C-0.19401633 10.18818595 -0.38004375 8.37551468 -0.5625 6.5625 C-0.66691406 5.55316406 -0.77132812 4.54382813 -0.87890625 3.50390625 C-0.91886719 2.67761719 -0.95882812 1.85132812 -1 1 C-0.67 0.67 -0.34 0.34 0 0 Z " fill="#BB6F48" transform="translate(59,70)"/>
<path d="M0 0 C1.98 0.99 1.98 0.99 4 2 C4.66 2 5.32 2 6 2 C6 3.32 6 4.64 6 6 C5.01 6 4.02 6 3 6 C2.34 7.32 1.68 8.64 1 10 C0.67 6.7 0.34 3.4 0 0 Z " fill="#ECBF8E" transform="translate(38,73)"/>
<path d="M0 0 C1.5 1.25 1.5 1.25 3 3 C3 4.32 3 5.64 3 7 C1.35 7.33 -0.3 7.66 -2 8 C-1.125 1.125 -1.125 1.125 0 0 Z " fill="#D49A62" transform="translate(41,78)"/>
<path d="M0 0 C0.99 0 1.98 0 3 0 C3.0825 0.61875 3.165 1.2375 3.25 1.875 C3.81258459 4.18437567 3.81258459 4.18437567 6.0625 5.25 C6.701875 5.4975 7.34125 5.745 8 6 C7.34 6 6.68 6 6 6 C5.67 7.32 5.34 8.64 5 10 C5 9.01 5 8.02 5 7 C3.68 6.67 2.36 6.34 1 6 C0.67 4.02 0.34 2.04 0 0 Z " fill="#322E2C" transform="translate(28,56)"/>
<path d="M0 0 C1.32 0.33 2.64 0.66 4 1 C4.38218767 2.65614657 4.71395102 4.32457024 5 6 C4 7 4 7 0.9375 7.0625 C-0.5165625 7.0315625 -0.5165625 7.0315625 -2 7 C-2 6.34 -2 5.68 -2 5 C-0.68 5 0.64 5 2 5 C1.34 3.35 0.68 1.7 0 0 Z " fill="#4297AE" transform="translate(70,41)"/>
<path d="M0 0 C0.66 0.99 1.32 1.98 2 3 C0.95125002 5.62187494 0.35068687 6.79371361 -2.125 8.25 C-2.74375 8.4975 -3.3625 8.745 -4 9 C-4 8.34 -4 7.68 -4 7 C-6.97 6.505 -6.97 6.505 -10 6 C-10 5.67 -10 5.34 -10 5 C-5.545 4.505 -5.545 4.505 -1 4 C-0.67 2.68 -0.34 1.36 0 0 Z " fill="#0B0D0E" transform="translate(57,9)"/>
<path d="M0 0 C0.79921875 0.00902344 1.5984375 0.01804687 2.421875 0.02734375 C3.02515625 0.03894531 3.6284375 0.05054688 4.25 0.0625 C3.26 1.5475 3.26 1.5475 2.25 3.0625 C-0.3515625 3.57421875 -0.3515625 3.57421875 -3.375 3.75 C-4.87933594 3.84861328 -4.87933594 3.84861328 -6.4140625 3.94921875 C-7.57035156 4.00529297 -7.57035156 4.00529297 -8.75 4.0625 C-8.75 3.0725 -8.75 2.0825 -8.75 1.0625 C-5.75519083 0.1901588 -3.11424089 -0.04579766 0 0 Z " fill="#3E4243" transform="translate(50.75,12.9375)"/>
<path d="M0 0 C0.99 0.33 1.98 0.66 3 1 C3.144375 2.11375 3.28875 3.2275 3.4375 4.375 C3.78372035 7.82142047 3.78372035 7.82142047 5 10 C4.34 10.66 3.68 11.32 3 12 C0.50494038 9.50494038 0.64051624 8.32671112 0.375 4.875 C0.30023438 3.96492188 0.22546875 3.05484375 0.1484375 2.1171875 C0.09945312 1.41851562 0.05046875 0.71984375 0 0 Z " fill="#2B2927" transform="translate(36,78)"/>
<path d="M0 0 C0.66 0 1.32 0 2 0 C2.625 2.3125 2.625 2.3125 3 5 C2.01 6.485 2.01 6.485 1 8 C-0.32 6.68 -1.64 5.36 -3 4 C-1.625 2 -1.625 2 0 0 Z " fill="#D9995C" transform="translate(56,73)"/>
<path d="M0 0 C0.33 0 0.66 0 1 0 C1.25 5.625 1.25 5.625 -1 9 C-1.99 9 -2.98 9 -4 9 C-4.33 9.99 -4.66 10.98 -5 12 C-4.42365861 7.24518354 -2.44931479 4.02951788 0 0 Z " fill="#2A2726" transform="translate(72,54)"/>
<path d="M0 0 C-0.33 2.97 -0.66 5.94 -1 9 C-1.33 9 -1.66 9 -2 9 C-2.33 7.02 -2.66 5.04 -3 3 C-4.32 2.67 -5.64 2.34 -7 2 C-7 1.34 -7 0.68 -7 0 C-2.25 -1.125 -2.25 -1.125 0 0 Z " fill="#1D1412" transform="translate(68,62)"/>
<path d="M0 0 C0.99 0.33 1.98 0.66 3 1 C3.625 3.875 3.625 3.875 4 7 C3.34 7.66 2.68 8.32 2 9 C1.67 7.35 1.34 5.7 1 4 C0.01 4 -0.98 4 -2 4 C-1.34 2.68 -0.68 1.36 0 0 Z " fill="#5FADBD" transform="translate(59,11)"/>
<path d="M0 0 C2 2 2 2 2 5 C2.66 5.33 3.32 5.66 4 6 C3.34 6 2.68 6 2 6 C1.67 6.66 1.34 7.32 1 8 C-1 6 -1 6 -1.1875 3.4375 C-1 1 -1 1 0 0 Z " fill="#DB9C5E" transform="translate(40,68)"/>
<path d="M0 0 C0.66 0.99 1.32 1.98 2 3 C1.5390625 5.04296875 1.5390625 5.04296875 0.625 7.1875 C0.32851563 7.90292969 0.03203125 8.61835937 -0.2734375 9.35546875 C-0.51320313 9.89816406 -0.75296875 10.44085938 -1 11 C-1.33 11 -1.66 11 -2 11 C-1.85892253 9.54119891 -1.71197585 8.08296449 -1.5625 6.625 C-1.48128906 5.81289063 -1.40007813 5.00078125 -1.31640625 4.1640625 C-1 2 -1 2 0 0 Z " fill="#131414" transform="translate(30,25)"/>
<path d="M0 0 C1.65 1.65 3.3 3.3 5 5 C1.92677456 5.91058531 -0.80097361 6.08886184 -4 6 C-3.67 5.34 -3.34 4.68 -3 4 C-2.01 4 -1.02 4 0 4 C0 2.68 0 1.36 0 0 Z " fill="#223136" transform="translate(71,35)"/>
<path d="M0 0 C0.99 0.33 1.98 0.66 3 1 C3 3.31 3 5.62 3 8 C2.34 8 1.68 8 1 8 C0.67 5.36 0.34 2.72 0 0 Z " fill="#F5CB9B" transform="translate(38,52)"/>
<path d="M0 0 C0.99 0.33 1.98 0.66 3 1 C3 3.97 3 6.94 3 10 C0.70366176 6.55549263 0.45983515 4.06187717 0 0 Z " fill="#08090A" transform="translate(70,28)"/>
<path d="M0 0 C0.66 0 1.32 0 2 0 C2 2.31 2 4.62 2 7 C1.01 7.495 1.01 7.495 0 8 C-0.66 7.34 -1.32 6.68 -2 6 C-1.34 6 -0.68 6 0 6 C0 4.02 0 2.04 0 0 Z " fill="#1D2B30" transform="translate(68,48)"/>
<path d="M0 0 C0.75 1.75 0.75 1.75 1 4 C-0.9375 6.25 -0.9375 6.25 -3 8 C-2.45276317 4.62537285 -1.9451 2.91765 0 0 Z " fill="#2D2E2F" transform="translate(34,19)"/>
</svg>
