<?xml version="1.0" encoding="UTF-8"?>
<svg version="1.1" xmlns="http://www.w3.org/2000/svg" width="100" height="100">
<path d="M0 0 C0.7791275 -0.00173218 1.558255 -0.00346436 2.36099243 -0.00524902 C17.26767853 0.0093227 33.39240967 0.93194669 46.25 9.4375 C48.2992956 13.0237673 48.57169012 15.15625419 47.56640625 19.16015625 C46.27130229 22.90436732 44.87952799 26.38879425 42.83691406 29.79150391 C40.22872229 34.14036273 37.98092509 38.6669512 35.6875 43.1875 C35.19314453 44.13882813 34.69878906 45.09015625 34.18945312 46.0703125 C31.56265381 51.25992956 29.80567999 55.87961511 28.75585938 61.58959961 C28.0091724 64.31724137 26.33304922 65.59495181 24.25 67.4375 C22.98430027 69.62321372 21.80205802 71.85848269 20.6875 74.125 C20.38231445 74.7442334 20.07712891 75.3634668 19.76269531 76.00146484 C17.75985073 80.14621049 16.18985283 84.28262054 14.859375 88.6796875 C14.06105463 90.98253472 12.82789703 92.59662013 11.25 94.4375 C10.24431758 96.10074401 9.24335201 97.76686253 8.25 99.4375 C7.25 100.4375 7.25 100.4375 3.5625 101 C0.71671246 100.97963658 -0.36806634 100.79431784 -2.47265625 98.828125 C-3.99959513 96.75055088 -5.38090754 94.62152845 -6.75 92.4375 C-7.86375 91.1071875 -7.86375 91.1071875 -9 89.75 C-10.82690691 87.33587301 -11.73521645 85.27889393 -12.75 82.4375 C-13.28684823 81.20622122 -13.82875754 79.97714003 -14.375 78.75 C-15.75 75.4375 -15.75 75.4375 -15.75 73.4375 C-16.36875 73.334375 -16.9875 73.23125 -17.625 73.125 C-19.75 72.4375 -19.75 72.4375 -21.75 69.4375 C-21.8325 68.40625 -21.915 67.375 -22 66.3125 C-22.85181986 61.91143071 -24.39902374 59.7810417 -26.953125 56.19921875 C-29.12552373 52.86033636 -30.83247693 49.39495748 -32.5625 45.8125 C-35.67342546 39.39745225 -39.10919991 33.27949058 -42.8684082 27.22216797 C-46.04049357 22.0928685 -47.28444062 18.53012309 -46.75 12.4375 C-43.50233236 7.96657293 -39.05602155 6.87391842 -34 5.3125 C-33.2265625 5.06113281 -32.453125 4.80976562 -31.65625 4.55078125 C-20.90706902 1.10599338 -11.25375147 -0.00059009 0 0 Z " fill="#F2B03D" transform="translate(49.75,-0.43750000000000006)"/>
<path d="M0 0 C1.24128542 5.64220648 0.71574647 8.00399425 -2 13 C-2.6037449 14.1955114 -3.20250904 15.39354813 -3.796875 16.59375 C-4.11261475 17.22482666 -4.42835449 17.85590332 -4.75366211 18.50610352 C-5.43545735 19.87052932 -6.1158942 21.23563452 -6.79516602 22.60131836 C-8.51462399 26.05398998 -10.25047212 29.49475874 -12.04296875 32.91015625 C-12.36233398 33.52632812 -12.68169922 34.1425 -13.01074219 34.77734375 C-13.88456406 36.46053278 -14.76814538 38.13864488 -15.65234375 39.81640625 C-17.10413551 43.24600127 -17.63210447 46.30707396 -18 50 C-18.99 50 -19.98 50 -21 50 C-21.25652344 50.845625 -21.51304688 51.69125 -21.77734375 52.5625 C-23.30467267 56.85658771 -25.37469277 60.78405005 -27.52148438 64.7890625 C-29.46134038 68.52874244 -30.53411893 71.81345233 -31 76 C-31.33 76 -31.66 76 -32 76 C-32.495 71.545 -32.495 71.545 -33 67 C-34.98 67.99 -34.98 67.99 -37 69 C-40.06653482 68.81225297 -42.23137414 68.46117551 -44.875 66.875 C-46.72309221 63.79484632 -46.49060718 61.49557617 -46 58 C-43.41830549 55.03864454 -41.81118865 54.13243896 -37.9375 53.5 C-34.35181933 54.11032862 -33.23136307 55.19013539 -31 58 C-30.67 58.66 -30.34 59.32 -30 60 C-26.37988643 55.33195882 -24.29322068 51.7607103 -23 46 C-22.34 46 -21.68 46 -21 46 C-20.67 46.66 -20.34 47.32 -20 48 C-19.96261719 47.26394531 -19.92523438 46.52789062 -19.88671875 45.76953125 C-19.20990485 35.72348963 -19.20990485 35.72348963 -16 32 C-15.34 32 -14.68 32 -14 32 C-13.89042969 31.32453125 -13.78085938 30.6490625 -13.66796875 29.953125 C-13.50941406 29.06109375 -13.35085937 28.1690625 -13.1875 27.25 C-13.03667969 26.36828125 -12.88585937 25.4865625 -12.73046875 24.578125 C-11.9324828 21.76170399 -10.75231799 20.31288318 -9 18 C-8.27648573 16.01985568 -7.59734611 14.02178685 -7 12 C-7.59425781 12.01047363 -8.18851562 12.02094727 -8.80078125 12.03173828 C-11.53380989 12.07371131 -14.26677037 12.0994558 -17 12.125 C-17.93457031 12.14175781 -18.86914062 12.15851562 -19.83203125 12.17578125 C-25.59209963 12.21606145 -30.4774282 11.65416655 -36 10 C-36.33 10.66 -36.66 11.32 -37 12 C-37.99 11.34 -38.98 10.68 -40 10 C-42.18028396 9.64706549 -42.18028396 9.64706549 -44.5 9.6875 C-45.2734375 9.67074219 -46.046875 9.65398438 -46.84375 9.63671875 C-49.47015897 10.07921157 -50.33557103 10.97814557 -52 13 C-50.87851563 13.09087891 -50.87851563 13.09087891 -49.734375 13.18359375 C-48.74953125 13.26738281 -47.7646875 13.35117187 -46.75 13.4375 C-45.28820313 13.55931641 -45.28820313 13.55931641 -43.796875 13.68359375 C-41.43538247 13.95074584 -39.28098935 14.35371968 -37 15 C-43.32629569 15.90375653 -48.67370431 15.90375653 -55 15 C-54.79375 16.093125 -54.5875 17.18625 -54.375 18.3125 C-54 22 -54 22 -56 25 C-56.66 25 -57.32 25 -58 25 C-58 25.66 -58 26.32 -58 27 C-57.34 27.66 -56.68 28.32 -56 29 C-58.64 29.33 -61.28 29.66 -64 30 C-64 31.32 -64 32.64 -64 34 C-62.906875 33.79375 -61.81375 33.5875 -60.6875 33.375 C-57 33 -57 33 -54 35 C-56.64 35 -59.28 35 -62 35 C-61.855625 35.54527344 -61.71125 36.09054688 -61.5625 36.65234375 C-60.18471403 42.24959924 -59.81712563 47.23945745 -60 53 C-58.35 53 -56.7 53 -55 53 C-54.8453125 51.824375 -54.8453125 51.824375 -54.6875 50.625 C-54 48 -54 48 -51 46 C-47.9375 45.75 -47.9375 45.75 -45 46 C-43 48 -43 48 -43 52 C-46.63423209 54.32590854 -49.77088331 54.16265833 -54 54 C-53.71890887 55.64767247 -53.42481474 57.29313145 -53.125 58.9375 C-52.96257813 59.85402344 -52.80015625 60.77054687 -52.6328125 61.71484375 C-52.42398438 62.46894531 -52.21515625 63.22304687 -52 64 C-51.01 64.495 -51.01 64.495 -50 65 C-50 67.97 -50 70.94 -50 74 C-50.33 74 -50.66 74 -51 74 C-51.12375 73.195625 -51.2475 72.39125 -51.375 71.5625 C-51.58125 70.716875 -51.7875 69.87125 -52 69 C-52.99 68.505 -52.99 68.505 -54 68 C-55.23882213 64.72076495 -56.21205747 61.41441762 -57 58 C-58.32 58 -59.64 58 -61 58 C-61.20625 56.700625 -61.4125 55.40125 -61.625 54.0625 C-62.64781046 49.37523193 -64.61037768 46.14675921 -67.46484375 42.3359375 C-68.99457847 40.00824956 -69.974635 37.66844199 -71.02905273 35.10107422 C-73.15821141 30.49369692 -75.93770286 26.21212355 -78.5625 21.875 C-79.73380414 19.93690769 -80.901893 17.99686774 -82.06640625 16.0546875 C-82.58146729 15.20374512 -83.09652832 14.35280273 -83.62719727 13.47607422 C-87.07707795 7.25365026 -87.07707795 7.25365026 -86.8671875 3.83984375 C-84.70938898 -0.73818823 -78.54273766 -2.04119799 -74.1171875 -3.70996094 C-50.17051931 -12.22767062 -23.19901446 -9.60664035 0 0 Z " fill="#E48A30" transform="translate(93,11)"/>
<path d="M0 0 C0.7791275 -0.00173218 1.558255 -0.00346436 2.36099243 -0.00524902 C17.26767853 0.0093227 33.39240967 0.93194669 46.25 9.4375 C48.2992956 13.0237673 48.57169012 15.15625419 47.56640625 19.16015625 C46.27130229 22.90436732 44.87952799 26.38879425 42.83691406 29.79150391 C40.22872229 34.14036273 37.98092509 38.6669512 35.6875 43.1875 C35.19314453 44.13882813 34.69878906 45.09015625 34.18945312 46.0703125 C31.56265381 51.25992956 29.80567999 55.87961511 28.75585938 61.58959961 C28.0091724 64.31724137 26.33304922 65.59495181 24.25 67.4375 C22.98430027 69.62321372 21.80205802 71.85848269 20.6875 74.125 C20.38231445 74.7442334 20.07712891 75.3634668 19.76269531 76.00146484 C17.75985073 80.14621049 16.18985283 84.28262054 14.859375 88.6796875 C14.06105463 90.98253472 12.82789703 92.59662013 11.25 94.4375 C10.24431758 96.10074401 9.24335201 97.76686253 8.25 99.4375 C7.25 100.4375 7.25 100.4375 3.5625 101 C0.71671246 100.97963658 -0.36806634 100.79431784 -2.47265625 98.828125 C-3.99959513 96.75055088 -5.38090754 94.62152845 -6.75 92.4375 C-7.86375 91.1071875 -7.86375 91.1071875 -9 89.75 C-10.82690691 87.33587301 -11.73521645 85.27889393 -12.75 82.4375 C-13.28684823 81.20622122 -13.82875754 79.97714003 -14.375 78.75 C-15.75 75.4375 -15.75 75.4375 -15.75 73.4375 C-16.36875 73.334375 -16.9875 73.23125 -17.625 73.125 C-19.75 72.4375 -19.75 72.4375 -21.75 69.4375 C-21.8325 68.40625 -21.915 67.375 -22 66.3125 C-22.85181986 61.91143071 -24.39902374 59.7810417 -26.953125 56.19921875 C-29.12552373 52.86033636 -30.83247693 49.39495748 -32.5625 45.8125 C-35.67342546 39.39745225 -39.10919991 33.27949058 -42.8684082 27.22216797 C-46.04049357 22.0928685 -47.28444062 18.53012309 -46.75 12.4375 C-43.50233236 7.96657293 -39.05602155 6.87391842 -34 5.3125 C-33.2265625 5.06113281 -32.453125 4.80976562 -31.65625 4.55078125 C-20.90706902 1.10599338 -11.25375147 -0.00059009 0 0 Z M-42.75 13.4375 C-43.76564612 15.93598265 -43.87416544 17.08415996 -42.97143555 19.65307617 C-42.551604 20.44174072 -42.13177246 21.23040527 -41.69921875 22.04296875 C-40.99998291 23.36047119 -40.99998291 23.36047119 -40.28662109 24.70458984 C-37.80771048 29.11338002 -35.21260635 33.44234877 -32.5625 37.75 C-31.50300978 39.47311287 -30.4468992 41.19830934 -29.39453125 42.92578125 C-28.93409424 43.67384033 -28.47365723 44.42189941 -27.99926758 45.19262695 C-26.68919152 47.54676987 -25.73018999 49.93099203 -24.75 52.4375 C-23.75529829 54.0786259 -22.7335367 55.70360817 -21.6875 57.3125 C-19.1082643 61.50454246 -17.96282363 64.54255644 -17.75 69.4375 C-16.43 69.4375 -15.11 69.4375 -13.75 69.4375 C-13.55664062 70.14777344 -13.36328125 70.85804687 -13.1640625 71.58984375 C-12.77347656 72.96849609 -12.77347656 72.96849609 -12.375 74.375 C-12.11976562 75.29152344 -11.86453125 76.20804687 -11.6015625 77.15234375 C-10.98339896 79.60495087 -10.98339896 79.60495087 -8.75 80.4375 C-8.02306096 82.41638961 -7.35183749 84.41704558 -6.75 86.4375 C-5.76 86.4375 -4.77 86.4375 -3.75 86.4375 C-3.481875 87.51 -3.21375 88.5825 -2.9375 89.6875 C-1.88772173 93.00258928 -1.00387672 94.87627646 1.25 97.4375 C3.66585574 97.40656827 3.66585574 97.40656827 6.25 96.4375 C8.58625947 92.69823755 8.58625947 92.69823755 9.25 88.4375 C10.24 88.1075 11.23 87.7775 12.25 87.4375 C12.749379 85.53650262 13.23725557 83.63133596 13.65136719 81.70996094 C14.65797639 77.88878702 16.52990182 74.53754357 18.375 71.0625 C21.11848375 66.47552475 21.11848375 66.47552475 22.25 61.4375 C23.24 61.4375 24.23 61.4375 25.25 61.4375 C25.44722656 60.23738281 25.64445312 59.03726563 25.84765625 57.80078125 C27.22747103 51.60314353 29.99075851 46.11003237 32.7902832 40.44262695 C33.69198485 38.61591436 34.57844522 36.78238596 35.46289062 34.94726562 C37.80013817 30.15338786 39.99689234 25.67237751 43.25 21.4375 C44.0995481 18.63614204 44.15507056 16.4277775 44.25 13.4375 C41.89452482 9.78741251 37.69757394 9.046705 33.75 7.875 C33.09257813 7.66681641 32.43515625 7.45863281 31.7578125 7.24414062 C10.43106643 0.72763488 -24.02119589 -1.71745019 -42.75 13.4375 Z " fill="#A8CBE3" transform="translate(49.75,-0.43750000000000006)"/>
<path d="M0 0 C3.84630361 -0.06631558 7.33623815 -0.11947713 11.125 0.5625 C14.04983208 1.17496109 14.04983208 1.17496109 17.125 0.375 C20 0 20 0 22.375 1.4375 C22.91125 1.953125 23.4475 2.46875 24 3 C23.7215625 3.86625 23.7215625 3.86625 23.4375 4.75 C22.95976454 7.20692525 23.24270636 8.64397534 24 11 C21.69 11.33 19.38 11.66 17 12 C17.33 13.65 17.66 15.3 18 17 C20.64 17.33 23.28 17.66 26 18 C26 18.66 26 19.32 26 20 C26.66 19.34 27.32 18.68 28 18 C27.54337885 22.10959039 27.19432019 24.31677104 24 27 C23.34 27.99 22.68 28.98 22 30 C21.319375 28.7934375 21.319375 28.7934375 20.625 27.5625 C19.25274335 24.91143428 19.25274335 24.91143428 17 24 C13.7736324 23.7194463 11.59881746 23.73210798 8.625 25.0625 C6.68094009 27.03426171 6.68094009 27.03426171 6.5 30.5 C6.68915881 33.96784402 6.68915881 33.96784402 8.625 36 C12.66983775 37.70308958 15.98845473 36.33718176 20 35 C20 38.63 20 42.26 20 46 C19.34 46 18.68 46 18 46 C17.71125 47.11375 17.4225 48.2275 17.125 49.375 C16 53 16 53 14 55 C10.95004583 54.84359209 9.46474663 54.44814854 7.25 52.3125 C5.75684832 49.5501694 5.35262924 47.10313728 5 44 C4.01 44 3.02 44 2 44 C1.67 40.7 1.34 37.4 1 34 C0.34 34.66 -0.32 35.32 -1 36 C-1.33 31.71 -1.66 27.42 -2 23 C3.445 22.01 3.445 22.01 9 21 C8.34 19.35 7.68 17.7 7 16 C2.2102679 15.76571687 2.2102679 15.76571687 -2 18 C-2.72382467 20.05925139 -2.72382467 20.05925139 -3 22 C-4.65 22 -6.3 22 -8 22 C-8.66 16.06 -9.32 10.12 -10 4 C-6.7 3.67 -3.4 3.34 0 3 C0 2.01 0 1.02 0 0 Z " fill="#F1AD38" transform="translate(41,42)"/>
<path d="M0 0 C0.33 0 0.66 0 1 0 C0.75541324 4.56561945 0.4131408 7.76940282 -2.1953125 11.56640625 C-5.4921814 16.63660442 -8.07862484 21.98903283 -10.6875 27.4375 C-11.17283203 28.42298828 -11.65816406 29.40847656 -12.15820312 30.42382812 C-14.96328704 36.26227176 -16.87133945 41.61745761 -18 48 C-18.99 48 -19.98 48 -21 48 C-21.38478516 49.2684375 -21.38478516 49.2684375 -21.77734375 50.5625 C-23.30467267 54.85658771 -25.37469277 58.78405005 -27.52148438 62.7890625 C-29.46134038 66.52874244 -30.53411893 69.81345233 -31 74 C-31.33 74 -31.66 74 -32 74 C-32.495 69.545 -32.495 69.545 -33 65 C-34.98 65.99 -34.98 65.99 -37 67 C-40.06653482 66.81225297 -42.23137414 66.46117551 -44.875 64.875 C-46.72309221 61.79484632 -46.49060718 59.49557617 -46 56 C-43.41830549 53.03864454 -41.81118865 52.13243896 -37.9375 51.5 C-34.35181933 52.11032862 -33.23136307 53.19013539 -31 56 C-30.67 56.66 -30.34 57.32 -30 58 C-26.37988643 53.33195882 -24.29322068 49.7607103 -23 44 C-22.34 44 -21.68 44 -21 44 C-20.67 44.66 -20.34 45.32 -20 46 C-19.96261719 45.26394531 -19.92523438 44.52789062 -19.88671875 43.76953125 C-19.20990485 33.72348963 -19.20990485 33.72348963 -16 30 C-15.34 30 -14.68 30 -14 30 C-13.89042969 29.32453125 -13.78085938 28.6490625 -13.66796875 27.953125 C-13.50941406 27.06109375 -13.35085937 26.1690625 -13.1875 25.25 C-13.03667969 24.36828125 -12.88585937 23.4865625 -12.73046875 22.578125 C-11.93808387 19.78147247 -10.79909168 18.2488646 -9 16 C-8.27648573 14.01985568 -7.59734611 12.02178685 -7 10 C-8.12535156 9.83564453 -8.12535156 9.83564453 -9.2734375 9.66796875 C-14.30293016 8.88884079 -19.02819597 8.07131666 -23.8125 6.3125 C-30.51135765 4.18299094 -37.11913284 5.32886123 -44 6 C-45.37325427 6.08438265 -46.74699447 6.16119463 -48.12109375 6.23046875 C-48.79180908 6.2655957 -49.46252441 6.30072266 -50.15356445 6.33691406 C-52.0216174 6.43222525 -53.88971376 6.52668446 -55.7578125 6.62109375 C-58.94860485 6.84859255 -58.94860485 6.84859255 -61.53515625 8.02734375 C-64.59165896 9.23347557 -67.03966548 9.19693043 -70.3125 9.125 C-71.38113281 9.10695313 -72.44976562 9.08890625 -73.55078125 9.0703125 C-74.35902344 9.04710937 -75.16726562 9.02390625 -76 9 C-75.67 8.34 -75.34 7.68 -75 7 C-73.0390625 6.4375 -73.0390625 6.4375 -70.625 6 C-67.32474381 5.39799887 -65.88591027 4.92394018 -63 3 C-60.75675752 2.86557348 -58.59407903 3.00170012 -56.3515625 3.125 C-53.91926001 3.12665208 -53.91926001 3.12665208 -51.5390625 1.98046875 C-48.59410839 0.84326339 -46.8668836 0.94292666 -43.75 1.3125 C-37.67737578 1.95691081 -31.62250022 2.32234634 -25.52441406 2.60668945 C-20.10835271 2.89164729 -20.10835271 2.89164729 -19 4 C-17.52918096 4.36842434 -16.04792853 4.69578424 -14.5625 5 C-12.15670855 5.49428781 -10.19915754 5.90042123 -8 7 C-7.34 6.34 -6.68 5.68 -6 5 C-5.505 6.485 -5.505 6.485 -5 8 C-4.01 8.33 -3.02 8.66 -2 9 C-1.34 6.03 -0.68 3.06 0 0 Z " fill="#A95F30" transform="translate(93,13)"/>
<path d="M0 0 C0 0.33 0 0.66 0 1 C-2.97 1 -5.94 1 -9 1 C-9 0.34 -9 -0.32 -9 -1 C-37.01705194 -2.45578438 -37.01705194 -2.45578438 -63 6 C-64.65544352 6.69406697 -66.31996049 7.36779001 -68 8 C-67.690625 9.19625 -67.38125 10.3925 -67.0625 11.625 C-66.41292893 14.15654753 -65.95401628 16.4506405 -65.6875 19.0625 C-64.73623099 23.12701306 -62.50499227 25.73194855 -60 29 C-58.15924271 31.79522403 -57.0106167 33.96390321 -56.0625 37.1875 C-55.27161558 40.12240775 -55.27161558 40.12240775 -52.875 41.375 C-52.25625 41.58125 -51.6375 41.7875 -51 42 C-51 43.98 -51 45.96 -51 48 C-50.34 48 -49.68 48 -49 48 C-49 50.97 -49 53.94 -49 57 C-47.35 57 -45.7 57 -44 57 C-43.8453125 55.824375 -43.8453125 55.824375 -43.6875 54.625 C-43 52 -43 52 -40 50 C-36.9375 49.75 -36.9375 49.75 -34 50 C-32 52 -32 52 -32 56 C-35.63423209 58.32590854 -38.77088331 58.16265833 -43 58 C-42.71890887 59.64767247 -42.42481474 61.29313145 -42.125 62.9375 C-41.96257813 63.85402344 -41.80015625 64.77054687 -41.6328125 65.71484375 C-41.42398438 66.46894531 -41.21515625 67.22304687 -41 68 C-40.01 68.495 -40.01 68.495 -39 69 C-39 71.97 -39 74.94 -39 78 C-39.33 78 -39.66 78 -40 78 C-40.12375 77.195625 -40.2475 76.39125 -40.375 75.5625 C-40.58125 74.716875 -40.7875 73.87125 -41 73 C-41.99 72.505 -41.99 72.505 -43 72 C-44.23882213 68.72076495 -45.21205747 65.41441762 -46 62 C-47.32 62 -48.64 62 -50 62 C-50.20625 60.700625 -50.4125 59.40125 -50.625 58.0625 C-51.64781046 53.37523193 -53.61037768 50.14675921 -56.46484375 46.3359375 C-57.99457847 44.00824956 -58.974635 41.66844199 -60.02905273 39.10107422 C-62.15821141 34.49369692 -64.93770286 30.21212355 -67.5625 25.875 C-68.73380414 23.93690769 -69.901893 21.99686774 -71.06640625 20.0546875 C-71.58146729 19.20374512 -72.09652832 18.35280273 -72.62719727 17.47607422 C-76.07707795 11.25365026 -76.07707795 11.25365026 -75.8671875 7.83984375 C-73.70938898 3.26181177 -67.54273766 1.95880201 -63.1171875 0.29003906 C-42.95170152 -6.88272308 -20.34620748 -6.02850592 0 0 Z " fill="#C75E1E" transform="translate(82,7)"/>
<path d="M0 0 C3.91688034 3.64675066 6.41702413 7.01788203 7.9375 12.1875 C8.72838442 15.12240775 8.72838442 15.12240775 11.125 16.375 C12.053125 16.684375 12.053125 16.684375 13 17 C13 18.98 13 20.96 13 23 C13.66 23 14.32 23 15 23 C15 25.97 15 28.94 15 32 C16.65 32 18.3 32 20 32 C20.103125 31.21625 20.20625 30.4325 20.3125 29.625 C21 27 21 27 24 25 C27.0625 24.75 27.0625 24.75 30 25 C32 27 32 27 32 31 C28.36576791 33.32590854 25.22911669 33.16265833 21 33 C21.28109113 34.64767247 21.57518526 36.29313145 21.875 37.9375 C22.03742187 38.85402344 22.19984375 39.77054688 22.3671875 40.71484375 C22.57601562 41.46894531 22.78484375 42.22304687 23 43 C23.66 43.33 24.32 43.66 25 44 C25 46.97 25 49.94 25 53 C24.67 53 24.34 53 24 53 C23.87625 52.195625 23.7525 51.39125 23.625 50.5625 C23.41875 49.716875 23.2125 48.87125 23 48 C22.34 47.67 21.68 47.34 21 47 C19.76117787 43.72076495 18.78794253 40.41441762 18 37 C16.68 37 15.36 37 14 37 C13.79375 35.700625 13.5875 34.40125 13.375 33.0625 C12.33448355 28.29409007 10.26570449 25.05307697 7.44921875 21.125 C5.49650493 18.26172152 4.30450141 15.20195801 3 12 C2.2613778 10.78467836 1.51118175 9.57632085 0.75 8.375 C-1 5 -1 5 -0.75 2.0625 C-0.5025 1.381875 -0.255 0.70125 0 0 Z " fill="#9B4620" transform="translate(18,32)"/>
<path d="M0 0 C1.051875 0.7734375 1.051875 0.7734375 2.125 1.5625 C5.65525096 3.32762548 7.24439094 2.9797241 11 2 C11.99 1.67 12.98 1.34 14 1 C14 4.63 14 8.26 14 12 C13.34 12 12.68 12 12 12 C11.566875 13.670625 11.566875 13.670625 11.125 15.375 C10 19 10 19 8 21 C4.95004583 20.84359209 3.46474663 20.44814854 1.25 18.3125 C-0.24315168 15.5501694 -0.64737076 13.10313728 -1 10 C-1.99 10 -2.98 10 -4 10 C-4 7.03 -4 4.06 -4 1 C-2.68 1.33 -1.36 1.66 0 2 C0 1.34 0 0.68 0 0 Z " fill="#F2A93B" transform="translate(47,76)"/>
<path d="M0 0 C0.33 0 0.66 0 1 0 C0.58669586 5.99291003 -0.31903365 9.25036599 -4 14 C-4.38027344 13.36191406 -4.76054688 12.72382813 -5.15234375 12.06640625 C-7.55641665 9.37770738 -9.02143113 9.3391597 -12.5625 8.9375 C-16.55369153 8.41234322 -20.04458367 7.71598561 -23.8125 6.3125 C-30.51135765 4.18299094 -37.11913284 5.32886123 -44 6 C-45.37325427 6.08438265 -46.74699447 6.16119463 -48.12109375 6.23046875 C-48.79180908 6.2655957 -49.46252441 6.30072266 -50.15356445 6.33691406 C-52.0216174 6.43222525 -53.88971376 6.52668446 -55.7578125 6.62109375 C-58.94860485 6.84859255 -58.94860485 6.84859255 -61.53515625 8.02734375 C-64.59165896 9.23347557 -67.03966548 9.19693043 -70.3125 9.125 C-71.38113281 9.10695313 -72.44976562 9.08890625 -73.55078125 9.0703125 C-74.35902344 9.04710937 -75.16726562 9.02390625 -76 9 C-75.67 8.34 -75.34 7.68 -75 7 C-73.0390625 6.4375 -73.0390625 6.4375 -70.625 6 C-67.32474381 5.39799887 -65.88591027 4.92394018 -63 3 C-60.75675752 2.86557348 -58.59407903 3.00170012 -56.3515625 3.125 C-53.91926001 3.12665208 -53.91926001 3.12665208 -51.5390625 1.98046875 C-48.59410839 0.84326339 -46.8668836 0.94292666 -43.75 1.3125 C-37.67737578 1.95691081 -31.62250022 2.32234634 -25.52441406 2.60668945 C-20.10835271 2.89164729 -20.10835271 2.89164729 -19 4 C-17.52918096 4.36842434 -16.04792853 4.69578424 -14.5625 5 C-12.15670855 5.49428781 -10.19915754 5.90042123 -8 7 C-7.34 6.34 -6.68 5.68 -6 5 C-5.505 6.485 -5.505 6.485 -5 8 C-4.01 8.33 -3.02 8.66 -2 9 C-1.34 6.03 -0.68 3.06 0 0 Z " fill="#A52B13" transform="translate(93,13)"/>
<path d="M0 0 C2.375 1.625 2.375 1.625 4 4 C4.60817046 7.64902278 4.51417751 9.26828585 2.375 12.3125 C-0.57951586 14.41176127 -2.36924173 15 -6 15 C-8.875 13.5 -8.875 13.5 -11 11 C-11.625 7.5 -11.625 7.5 -11 4 C-7.69532025 0.20933794 -4.96286146 -0.84474238 0 0 Z " fill="#B23521" transform="translate(58,65)"/>
<path d="M0 0 C2.13093906 1.06546953 3.36587557 2.29159719 5 4 C5.99 3.34 6.98 2.68 8 2 C9.9375 1.76953125 9.9375 1.76953125 12 1.8125 C12.680625 1.81894531 13.36125 1.82539062 14.0625 1.83203125 C16 2 16 2 19 3 C19 6 19 6 17.390625 8.203125 C14.22807052 10.58020843 12.6151735 10.25415306 8.75 9.75 C7.67234375 9.62109375 6.5946875 9.4921875 5.484375 9.359375 C4.66453125 9.24078125 3.8446875 9.1221875 3 9 C3 9.99 3 10.98 3 12 C-0.96 12 -4.92 12 -9 12 C-9 10.68 -9 9.36 -9 8 C-8.195625 7.731875 -7.39125 7.46375 -6.5625 7.1875 C-5.716875 6.795625 -4.87125 6.40375 -4 6 C-3.67 5.01 -3.34 4.02 -3 3 C-1.4375 1.3125 -1.4375 1.3125 0 0 Z " fill="#EAA438" transform="translate(38,33)"/>
<path d="M0 0 C2.9375 1.5625 2.9375 1.5625 5 4 C5 7.625 5 7.625 4 11 C-0.00519509 13.67013006 -3.29333148 13.69987636 -8 13 C-10.125 11.375 -10.125 11.375 -11 9 C-10.92936148 5.53871253 -10.64776603 3.71974003 -8.3125 1.125 C-5.24698338 -0.36633241 -3.37622756 -0.48231822 0 0 Z " fill="#A9321E" transform="translate(34,24)"/>
<path d="M0 0 C2.875 2 2.875 2 5 4 C4.39088342 9.48204921 4.39088342 9.48204921 2.73828125 11.671875 C-0.03603912 13.79158045 -2.51944118 13.47423103 -5.8984375 13.34765625 C-8 13 -8 13 -10.125 11.375 C-11.32045922 8.13018211 -11.04652828 6.27912195 -10 3 C-7.02033132 -0.31074298 -4.32094482 -0.61727783 0 0 Z " fill="#B4311D" transform="translate(73,26)"/>
<path d="M0 0 C-4.29 1.65 -8.58 3.3 -13 5 C-13 8.18406206 -12.30390814 10.88738349 -11.50390625 13.953125 C-11.08899691 15.63849317 -10.77967483 17.34949165 -10.5 19.0625 C-9.91779609 22.48294795 -8.99664806 25.67783981 -8 29 C-12.18804001 27.49636449 -13.50179064 24.98028148 -15.625 21.1875 C-16.21539063 20.14980469 -16.80578125 19.11210937 -17.4140625 18.04296875 C-21.04135876 11.08320572 -21.04135876 11.08320572 -20.91796875 7.8515625 C-18.61132483 3.19901264 -11.1898758 1.48476421 -6.625 -0.375 C-4 -1 -4 -1 0 0 Z " fill="#994C27" transform="translate(27,7)"/>
<path d="M0 0 C4.29 0 8.58 0 13 0 C13.33 0.66 13.66 1.32 14 2 C11.32112044 9.1955951 7.03167192 15.55833779 0 19 C-3.4375 18.8125 -3.4375 18.8125 -6 18 C-6 17.67 -6 17.34 -6 17 C-4.906875 16.9175 -3.81375 16.835 -2.6875 16.75 C0.96204543 16.3247134 0.96204543 16.3247134 3 14.25 C4.27437105 11.38266513 3.93240309 9.95260978 3 7 C2.67 6.34 2.34 5.68 2 5 C3.32 5 4.64 5 6 5 C6 4.34 6 3.68 6 3 C5.01 3 4.02 3 3 3 C3 2.34 3 1.68 3 1 C2.01 0.67 1.02 0.34 0 0 Z " fill="#EFA635" transform="translate(73,22)"/>
<path d="M0 0 C0.92232422 0.00902344 1.84464844 0.01804687 2.79492188 0.02734375 C5.05105809 0.0507234 7.30663684 0.08349084 9.5625 0.125 C7.5625 2.125 7.5625 2.125 5.35546875 2.21484375 C4.49566406 2.16457031 3.63585937 2.11429688 2.75 2.0625 C-1.63012626 1.96180744 -3.81757148 2.53933677 -7.4375 5.125 C-10.25 5.8125 -10.25 5.8125 -12.4375 6.125 C-9.4675 6.455 -6.4975 6.785 -3.4375 7.125 C-3.7675 7.785 -4.0975 8.445 -4.4375 9.125 C-5.05238281 9.09019531 -5.66726562 9.05539063 -6.30078125 9.01953125 C-7.51314453 8.97892578 -7.51314453 8.97892578 -8.75 8.9375 C-9.55050781 8.90269531 -10.35101563 8.86789063 -11.17578125 8.83203125 C-13.86997515 8.94706226 -13.86997515 8.94706226 -16.4375 12.125 C-16.7675 8.825 -17.0975 5.525 -17.4375 2.125 C-11.51968663 0.06310069 -6.23331786 -0.11667838 0 0 Z " fill="#D1601E" transform="translate(31.4375,14.875)"/>
<path d="M0 0 C0.66 0 1.32 0 2 0 C2.66 1.98 3.32 3.96 4 6 C4.66 6 5.32 6 6 6 C6.33 6.99 6.66 7.98 7 9 C7.99 9.33 8.98 9.66 10 10 C10.33 7.69 10.66 5.38 11 3 C11.99 3 12.98 3 14 3 C14 3.99 14 4.98 14 6 C14.66 6.33 15.32 6.66 16 7 C15.34 7 14.68 7 14 7 C13.566875 8.670625 13.566875 8.670625 13.125 10.375 C12 14 12 14 10 16 C6.95004583 15.84359209 5.46474663 15.44814854 3.25 13.3125 C1.75684832 10.5501694 1.35262924 8.10313728 1 5 C0.01 4.67 -0.98 4.34 -2 4 C-1.34 4 -0.68 4 0 4 C0 2.68 0 1.36 0 0 Z " fill="#B76D3A" transform="translate(45,81)"/>
<path d="M0 0 C0.66 0.66 1.32 1.32 2 2 C1.8125 4 1.8125 4 1 6 C-3.04192978 8.69461986 -5.2051496 8.23200889 -10 8 C-11 7 -11 7 -11.375 4.625 C-11 2 -11 2 -8.875 0.125 C-5.39626902 -1.23624256 -3.55782756 -1.02781685 0 0 Z " fill="#BA3321" transform="translate(63,43)"/>
<path d="M0 0 C0.66 0 1.32 0 2 0 C2.66 1.32 3.32 2.64 4 4 C3.34 4 2.68 4 2 4 C1.61521484 5.2684375 1.61521484 5.2684375 1.22265625 6.5625 C-0.30467267 10.85658771 -2.37469277 14.78405005 -4.52148438 18.7890625 C-6.46134038 22.52874244 -7.53411893 25.81345233 -8 30 C-8.33 30 -8.66 30 -9 30 C-9.05423638 28.08364783 -9.09289963 26.16685075 -9.125 24.25 C-9.14820313 23.18265625 -9.17140625 22.1153125 -9.1953125 21.015625 C-8.90838946 16.58553328 -7.16966885 14.09783917 -4.5 10.6875 C-1.96300121 7.22999722 -0.93518497 4.16582398 0 0 Z " fill="#9F4E24" transform="translate(70,57)"/>
<path d="M0 0 C0 0.33 0 0.66 0 1 C-2.97 1 -5.94 1 -9 1 C-9 0.34 -9 -0.32 -9 -1 C-12.3 -1 -15.6 -1 -19 -1 C-19 -1.66 -19 -2.32 -19 -3 C-22.91694071 -2.86100313 -26.83347102 -2.71261867 -30.75 -2.5625 C-31.86117187 -2.52318359 -32.97234375 -2.48386719 -34.1171875 -2.44335938 C-35.72207031 -2.38051758 -35.72207031 -2.38051758 -37.359375 -2.31640625 C-38.34389648 -2.27974854 -39.32841797 -2.24309082 -40.34277344 -2.20532227 C-42.69630347 -2.02346644 -44.73291156 -1.6189748 -47 -1 C-48.41534778 -0.93543121 -49.83337689 -0.91388961 -51.25 -0.9375 C-53.10625 -0.9684375 -53.10625 -0.9684375 -55 -1 C-40.14245584 -9.2541912 -15.56633042 -4.61224605 0 0 Z " fill="#8A462A" transform="translate(82,7)"/>
<path d="M0 0 C0.680625 0.00644531 1.36125 0.01289062 2.0625 0.01953125 C4 0.1875 4 0.1875 7 1.1875 C7 4.1875 7 4.1875 5.5625 5.9375 C1.64098441 7.85043443 -1.80646206 6.85943755 -6 6.1875 C-6.66 6.1875 -7.32 6.1875 -8 6.1875 C-7.6875 4.3125 -7.6875 4.3125 -7 2.1875 C-3.97455666 0.17053778 -3.38932618 -0.07061096 0 0 Z " fill="#F8E3B5" transform="translate(50,34.8125)"/>
<path d="M0 0 C2 2 2 2 2 6 C-0.40545638 7.20272819 -1.94996953 7.10071472 -4.625 7.0625 C-5.85089844 7.04896484 -5.85089844 7.04896484 -7.1015625 7.03515625 C-8.04128906 7.01775391 -8.04128906 7.01775391 -9 7 C-9.33 5.68 -9.66 4.36 -10 3 C-6.70335635 -0.04305568 -4.44038228 -0.48265025 0 0 Z " fill="#B03A23" transform="translate(48,57)"/>
<path d="M0 0 C1.32 0 2.64 0 4 0 C4 0.99 4 1.98 4 3 C4.99 3 5.98 3 7 3 C7 5.97 7 8.94 7 12 C6.01 12.33 5.02 12.66 4 13 C3.34 12.01 2.68 11.02 2 10 C1.34 10.66 0.68 11.32 0 12 C0 8.04 0 4.08 0 0 Z " fill="#F3AB3A" transform="translate(40,66)"/>
<path d="M0 0 C1.45903258 0.30921884 2.91720722 0.62248799 4.375 0.9375 C5.18710938 1.11152344 5.99921875 1.28554687 6.8359375 1.46484375 C9 2 9 2 11 3 C10.85892253 4.45880109 10.71197585 5.91703551 10.5625 7.375 C10.48128906 8.18710937 10.40007812 8.99921875 10.31640625 9.8359375 C10 12 10 12 9 14 C7.68 13.67 6.36 13.34 5 13 C4.3125 11.3125 4.3125 11.3125 4 9 C5.4375 6.25 5.4375 6.25 7 4 C4.69 3.34 2.38 2.68 0 2 C0 1.34 0 0.68 0 0 Z " fill="#984C24" transform="translate(82,8)"/>
<path d="M0 0 C7.4596963 0.74596963 14.68951218 2.36746129 22 4 C22 4.33 22 4.66 22 5 C19.47970021 5.22389218 16.96002743 5.42942078 14.4375 5.625 C13.73302734 5.68945312 13.02855469 5.75390625 12.30273438 5.8203125 C7.37705301 6.18349638 3.67412034 5.60922409 -1 4 C-0.67 2.68 -0.34 1.36 0 0 Z " fill="#E0691F" transform="translate(59,17)"/>
<path d="M0 0 C0.66 1.98 1.32 3.96 2 6 C-1.9813783 7.3271261 -5.85045227 7.06915913 -10 7 C-9.6875 4.625 -9.6875 4.625 -9 2 C-5.5647952 -0.29013653 -4.014669 -0.17842973 0 0 Z " fill="#F8E2B4" transform="translate(45,49)"/>
<path d="M0 0 C2.5625 2 2.5625 2 4 4 C-0.11562101 6.05781051 -2.55240759 6.01923993 -7 5 C-7.94875 4.814375 -8.8975 4.62875 -9.875 4.4375 C-10.57625 4.293125 -11.2775 4.14875 -12 4 C-11.67 3.01 -11.34 2.02 -11 1 C-7.55789151 -0.72105424 -3.76366353 -0.51474617 0 0 Z " fill="#F9E4B8" transform="translate(53,20)"/>
<path d="M0 0 C6.74233419 -0.12910853 13.30386804 0.202163 20 1 C20 1.66 20 2.32 20 3 C22.97 3 25.94 3 29 3 C25.23312136 4.88343932 23.97041037 5.22057835 20 5 C19.67 4.01 19.34 3.02 19 2 C17.68 2.33 16.36 2.66 15 3 C15.33 3.66 15.66 4.32 16 5 C14.865625 4.67 13.73125 4.34 12.5625 4 C8.00204151 2.84152933 3.67838994 2.80506709 -1 3 C-0.67 2.01 -0.34 1.02 0 0 Z " fill="#D77427" transform="translate(53,5)"/>
<path d="M0 0 C0.33 0 0.66 0 1 0 C0.58669586 5.99291003 -0.31903365 9.25036599 -4 14 C-4.391875 13.360625 -4.78375 12.72125 -5.1875 12.0625 C-7.38472296 9.56221181 -8.75791433 9.35049575 -12 9 C-12 8.34 -12 7.68 -12 7 C-13.98 7 -15.96 7 -18 7 C-18.33 6.34 -18.66 5.68 -19 5 C-11.57142857 4.71428571 -11.57142857 4.71428571 -8 7 C-7.34 6.34 -6.68 5.68 -6 5 C-5.67 5.99 -5.34 6.98 -5 8 C-4.01 8.33 -3.02 8.66 -2 9 C-1.34 6.03 -0.68 3.06 0 0 Z " fill="#943A20" transform="translate(93,13)"/>
<path d="M0 0 C0.33 0.66 0.66 1.32 1 2 C3.02463255 2.65213292 3.02463255 2.65213292 5 3 C5.33 4.65 5.66 6.3 6 8 C6.99 8 7.98 8 9 8 C9 8.99 9 9.98 9 11 C10.32 10.01 11.64 9.02 13 8 C12.67 9.98 12.34 11.96 12 14 C10.68 13.67 9.36 13.34 8 13 C8 12.01 8 11.02 8 10 C7.34 10 6.68 10 6 10 C5.67 11.32 5.34 12.64 5 14 C4.67 10.7 4.34 7.4 4 4 C3.34 4 2.68 4 2 4 C2 5.32 2 6.64 2 8 C1.34 8 0.68 8 0 8 C0 5.36 0 2.72 0 0 Z " fill="#EC8E28" transform="translate(43,77)"/>
<path d="M0 0 C0.92232422 0.00902344 1.84464844 0.01804687 2.79492188 0.02734375 C5.05105809 0.0507234 7.30663684 0.08349084 9.5625 0.125 C7.5625 2.125 7.5625 2.125 5.1640625 2.21484375 C4.18179688 2.16457031 3.19953125 2.11429688 2.1875 2.0625 C-4.39846524 1.9269535 -10.15606709 3.25393488 -16.4375 5.125 C-16.7675 4.135 -17.0975 3.145 -17.4375 2.125 C-11.51968663 0.06310069 -6.23331786 -0.11667838 0 0 Z " fill="#D56B23" transform="translate(31.4375,14.875)"/>
<path d="M0 0 C0 0.99 0 1.98 0 3 C-0.99 3.495 -0.99 3.495 -2 4 C-2.33 4.99 -2.66 5.98 -3 7 C-5.31 7 -7.62 7 -10 7 C-10.33 5.35 -10.66 3.7 -11 2 C-7.12315913 0.80712589 -4.08378077 0 0 0 Z " fill="#F8E4B6" transform="translate(69,52)"/>
<path d="M0 0 C2.94897721 2.74559948 5.26205705 5.34117274 7 9 C6.625 11.25 6.625 11.25 6 13 C6.33 13.33 6.66 13.66 7 14 C7.04063832 15.66617115 7.042721 17.33388095 7 19 C6.60361328 18.16275391 6.60361328 18.16275391 6.19921875 17.30859375 C4.4269778 13.8968856 2.26104234 10.74214144 0.14453125 7.53515625 C-1.21488347 4.52402944 -0.96050919 3.10361061 0 0 Z " fill="#964827" transform="translate(18,32)"/>
<path d="M0 0 C0.66 0 1.32 0 2 0 C1.54277504 5.30380952 0.99934142 9.44544451 -2 14 C-4.1875 14.875 -4.1875 14.875 -6 15 C-5.50929685 10.68181231 -4.70490209 8.35407859 -2 5 C-1.28837557 3.35202764 -0.60968047 1.68834592 0 0 Z " fill="#B3652F" transform="translate(86,24)"/>
<path d="M0 0 C-4.29 1.65 -8.58 3.3 -13 5 C-13 5.99 -13 6.98 -13 8 C-13.66 8.66 -14.32 9.32 -15 10 C-15.33 9.01 -15.66 8.02 -16 7 C-16.99 7 -17.98 7 -19 7 C-19 8.65 -19 10.3 -19 12 C-19.66 11.34 -20.32 10.68 -21 10 C-20.91796875 8.0390625 -20.91796875 8.0390625 -20 6 C-14.26503629 2.0902884 -6.84353859 -1.71088465 0 0 Z " fill="#8A4B2F" transform="translate(27,7)"/>
<path d="M0 0 C-0.61875 0.12375 -1.2375 0.2475 -1.875 0.375 C-4.19120832 0.87197356 -4.19120832 0.87197356 -6 3 C-6.99 2.34 -7.98 1.68 -9 1 C-11.22485741 0.72521627 -11.22485741 0.72521627 -13.66796875 0.8046875 C-14.56064453 0.81113281 -15.45332031 0.81757813 -16.37304688 0.82421875 C-17.30181641 0.84097656 -18.23058594 0.85773437 -19.1875 0.875 C-20.12787109 0.88402344 -21.06824219 0.89304687 -22.03710938 0.90234375 C-24.35832968 0.92590944 -26.67903644 0.95880884 -29 1 C-28.67 0.34 -28.34 -0.32 -28 -1 C-20.04812068 -2.37101368 -7.07167595 -4.5066348 0 0 Z " fill="#E38433" transform="translate(62,20)"/>
<path d="M0 0 C0.99 0 1.98 0 3 0 C3 0.99 3 1.98 3 3 C3.66 3.33 4.32 3.66 5 4 C4.34 4 3.68 4 3 4 C2.34 6.31 1.68 8.62 1 11 C0.34 10.34 -0.32 9.68 -1 9 C-2.32303717 8.6278958 -3.65737935 8.29369827 -5 8 C-5.66 7.67 -6.32 7.34 -7 7 C-7 5.68 -7 4.36 -7 3 C-6.34 3 -5.68 3 -5 3 C-4.67 3.99 -4.34 4.98 -4 6 C-3.01 6.33 -2.02 6.66 -1 7 C-0.67 4.69 -0.34 2.38 0 0 Z " fill="#A34D24" transform="translate(56,84)"/>
<path d="M0 0 C0.99 0.66 1.98 1.32 3 2 C2.67 2.99 2.34 3.98 2 5 C-1.3 5 -4.6 5 -8 5 C-8 3.68 -8 2.36 -8 1 C-5.22899606 -0.38550197 -3.0665294 -0.1877467 0 0 Z " fill="#F5DEB1" transform="translate(37,40)"/>
<path d="M0 0 C1.2065625 0.0309375 1.2065625 0.0309375 2.4375 0.0625 C1.1175 0.3925 -0.2025 0.7225 -1.5625 1.0625 C-1.5625 2.0525 -1.5625 3.0425 -1.5625 4.0625 C-0.9025 4.0625 -0.2425 4.0625 0.4375 4.0625 C0.355 4.743125 0.2725 5.42375 0.1875 6.125 C0.44337935 9.13158235 0.97365811 10.24281299 2.5 12.75 C3.139375 13.843125 3.77875 14.93625 4.4375 16.0625 C4.1075 16.7225 3.7775 17.3825 3.4375 18.0625 C3.045625 17.381875 2.65375 16.70125 2.25 16 C0.60208677 13.20546183 0.60208677 13.20546183 -0.91015625 11.34765625 C-4.58869348 6.66495008 -4.58869348 6.66495008 -4.4375 3.1875 C-3.1567029 0.07699275 -3.1567029 0.07699275 0 0 Z " fill="#E98827" transform="translate(20.5625,22.9375)"/>
<path d="M0 0 C2.49994766 0.58392938 4.98177372 1.25158818 7.4375 2 C8.67371094 2.37125 9.90992188 2.7425 11.18359375 3.125 C12.11300781 3.41375 13.04242188 3.7025 14 4 C13.67 4.99 13.34 5.98 13 7 C12.484375 6.690625 11.96875 6.38125 11.4375 6.0625 C8.34145494 4.7129419 5.33425247 4.44037297 2 4 C1.67 3.67 1.34 3.34 1 3 C-0.84891946 2.76636119 -2.70488031 2.58696365 -4.5625 2.4375 C-5.57441406 2.35371094 -6.58632812 2.26992188 -7.62890625 2.18359375 C-8.80259766 2.09271484 -8.80259766 2.09271484 -10 2 C-6.24722673 -0.50184885 -4.45966906 -0.29515907 0 0 Z " fill="#C7591C" transform="translate(72,14)"/>
<path d="M0 0 C0.66 0.66 1.32 1.32 2 2 C1.9375 5.375 1.9375 5.375 1 9 C-1.5625 11.4375 -1.5625 11.4375 -4 13 C-5.0625 11.125 -5.0625 11.125 -6 9 C-5.67 8.34 -5.34 7.68 -5 7 C-4.01 7 -3.02 7 -2 7 C-1.34 4.69 -0.68 2.38 0 0 Z " fill="#A8CBE4" transform="translate(77,54)"/>
<path d="M0 0 C0.66 0.33 1.32 0.66 2 1 C1.67 1.66 1.34 2.32 1 3 C2.258125 3.20625 3.51625 3.4125 4.8125 3.625 C5.52019531 3.74101563 6.22789063 3.85703125 6.95703125 3.9765625 C9.31755824 4.19577848 9.31755824 4.19577848 12 2 C10.25 5.875 10.25 5.875 8 7 C5.30986661 7.18704404 2.70313823 7.08581391 0 7 C-1 6 -1 6 -1.125 3.5 C-1 1 -1 1 0 0 Z " fill="#902916" transform="translate(53,44)"/>
<path d="M0 0 C1.21816406 0.03480469 1.21816406 0.03480469 2.4609375 0.0703125 C3.68683594 0.09738281 3.68683594 0.09738281 4.9375 0.125 C5.87722656 0.15980469 5.87722656 0.15980469 6.8359375 0.1953125 C6.8359375 0.8553125 6.8359375 1.5153125 6.8359375 2.1953125 C10.1359375 2.1953125 13.4359375 2.1953125 16.8359375 2.1953125 C16.8359375 2.5253125 16.8359375 2.8553125 16.8359375 3.1953125 C9.48847055 4.17397101 2.97795053 4.57598351 -4.1640625 2.1953125 C-2.1640625 0.1953125 -2.1640625 0.1953125 0 0 Z " fill="#C75B1D" transform="translate(45.1640625,11.8046875)"/>
<path d="M0 0 C0.33 0 0.66 0 1 0 C1.2475 0.969375 1.495 1.93875 1.75 2.9375 C2.1625 3.948125 2.575 4.95875 3 6 C5.03243548 6.96877057 5.03243548 6.96877057 7 7 C7.33 6.34 7.66 5.68 8 5 C8 5.66 8 6.32 8 7 C9.98 6.34 11.96 5.68 14 5 C13 8 13 8 11.3125 9.25 C8.17503524 10.26755614 6.15660086 9.87310237 3 9 C1.125 7.8125 1.125 7.8125 0 6 C-0.1875 2.8125 -0.1875 2.8125 0 0 Z " fill="#8B2C14" transform="translate(47,70)"/>
<path d="M0 0 C1.68359375 1.5234375 1.68359375 1.5234375 3 3 C2.06027344 2.98259766 2.06027344 2.98259766 1.1015625 2.96484375 C-0.12433594 2.95130859 -0.12433594 2.95130859 -1.375 2.9375 C-2.59316406 2.92009766 -2.59316406 2.92009766 -3.8359375 2.90234375 C-6.04937142 2.85533666 -6.04937142 2.85533666 -8 4 C-8 5.98 -8 7.96 -8 10 C-8.99 9.67 -9.98 9.34 -11 9 C-10.51780822 3.57534247 -10.51780822 3.57534247 -8.3125 1.125 C-5.30746287 -0.33690996 -3.30322178 -0.42168789 0 0 Z " fill="#A44229" transform="translate(73,26)"/>
<path d="M0 0 C0.99 0 1.98 0 3 0 C5.4294516 3.6441774 5.16179575 5.71241272 5 10 C4.34 10 3.68 10 3 10 C0.4606772 6.58168085 -0.3636198 4.24223102 0 0 Z " fill="#EA9D50" transform="translate(8,14)"/>
<path d="M0 0 C1.35158203 0.15275391 1.35158203 0.15275391 2.73046875 0.30859375 C3.41753906 0.39238281 4.10460937 0.47617188 4.8125 0.5625 C4.8125 1.5525 4.8125 2.5425 4.8125 3.5625 C0.5225 3.2325 -3.7675 2.9025 -8.1875 2.5625 C-8.1875 1.9025 -8.1875 1.2425 -8.1875 0.5625 C-4.98734144 -0.50421952 -3.30205706 -0.38595472 0 0 Z " fill="#DD7326" transform="translate(60.1875,11.4375)"/>
<path d="M0 0 C0.66 0.66 1.32 1.32 2 2 C6.05261287 2.34490322 7.54754176 2.30163882 11 0 C9.125 3.875 9.125 3.875 8 5 C6.48071962 5.07179964 4.95832518 5.08392007 3.4375 5.0625 C2.61121094 5.05347656 1.78492187 5.04445313 0.93359375 5.03515625 C0.29550781 5.02355469 -0.34257813 5.01195312 -1 5 C-1.66 3.68 -2.32 2.36 -3 1 C-2.01 1.33 -1.02 1.66 0 2 C0 1.34 0 0.68 0 0 Z " fill="#8C2612" transform="translate(66,34)"/>
<path d="M0 0 C-0.875 6.75 -0.875 6.75 -2 9 C-2.99 9 -3.98 9 -5 9 C-5.36666667 3.5 -5.36666667 3.5 -3.625 1.125 C-2 0 -2 0 0 0 Z " fill="#EDA152" transform="translate(93,13)"/>
<path d="M0 0 C0.66 0.33 1.32 0.66 2 1 C-0.64 2.98 -3.28 4.96 -6 7 C-6.33 6.34 -6.66 5.68 -7 5 C-7.66 5 -8.32 5 -9 5 C-9 4.01 -9 3.02 -9 2 C-6.94921875 1.77213542 -4.8984375 1.54427083 -2.84765625 1.31640625 C-0.98859771 1.18113386 -0.98859771 1.18113386 0 0 Z " fill="#F3AE36" transform="translate(28,22)"/>
<path d="M0 0 C0.33 0.99 0.66 1.98 1 3 C-0.58133449 6.16266898 -2.38114512 8.63055987 -5 11 C-4.50769231 4.6 -4.50769231 4.6 -1.9375 1.5625 C-0.9784375 0.7890625 -0.9784375 0.7890625 0 0 Z " fill="#B6D6EC" transform="translate(65,83)"/>
<path d="M0 0 C0.99 0.99 1.98 1.98 3 3 C2.690625 4.03125 2.38125 5.0625 2.0625 6.125 C1.12497188 9.38972557 0.49227298 12.63613462 0 16 C-0.33 16 -0.66 16 -1 16 C-1.02712153 14.083412 -1.04645097 12.1667127 -1.0625 10.25 C-1.07410156 9.18265625 -1.08570313 8.1153125 -1.09765625 7.015625 C-1.01510087 4.46631499 -0.74617558 2.42066409 0 0 Z " fill="#AC5D29" transform="translate(62,71)"/>
<path d="M0 0 C1.258125 -0.04125 2.51625 -0.0825 3.8125 -0.125 C4.52019531 -0.14820313 5.22789063 -0.17140625 5.95703125 -0.1953125 C8 0 8 0 11 2 C8.36 2 5.72 2 3 2 C3.33 2.66 3.66 3.32 4 4 C4.04022391 6.3329866 4.04320247 8.66706666 4 11 C3.67 11 3.34 11 3 11 C0.85714286 3.57142857 0.85714286 3.57142857 0 0 Z " fill="#E38C2E" transform="translate(28,44)"/>
<path d="M0 0 C0.66 0 1.32 0 2 0 C2.33692785 1.60341555 2.66941093 3.20776555 3 4.8125 C3.185625 5.70582031 3.37125 6.59914063 3.5625 7.51953125 C4 10 4 10 4 13 C1.4345406 10.4345406 1.45953913 8.52313332 1 5 C0.01 4.67 -0.98 4.34 -2 4 C-1.34 4 -0.68 4 0 4 C0 2.68 0 1.36 0 0 Z " fill="#9B4720" transform="translate(45,81)"/>
<path d="M0 0 C0.33 0.99 0.66 1.98 1 3 C2.258125 2.79375 3.51625 2.5875 4.8125 2.375 C8.4014758 1.78664331 8.75073878 1.83382585 12 4 C7.38926889 5.29676812 3.66159911 4.71109139 -1 4 C-1.33 3.01 -1.66 2.02 -2 1 C-1.34 0.67 -0.68 0.34 0 0 Z " fill="#E09E44" transform="translate(34,53)"/>
<path d="M0 0 C0.33 0.66 0.66 1.32 1 2 C0.22265625 3.9453125 0.22265625 3.9453125 -0.9375 6.125 C-1.31777344 6.84945312 -1.69804688 7.57390625 -2.08984375 8.3203125 C-2.39019531 8.87460937 -2.69054687 9.42890625 -3 10 C-3.99 9.34 -4.98 8.68 -6 8 C-5.67 7.01 -5.34 6.02 -5 5 C-4.34 5 -3.68 5 -3 5 C-2.87625 4.360625 -2.7525 3.72125 -2.625 3.0625 C-2.41875 2.381875 -2.2125 1.70125 -2 1 C-1.34 0.67 -0.68 0.34 0 0 Z " fill="#944D29" transform="translate(82,38)"/>
<path d="M0 0 C-4.22949995 2.41685712 -7.12335991 3.34833144 -12 3 C-10.10827237 0.58279247 -9.04144125 0.01036031 -6 -0.75 C-3 -1 -3 -1 0 0 Z " fill="#D47025" transform="translate(25,10)"/>
<path d="M0 0 C0.33 1.32 0.66 2.64 1 4 C-1.40545638 5.20272819 -2.94996953 5.10071472 -5.625 5.0625 C-6.85089844 5.04896484 -6.85089844 5.04896484 -8.1015625 5.03515625 C-9.04128906 5.01775391 -9.04128906 5.01775391 -10 5 C-10 4.01 -10 3.02 -10 2 C-7.525 2.99 -7.525 2.99 -5 4 C-5 3.34 -5 2.68 -5 2 C-3.35 2.33 -1.7 2.66 0 3 C0 2.01 0 1.02 0 0 Z " fill="#8E2814" transform="translate(49,59)"/>
<path d="M0 0 C0 0.99 0 1.98 0 3 C-2.75 3.6875 -2.75 3.6875 -6 4 C-8.375 2.5625 -8.375 2.5625 -10 1 C-6.56484998 0.37542727 -3.50935186 0 0 0 Z " fill="#E49B3A" transform="translate(65,50)"/>
<path d="M0 0 C0 0.66 0 1.32 0 2 C-0.66 2 -1.32 2 -2 2 C-2 2.99 -2 3.98 -2 5 C-3.32 5.33 -4.64 5.66 -6 6 C-6 4.35 -6 2.7 -6 1 C-3 0 -3 0 0 0 Z " fill="#B93D2B" transform="translate(30,26)"/>
<path d="M0 0 C0 0.33 0 0.66 0 1 C-2.31 1 -4.62 1 -7 1 C-7.33 1.66 -7.66 2.32 -8 3 C-8.99 2.34 -9.98 1.68 -11 1 C-11.33 1.99 -11.66 2.98 -12 4 C-12.33 2.68 -12.66 1.36 -13 0 C-8.38926889 -1.29676812 -4.66159911 -0.71109139 0 0 Z " fill="#D27220" transform="translate(46,64)"/>
<path d="M0 0 C0.33 0 0.66 0 1 0 C1.66 2.97 2.32 5.94 3 9 C2.01 9.33 1.02 9.66 0 10 C-0.38922918 8.71254964 -0.76098036 7.41980403 -1.125 6.125 C-1.43824219 5.04605469 -1.43824219 5.04605469 -1.7578125 3.9453125 C-1.83773438 3.30335937 -1.91765625 2.66140625 -2 2 C-1.34 1.34 -0.68 0.68 0 0 Z " fill="#C75E1A" transform="translate(25,42)"/>
<path d="M0 0 C3 0.375 3 0.375 6 3.375 C2.04 3.375 -1.92 3.375 -6 3.375 C-3 0.375 -3 0.375 0 0 Z " fill="#9F4524" transform="translate(31,23.625)"/>
<path d="M0 0 C0.33 0.66 0.66 1.32 1 2 C3.02463255 2.65213292 3.02463255 2.65213292 5 3 C4.67 3.99 4.34 4.98 4 6 C4 5.34 4 4.68 4 4 C3.34 4 2.68 4 2 4 C2 5.32 2 6.64 2 8 C1.34 8 0.68 8 0 8 C0 5.36 0 2.72 0 0 Z " fill="#E77B22" transform="translate(43,77)"/>
<path d="M0 0 C3.96 0 7.92 0 12 0 C12 0.33 12 0.66 12 1 C11.09507813 1.09087891 11.09507813 1.09087891 10.171875 1.18359375 C8.97304688 1.30927734 8.97304688 1.30927734 7.75 1.4375 C6.96109375 1.51871094 6.1721875 1.59992187 5.359375 1.68359375 C3.17635361 1.97634993 1.1226818 2.42064419 -1 3 C-0.67 2.01 -0.34 1.02 0 0 Z " fill="#C03419" transform="translate(31,18)"/>
<path d="M0 0 C3.125 0.375 3.125 0.375 6 1 C4.515 2.485 4.515 2.485 3 4 C0.525 3.01 0.525 3.01 -2 2 C-1.34 1.34 -0.68 0.68 0 0 Z " fill="#B3502E" transform="translate(57,42)"/>
<path d="M0 0 C0.8125 1.6875 0.8125 1.6875 1 4 C-1.4375 6.75 -1.4375 6.75 -4 9 C-2.94124926 5.59687262 -1.99097846 2.98646769 0 0 Z " fill="#F5B753" transform="translate(84,25)"/>
<path d="M0 0 C3.3 0.33 6.6 0.66 10 1 C10 1.33 10 1.66 10 2 C6.7 2.33 3.4 2.66 0 3 C0 2.01 0 1.02 0 0 Z " fill="#BE3818" transform="translate(49,16)"/>
<path d="M0 0 C0.66 0.66 1.32 1.32 2 2 C1.625 5.625 1.625 5.625 1 9 C-0.61949011 6.42786866 -1.04408751 5.32330841 -0.625 2.25 C-0.41875 1.5075 -0.2125 0.765 0 0 Z " fill="#B8D8EE" transform="translate(77,54)"/>
<path d="M0 0 C1.98 0.495 1.98 0.495 4 1 C2.625 3 2.625 3 1 5 C0.34 5 -0.32 5 -1 5 C-0.67 3.35 -0.34 1.7 0 0 Z " fill="#AF301E" transform="translate(61,44)"/>
</svg>
