<?xml version="1.0" encoding="UTF-8"?>
<svg version="1.1" xmlns="http://www.w3.org/2000/svg" width="100" height="100">
<path d="M0 0 C4.24385375 2.79708543 6.11818577 5.29014856 8 10 C8.41976985 13.19788955 8.41984313 16.34126828 8.375 19.5625 C8.38660156 20.39974609 8.39820312 21.23699219 8.41015625 22.09960938 C8.38747736 26.8735163 8.13618441 30.16125234 5 34 C0.99506584 37.56101375 -3.76073449 39.34980227 -8.8125 40.9375 C-18.63351835 44.03044304 -26.80216076 49.37096173 -35.17578125 55.265625 C-42.91221172 60.01662794 -51.24432618 59.7082446 -60 59 C-66.04627396 57.42814739 -69.43287143 53.97236104 -73 49 C-75.58220832 43.83558336 -74.8627961 35.64978864 -74 30 C-72.34826289 26.32888107 -70.23860198 24.33439376 -67 22 C-66.35546875 21.52175781 -65.7109375 21.04351562 -65.046875 20.55078125 C-58.4261764 16.20445933 -50.9974587 13.10494634 -43.8371582 9.76025391 C-37.82157251 6.93285894 -32.10662067 3.9100365 -26.47265625 0.375 C-18.00384461 -4.33435497 -8.46528082 -4.74055726 0 0 Z " fill="#A73633" transform="translate(83,19)"/>
<path d="M0 0 C3.91025991 0.57929776 6.16056336 2.3061755 9 5 C12.321953 10.19403682 12.45803923 14.59751555 12.375 20.5625 C12.38660156 21.39974609 12.39820312 22.23699219 12.41015625 23.09960938 C12.38747736 27.8735163 12.13618441 31.16125234 9 35 C4.99506584 38.56101375 0.23926551 40.34980227 -4.8125 41.9375 C-14.63351835 45.03044304 -22.80216076 50.37096173 -31.17578125 56.265625 C-38.91221172 61.01662794 -47.24432618 60.7082446 -56 60 C-62.04627396 58.42814739 -65.43287143 54.97236104 -69 50 C-71.55766254 44.88467492 -70.93312745 36.59740247 -70 31 C-67.60034352 26.33578835 -64.29089906 23.86059938 -60 21 C-59.01 21.33 -58.02 21.66 -57 22 C-57.63808594 22.48210938 -58.27617188 22.96421875 -58.93359375 23.4609375 C-59.75988281 24.09257813 -60.58617187 24.72421875 -61.4375 25.375 C-62.26121094 26.00148438 -63.08492187 26.62796875 -63.93359375 27.2734375 C-66.74865015 29.62552621 -66.94949642 30.5623023 -67.375 34.25 C-66.87558843 39.24411574 -65.55256956 40.52817066 -62 44 C-56.10234855 47.90070401 -46.87680754 46.70930417 -40.203125 45.48828125 C-33.13575826 43.238576 -27.12483099 39.03520855 -20.92163086 35.07666016 C-14.88188529 31.31029129 -9.07796033 28.97584023 -2.234375 27.09765625 C2.68897062 25.4268107 6.10522609 23.34216086 9 19 C9.66925124 15.30150632 9.86791419 11.57676841 8.01953125 8.21875 C6.57806602 6.42585482 6.57806602 6.42585482 4 4 C3.236875 3.21625 2.47375 2.4325 1.6875 1.625 C1.130625 1.08875 0.57375 0.5525 0 0 Z " fill="#752824" transform="translate(79,18)"/>
<path d="M0 0 C2.91615343 1.45807672 4.75573746 3.64886782 7 6 C7.763125 6.7425 8.52625 7.485 9.3125 8.25 C11.72878249 12.18764555 11.89069098 15.49882954 11 20 C7.2162796 26.46894133 1.49872312 28.74422146 -5.546875 30.7109375 C-13.84809534 33.07936477 -20.64777975 37.15730719 -27.88208008 41.75976562 C-35.0491685 46.2674926 -40.98580134 48.28703386 -49.5625 48.375 C-51.45162109 48.41753906 -51.45162109 48.41753906 -53.37890625 48.4609375 C-58.65770084 47.78898738 -61.63888192 45.32529918 -65.375 41.6875 C-67.53885888 38.10881032 -67.65071312 36.12118307 -67 32 C-64.22366818 27.79584039 -61.88258495 25.39502427 -57 24 C-57.6875 26.875 -57.6875 26.875 -59 30 C-60.65816784 30.68753301 -62.32459336 31.35561283 -64 32 C-64.79912616 34.45884972 -65 36.43090798 -65 39 C-62.03 39 -59.06 39 -56 39 C-56.33 40.32 -56.66 41.64 -57 43 C-54.35883155 45.64116845 -52.98734853 46.00103701 -49.1875 46.3125 C-45.20347249 46.17048026 -41.77103764 45.25701255 -38 44 C-38 43.01 -38 42.02 -38 41 C-37.18789063 41.10054687 -36.37578125 41.20109375 -35.5390625 41.3046875 C-30.63354478 40.88235816 -27.4809797 38.71262262 -23.375 36.125 C-21.88336863 35.21003024 -20.39119874 34.29593773 -18.8984375 33.3828125 C-17.91883057 32.77010498 -17.91883057 32.77010498 -16.91943359 32.14501953 C-13.00575067 29.81034987 -9.5984056 28.61519098 -5.125 27.6875 C0.23410023 26.39843682 3.2616705 25.0414373 7 21 C7.495 19.515 7.495 19.515 8 18 C4.86599494 17.92538083 2.02795938 17.9948646 -1.0625 18.5625 C-4.06723769 19.01001412 -6.07060292 18.65097713 -9 18 C-9.99 18.495 -9.99 18.495 -11 19 C-13.6723621 19.13415472 -16.32250488 19.04318541 -19 19 C-19 17.35 -19 15.7 -19 14 C-18.401875 13.79375 -17.80375 13.5875 -17.1875 13.375 C-14.1616573 11.47304173 -13.35291498 9.24699596 -12 6 C-12 5.34 -12 4.68 -12 4 C-14.31 4 -16.62 4 -19 4 C-16.19521487 1.19521487 -14.11456528 1.03891639 -10.203125 0.90234375 C-9.22859375 0.91394531 -8.2540625 0.92554687 -7.25 0.9375 C-6.26515625 0.94652344 -5.2803125 0.95554687 -4.265625 0.96484375 C-3.14414063 0.98224609 -3.14414063 0.98224609 -2 1 C-2 1.33 -2 1.66 -2 2 C-4.64 2.66 -7.28 3.32 -10 4 C-9.505 5.485 -9.505 5.485 -9 7 C-8.67 6.67 -8.34 6.34 -8 6 C-4.47362528 5.84327223 -1.38094149 5.95971031 2 7 C1.505 6.1028125 1.505 6.1028125 1 5.1875 C0 3 0 3 0 0 Z " fill="#A13430" transform="translate(78,17)"/>
<path d="M0 0 C0.66 0.33 1.32 0.66 2 1 C1.34 1.99 0.68 2.98 0 4 C2.64 4.33 5.28 4.66 8 5 C8.95494006 9.16701116 8.95494006 9.16701116 8 12 C3.82841047 16.1863824 -1.19969052 20.13755831 -7.1875 21 C-8.115625 21 -9.04375 21 -10 21 C-10.103125 21.598125 -10.20625 22.19625 -10.3125 22.8125 C-11.14489837 25.46104026 -11.67954185 26.4530279 -14 28 C-17.4375 28.125 -17.4375 28.125 -21 28 C-23.31036915 28.42854995 -23.31036915 28.42854995 -25 29 C-24.34 27.35 -23.68 25.7 -23 24 C-23.99 24.33 -24.98 24.66 -26 25 C-28.26171875 24.66015625 -28.26171875 24.66015625 -30.6875 24.0625 C-31.49574219 23.86785156 -32.30398437 23.67320313 -33.13671875 23.47265625 C-33.75160156 23.31667969 -34.36648437 23.16070312 -35 23 C-33.68 22.67 -32.36 22.34 -31 22 C-30.855625 21.2575 -30.71125 20.515 -30.5625 19.75 C-30.2840625 18.38875 -30.2840625 18.38875 -30 17 C-29.89945313 16.32839844 -29.79890625 15.65679687 -29.6953125 14.96484375 C-29 13 -29 13 -27.36328125 11.76953125 C-26.34814453 11.29580078 -26.34814453 11.29580078 -25.3125 10.8125 C-24.64863281 10.48894531 -23.98476563 10.16539063 -23.30078125 9.83203125 C-21 9 -21 9 -18.21484375 8.64453125 C-14.05183495 7.80990616 -10.90214676 5.97731631 -7.25 3.875 C-4.85534448 2.50071593 -2.47812317 1.22720454 0 0 Z " fill="#A03834" transform="translate(50,25)"/>
<path d="M0 0 C0.97066406 -0.00257812 1.94132812 -0.00515625 2.94140625 -0.0078125 C5.4375 0.125 5.4375 0.125 7.4375 1.125 C8.10416667 3.125 8.77083333 5.125 9.4375 7.125 C10.0975 7.455 10.7575 7.785 11.4375 8.125 C7.6875 9.25 7.6875 9.25 5.4375 8.125 C3.43795254 8.08245644 1.43708364 8.08419217 -0.5625 8.125 C-1.5525 8.125 -2.5425 8.125 -3.5625 8.125 C-2.5625 5.125 -2.5625 5.125 0.4375 3.125 C-4.0175 3.62 -4.0175 3.62 -8.5625 4.125 C-6.0875 4.62 -6.0875 4.62 -3.5625 5.125 C-4.21311095 6.79799959 -4.88283324 8.46359237 -5.5625 10.125 C-5.995625 11.23875 -5.995625 11.23875 -6.4375 12.375 C-7.5625 14.125 -7.5625 14.125 -9.6875 14.875 C-10.615625 14.99875 -10.615625 14.99875 -11.5625 15.125 C-11.5625 16.775 -11.5625 18.425 -11.5625 20.125 C-8.2625 19.795 -4.9625 19.465 -1.5625 19.125 C-1.8925 19.785 -2.2225 20.445 -2.5625 21.125 C-4.18713842 21.17895478 -5.81228541 21.21777195 -7.4375 21.25 C-8.79488281 21.28480469 -8.79488281 21.28480469 -10.1796875 21.3203125 C-12.5625 21.125 -12.5625 21.125 -14.5625 19.125 C-13.9025 19.125 -13.2425 19.125 -12.5625 19.125 C-12.5625 18.135 -12.5625 17.145 -12.5625 16.125 C-13.67625 16.186875 -14.79 16.24875 -15.9375 16.3125 C-17.13375 16.250625 -18.33 16.18875 -19.5625 16.125 C-20.2225 15.135 -20.8825 14.145 -21.5625 13.125 C-21.2325 12.135 -20.9025 11.145 -20.5625 10.125 C-21.06177002 10.40287354 -21.56104004 10.68074707 -22.07543945 10.96704102 C-24.33632371 12.21771499 -26.60540555 13.45270852 -28.875 14.6875 C-29.66068359 15.12513672 -30.44636719 15.56277344 -31.25585938 16.01367188 C-32.01318359 16.42294922 -32.77050781 16.83222656 -33.55078125 17.25390625 C-34.24727783 17.63619385 -34.94377441 18.01848145 -35.66137695 18.41235352 C-37.5625 19.125 -37.5625 19.125 -40.5625 18.125 C-37.10582085 16.22613938 -33.64685287 14.3314846 -30.1875 12.4375 C-29.22199219 11.90705078 -28.25648437 11.37660156 -27.26171875 10.83007812 C-7.4257896 -0.01977574 -7.4257896 -0.01977574 0 0 Z " fill="#823532" transform="translate(70.5625,15.875)"/>
<path d="M0 0 C0.66 0.33 1.32 0.66 2 1 C1.175 1.721875 0.35 2.44375 -0.5 3.1875 C-3.24407806 5.72917366 -3.24407806 5.72917366 -3.3125 8.8125 C-3.209375 9.534375 -3.10625 10.25625 -3 11 C-3.66 11 -4.32 11 -5 11 C-4.67 12.65 -4.34 14.3 -4 16 C-8.96687304 17.98674922 -12.7250905 18.50237233 -18 18 C-21 16.1875 -21 16.1875 -23 14 C-23 13.01 -23 12.02 -23 11 C-25.31 10.67 -27.62 10.34 -30 10 C-30.625 7.125 -30.625 7.125 -31 4 C-30.34 3.34 -29.68 2.68 -29 2 C-25.9609375 2.0234375 -25.9609375 2.0234375 -22.375 2.375 C-21.18648437 2.48585937 -19.99796875 2.59671875 -18.7734375 2.7109375 C-17.85820312 2.80632813 -16.94296875 2.90171875 -16 3 C-16.33 4.32 -16.66 5.64 -17 7 C-16.01 6.67 -15.02 6.34 -14 6 C-12.865625 6.0825 -11.73125 6.165 -10.5625 6.25 C-6.85220661 6.39865986 -6.85220661 6.39865986 -4.75 3.5625 C-4.1725 2.716875 -3.595 1.87125 -3 1 C-2.01 0.67 -1.02 0.34 0 0 Z " fill="#A13431" transform="translate(43,46)"/>
<path d="M0 0 C2.91615343 1.45807672 4.75573746 3.64886782 7 6 C7.763125 6.7425 8.52625 7.485 9.3125 8.25 C11.72878249 12.18764555 11.89069098 15.49882954 11 20 C7.2162796 26.46894133 1.49872312 28.74422146 -5.546875 30.7109375 C-13.84809534 33.07936477 -20.64777975 37.15730719 -27.88208008 41.75976562 C-35.0491685 46.2674926 -40.98580134 48.28703386 -49.5625 48.375 C-51.45162109 48.41753906 -51.45162109 48.41753906 -53.37890625 48.4609375 C-58.65770084 47.78898738 -61.63888192 45.32529918 -65.375 41.6875 C-67.53885888 38.10881032 -67.65071312 36.12118307 -67 32 C-64.22366818 27.79584039 -61.88258495 25.39502427 -57 24 C-57.6875 26.875 -57.6875 26.875 -59 30 C-60.65816784 30.68753301 -62.32459336 31.35561283 -64 32 C-64.79912616 34.45884972 -65 36.43090798 -65 39 C-62.03 39 -59.06 39 -56 39 C-56.33 40.32 -56.66 41.64 -57 43 C-54.35883155 45.64116845 -52.98734853 46.00103701 -49.1875 46.3125 C-45.20347249 46.17048026 -41.77103764 45.25701255 -38 44 C-38 43.01 -38 42.02 -38 41 C-37.18789063 41.10054687 -36.37578125 41.20109375 -35.5390625 41.3046875 C-30.63354478 40.88235816 -27.4809797 38.71262262 -23.375 36.125 C-21.88336863 35.21003024 -20.39119874 34.29593773 -18.8984375 33.3828125 C-17.91883057 32.77010498 -17.91883057 32.77010498 -16.91943359 32.14501953 C-13.00575067 29.81034987 -9.5984056 28.61519098 -5.125 27.6875 C0.23410023 26.39843682 3.2616705 25.0414373 7 21 C7.495 19.515 7.495 19.515 8 18 C6.35 18 4.7 18 3 18 C3.639375 17.773125 4.27875 17.54625 4.9375 17.3125 C7.20423043 16.14493773 7.20423043 16.14493773 8 13.625 C8.27704153 10.89446037 8.27704153 10.89446037 6.3125 8.9375 C5.549375 8.298125 4.78625 7.65875 4 7 C1.75 4.9375 1.75 4.9375 0 3 C0 2.01 0 1.02 0 0 Z " fill="#E29085" transform="translate(78,17)"/>
<path d="M0 0 C-1 2 -1 2 -3.08203125 2.82421875 C-3.98308594 3.10910156 -4.88414063 3.39398438 -5.8125 3.6875 C-14.97414987 6.88397706 -23.0102979 12.1152132 -30.8671875 17.73828125 C-36.0885719 20.82712221 -41.10594637 21.3167401 -47.0625 21.25 C-47.75666016 21.25773437 -48.45082031 21.26546875 -49.16601562 21.2734375 C-53.21850071 21.25804344 -56.35489452 20.79057813 -60 19 C-60 18.34 -60 17.68 -60 17 C-59.1646875 17.2165625 -59.1646875 17.2165625 -58.3125 17.4375 C-48.88137048 19.73155853 -42.11092595 19.13654828 -33 16 C-32.835 14.72125 -32.67 13.4425 -32.5 12.125 C-32.36078125 11.04605469 -32.36078125 11.04605469 -32.21875 9.9453125 C-31.9627515 7.99501656 -31.9627515 7.99501656 -32 6 C-33.65 6.33 -35.3 6.66 -37 7 C-34.61426621 5.10786631 -32.92824652 3.97608217 -30 3 C-30 6.63 -30 10.26 -30 14 C-29.03320312 13.32453125 -28.06640625 12.6490625 -27.0703125 11.953125 C-9.20757713 -0.35538017 -9.20757713 -0.35538017 0 0 Z " fill="#57221F" transform="translate(78,57)"/>
<path d="M0 0 C0.99 0.33 1.98 0.66 3 1 C2.36191406 1.48210938 1.72382813 1.96421875 1.06640625 2.4609375 C0.24011719 3.09257813 -0.58617187 3.72421875 -1.4375 4.375 C-2.26121094 5.00148438 -3.08492187 5.62796875 -3.93359375 6.2734375 C-6.74865015 8.62552621 -6.94949642 9.5623023 -7.375 13.25 C-6.92229454 17.77705464 -5.4137864 20.15661841 -2 23 C3.21035056 25.90577243 8.15153265 26.61540691 14 27 C14 27.33 14 27.66 14 28 C8.66666667 28 3.33333333 28 -2 28 C-3.03013277 26.35178756 -4.03114628 24.68496298 -5 23 C-5.66 23 -6.32 23 -7 23 C-6.54663921 27.87362847 -5.2910841 30.39042389 -2 34 C-3.75 33.875 -3.75 33.875 -6 33 C-9.9478962 28.23605821 -10.74223357 24.58700246 -10.6875 18.625 C-10.68532471 17.87275146 -10.68314941 17.12050293 -10.6809082 16.34545898 C-10.4995739 11.66886253 -9.8550518 8.70652675 -6.6875 5.0625 C-4.55625681 3.10104138 -2.42080125 1.6138675 0 0 Z " fill="#542725" transform="translate(19,39)"/>
<path d="M0 0 C3.91025991 0.57929776 6.16056336 2.3061755 9 5 C12.33554724 10.20729318 12.45783208 14.6426829 12.375 20.625 C12.38660156 21.470625 12.39820312 22.31625 12.41015625 23.1875 C12.38098049 29.35331004 12.38098049 29.35331004 10.4765625 32.5859375 C9.98929688 33.05257812 9.50203125 33.51921875 9 34 C8.34 33.67 7.68 33.34 7 33 C7.66 32.01 8.32 31.02 9 30 C9.16699232 26.87478167 9.16699232 26.87478167 9 24 C8.34 24.66 7.68 25.32 7 26 C0.52941176 29.17647059 0.52941176 29.17647059 -3 28 C-2.38511719 27.68546875 -1.77023438 27.3709375 -1.13671875 27.046875 C-0.32847656 26.61890625 0.47976562 26.1909375 1.3125 25.75 C2.11300781 25.33234375 2.91351563 24.9146875 3.73828125 24.484375 C6.85533486 22.43864034 8.6629362 20.54487575 9.46875 16.8515625 C9.52629986 12.7511352 9.42414831 9.93114285 6.75 6.6875 C5.8425 5.800625 4.935 4.91375 4 4 C3.236875 3.21625 2.47375 2.4325 1.6875 1.625 C1.130625 1.08875 0.57375 0.5525 0 0 Z " fill="#541E1B" transform="translate(79,18)"/>
<path d="M0 0 C2.91615343 1.45807672 4.75573746 3.64886782 7 6 C7.763125 6.7425 8.52625 7.485 9.3125 8.25 C11.72878249 12.18764555 11.89069098 15.49882954 11 20 C7.67130203 25.69099975 3.17001758 27.93928686 -3 30 C-3.66 30 -4.32 30 -5 30 C-5 29.34 -5 28.68 -5 28 C-4.38511719 27.74605469 -3.77023438 27.49210937 -3.13671875 27.23046875 C-2.32847656 26.88628906 -1.52023438 26.54210937 -0.6875 26.1875 C0.11300781 25.85105469 0.91351563 25.51460937 1.73828125 25.16796875 C5.32947176 23.31345068 6.71685735 21.84942795 8 18 C6.35 18 4.7 18 3 18 C3.639375 17.773125 4.27875 17.54625 4.9375 17.3125 C7.20423043 16.14493773 7.20423043 16.14493773 8 13.625 C8.27704153 10.89446037 8.27704153 10.89446037 6.3125 8.9375 C5.549375 8.298125 4.78625 7.65875 4 7 C1.75 4.9375 1.75 4.9375 0 3 C0 2.01 0 1.02 0 0 Z " fill="#DA8B80" transform="translate(78,17)"/>
<path d="M0 0 C0.33 0.66 0.66 1.32 1 2 C0.67 2.66 0.34 3.32 0 4 C1.65 4 3.3 4 5 4 C5.33 5.65 5.66 7.3 6 9 C2.09971775 11.60018816 -1.47434569 11.15085514 -6 11 C-6 9.35 -6 7.7 -6 6 C-5.38125 5.7525 -4.7625 5.505 -4.125 5.25 C-1.64931313 3.79371361 -1.04874998 2.62187494 0 0 Z " fill="#B97168" transform="translate(65,25)"/>
<path d="M0 0 C-1 2 -1 2 -3.08203125 2.82421875 C-3.98308594 3.10910156 -4.88414063 3.39398438 -5.8125 3.6875 C-12.40388615 5.9760567 -18.07130112 9.37035623 -24 13 C-25.41307776 13.8187258 -26.82906219 14.63249289 -28.25 15.4375 C-29.61125 16.2109375 -29.61125 16.2109375 -31 17 C-29.60282975 12.80848926 -26.61160516 11.3780277 -23.0625 9.0625 C-22.04567139 8.39371826 -22.04567139 8.39371826 -21.00830078 7.71142578 C-14.38619463 3.4511047 -8.06945264 -0.31145256 0 0 Z " fill="#4F1D1B" transform="translate(78,57)"/>
<path d="M0 0 C0 0.99 0 1.98 0 3 C3.40431947 5.26954631 5.16524202 5.36549949 9.1875 5.625 C10.27417969 5.69976562 11.36085938 5.77453125 12.48046875 5.8515625 C13.72763672 5.92503906 13.72763672 5.92503906 15 6 C14.67 6.66 14.34 7.32 14 8 C9.87141671 9.25108584 5.27360677 9.66344299 1 9 C-2 7 -2 7 -4 5 C-2.25 1.125 -2.25 1.125 0 0 Z " fill="#8C2D2A" transform="translate(24,55)"/>
<path d="M0 0 C0.28875 0.804375 0.5775 1.60875 0.875 2.4375 C1.73262568 5.1326468 1.73262568 5.1326468 4 6 C0.25 7.125 0.25 7.125 -2 6 C-3.99954746 5.95745644 -6.00041636 5.95919217 -8 6 C-8.99 6 -9.98 6 -11 6 C-10 3 -10 3 -7 1 C-4.605208 0.41590439 -2.46475374 0 0 0 Z " fill="#982F2D" transform="translate(78,18)"/>
<path d="M0 0 C0.66 0.7425 1.32 1.485 2 2.25 C7.71763658 7.90339347 14.1288291 9.63559394 22 10 C22 10.33 22 10.66 22 11 C16.66666667 11 11.33333333 11 6 11 C4.96986723 9.35178756 3.96885372 7.68496298 3 6 C2.34 6 1.68 6 1 6 C0.34 6.99 -0.32 7.98 -1 9 C-1.09765625 2.84765625 -1.09765625 2.84765625 -1 1 C-0.67 0.67 -0.34 0.34 0 0 Z " fill="#591C19" transform="translate(11,56)"/>
<path d="M0 0 C-1.15173355 2.46800047 -2.04783565 4.04783565 -4 6 C-6.33293334 6.04320247 -8.6670134 6.04022391 -11 6 C-13.31036915 6.42854995 -13.31036915 6.42854995 -15 7 C-13.66666667 5.66666667 -12.33333333 4.33333333 -11 3 C-10.5875 2.4225 -10.175 1.845 -9.75 1.25 C-6.77047853 -0.87822962 -3.57273492 -0.17570827 0 0 Z " fill="#C0796F" transform="translate(40,47)"/>
<path d="M0 0 C3.91025991 0.57929776 6.16056336 2.3061755 9 5 C12.18452849 9.8316984 12.28951652 13.40268068 12 19 C11.01 19 10.02 19 9 19 C9.05800781 18.41992188 9.11601563 17.83984375 9.17578125 17.2421875 C9.41944223 13.02337161 9.5556175 10.02506944 6.75 6.6875 C5.8425 5.800625 4.935 4.91375 4 4 C3.236875 3.21625 2.47375 2.4325 1.6875 1.625 C1.130625 1.08875 0.57375 0.5525 0 0 Z " fill="#683F3C" transform="translate(79,18)"/>
<path d="M0 0 C0.66 0.33 1.32 0.66 2 1 C1.3125 3.375 1.3125 3.375 0 6 C-1.2684375 6.495 -1.2684375 6.495 -2.5625 7 C-3.7690625 7.495 -3.7690625 7.495 -5 8 C-5.79912616 10.45884972 -6 12.43090798 -6 15 C-4.35 15 -2.7 15 -1 15 C-1.639375 15.12375 -2.27875 15.2475 -2.9375 15.375 C-3.618125 15.58125 -4.29875 15.7875 -5 16 C-5.33 16.66 -5.66 17.32 -6 18 C-8.51250583 14.23124125 -8.53016086 12.46849866 -8 8 C-5.96011357 4.54788451 -3.33388005 2.2225867 0 0 Z " fill="#D9887D" transform="translate(19,41)"/>
<path d="M0 0 C2.05078125 0.03255208 4.1015625 0.06510417 6.15234375 0.09765625 C3.92284679 2.32715321 2.33785496 2.89630214 -0.59765625 3.97265625 C-4.81720941 5.59462322 -8.16219454 7.51783305 -11.84765625 10.09765625 C-12.50765625 10.09765625 -13.16765625 10.09765625 -13.84765625 10.09765625 C-12.57850155 6.29019215 -11.27614876 5.91092332 -7.84765625 3.97265625 C-0.98140609 0.05187136 -0.98140609 0.05187136 0 0 Z " fill="#E2998E" transform="translate(66.84765625,45.90234375)"/>
<path d="M0 0 C0.66 0.33 1.32 0.66 2 1 C1.01 2.32 0.02 3.64 -1 5 C-0.34 5.33 0.32 5.66 1 6 C0.07316406 6.12117188 -0.85367188 6.24234375 -1.80859375 6.3671875 C-3.00613281 6.53476562 -4.20367187 6.70234375 -5.4375 6.875 C-7.22994141 7.11863281 -7.22994141 7.11863281 -9.05859375 7.3671875 C-10.51458984 7.68042969 -10.51458984 7.68042969 -12 8 C-12.33 8.66 -12.66 9.32 -13 10 C-13.66 9.34 -14.32 8.68 -15 8 C-12.54665445 6.63603538 -10.08808766 5.28365831 -7.625 3.9375 C-6.92632812 3.54755859 -6.22765625 3.15761719 -5.5078125 2.75585938 C-3.70389816 1.77584822 -1.85416518 0.88124929 0 0 Z " fill="#D5857A" transform="translate(48,26)"/>
<path d="M0 0 C0.98484375 0.00902344 1.9696875 0.01804687 2.984375 0.02734375 C4.10585937 0.04474609 4.10585937 0.04474609 5.25 0.0625 C5.25 0.3925 5.25 0.7225 5.25 1.0625 C4.68410156 1.18367188 4.11820313 1.30484375 3.53515625 1.4296875 C2.43494141 1.68105469 2.43494141 1.68105469 1.3125 1.9375 C0.58160156 2.09992187 -0.14929688 2.26234375 -0.90234375 2.4296875 C-2.95700294 2.89211523 -2.95700294 2.89211523 -3.75 5.0625 C-4.08 4.4025 -4.41 3.7425 -4.75 3.0625 C-7.06 3.0625 -9.37 3.0625 -11.75 3.0625 C-8.30305607 -0.38444393 -4.70567242 -0.05601991 0 0 Z " fill="#DE8D82" transform="translate(70.75,17.9375)"/>
<path d="M0 0 C0.99 0.33 1.98 0.66 3 1 C-1.6424695 5.40439414 -5.85038239 7.31910452 -12 9 C-12 8.34 -12 7.68 -12 7 C-11.38511719 6.74605469 -10.77023438 6.49210937 -10.13671875 6.23046875 C-9.32847656 5.88628906 -8.52023438 5.54210938 -7.6875 5.1875 C-6.88699219 4.85105469 -6.08648437 4.51460937 -5.26171875 4.16796875 C-3.03484255 3.01799296 -1.65012233 1.86373039 0 0 Z " fill="#D48379" transform="translate(85,38)"/>
<path d="M0 0 C-0.33 0.99 -0.66 1.98 -1 3 C-2.98 3.33 -4.96 3.66 -7 4 C-7 3.01 -7 2.02 -7 1 C-3.375 -1.125 -3.375 -1.125 0 0 Z " fill="#F4AEA0" transform="translate(69,31)"/>
<path d="M0 0 C0.66 0.33 1.32 0.66 2 1 C1.21625 1.7425 0.4325 2.485 -0.375 3.25 C-2.56504531 5.54433318 -3.82731386 7.12158858 -5 10 C-5.6875 7.75 -5.6875 7.75 -6 5 C-4.26635169 1.87943304 -3.44004627 1.14668209 0 0 Z " fill="#94302D" transform="translate(43,46)"/>
<path d="M0 0 C-1.28650706 0.69710731 -2.57940665 1.38242876 -3.875 2.0625 C-4.95394531 2.63677734 -4.95394531 2.63677734 -6.0546875 3.22265625 C-6.69664063 3.47917969 -7.33859375 3.73570313 -8 4 C-8.66 3.67 -9.32 3.34 -10 3 C-9 0 -9 0 -6.6875 -1.3125 C-3.48890624 -2.13074492 -2.76560811 -1.57445067 0 0 Z " fill="#A96F68" transform="translate(33,36)"/>
<path d="M0 0 C1.2065625 0.0309375 1.2065625 0.0309375 2.4375 0.0625 C2.4375 1.0525 2.4375 2.0425 2.4375 3.0625 C0.4575 3.3925 -1.5225 3.7225 -3.5625 4.0625 C-3.5625 0.08689024 -3.5625 0.08689024 0 0 Z " fill="#ECAA9C" transform="translate(34.5625,46.9375)"/>
<path d="M0 0 C0.33 0.99 0.66 1.98 1 3 C-2.32534757 4.10844919 -4.62182575 3.84454356 -8 3 C-7.67 2.34 -7.34 1.68 -7 1 C-4.61370553 0.38812962 -2.46459429 0 0 0 Z " fill="#933A35" transform="translate(78,18)"/>
<path d="M0 0 C1.65 1.65 3.3 3.3 5 5 C4.38125 5.103125 3.7625 5.20625 3.125 5.3125 C0.63473516 5.87525373 0.63473516 5.87525373 -1 9 C-1.09765625 2.84765625 -1.09765625 2.84765625 -1 1 C-0.67 0.67 -0.34 0.34 0 0 Z " fill="#61221E" transform="translate(11,56)"/>
<path d="M0 0 C0.66 0.99 1.32 1.98 2 3 C2.99387334 4.33790641 3.9926892 5.67218122 5 7 C3.35 7 1.7 7 0 7 C-0.38133299 5.0085944 -0.71325582 3.00720923 -1 1 C-0.67 0.67 -0.34 0.34 0 0 Z " fill="#882D2A" transform="translate(13,49)"/>
</svg>
